G04 #@! TF.GenerationSoftware,KiCad,Pcbnew,5.1.1-8be2ce7~80~ubuntu18.04.1*
G04 #@! TF.CreationDate,2019-04-17T04:14:47-07:00*
G04 #@! TF.ProjectId,555_timer,3535355f-7469-46d6-9572-2e6b69636164,v01*
G04 #@! TF.SameCoordinates,Original*
G04 #@! TF.FileFunction,Copper,L1,Top*
G04 #@! TF.FilePolarity,Positive*
%FSLAX46Y46*%
G04 Gerber Fmt 4.6, Leading zero omitted, Abs format (unit mm)*
G04 Created by KiCad (PCBNEW 5.1.1-8be2ce7~80~ubuntu18.04.1) date 2019-04-17 04:14:47*
%MOMM*%
%LPD*%
G04 APERTURE LIST*
%ADD10C,1.800000*%
%ADD11R,1.800000X1.800000*%
%ADD12R,2.170000X2.170000*%
%ADD13C,2.500000*%
%ADD14R,1.600000X1.600000*%
%ADD15C,1.600000*%
%ADD16O,1.500000X1.050000*%
%ADD17R,1.500000X1.050000*%
%ADD18O,1.600000X1.600000*%
%ADD19R,1.900000X1.900000*%
%ADD20C,1.900000*%
%ADD21C,1.524000*%
%ADD22C,0.762000*%
%ADD23C,0.254000*%
G04 APERTURE END LIST*
D10*
X157480000Y-63500000D03*
D11*
X160020000Y-63500000D03*
D12*
X149225000Y-114935000D03*
D13*
X129225000Y-114935000D03*
D14*
X167640000Y-117094000D03*
D15*
X169640000Y-117094000D03*
D14*
X178054000Y-121158000D03*
D15*
X175554000Y-121158000D03*
D11*
X143510000Y-63500000D03*
D10*
X146050000Y-63500000D03*
D16*
X168910000Y-110490000D03*
X168910000Y-109220000D03*
D17*
X168910000Y-111760000D03*
D18*
X151892000Y-94488000D03*
D15*
X151892000Y-102108000D03*
X156337000Y-101981000D03*
D18*
X156337000Y-94361000D03*
D15*
X161417000Y-101981000D03*
D18*
X161417000Y-94361000D03*
D15*
X166497000Y-101981000D03*
D18*
X166497000Y-94361000D03*
X162814000Y-105918000D03*
D15*
X170434000Y-105918000D03*
X170942000Y-102108000D03*
D18*
X170942000Y-94488000D03*
X175260000Y-94488000D03*
D15*
X175260000Y-102108000D03*
D19*
X164465000Y-123825000D03*
D20*
X161965000Y-123825000D03*
X159465000Y-123825000D03*
D21*
X155702000Y-119126000D03*
X158242000Y-119126000D03*
X160782000Y-119126000D03*
X163322000Y-119126000D03*
X163322000Y-111506000D03*
X160782000Y-111506000D03*
X158242000Y-111506000D03*
X155702000Y-111506000D03*
D22*
X159465000Y-123825000D02*
X131699000Y-123825000D01*
X129225000Y-121351000D02*
X129225000Y-114935000D01*
X131699000Y-123825000D02*
X129225000Y-121351000D01*
D23*
X166370000Y-117094000D02*
X167640000Y-117094000D01*
X160782000Y-111506000D02*
X166370000Y-117094000D01*
X158242000Y-119126000D02*
X158242000Y-115316000D01*
X160782000Y-112776000D02*
X160782000Y-111506000D01*
X158242000Y-115316000D02*
X160782000Y-112776000D01*
X156337000Y-95492370D02*
X159258000Y-98413370D01*
X156337000Y-94361000D02*
X156337000Y-95492370D01*
X159258000Y-98413370D02*
X159258000Y-107442000D01*
X160782000Y-108966000D02*
X160782000Y-111506000D01*
X159258000Y-107442000D02*
X160782000Y-108966000D01*
X170771370Y-117094000D02*
X172041370Y-118364000D01*
X169640000Y-117094000D02*
X170771370Y-117094000D01*
X172041370Y-118364000D02*
X174244000Y-118364000D01*
X175554000Y-119674000D02*
X175554000Y-121158000D01*
X174244000Y-118364000D02*
X175554000Y-119674000D01*
X167906000Y-109220000D02*
X167132000Y-109994000D01*
X168910000Y-109220000D02*
X167906000Y-109220000D01*
X167132000Y-109994000D02*
X167132000Y-113030000D01*
X169640000Y-115538000D02*
X169640000Y-117094000D01*
X167132000Y-113030000D02*
X169640000Y-115538000D01*
X176276000Y-100076000D02*
X178054000Y-101854000D01*
X170688000Y-100076000D02*
X176276000Y-100076000D01*
X178054000Y-101854000D02*
X178054000Y-121158000D01*
X166497000Y-95885000D02*
X170688000Y-100076000D01*
X166497000Y-94361000D02*
X166497000Y-95885000D01*
X160020000Y-62346000D02*
X158380000Y-60706000D01*
X160020000Y-63500000D02*
X160020000Y-62346000D01*
X143510000Y-62346000D02*
X143510000Y-63500000D01*
X145150000Y-60706000D02*
X143510000Y-62346000D01*
X158380000Y-60706000D02*
X145150000Y-60706000D01*
X172466000Y-104902000D02*
X172466000Y-108429000D01*
X172466000Y-108429000D02*
X169135000Y-111760000D01*
X143510000Y-78121962D02*
X156392019Y-91003981D01*
X160020000Y-97536000D02*
X165354000Y-97536000D01*
X169135000Y-111760000D02*
X168910000Y-111760000D01*
X156392019Y-92130019D02*
X159004000Y-94742000D01*
X156392019Y-91003981D02*
X156392019Y-92130019D01*
X171704000Y-104140000D02*
X172466000Y-104902000D01*
X170434000Y-104140000D02*
X171704000Y-104140000D01*
X159004000Y-96520000D02*
X160020000Y-97536000D01*
X168910000Y-102616000D02*
X170434000Y-104140000D01*
X168910000Y-101092000D02*
X168910000Y-102616000D01*
X159004000Y-94742000D02*
X159004000Y-96520000D01*
X165354000Y-97536000D02*
X168910000Y-101092000D01*
X143510000Y-63500000D02*
X143510000Y-78121962D01*
X146050000Y-71882000D02*
X146050000Y-71628000D01*
X162306000Y-88138000D02*
X146050000Y-71882000D01*
X165723370Y-88138000D02*
X162306000Y-88138000D01*
X146050000Y-71628000D02*
X146050000Y-63500000D01*
X170942000Y-94488000D02*
X170942000Y-93356630D01*
X170942000Y-93356630D02*
X165723370Y-88138000D01*
X157480000Y-66040000D02*
X157480000Y-63500000D01*
X161290000Y-67310000D02*
X158750000Y-67310000D01*
X158750000Y-67310000D02*
X157480000Y-66040000D01*
X164338000Y-70358000D02*
X161290000Y-67310000D01*
X164338000Y-83566000D02*
X164338000Y-70358000D01*
X175260000Y-94488000D02*
X164338000Y-83566000D01*
X170434000Y-107049370D02*
X170942000Y-107557370D01*
X170434000Y-105918000D02*
X170434000Y-107049370D01*
X169135000Y-110490000D02*
X168910000Y-110490000D01*
X170942000Y-108683000D02*
X169135000Y-110490000D01*
X170942000Y-107557370D02*
X170942000Y-108683000D01*
X151892000Y-94488000D02*
X151892000Y-97282000D01*
X151892000Y-97282000D02*
X154432000Y-99822000D01*
X154432000Y-100076000D02*
X156337000Y-101981000D01*
X154432000Y-99822000D02*
X154432000Y-100076000D01*
X156337000Y-101981000D02*
X156337000Y-104267000D01*
X158242000Y-106172000D02*
X158242000Y-111506000D01*
X156337000Y-104267000D02*
X158242000Y-106172000D01*
D22*
X155702000Y-111506000D02*
X154432000Y-111506000D01*
X151892000Y-108966000D02*
X151892000Y-102108000D01*
X172073370Y-102108000D02*
X175260000Y-102108000D01*
D23*
X170942000Y-102108000D02*
X172073370Y-102108000D01*
D22*
X154432000Y-111506000D02*
X151892000Y-111506000D01*
X151892000Y-108966000D02*
X151892000Y-111506000D01*
X163322000Y-120904000D02*
X163322000Y-119126000D01*
X162814000Y-121412000D02*
X163322000Y-120904000D01*
X151892000Y-111506000D02*
X151892000Y-119380000D01*
X151892000Y-119380000D02*
X153924000Y-121412000D01*
X153924000Y-121412000D02*
X161798000Y-121412000D01*
X161798000Y-121412000D02*
X162814000Y-121412000D01*
X161798000Y-122314498D02*
X161798000Y-121412000D01*
X161965000Y-122481498D02*
X161798000Y-122314498D01*
X161965000Y-123825000D02*
X161965000Y-122481498D01*
D23*
X161417000Y-104521000D02*
X162814000Y-105918000D01*
X161417000Y-101981000D02*
X161417000Y-104521000D01*
X161417000Y-101981000D02*
X166497000Y-101981000D01*
X180086000Y-123698000D02*
X179832000Y-123952000D01*
X179832000Y-123952000D02*
X175260000Y-123952000D01*
X175260000Y-123952000D02*
X173593001Y-122285001D01*
X168513001Y-122285001D02*
X167132000Y-120904000D01*
X173593001Y-122285001D02*
X168513001Y-122285001D01*
X178816000Y-99314000D02*
X180086000Y-100584000D01*
X161417000Y-93229630D02*
X163068000Y-91578630D01*
X167132000Y-120904000D02*
X167132000Y-119380000D01*
X167132000Y-119380000D02*
X164846000Y-117094000D01*
X164846000Y-117094000D02*
X163068000Y-117094000D01*
X168783000Y-96393000D02*
X171704000Y-99314000D01*
X162125001Y-118036999D02*
X161871001Y-118036999D01*
X171704000Y-99314000D02*
X178816000Y-99314000D01*
X161871001Y-118036999D02*
X160782000Y-119126000D01*
X163068000Y-117094000D02*
X162125001Y-118036999D01*
X168783000Y-93599000D02*
X168783000Y-96393000D01*
X166762630Y-91578630D02*
X168783000Y-93599000D01*
X163068000Y-91578630D02*
X166762630Y-91578630D01*
X161417000Y-94361000D02*
X161417000Y-93229630D01*
X180086000Y-100584000D02*
X180086000Y-123698000D01*
G36*
X168148000Y-101407631D02*
G01*
X168148001Y-102578567D01*
X168144314Y-102616000D01*
X168159027Y-102765378D01*
X168202599Y-102909015D01*
X168273355Y-103041392D01*
X168341150Y-103124000D01*
X168368579Y-103157422D01*
X168397649Y-103181279D01*
X169830935Y-104614566D01*
X169754273Y-104646320D01*
X169519241Y-104803363D01*
X169319363Y-105003241D01*
X169162320Y-105238273D01*
X169054147Y-105499426D01*
X168999000Y-105776665D01*
X168999000Y-106059335D01*
X169054147Y-106336574D01*
X169162320Y-106597727D01*
X169319363Y-106832759D01*
X169519241Y-107032637D01*
X169677052Y-107138083D01*
X169683027Y-107198748D01*
X169726599Y-107342385D01*
X169797355Y-107474762D01*
X169868721Y-107561721D01*
X169892579Y-107590792D01*
X169921649Y-107614649D01*
X170180000Y-107873000D01*
X170180001Y-108367368D01*
X170049724Y-108497645D01*
X170020184Y-108455742D01*
X169854076Y-108297736D01*
X169660334Y-108175172D01*
X169446404Y-108092761D01*
X169220507Y-108053669D01*
X169037000Y-108213402D01*
X169037000Y-109093000D01*
X169057000Y-109093000D01*
X169057000Y-109330000D01*
X168628021Y-109330000D01*
X168457600Y-109346785D01*
X168456891Y-109347000D01*
X167691837Y-109347000D01*
X167566036Y-109525810D01*
X167574728Y-109587337D01*
X167667725Y-109796882D01*
X167708929Y-109855331D01*
X167608115Y-110043940D01*
X167541785Y-110262600D01*
X167519388Y-110490000D01*
X167541785Y-110717400D01*
X167605093Y-110926098D01*
X167570498Y-110990820D01*
X167534188Y-111110518D01*
X167521928Y-111235000D01*
X167521928Y-112285000D01*
X167534188Y-112409482D01*
X167570498Y-112529180D01*
X167629463Y-112639494D01*
X167708815Y-112736185D01*
X167805506Y-112815537D01*
X167915820Y-112874502D01*
X168035518Y-112910812D01*
X168160000Y-112923072D01*
X169660000Y-112923072D01*
X169784482Y-112910812D01*
X169904180Y-112874502D01*
X170014494Y-112815537D01*
X170111185Y-112736185D01*
X170190537Y-112639494D01*
X170249502Y-112529180D01*
X170285812Y-112409482D01*
X170298072Y-112285000D01*
X170298072Y-111674558D01*
X172978352Y-108994279D01*
X173007422Y-108970422D01*
X173102645Y-108854392D01*
X173173402Y-108722015D01*
X173216974Y-108578378D01*
X173228000Y-108466426D01*
X173228000Y-108466424D01*
X173231686Y-108429001D01*
X173228000Y-108391578D01*
X173228000Y-104939423D01*
X173231686Y-104902000D01*
X173228000Y-104864574D01*
X173216974Y-104752622D01*
X173173402Y-104608985D01*
X173126373Y-104521000D01*
X173102645Y-104476607D01*
X173031279Y-104389648D01*
X173007422Y-104360578D01*
X172978353Y-104336722D01*
X172269284Y-103627653D01*
X172245422Y-103598578D01*
X172129392Y-103503355D01*
X171997015Y-103432598D01*
X171853378Y-103389026D01*
X171741426Y-103378000D01*
X171741423Y-103378000D01*
X171704000Y-103374314D01*
X171666577Y-103378000D01*
X171624241Y-103378000D01*
X171856759Y-103222637D01*
X171961499Y-103117897D01*
X172023468Y-103124000D01*
X174246604Y-103124000D01*
X174345241Y-103222637D01*
X174580273Y-103379680D01*
X174841426Y-103487853D01*
X175118665Y-103543000D01*
X175401335Y-103543000D01*
X175678574Y-103487853D01*
X175939727Y-103379680D01*
X176174759Y-103222637D01*
X176374637Y-103022759D01*
X176531680Y-102787727D01*
X176639853Y-102526574D01*
X176695000Y-102249335D01*
X176695000Y-101966665D01*
X176639853Y-101689426D01*
X176531680Y-101428273D01*
X176493495Y-101371125D01*
X177292000Y-102169630D01*
X177292001Y-119719928D01*
X177254000Y-119719928D01*
X177129518Y-119732188D01*
X177009820Y-119768498D01*
X176899506Y-119827463D01*
X176802815Y-119906815D01*
X176723463Y-120003506D01*
X176664498Y-120113820D01*
X176628188Y-120233518D01*
X176615928Y-120358000D01*
X176615928Y-120365215D01*
X176546702Y-120344903D01*
X175733605Y-121158000D01*
X176546702Y-121971097D01*
X176615928Y-121950785D01*
X176615928Y-121958000D01*
X176628188Y-122082482D01*
X176664498Y-122202180D01*
X176723463Y-122312494D01*
X176802815Y-122409185D01*
X176899506Y-122488537D01*
X177009820Y-122547502D01*
X177129518Y-122583812D01*
X177254000Y-122596072D01*
X178854000Y-122596072D01*
X178978482Y-122583812D01*
X179098180Y-122547502D01*
X179208494Y-122488537D01*
X179305185Y-122409185D01*
X179324001Y-122386258D01*
X179324001Y-123190000D01*
X175575630Y-123190000D01*
X174638619Y-122252989D01*
X174740903Y-122150704D01*
X174812486Y-122394671D01*
X175067996Y-122515571D01*
X175342184Y-122584300D01*
X175624512Y-122598217D01*
X175904130Y-122556787D01*
X176170292Y-122461603D01*
X176295514Y-122394671D01*
X176367097Y-122150702D01*
X175554000Y-121337605D01*
X175539858Y-121351748D01*
X175360253Y-121172143D01*
X175374395Y-121158000D01*
X174561298Y-120344903D01*
X174317329Y-120416486D01*
X174196429Y-120671996D01*
X174127700Y-120946184D01*
X174113783Y-121228512D01*
X174155213Y-121508130D01*
X174250397Y-121774292D01*
X174317329Y-121899514D01*
X174561296Y-121971097D01*
X174459011Y-122073381D01*
X174158285Y-121772655D01*
X174134423Y-121743579D01*
X174018393Y-121648356D01*
X173886016Y-121577599D01*
X173742379Y-121534027D01*
X173630427Y-121523001D01*
X173630424Y-121523001D01*
X173593001Y-121519315D01*
X173555578Y-121523001D01*
X168828632Y-121523001D01*
X167894000Y-120588370D01*
X167894000Y-120165298D01*
X174740903Y-120165298D01*
X175554000Y-120978395D01*
X176367097Y-120165298D01*
X176295514Y-119921329D01*
X176040004Y-119800429D01*
X175765816Y-119731700D01*
X175483488Y-119717783D01*
X175203870Y-119759213D01*
X174937708Y-119854397D01*
X174812486Y-119921329D01*
X174740903Y-120165298D01*
X167894000Y-120165298D01*
X167894000Y-119417422D01*
X167897686Y-119379999D01*
X167894000Y-119342574D01*
X167882974Y-119230622D01*
X167839402Y-119086985D01*
X167768645Y-118954608D01*
X167673422Y-118838578D01*
X167644352Y-118814721D01*
X167361703Y-118532072D01*
X168440000Y-118532072D01*
X168564482Y-118519812D01*
X168684180Y-118483502D01*
X168794494Y-118424537D01*
X168891185Y-118345185D01*
X168901807Y-118332242D01*
X169153996Y-118451571D01*
X169428184Y-118520300D01*
X169710512Y-118534217D01*
X169990130Y-118492787D01*
X170256292Y-118397603D01*
X170381514Y-118330671D01*
X170453097Y-118086702D01*
X169640000Y-117273605D01*
X169625858Y-117287748D01*
X169446253Y-117108143D01*
X169460395Y-117094000D01*
X169819605Y-117094000D01*
X170632702Y-117907097D01*
X170876671Y-117835514D01*
X170997571Y-117580004D01*
X171066300Y-117305816D01*
X171080217Y-117023488D01*
X171038787Y-116743870D01*
X170943603Y-116477708D01*
X170876671Y-116352486D01*
X170632702Y-116280903D01*
X169819605Y-117094000D01*
X169460395Y-117094000D01*
X169446253Y-117079858D01*
X169625858Y-116900253D01*
X169640000Y-116914395D01*
X170453097Y-116101298D01*
X170381514Y-115857329D01*
X170126004Y-115736429D01*
X169851816Y-115667700D01*
X169569488Y-115653783D01*
X169289870Y-115695213D01*
X169023708Y-115790397D01*
X168901691Y-115855616D01*
X168891185Y-115842815D01*
X168794494Y-115763463D01*
X168684180Y-115704498D01*
X168564482Y-115668188D01*
X168440000Y-115655928D01*
X166840000Y-115655928D01*
X166715518Y-115668188D01*
X166595820Y-115704498D01*
X166485506Y-115763463D01*
X166388815Y-115842815D01*
X166309463Y-115939506D01*
X166303776Y-115950145D01*
X163256630Y-112903000D01*
X163459592Y-112903000D01*
X163729490Y-112849314D01*
X163983727Y-112744005D01*
X164212535Y-112591120D01*
X164407120Y-112396535D01*
X164560005Y-112167727D01*
X164665314Y-111913490D01*
X164719000Y-111643592D01*
X164719000Y-111368408D01*
X164665314Y-111098510D01*
X164560005Y-110844273D01*
X164407120Y-110615465D01*
X164212535Y-110420880D01*
X163983727Y-110267995D01*
X163729490Y-110162686D01*
X163459592Y-110109000D01*
X163184408Y-110109000D01*
X162914510Y-110162686D01*
X162660273Y-110267995D01*
X162431465Y-110420880D01*
X162236880Y-110615465D01*
X162083995Y-110844273D01*
X162052000Y-110921515D01*
X162020005Y-110844273D01*
X161867120Y-110615465D01*
X161672535Y-110420880D01*
X161544000Y-110334995D01*
X161544000Y-109003422D01*
X161547686Y-108965999D01*
X161542583Y-108914190D01*
X167566036Y-108914190D01*
X167691837Y-109093000D01*
X168783000Y-109093000D01*
X168783000Y-108213402D01*
X168599493Y-108053669D01*
X168373596Y-108092761D01*
X168159666Y-108175172D01*
X167965924Y-108297736D01*
X167799816Y-108455742D01*
X167667725Y-108643118D01*
X167574728Y-108852663D01*
X167566036Y-108914190D01*
X161542583Y-108914190D01*
X161532974Y-108816622D01*
X161489402Y-108672985D01*
X161418645Y-108540608D01*
X161323422Y-108424578D01*
X161294353Y-108400722D01*
X160020000Y-107126370D01*
X160020000Y-102313371D01*
X160037147Y-102399574D01*
X160145320Y-102660727D01*
X160302363Y-102895759D01*
X160502241Y-103095637D01*
X160655000Y-103197707D01*
X160655001Y-104483567D01*
X160651314Y-104521000D01*
X160666027Y-104670378D01*
X160709599Y-104814015D01*
X160780355Y-104946392D01*
X160851175Y-105032686D01*
X160875579Y-105062422D01*
X160904649Y-105086279D01*
X161412634Y-105594264D01*
X161399764Y-105636691D01*
X161372057Y-105918000D01*
X161399764Y-106199309D01*
X161481818Y-106469808D01*
X161615068Y-106719101D01*
X161794392Y-106937608D01*
X162012899Y-107116932D01*
X162262192Y-107250182D01*
X162532691Y-107332236D01*
X162743508Y-107353000D01*
X162884492Y-107353000D01*
X163095309Y-107332236D01*
X163365808Y-107250182D01*
X163615101Y-107116932D01*
X163833608Y-106937608D01*
X164012932Y-106719101D01*
X164146182Y-106469808D01*
X164228236Y-106199309D01*
X164255943Y-105918000D01*
X164228236Y-105636691D01*
X164146182Y-105366192D01*
X164012932Y-105116899D01*
X163833608Y-104898392D01*
X163615101Y-104719068D01*
X163365808Y-104585818D01*
X163095309Y-104503764D01*
X162884492Y-104483000D01*
X162743508Y-104483000D01*
X162532691Y-104503764D01*
X162490264Y-104516634D01*
X162179000Y-104205370D01*
X162179000Y-103197707D01*
X162331759Y-103095637D01*
X162531637Y-102895759D01*
X162633707Y-102743000D01*
X165280293Y-102743000D01*
X165382363Y-102895759D01*
X165582241Y-103095637D01*
X165817273Y-103252680D01*
X166078426Y-103360853D01*
X166355665Y-103416000D01*
X166638335Y-103416000D01*
X166915574Y-103360853D01*
X167176727Y-103252680D01*
X167411759Y-103095637D01*
X167611637Y-102895759D01*
X167768680Y-102660727D01*
X167876853Y-102399574D01*
X167932000Y-102122335D01*
X167932000Y-101839665D01*
X167876853Y-101562426D01*
X167768680Y-101301273D01*
X167611637Y-101066241D01*
X167411759Y-100866363D01*
X167176727Y-100709320D01*
X166915574Y-100601147D01*
X166638335Y-100546000D01*
X166355665Y-100546000D01*
X166078426Y-100601147D01*
X165817273Y-100709320D01*
X165582241Y-100866363D01*
X165382363Y-101066241D01*
X165280293Y-101219000D01*
X162633707Y-101219000D01*
X162531637Y-101066241D01*
X162331759Y-100866363D01*
X162096727Y-100709320D01*
X161835574Y-100601147D01*
X161558335Y-100546000D01*
X161275665Y-100546000D01*
X160998426Y-100601147D01*
X160737273Y-100709320D01*
X160502241Y-100866363D01*
X160302363Y-101066241D01*
X160145320Y-101301273D01*
X160037147Y-101562426D01*
X160020000Y-101648629D01*
X160020000Y-98450793D01*
X160023686Y-98413370D01*
X160012614Y-98300959D01*
X160020000Y-98301686D01*
X160057423Y-98298000D01*
X165038370Y-98298000D01*
X168148000Y-101407631D01*
X168148000Y-101407631D01*
G37*
X168148000Y-101407631D02*
X168148001Y-102578567D01*
X168144314Y-102616000D01*
X168159027Y-102765378D01*
X168202599Y-102909015D01*
X168273355Y-103041392D01*
X168341150Y-103124000D01*
X168368579Y-103157422D01*
X168397649Y-103181279D01*
X169830935Y-104614566D01*
X169754273Y-104646320D01*
X169519241Y-104803363D01*
X169319363Y-105003241D01*
X169162320Y-105238273D01*
X169054147Y-105499426D01*
X168999000Y-105776665D01*
X168999000Y-106059335D01*
X169054147Y-106336574D01*
X169162320Y-106597727D01*
X169319363Y-106832759D01*
X169519241Y-107032637D01*
X169677052Y-107138083D01*
X169683027Y-107198748D01*
X169726599Y-107342385D01*
X169797355Y-107474762D01*
X169868721Y-107561721D01*
X169892579Y-107590792D01*
X169921649Y-107614649D01*
X170180000Y-107873000D01*
X170180001Y-108367368D01*
X170049724Y-108497645D01*
X170020184Y-108455742D01*
X169854076Y-108297736D01*
X169660334Y-108175172D01*
X169446404Y-108092761D01*
X169220507Y-108053669D01*
X169037000Y-108213402D01*
X169037000Y-109093000D01*
X169057000Y-109093000D01*
X169057000Y-109330000D01*
X168628021Y-109330000D01*
X168457600Y-109346785D01*
X168456891Y-109347000D01*
X167691837Y-109347000D01*
X167566036Y-109525810D01*
X167574728Y-109587337D01*
X167667725Y-109796882D01*
X167708929Y-109855331D01*
X167608115Y-110043940D01*
X167541785Y-110262600D01*
X167519388Y-110490000D01*
X167541785Y-110717400D01*
X167605093Y-110926098D01*
X167570498Y-110990820D01*
X167534188Y-111110518D01*
X167521928Y-111235000D01*
X167521928Y-112285000D01*
X167534188Y-112409482D01*
X167570498Y-112529180D01*
X167629463Y-112639494D01*
X167708815Y-112736185D01*
X167805506Y-112815537D01*
X167915820Y-112874502D01*
X168035518Y-112910812D01*
X168160000Y-112923072D01*
X169660000Y-112923072D01*
X169784482Y-112910812D01*
X169904180Y-112874502D01*
X170014494Y-112815537D01*
X170111185Y-112736185D01*
X170190537Y-112639494D01*
X170249502Y-112529180D01*
X170285812Y-112409482D01*
X170298072Y-112285000D01*
X170298072Y-111674558D01*
X172978352Y-108994279D01*
X173007422Y-108970422D01*
X173102645Y-108854392D01*
X173173402Y-108722015D01*
X173216974Y-108578378D01*
X173228000Y-108466426D01*
X173228000Y-108466424D01*
X173231686Y-108429001D01*
X173228000Y-108391578D01*
X173228000Y-104939423D01*
X173231686Y-104902000D01*
X173228000Y-104864574D01*
X173216974Y-104752622D01*
X173173402Y-104608985D01*
X173126373Y-104521000D01*
X173102645Y-104476607D01*
X173031279Y-104389648D01*
X173007422Y-104360578D01*
X172978353Y-104336722D01*
X172269284Y-103627653D01*
X172245422Y-103598578D01*
X172129392Y-103503355D01*
X171997015Y-103432598D01*
X171853378Y-103389026D01*
X171741426Y-103378000D01*
X171741423Y-103378000D01*
X171704000Y-103374314D01*
X171666577Y-103378000D01*
X171624241Y-103378000D01*
X171856759Y-103222637D01*
X171961499Y-103117897D01*
X172023468Y-103124000D01*
X174246604Y-103124000D01*
X174345241Y-103222637D01*
X174580273Y-103379680D01*
X174841426Y-103487853D01*
X175118665Y-103543000D01*
X175401335Y-103543000D01*
X175678574Y-103487853D01*
X175939727Y-103379680D01*
X176174759Y-103222637D01*
X176374637Y-103022759D01*
X176531680Y-102787727D01*
X176639853Y-102526574D01*
X176695000Y-102249335D01*
X176695000Y-101966665D01*
X176639853Y-101689426D01*
X176531680Y-101428273D01*
X176493495Y-101371125D01*
X177292000Y-102169630D01*
X177292001Y-119719928D01*
X177254000Y-119719928D01*
X177129518Y-119732188D01*
X177009820Y-119768498D01*
X176899506Y-119827463D01*
X176802815Y-119906815D01*
X176723463Y-120003506D01*
X176664498Y-120113820D01*
X176628188Y-120233518D01*
X176615928Y-120358000D01*
X176615928Y-120365215D01*
X176546702Y-120344903D01*
X175733605Y-121158000D01*
X176546702Y-121971097D01*
X176615928Y-121950785D01*
X176615928Y-121958000D01*
X176628188Y-122082482D01*
X176664498Y-122202180D01*
X176723463Y-122312494D01*
X176802815Y-122409185D01*
X176899506Y-122488537D01*
X177009820Y-122547502D01*
X177129518Y-122583812D01*
X177254000Y-122596072D01*
X178854000Y-122596072D01*
X178978482Y-122583812D01*
X179098180Y-122547502D01*
X179208494Y-122488537D01*
X179305185Y-122409185D01*
X179324001Y-122386258D01*
X179324001Y-123190000D01*
X175575630Y-123190000D01*
X174638619Y-122252989D01*
X174740903Y-122150704D01*
X174812486Y-122394671D01*
X175067996Y-122515571D01*
X175342184Y-122584300D01*
X175624512Y-122598217D01*
X175904130Y-122556787D01*
X176170292Y-122461603D01*
X176295514Y-122394671D01*
X176367097Y-122150702D01*
X175554000Y-121337605D01*
X175539858Y-121351748D01*
X175360253Y-121172143D01*
X175374395Y-121158000D01*
X174561298Y-120344903D01*
X174317329Y-120416486D01*
X174196429Y-120671996D01*
X174127700Y-120946184D01*
X174113783Y-121228512D01*
X174155213Y-121508130D01*
X174250397Y-121774292D01*
X174317329Y-121899514D01*
X174561296Y-121971097D01*
X174459011Y-122073381D01*
X174158285Y-121772655D01*
X174134423Y-121743579D01*
X174018393Y-121648356D01*
X173886016Y-121577599D01*
X173742379Y-121534027D01*
X173630427Y-121523001D01*
X173630424Y-121523001D01*
X173593001Y-121519315D01*
X173555578Y-121523001D01*
X168828632Y-121523001D01*
X167894000Y-120588370D01*
X167894000Y-120165298D01*
X174740903Y-120165298D01*
X175554000Y-120978395D01*
X176367097Y-120165298D01*
X176295514Y-119921329D01*
X176040004Y-119800429D01*
X175765816Y-119731700D01*
X175483488Y-119717783D01*
X175203870Y-119759213D01*
X174937708Y-119854397D01*
X174812486Y-119921329D01*
X174740903Y-120165298D01*
X167894000Y-120165298D01*
X167894000Y-119417422D01*
X167897686Y-119379999D01*
X167894000Y-119342574D01*
X167882974Y-119230622D01*
X167839402Y-119086985D01*
X167768645Y-118954608D01*
X167673422Y-118838578D01*
X167644352Y-118814721D01*
X167361703Y-118532072D01*
X168440000Y-118532072D01*
X168564482Y-118519812D01*
X168684180Y-118483502D01*
X168794494Y-118424537D01*
X168891185Y-118345185D01*
X168901807Y-118332242D01*
X169153996Y-118451571D01*
X169428184Y-118520300D01*
X169710512Y-118534217D01*
X169990130Y-118492787D01*
X170256292Y-118397603D01*
X170381514Y-118330671D01*
X170453097Y-118086702D01*
X169640000Y-117273605D01*
X169625858Y-117287748D01*
X169446253Y-117108143D01*
X169460395Y-117094000D01*
X169819605Y-117094000D01*
X170632702Y-117907097D01*
X170876671Y-117835514D01*
X170997571Y-117580004D01*
X171066300Y-117305816D01*
X171080217Y-117023488D01*
X171038787Y-116743870D01*
X170943603Y-116477708D01*
X170876671Y-116352486D01*
X170632702Y-116280903D01*
X169819605Y-117094000D01*
X169460395Y-117094000D01*
X169446253Y-117079858D01*
X169625858Y-116900253D01*
X169640000Y-116914395D01*
X170453097Y-116101298D01*
X170381514Y-115857329D01*
X170126004Y-115736429D01*
X169851816Y-115667700D01*
X169569488Y-115653783D01*
X169289870Y-115695213D01*
X169023708Y-115790397D01*
X168901691Y-115855616D01*
X168891185Y-115842815D01*
X168794494Y-115763463D01*
X168684180Y-115704498D01*
X168564482Y-115668188D01*
X168440000Y-115655928D01*
X166840000Y-115655928D01*
X166715518Y-115668188D01*
X166595820Y-115704498D01*
X166485506Y-115763463D01*
X166388815Y-115842815D01*
X166309463Y-115939506D01*
X166303776Y-115950145D01*
X163256630Y-112903000D01*
X163459592Y-112903000D01*
X163729490Y-112849314D01*
X163983727Y-112744005D01*
X164212535Y-112591120D01*
X164407120Y-112396535D01*
X164560005Y-112167727D01*
X164665314Y-111913490D01*
X164719000Y-111643592D01*
X164719000Y-111368408D01*
X164665314Y-111098510D01*
X164560005Y-110844273D01*
X164407120Y-110615465D01*
X164212535Y-110420880D01*
X163983727Y-110267995D01*
X163729490Y-110162686D01*
X163459592Y-110109000D01*
X163184408Y-110109000D01*
X162914510Y-110162686D01*
X162660273Y-110267995D01*
X162431465Y-110420880D01*
X162236880Y-110615465D01*
X162083995Y-110844273D01*
X162052000Y-110921515D01*
X162020005Y-110844273D01*
X161867120Y-110615465D01*
X161672535Y-110420880D01*
X161544000Y-110334995D01*
X161544000Y-109003422D01*
X161547686Y-108965999D01*
X161542583Y-108914190D01*
X167566036Y-108914190D01*
X167691837Y-109093000D01*
X168783000Y-109093000D01*
X168783000Y-108213402D01*
X168599493Y-108053669D01*
X168373596Y-108092761D01*
X168159666Y-108175172D01*
X167965924Y-108297736D01*
X167799816Y-108455742D01*
X167667725Y-108643118D01*
X167574728Y-108852663D01*
X167566036Y-108914190D01*
X161542583Y-108914190D01*
X161532974Y-108816622D01*
X161489402Y-108672985D01*
X161418645Y-108540608D01*
X161323422Y-108424578D01*
X161294353Y-108400722D01*
X160020000Y-107126370D01*
X160020000Y-102313371D01*
X160037147Y-102399574D01*
X160145320Y-102660727D01*
X160302363Y-102895759D01*
X160502241Y-103095637D01*
X160655000Y-103197707D01*
X160655001Y-104483567D01*
X160651314Y-104521000D01*
X160666027Y-104670378D01*
X160709599Y-104814015D01*
X160780355Y-104946392D01*
X160851175Y-105032686D01*
X160875579Y-105062422D01*
X160904649Y-105086279D01*
X161412634Y-105594264D01*
X161399764Y-105636691D01*
X161372057Y-105918000D01*
X161399764Y-106199309D01*
X161481818Y-106469808D01*
X161615068Y-106719101D01*
X161794392Y-106937608D01*
X162012899Y-107116932D01*
X162262192Y-107250182D01*
X162532691Y-107332236D01*
X162743508Y-107353000D01*
X162884492Y-107353000D01*
X163095309Y-107332236D01*
X163365808Y-107250182D01*
X163615101Y-107116932D01*
X163833608Y-106937608D01*
X164012932Y-106719101D01*
X164146182Y-106469808D01*
X164228236Y-106199309D01*
X164255943Y-105918000D01*
X164228236Y-105636691D01*
X164146182Y-105366192D01*
X164012932Y-105116899D01*
X163833608Y-104898392D01*
X163615101Y-104719068D01*
X163365808Y-104585818D01*
X163095309Y-104503764D01*
X162884492Y-104483000D01*
X162743508Y-104483000D01*
X162532691Y-104503764D01*
X162490264Y-104516634D01*
X162179000Y-104205370D01*
X162179000Y-103197707D01*
X162331759Y-103095637D01*
X162531637Y-102895759D01*
X162633707Y-102743000D01*
X165280293Y-102743000D01*
X165382363Y-102895759D01*
X165582241Y-103095637D01*
X165817273Y-103252680D01*
X166078426Y-103360853D01*
X166355665Y-103416000D01*
X166638335Y-103416000D01*
X166915574Y-103360853D01*
X167176727Y-103252680D01*
X167411759Y-103095637D01*
X167611637Y-102895759D01*
X167768680Y-102660727D01*
X167876853Y-102399574D01*
X167932000Y-102122335D01*
X167932000Y-101839665D01*
X167876853Y-101562426D01*
X167768680Y-101301273D01*
X167611637Y-101066241D01*
X167411759Y-100866363D01*
X167176727Y-100709320D01*
X166915574Y-100601147D01*
X166638335Y-100546000D01*
X166355665Y-100546000D01*
X166078426Y-100601147D01*
X165817273Y-100709320D01*
X165582241Y-100866363D01*
X165382363Y-101066241D01*
X165280293Y-101219000D01*
X162633707Y-101219000D01*
X162531637Y-101066241D01*
X162331759Y-100866363D01*
X162096727Y-100709320D01*
X161835574Y-100601147D01*
X161558335Y-100546000D01*
X161275665Y-100546000D01*
X160998426Y-100601147D01*
X160737273Y-100709320D01*
X160502241Y-100866363D01*
X160302363Y-101066241D01*
X160145320Y-101301273D01*
X160037147Y-101562426D01*
X160020000Y-101648629D01*
X160020000Y-98450793D01*
X160023686Y-98413370D01*
X160012614Y-98300959D01*
X160020000Y-98301686D01*
X160057423Y-98298000D01*
X165038370Y-98298000D01*
X168148000Y-101407631D01*
G36*
X180188000Y-99608370D02*
G01*
X179381284Y-98801654D01*
X179357422Y-98772578D01*
X179241392Y-98677355D01*
X179109015Y-98606598D01*
X178965378Y-98563026D01*
X178853426Y-98552000D01*
X178853423Y-98552000D01*
X178816000Y-98548314D01*
X178778577Y-98552000D01*
X172019631Y-98552000D01*
X169545000Y-96077370D01*
X169545000Y-94826129D01*
X169609818Y-95039808D01*
X169743068Y-95289101D01*
X169922392Y-95507608D01*
X170140899Y-95686932D01*
X170390192Y-95820182D01*
X170660691Y-95902236D01*
X170871508Y-95923000D01*
X171012492Y-95923000D01*
X171223309Y-95902236D01*
X171493808Y-95820182D01*
X171743101Y-95686932D01*
X171961608Y-95507608D01*
X172140932Y-95289101D01*
X172274182Y-95039808D01*
X172356236Y-94769309D01*
X172383943Y-94488000D01*
X172356236Y-94206691D01*
X172274182Y-93936192D01*
X172140932Y-93686899D01*
X171961608Y-93468392D01*
X171743101Y-93289068D01*
X171698694Y-93265332D01*
X171692974Y-93207252D01*
X171649402Y-93063615D01*
X171578645Y-92931238D01*
X171483422Y-92815208D01*
X171454352Y-92791351D01*
X166288654Y-87625654D01*
X166264792Y-87596578D01*
X166148762Y-87501355D01*
X166016385Y-87430598D01*
X165872748Y-87387026D01*
X165760796Y-87376000D01*
X165760793Y-87376000D01*
X165723370Y-87372314D01*
X165685947Y-87376000D01*
X162621630Y-87376000D01*
X146812000Y-71566370D01*
X146812000Y-64836976D01*
X147028505Y-64692312D01*
X147242312Y-64478505D01*
X147410299Y-64227095D01*
X147526011Y-63947743D01*
X147585000Y-63651184D01*
X147585000Y-63348816D01*
X147526011Y-63052257D01*
X147410299Y-62772905D01*
X147242312Y-62521495D01*
X147028505Y-62307688D01*
X146777095Y-62139701D01*
X146497743Y-62023989D01*
X146201184Y-61965000D01*
X145898816Y-61965000D01*
X145602257Y-62023989D01*
X145322905Y-62139701D01*
X145071495Y-62307688D01*
X145005056Y-62374127D01*
X144999502Y-62355820D01*
X144940537Y-62245506D01*
X144861185Y-62148815D01*
X144819239Y-62114391D01*
X145465631Y-61468000D01*
X158064370Y-61468000D01*
X158710761Y-62114391D01*
X158668815Y-62148815D01*
X158589463Y-62245506D01*
X158530498Y-62355820D01*
X158524944Y-62374127D01*
X158458505Y-62307688D01*
X158207095Y-62139701D01*
X157927743Y-62023989D01*
X157631184Y-61965000D01*
X157328816Y-61965000D01*
X157032257Y-62023989D01*
X156752905Y-62139701D01*
X156501495Y-62307688D01*
X156287688Y-62521495D01*
X156119701Y-62772905D01*
X156003989Y-63052257D01*
X155945000Y-63348816D01*
X155945000Y-63651184D01*
X156003989Y-63947743D01*
X156119701Y-64227095D01*
X156287688Y-64478505D01*
X156501495Y-64692312D01*
X156718000Y-64836977D01*
X156718000Y-66002577D01*
X156714314Y-66040000D01*
X156718000Y-66077423D01*
X156718000Y-66077425D01*
X156729026Y-66189377D01*
X156772598Y-66333014D01*
X156772599Y-66333015D01*
X156843355Y-66465392D01*
X156882983Y-66513678D01*
X156938578Y-66581422D01*
X156967654Y-66605284D01*
X158184720Y-67822351D01*
X158208578Y-67851422D01*
X158324608Y-67946645D01*
X158456985Y-68017402D01*
X158600622Y-68060974D01*
X158712574Y-68072000D01*
X158712576Y-68072000D01*
X158749999Y-68075686D01*
X158787422Y-68072000D01*
X160974370Y-68072000D01*
X163576001Y-70673632D01*
X163576000Y-83528577D01*
X163572314Y-83566000D01*
X163576000Y-83603423D01*
X163576000Y-83603425D01*
X163587026Y-83715377D01*
X163630598Y-83859014D01*
X163630599Y-83859015D01*
X163701355Y-83991392D01*
X163740983Y-84039678D01*
X163796578Y-84107422D01*
X163825654Y-84131284D01*
X173858634Y-94164264D01*
X173845764Y-94206691D01*
X173818057Y-94488000D01*
X173845764Y-94769309D01*
X173927818Y-95039808D01*
X174061068Y-95289101D01*
X174240392Y-95507608D01*
X174458899Y-95686932D01*
X174708192Y-95820182D01*
X174978691Y-95902236D01*
X175189508Y-95923000D01*
X175330492Y-95923000D01*
X175541309Y-95902236D01*
X175811808Y-95820182D01*
X176061101Y-95686932D01*
X176279608Y-95507608D01*
X176458932Y-95289101D01*
X176592182Y-95039808D01*
X176674236Y-94769309D01*
X176701943Y-94488000D01*
X176674236Y-94206691D01*
X176592182Y-93936192D01*
X176458932Y-93686899D01*
X176279608Y-93468392D01*
X176061101Y-93289068D01*
X175811808Y-93155818D01*
X175541309Y-93073764D01*
X175330492Y-93053000D01*
X175189508Y-93053000D01*
X174978691Y-93073764D01*
X174936264Y-93086634D01*
X165100000Y-83250370D01*
X165100000Y-70395423D01*
X165103686Y-70358000D01*
X165100000Y-70320574D01*
X165088974Y-70208622D01*
X165045402Y-70064985D01*
X165012465Y-70003364D01*
X164974645Y-69932607D01*
X164903279Y-69845648D01*
X164879422Y-69816578D01*
X164850352Y-69792721D01*
X161855284Y-66797654D01*
X161831422Y-66768578D01*
X161715392Y-66673355D01*
X161583015Y-66602598D01*
X161439378Y-66559026D01*
X161327426Y-66548000D01*
X161327423Y-66548000D01*
X161290000Y-66544314D01*
X161252577Y-66548000D01*
X159065631Y-66548000D01*
X158242000Y-65724370D01*
X158242000Y-64836976D01*
X158458505Y-64692312D01*
X158524944Y-64625873D01*
X158530498Y-64644180D01*
X158589463Y-64754494D01*
X158668815Y-64851185D01*
X158765506Y-64930537D01*
X158875820Y-64989502D01*
X158995518Y-65025812D01*
X159120000Y-65038072D01*
X160920000Y-65038072D01*
X161044482Y-65025812D01*
X161164180Y-64989502D01*
X161274494Y-64930537D01*
X161371185Y-64851185D01*
X161450537Y-64754494D01*
X161509502Y-64644180D01*
X161545812Y-64524482D01*
X161558072Y-64400000D01*
X161558072Y-62600000D01*
X161545812Y-62475518D01*
X161509502Y-62355820D01*
X161450537Y-62245506D01*
X161371185Y-62148815D01*
X161274494Y-62069463D01*
X161164180Y-62010498D01*
X161044482Y-61974188D01*
X160920000Y-61961928D01*
X160678731Y-61961928D01*
X160656645Y-61920608D01*
X160561422Y-61804578D01*
X160532352Y-61780721D01*
X158945284Y-60193654D01*
X158921422Y-60164578D01*
X158805392Y-60069355D01*
X158673015Y-59998598D01*
X158529378Y-59955026D01*
X158417426Y-59944000D01*
X158417423Y-59944000D01*
X158380000Y-59940314D01*
X158342577Y-59944000D01*
X145187422Y-59944000D01*
X145149999Y-59940314D01*
X145112576Y-59944000D01*
X145112574Y-59944000D01*
X145000622Y-59955026D01*
X144856985Y-59998598D01*
X144724608Y-60069355D01*
X144608578Y-60164578D01*
X144584721Y-60193648D01*
X142997654Y-61780716D01*
X142968578Y-61804578D01*
X142912983Y-61872322D01*
X142873355Y-61920608D01*
X142851269Y-61961928D01*
X142610000Y-61961928D01*
X142485518Y-61974188D01*
X142365820Y-62010498D01*
X142255506Y-62069463D01*
X142158815Y-62148815D01*
X142079463Y-62245506D01*
X142020498Y-62355820D01*
X141984188Y-62475518D01*
X141971928Y-62600000D01*
X141971928Y-64400000D01*
X141984188Y-64524482D01*
X142020498Y-64644180D01*
X142079463Y-64754494D01*
X142158815Y-64851185D01*
X142255506Y-64930537D01*
X142365820Y-64989502D01*
X142485518Y-65025812D01*
X142610000Y-65038072D01*
X142748000Y-65038072D01*
X142748001Y-78084529D01*
X142744314Y-78121962D01*
X142759027Y-78271340D01*
X142802599Y-78414977D01*
X142873355Y-78547354D01*
X142944721Y-78634313D01*
X142968579Y-78663384D01*
X142997649Y-78687241D01*
X155630019Y-91319612D01*
X155630020Y-92092586D01*
X155626333Y-92130019D01*
X155641046Y-92279397D01*
X155684618Y-92423034D01*
X155755374Y-92555411D01*
X155826740Y-92642370D01*
X155850598Y-92671441D01*
X155879668Y-92695298D01*
X156124370Y-92940000D01*
X156055691Y-92946764D01*
X155785192Y-93028818D01*
X155535899Y-93162068D01*
X155317392Y-93341392D01*
X155138068Y-93559899D01*
X155004818Y-93809192D01*
X154922764Y-94079691D01*
X154895057Y-94361000D01*
X154922764Y-94642309D01*
X155004818Y-94912808D01*
X155138068Y-95162101D01*
X155317392Y-95380608D01*
X155535899Y-95559932D01*
X155580306Y-95583668D01*
X155586027Y-95641748D01*
X155629599Y-95785385D01*
X155700355Y-95917762D01*
X155730687Y-95954721D01*
X155795579Y-96033792D01*
X155824649Y-96057649D01*
X158496000Y-98729001D01*
X158496001Y-105348370D01*
X157099000Y-103951370D01*
X157099000Y-103197707D01*
X157251759Y-103095637D01*
X157451637Y-102895759D01*
X157608680Y-102660727D01*
X157716853Y-102399574D01*
X157772000Y-102122335D01*
X157772000Y-101839665D01*
X157716853Y-101562426D01*
X157608680Y-101301273D01*
X157451637Y-101066241D01*
X157251759Y-100866363D01*
X157016727Y-100709320D01*
X156755574Y-100601147D01*
X156478335Y-100546000D01*
X156195665Y-100546000D01*
X156015473Y-100581843D01*
X155191356Y-99757726D01*
X155182974Y-99672622D01*
X155139402Y-99528985D01*
X155068645Y-99396608D01*
X154973422Y-99280578D01*
X154944353Y-99256722D01*
X152654000Y-96966370D01*
X152654000Y-95707832D01*
X152693101Y-95686932D01*
X152911608Y-95507608D01*
X153090932Y-95289101D01*
X153224182Y-95039808D01*
X153306236Y-94769309D01*
X153333943Y-94488000D01*
X153306236Y-94206691D01*
X153224182Y-93936192D01*
X153090932Y-93686899D01*
X152911608Y-93468392D01*
X152693101Y-93289068D01*
X152443808Y-93155818D01*
X152173309Y-93073764D01*
X151962492Y-93053000D01*
X151821508Y-93053000D01*
X151610691Y-93073764D01*
X151340192Y-93155818D01*
X151090899Y-93289068D01*
X150872392Y-93468392D01*
X150693068Y-93686899D01*
X150559818Y-93936192D01*
X150477764Y-94206691D01*
X150450057Y-94488000D01*
X150477764Y-94769309D01*
X150559818Y-95039808D01*
X150693068Y-95289101D01*
X150872392Y-95507608D01*
X151090899Y-95686932D01*
X151130000Y-95707832D01*
X151130001Y-97244567D01*
X151126314Y-97282000D01*
X151141027Y-97431378D01*
X151184599Y-97575015D01*
X151255355Y-97707392D01*
X151312256Y-97776725D01*
X151350579Y-97823422D01*
X151379649Y-97847279D01*
X153672644Y-100140275D01*
X153681026Y-100225378D01*
X153724598Y-100369015D01*
X153795355Y-100501392D01*
X153890578Y-100617422D01*
X153919653Y-100641283D01*
X154937843Y-101659473D01*
X154902000Y-101839665D01*
X154902000Y-102122335D01*
X154957147Y-102399574D01*
X155065320Y-102660727D01*
X155222363Y-102895759D01*
X155422241Y-103095637D01*
X155575001Y-103197707D01*
X155575001Y-104229567D01*
X155571314Y-104267000D01*
X155586027Y-104416378D01*
X155629599Y-104560015D01*
X155700355Y-104692392D01*
X155769500Y-104776645D01*
X155795579Y-104808422D01*
X155824649Y-104832279D01*
X157480000Y-106487631D01*
X157480001Y-110334995D01*
X157351465Y-110420880D01*
X157156880Y-110615465D01*
X157003995Y-110844273D01*
X156972000Y-110921515D01*
X156940005Y-110844273D01*
X156787120Y-110615465D01*
X156592535Y-110420880D01*
X156363727Y-110267995D01*
X156109490Y-110162686D01*
X155839592Y-110109000D01*
X155564408Y-110109000D01*
X155294510Y-110162686D01*
X155040273Y-110267995D01*
X154811465Y-110420880D01*
X154742345Y-110490000D01*
X152908000Y-110490000D01*
X152908000Y-103121396D01*
X153006637Y-103022759D01*
X153163680Y-102787727D01*
X153271853Y-102526574D01*
X153327000Y-102249335D01*
X153327000Y-101966665D01*
X153271853Y-101689426D01*
X153163680Y-101428273D01*
X153006637Y-101193241D01*
X152806759Y-100993363D01*
X152571727Y-100836320D01*
X152310574Y-100728147D01*
X152033335Y-100673000D01*
X151750665Y-100673000D01*
X151473426Y-100728147D01*
X151212273Y-100836320D01*
X150977241Y-100993363D01*
X150777363Y-101193241D01*
X150620320Y-101428273D01*
X150512147Y-101689426D01*
X150457000Y-101966665D01*
X150457000Y-102249335D01*
X150512147Y-102526574D01*
X150620320Y-102787727D01*
X150777363Y-103022759D01*
X150876001Y-103121397D01*
X150876000Y-108916098D01*
X150876000Y-108916099D01*
X150876001Y-111456088D01*
X150871085Y-111506000D01*
X150876000Y-111555902D01*
X150876000Y-113561852D01*
X150840537Y-113495506D01*
X150761185Y-113398815D01*
X150664494Y-113319463D01*
X150554180Y-113260498D01*
X150434482Y-113224188D01*
X150310000Y-113211928D01*
X149510750Y-113215000D01*
X149352000Y-113373750D01*
X149352000Y-114808000D01*
X149372000Y-114808000D01*
X149372000Y-115062000D01*
X149352000Y-115062000D01*
X149352000Y-116496250D01*
X149510750Y-116655000D01*
X150310000Y-116658072D01*
X150434482Y-116645812D01*
X150554180Y-116609502D01*
X150664494Y-116550537D01*
X150761185Y-116471185D01*
X150840537Y-116374494D01*
X150876001Y-116308147D01*
X150876001Y-119330088D01*
X150871085Y-119380000D01*
X150890702Y-119579170D01*
X150933401Y-119719928D01*
X150948799Y-119770687D01*
X151043141Y-119947190D01*
X151170105Y-120101896D01*
X151208868Y-120133708D01*
X153170292Y-122095133D01*
X153202104Y-122133896D01*
X153356810Y-122260860D01*
X153533313Y-122355202D01*
X153711270Y-122409185D01*
X153724829Y-122413298D01*
X153924000Y-122432915D01*
X153973902Y-122428000D01*
X158702833Y-122428000D01*
X158454621Y-122593850D01*
X158239471Y-122809000D01*
X132119841Y-122809000D01*
X130241000Y-120930160D01*
X130241000Y-116523201D01*
X130426618Y-116399175D01*
X130689175Y-116136618D01*
X130767096Y-116020000D01*
X147501928Y-116020000D01*
X147514188Y-116144482D01*
X147550498Y-116264180D01*
X147609463Y-116374494D01*
X147688815Y-116471185D01*
X147785506Y-116550537D01*
X147895820Y-116609502D01*
X148015518Y-116645812D01*
X148140000Y-116658072D01*
X148939250Y-116655000D01*
X149098000Y-116496250D01*
X149098000Y-115062000D01*
X147663750Y-115062000D01*
X147505000Y-115220750D01*
X147501928Y-116020000D01*
X130767096Y-116020000D01*
X130895466Y-115827882D01*
X131037561Y-115484834D01*
X131110000Y-115120656D01*
X131110000Y-114749344D01*
X131037561Y-114385166D01*
X130895466Y-114042118D01*
X130767097Y-113850000D01*
X147501928Y-113850000D01*
X147505000Y-114649250D01*
X147663750Y-114808000D01*
X149098000Y-114808000D01*
X149098000Y-113373750D01*
X148939250Y-113215000D01*
X148140000Y-113211928D01*
X148015518Y-113224188D01*
X147895820Y-113260498D01*
X147785506Y-113319463D01*
X147688815Y-113398815D01*
X147609463Y-113495506D01*
X147550498Y-113605820D01*
X147514188Y-113725518D01*
X147501928Y-113850000D01*
X130767097Y-113850000D01*
X130689175Y-113733382D01*
X130426618Y-113470825D01*
X130117882Y-113264534D01*
X129774834Y-113122439D01*
X129410656Y-113050000D01*
X129039344Y-113050000D01*
X128675166Y-113122439D01*
X128332118Y-113264534D01*
X128023382Y-113470825D01*
X127760825Y-113733382D01*
X127660000Y-113884277D01*
X127660000Y-45801595D01*
X146294012Y-45801595D01*
X146294422Y-45860299D01*
X146294012Y-45919003D01*
X146294894Y-45928003D01*
X146333757Y-46297757D01*
X146345563Y-46355274D01*
X146356561Y-46412926D01*
X146359175Y-46421584D01*
X146469117Y-46776747D01*
X146491874Y-46830883D01*
X146513857Y-46885293D01*
X146518102Y-46893278D01*
X146694934Y-47220323D01*
X146727766Y-47268999D01*
X146759906Y-47318114D01*
X146765622Y-47325122D01*
X147002611Y-47611592D01*
X147044267Y-47652958D01*
X147085338Y-47694899D01*
X147092306Y-47700663D01*
X147380423Y-47935646D01*
X147429336Y-47968144D01*
X147477758Y-48001299D01*
X147485708Y-48005597D01*
X147485712Y-48005600D01*
X147485716Y-48005602D01*
X147813985Y-48180145D01*
X147868261Y-48202516D01*
X147922215Y-48225642D01*
X147930852Y-48228315D01*
X147930856Y-48228317D01*
X147930860Y-48228318D01*
X148286777Y-48335775D01*
X148344338Y-48347173D01*
X148401787Y-48359384D01*
X148410778Y-48360329D01*
X148410780Y-48360329D01*
X148780796Y-48396609D01*
X148780809Y-48396609D01*
X148812191Y-48399700D01*
X159035809Y-48399700D01*
X159069080Y-48396423D01*
X159093803Y-48396423D01*
X159102796Y-48395478D01*
X159472270Y-48354035D01*
X159529710Y-48341826D01*
X159587278Y-48330427D01*
X159595917Y-48327753D01*
X159950304Y-48215335D01*
X160004293Y-48192195D01*
X160058536Y-48169838D01*
X160066491Y-48165537D01*
X160392294Y-47986425D01*
X160440740Y-47953253D01*
X160489627Y-47920773D01*
X160496590Y-47915012D01*
X160496596Y-47915008D01*
X160496601Y-47915003D01*
X160781403Y-47676026D01*
X160822470Y-47634090D01*
X160864132Y-47592719D01*
X160869847Y-47585711D01*
X161102813Y-47295960D01*
X161134962Y-47246832D01*
X161167785Y-47198170D01*
X161172030Y-47190185D01*
X161344279Y-46860703D01*
X161366282Y-46806243D01*
X161389019Y-46752156D01*
X161391633Y-46743498D01*
X161496605Y-46386833D01*
X161507611Y-46329137D01*
X161519409Y-46271665D01*
X161520290Y-46262672D01*
X161520292Y-46262663D01*
X161520292Y-46262655D01*
X161553988Y-45892405D01*
X161553578Y-45833701D01*
X161553988Y-45774998D01*
X161553106Y-45765998D01*
X161514243Y-45396243D01*
X161502430Y-45338696D01*
X161491438Y-45281073D01*
X161488825Y-45272416D01*
X161378883Y-44917252D01*
X161356114Y-44863088D01*
X161334143Y-44808706D01*
X161329898Y-44800722D01*
X161153066Y-44473677D01*
X161120234Y-44425001D01*
X161088094Y-44375886D01*
X161082378Y-44368878D01*
X160845389Y-44082408D01*
X160803733Y-44041042D01*
X160762662Y-43999101D01*
X160755694Y-43993337D01*
X160467577Y-43758354D01*
X160418664Y-43725856D01*
X160370242Y-43692701D01*
X160362292Y-43688403D01*
X160362288Y-43688400D01*
X160362284Y-43688398D01*
X160034015Y-43513855D01*
X159979753Y-43491490D01*
X159925784Y-43468358D01*
X159917145Y-43465684D01*
X159561223Y-43358224D01*
X159503626Y-43346819D01*
X159446213Y-43334616D01*
X159437223Y-43333671D01*
X159437219Y-43333671D01*
X159067204Y-43297391D01*
X159067191Y-43297391D01*
X159035809Y-43294300D01*
X148812191Y-43294300D01*
X148778920Y-43297577D01*
X148754197Y-43297577D01*
X148745204Y-43298522D01*
X148375730Y-43339965D01*
X148318265Y-43352180D01*
X148260722Y-43363573D01*
X148252083Y-43366247D01*
X147897696Y-43478665D01*
X147843720Y-43501799D01*
X147789463Y-43524162D01*
X147781509Y-43528463D01*
X147455706Y-43707575D01*
X147407277Y-43740735D01*
X147358372Y-43773227D01*
X147351410Y-43778988D01*
X147351404Y-43778992D01*
X147351399Y-43778997D01*
X147066597Y-44017974D01*
X147025511Y-44059929D01*
X146983868Y-44101282D01*
X146978158Y-44108284D01*
X146978153Y-44108289D01*
X146978149Y-44108294D01*
X146745187Y-44398040D01*
X146713042Y-44447163D01*
X146680215Y-44495831D01*
X146675973Y-44503811D01*
X146675970Y-44503815D01*
X146675970Y-44503816D01*
X146503721Y-44833297D01*
X146481722Y-44887745D01*
X146458981Y-44941844D01*
X146456367Y-44950501D01*
X146351395Y-45307167D01*
X146340389Y-45364863D01*
X146328591Y-45422335D01*
X146327710Y-45431328D01*
X146327708Y-45431337D01*
X146327708Y-45431345D01*
X146294012Y-45801595D01*
X127660000Y-45801595D01*
X127660000Y-42062000D01*
X180188001Y-42062000D01*
X180188000Y-99608370D01*
X180188000Y-99608370D01*
G37*
X180188000Y-99608370D02*
X179381284Y-98801654D01*
X179357422Y-98772578D01*
X179241392Y-98677355D01*
X179109015Y-98606598D01*
X178965378Y-98563026D01*
X178853426Y-98552000D01*
X178853423Y-98552000D01*
X178816000Y-98548314D01*
X178778577Y-98552000D01*
X172019631Y-98552000D01*
X169545000Y-96077370D01*
X169545000Y-94826129D01*
X169609818Y-95039808D01*
X169743068Y-95289101D01*
X169922392Y-95507608D01*
X170140899Y-95686932D01*
X170390192Y-95820182D01*
X170660691Y-95902236D01*
X170871508Y-95923000D01*
X171012492Y-95923000D01*
X171223309Y-95902236D01*
X171493808Y-95820182D01*
X171743101Y-95686932D01*
X171961608Y-95507608D01*
X172140932Y-95289101D01*
X172274182Y-95039808D01*
X172356236Y-94769309D01*
X172383943Y-94488000D01*
X172356236Y-94206691D01*
X172274182Y-93936192D01*
X172140932Y-93686899D01*
X171961608Y-93468392D01*
X171743101Y-93289068D01*
X171698694Y-93265332D01*
X171692974Y-93207252D01*
X171649402Y-93063615D01*
X171578645Y-92931238D01*
X171483422Y-92815208D01*
X171454352Y-92791351D01*
X166288654Y-87625654D01*
X166264792Y-87596578D01*
X166148762Y-87501355D01*
X166016385Y-87430598D01*
X165872748Y-87387026D01*
X165760796Y-87376000D01*
X165760793Y-87376000D01*
X165723370Y-87372314D01*
X165685947Y-87376000D01*
X162621630Y-87376000D01*
X146812000Y-71566370D01*
X146812000Y-64836976D01*
X147028505Y-64692312D01*
X147242312Y-64478505D01*
X147410299Y-64227095D01*
X147526011Y-63947743D01*
X147585000Y-63651184D01*
X147585000Y-63348816D01*
X147526011Y-63052257D01*
X147410299Y-62772905D01*
X147242312Y-62521495D01*
X147028505Y-62307688D01*
X146777095Y-62139701D01*
X146497743Y-62023989D01*
X146201184Y-61965000D01*
X145898816Y-61965000D01*
X145602257Y-62023989D01*
X145322905Y-62139701D01*
X145071495Y-62307688D01*
X145005056Y-62374127D01*
X144999502Y-62355820D01*
X144940537Y-62245506D01*
X144861185Y-62148815D01*
X144819239Y-62114391D01*
X145465631Y-61468000D01*
X158064370Y-61468000D01*
X158710761Y-62114391D01*
X158668815Y-62148815D01*
X158589463Y-62245506D01*
X158530498Y-62355820D01*
X158524944Y-62374127D01*
X158458505Y-62307688D01*
X158207095Y-62139701D01*
X157927743Y-62023989D01*
X157631184Y-61965000D01*
X157328816Y-61965000D01*
X157032257Y-62023989D01*
X156752905Y-62139701D01*
X156501495Y-62307688D01*
X156287688Y-62521495D01*
X156119701Y-62772905D01*
X156003989Y-63052257D01*
X155945000Y-63348816D01*
X155945000Y-63651184D01*
X156003989Y-63947743D01*
X156119701Y-64227095D01*
X156287688Y-64478505D01*
X156501495Y-64692312D01*
X156718000Y-64836977D01*
X156718000Y-66002577D01*
X156714314Y-66040000D01*
X156718000Y-66077423D01*
X156718000Y-66077425D01*
X156729026Y-66189377D01*
X156772598Y-66333014D01*
X156772599Y-66333015D01*
X156843355Y-66465392D01*
X156882983Y-66513678D01*
X156938578Y-66581422D01*
X156967654Y-66605284D01*
X158184720Y-67822351D01*
X158208578Y-67851422D01*
X158324608Y-67946645D01*
X158456985Y-68017402D01*
X158600622Y-68060974D01*
X158712574Y-68072000D01*
X158712576Y-68072000D01*
X158749999Y-68075686D01*
X158787422Y-68072000D01*
X160974370Y-68072000D01*
X163576001Y-70673632D01*
X163576000Y-83528577D01*
X163572314Y-83566000D01*
X163576000Y-83603423D01*
X163576000Y-83603425D01*
X163587026Y-83715377D01*
X163630598Y-83859014D01*
X163630599Y-83859015D01*
X163701355Y-83991392D01*
X163740983Y-84039678D01*
X163796578Y-84107422D01*
X163825654Y-84131284D01*
X173858634Y-94164264D01*
X173845764Y-94206691D01*
X173818057Y-94488000D01*
X173845764Y-94769309D01*
X173927818Y-95039808D01*
X174061068Y-95289101D01*
X174240392Y-95507608D01*
X174458899Y-95686932D01*
X174708192Y-95820182D01*
X174978691Y-95902236D01*
X175189508Y-95923000D01*
X175330492Y-95923000D01*
X175541309Y-95902236D01*
X175811808Y-95820182D01*
X176061101Y-95686932D01*
X176279608Y-95507608D01*
X176458932Y-95289101D01*
X176592182Y-95039808D01*
X176674236Y-94769309D01*
X176701943Y-94488000D01*
X176674236Y-94206691D01*
X176592182Y-93936192D01*
X176458932Y-93686899D01*
X176279608Y-93468392D01*
X176061101Y-93289068D01*
X175811808Y-93155818D01*
X175541309Y-93073764D01*
X175330492Y-93053000D01*
X175189508Y-93053000D01*
X174978691Y-93073764D01*
X174936264Y-93086634D01*
X165100000Y-83250370D01*
X165100000Y-70395423D01*
X165103686Y-70358000D01*
X165100000Y-70320574D01*
X165088974Y-70208622D01*
X165045402Y-70064985D01*
X165012465Y-70003364D01*
X164974645Y-69932607D01*
X164903279Y-69845648D01*
X164879422Y-69816578D01*
X164850352Y-69792721D01*
X161855284Y-66797654D01*
X161831422Y-66768578D01*
X161715392Y-66673355D01*
X161583015Y-66602598D01*
X161439378Y-66559026D01*
X161327426Y-66548000D01*
X161327423Y-66548000D01*
X161290000Y-66544314D01*
X161252577Y-66548000D01*
X159065631Y-66548000D01*
X158242000Y-65724370D01*
X158242000Y-64836976D01*
X158458505Y-64692312D01*
X158524944Y-64625873D01*
X158530498Y-64644180D01*
X158589463Y-64754494D01*
X158668815Y-64851185D01*
X158765506Y-64930537D01*
X158875820Y-64989502D01*
X158995518Y-65025812D01*
X159120000Y-65038072D01*
X160920000Y-65038072D01*
X161044482Y-65025812D01*
X161164180Y-64989502D01*
X161274494Y-64930537D01*
X161371185Y-64851185D01*
X161450537Y-64754494D01*
X161509502Y-64644180D01*
X161545812Y-64524482D01*
X161558072Y-64400000D01*
X161558072Y-62600000D01*
X161545812Y-62475518D01*
X161509502Y-62355820D01*
X161450537Y-62245506D01*
X161371185Y-62148815D01*
X161274494Y-62069463D01*
X161164180Y-62010498D01*
X161044482Y-61974188D01*
X160920000Y-61961928D01*
X160678731Y-61961928D01*
X160656645Y-61920608D01*
X160561422Y-61804578D01*
X160532352Y-61780721D01*
X158945284Y-60193654D01*
X158921422Y-60164578D01*
X158805392Y-60069355D01*
X158673015Y-59998598D01*
X158529378Y-59955026D01*
X158417426Y-59944000D01*
X158417423Y-59944000D01*
X158380000Y-59940314D01*
X158342577Y-59944000D01*
X145187422Y-59944000D01*
X145149999Y-59940314D01*
X145112576Y-59944000D01*
X145112574Y-59944000D01*
X145000622Y-59955026D01*
X144856985Y-59998598D01*
X144724608Y-60069355D01*
X144608578Y-60164578D01*
X144584721Y-60193648D01*
X142997654Y-61780716D01*
X142968578Y-61804578D01*
X142912983Y-61872322D01*
X142873355Y-61920608D01*
X142851269Y-61961928D01*
X142610000Y-61961928D01*
X142485518Y-61974188D01*
X142365820Y-62010498D01*
X142255506Y-62069463D01*
X142158815Y-62148815D01*
X142079463Y-62245506D01*
X142020498Y-62355820D01*
X141984188Y-62475518D01*
X141971928Y-62600000D01*
X141971928Y-64400000D01*
X141984188Y-64524482D01*
X142020498Y-64644180D01*
X142079463Y-64754494D01*
X142158815Y-64851185D01*
X142255506Y-64930537D01*
X142365820Y-64989502D01*
X142485518Y-65025812D01*
X142610000Y-65038072D01*
X142748000Y-65038072D01*
X142748001Y-78084529D01*
X142744314Y-78121962D01*
X142759027Y-78271340D01*
X142802599Y-78414977D01*
X142873355Y-78547354D01*
X142944721Y-78634313D01*
X142968579Y-78663384D01*
X142997649Y-78687241D01*
X155630019Y-91319612D01*
X155630020Y-92092586D01*
X155626333Y-92130019D01*
X155641046Y-92279397D01*
X155684618Y-92423034D01*
X155755374Y-92555411D01*
X155826740Y-92642370D01*
X155850598Y-92671441D01*
X155879668Y-92695298D01*
X156124370Y-92940000D01*
X156055691Y-92946764D01*
X155785192Y-93028818D01*
X155535899Y-93162068D01*
X155317392Y-93341392D01*
X155138068Y-93559899D01*
X155004818Y-93809192D01*
X154922764Y-94079691D01*
X154895057Y-94361000D01*
X154922764Y-94642309D01*
X155004818Y-94912808D01*
X155138068Y-95162101D01*
X155317392Y-95380608D01*
X155535899Y-95559932D01*
X155580306Y-95583668D01*
X155586027Y-95641748D01*
X155629599Y-95785385D01*
X155700355Y-95917762D01*
X155730687Y-95954721D01*
X155795579Y-96033792D01*
X155824649Y-96057649D01*
X158496000Y-98729001D01*
X158496001Y-105348370D01*
X157099000Y-103951370D01*
X157099000Y-103197707D01*
X157251759Y-103095637D01*
X157451637Y-102895759D01*
X157608680Y-102660727D01*
X157716853Y-102399574D01*
X157772000Y-102122335D01*
X157772000Y-101839665D01*
X157716853Y-101562426D01*
X157608680Y-101301273D01*
X157451637Y-101066241D01*
X157251759Y-100866363D01*
X157016727Y-100709320D01*
X156755574Y-100601147D01*
X156478335Y-100546000D01*
X156195665Y-100546000D01*
X156015473Y-100581843D01*
X155191356Y-99757726D01*
X155182974Y-99672622D01*
X155139402Y-99528985D01*
X155068645Y-99396608D01*
X154973422Y-99280578D01*
X154944353Y-99256722D01*
X152654000Y-96966370D01*
X152654000Y-95707832D01*
X152693101Y-95686932D01*
X152911608Y-95507608D01*
X153090932Y-95289101D01*
X153224182Y-95039808D01*
X153306236Y-94769309D01*
X153333943Y-94488000D01*
X153306236Y-94206691D01*
X153224182Y-93936192D01*
X153090932Y-93686899D01*
X152911608Y-93468392D01*
X152693101Y-93289068D01*
X152443808Y-93155818D01*
X152173309Y-93073764D01*
X151962492Y-93053000D01*
X151821508Y-93053000D01*
X151610691Y-93073764D01*
X151340192Y-93155818D01*
X151090899Y-93289068D01*
X150872392Y-93468392D01*
X150693068Y-93686899D01*
X150559818Y-93936192D01*
X150477764Y-94206691D01*
X150450057Y-94488000D01*
X150477764Y-94769309D01*
X150559818Y-95039808D01*
X150693068Y-95289101D01*
X150872392Y-95507608D01*
X151090899Y-95686932D01*
X151130000Y-95707832D01*
X151130001Y-97244567D01*
X151126314Y-97282000D01*
X151141027Y-97431378D01*
X151184599Y-97575015D01*
X151255355Y-97707392D01*
X151312256Y-97776725D01*
X151350579Y-97823422D01*
X151379649Y-97847279D01*
X153672644Y-100140275D01*
X153681026Y-100225378D01*
X153724598Y-100369015D01*
X153795355Y-100501392D01*
X153890578Y-100617422D01*
X153919653Y-100641283D01*
X154937843Y-101659473D01*
X154902000Y-101839665D01*
X154902000Y-102122335D01*
X154957147Y-102399574D01*
X155065320Y-102660727D01*
X155222363Y-102895759D01*
X155422241Y-103095637D01*
X155575001Y-103197707D01*
X155575001Y-104229567D01*
X155571314Y-104267000D01*
X155586027Y-104416378D01*
X155629599Y-104560015D01*
X155700355Y-104692392D01*
X155769500Y-104776645D01*
X155795579Y-104808422D01*
X155824649Y-104832279D01*
X157480000Y-106487631D01*
X157480001Y-110334995D01*
X157351465Y-110420880D01*
X157156880Y-110615465D01*
X157003995Y-110844273D01*
X156972000Y-110921515D01*
X156940005Y-110844273D01*
X156787120Y-110615465D01*
X156592535Y-110420880D01*
X156363727Y-110267995D01*
X156109490Y-110162686D01*
X155839592Y-110109000D01*
X155564408Y-110109000D01*
X155294510Y-110162686D01*
X155040273Y-110267995D01*
X154811465Y-110420880D01*
X154742345Y-110490000D01*
X152908000Y-110490000D01*
X152908000Y-103121396D01*
X153006637Y-103022759D01*
X153163680Y-102787727D01*
X153271853Y-102526574D01*
X153327000Y-102249335D01*
X153327000Y-101966665D01*
X153271853Y-101689426D01*
X153163680Y-101428273D01*
X153006637Y-101193241D01*
X152806759Y-100993363D01*
X152571727Y-100836320D01*
X152310574Y-100728147D01*
X152033335Y-100673000D01*
X151750665Y-100673000D01*
X151473426Y-100728147D01*
X151212273Y-100836320D01*
X150977241Y-100993363D01*
X150777363Y-101193241D01*
X150620320Y-101428273D01*
X150512147Y-101689426D01*
X150457000Y-101966665D01*
X150457000Y-102249335D01*
X150512147Y-102526574D01*
X150620320Y-102787727D01*
X150777363Y-103022759D01*
X150876001Y-103121397D01*
X150876000Y-108916098D01*
X150876000Y-108916099D01*
X150876001Y-111456088D01*
X150871085Y-111506000D01*
X150876000Y-111555902D01*
X150876000Y-113561852D01*
X150840537Y-113495506D01*
X150761185Y-113398815D01*
X150664494Y-113319463D01*
X150554180Y-113260498D01*
X150434482Y-113224188D01*
X150310000Y-113211928D01*
X149510750Y-113215000D01*
X149352000Y-113373750D01*
X149352000Y-114808000D01*
X149372000Y-114808000D01*
X149372000Y-115062000D01*
X149352000Y-115062000D01*
X149352000Y-116496250D01*
X149510750Y-116655000D01*
X150310000Y-116658072D01*
X150434482Y-116645812D01*
X150554180Y-116609502D01*
X150664494Y-116550537D01*
X150761185Y-116471185D01*
X150840537Y-116374494D01*
X150876001Y-116308147D01*
X150876001Y-119330088D01*
X150871085Y-119380000D01*
X150890702Y-119579170D01*
X150933401Y-119719928D01*
X150948799Y-119770687D01*
X151043141Y-119947190D01*
X151170105Y-120101896D01*
X151208868Y-120133708D01*
X153170292Y-122095133D01*
X153202104Y-122133896D01*
X153356810Y-122260860D01*
X153533313Y-122355202D01*
X153711270Y-122409185D01*
X153724829Y-122413298D01*
X153924000Y-122432915D01*
X153973902Y-122428000D01*
X158702833Y-122428000D01*
X158454621Y-122593850D01*
X158239471Y-122809000D01*
X132119841Y-122809000D01*
X130241000Y-120930160D01*
X130241000Y-116523201D01*
X130426618Y-116399175D01*
X130689175Y-116136618D01*
X130767096Y-116020000D01*
X147501928Y-116020000D01*
X147514188Y-116144482D01*
X147550498Y-116264180D01*
X147609463Y-116374494D01*
X147688815Y-116471185D01*
X147785506Y-116550537D01*
X147895820Y-116609502D01*
X148015518Y-116645812D01*
X148140000Y-116658072D01*
X148939250Y-116655000D01*
X149098000Y-116496250D01*
X149098000Y-115062000D01*
X147663750Y-115062000D01*
X147505000Y-115220750D01*
X147501928Y-116020000D01*
X130767096Y-116020000D01*
X130895466Y-115827882D01*
X131037561Y-115484834D01*
X131110000Y-115120656D01*
X131110000Y-114749344D01*
X131037561Y-114385166D01*
X130895466Y-114042118D01*
X130767097Y-113850000D01*
X147501928Y-113850000D01*
X147505000Y-114649250D01*
X147663750Y-114808000D01*
X149098000Y-114808000D01*
X149098000Y-113373750D01*
X148939250Y-113215000D01*
X148140000Y-113211928D01*
X148015518Y-113224188D01*
X147895820Y-113260498D01*
X147785506Y-113319463D01*
X147688815Y-113398815D01*
X147609463Y-113495506D01*
X147550498Y-113605820D01*
X147514188Y-113725518D01*
X147501928Y-113850000D01*
X130767097Y-113850000D01*
X130689175Y-113733382D01*
X130426618Y-113470825D01*
X130117882Y-113264534D01*
X129774834Y-113122439D01*
X129410656Y-113050000D01*
X129039344Y-113050000D01*
X128675166Y-113122439D01*
X128332118Y-113264534D01*
X128023382Y-113470825D01*
X127760825Y-113733382D01*
X127660000Y-113884277D01*
X127660000Y-45801595D01*
X146294012Y-45801595D01*
X146294422Y-45860299D01*
X146294012Y-45919003D01*
X146294894Y-45928003D01*
X146333757Y-46297757D01*
X146345563Y-46355274D01*
X146356561Y-46412926D01*
X146359175Y-46421584D01*
X146469117Y-46776747D01*
X146491874Y-46830883D01*
X146513857Y-46885293D01*
X146518102Y-46893278D01*
X146694934Y-47220323D01*
X146727766Y-47268999D01*
X146759906Y-47318114D01*
X146765622Y-47325122D01*
X147002611Y-47611592D01*
X147044267Y-47652958D01*
X147085338Y-47694899D01*
X147092306Y-47700663D01*
X147380423Y-47935646D01*
X147429336Y-47968144D01*
X147477758Y-48001299D01*
X147485708Y-48005597D01*
X147485712Y-48005600D01*
X147485716Y-48005602D01*
X147813985Y-48180145D01*
X147868261Y-48202516D01*
X147922215Y-48225642D01*
X147930852Y-48228315D01*
X147930856Y-48228317D01*
X147930860Y-48228318D01*
X148286777Y-48335775D01*
X148344338Y-48347173D01*
X148401787Y-48359384D01*
X148410778Y-48360329D01*
X148410780Y-48360329D01*
X148780796Y-48396609D01*
X148780809Y-48396609D01*
X148812191Y-48399700D01*
X159035809Y-48399700D01*
X159069080Y-48396423D01*
X159093803Y-48396423D01*
X159102796Y-48395478D01*
X159472270Y-48354035D01*
X159529710Y-48341826D01*
X159587278Y-48330427D01*
X159595917Y-48327753D01*
X159950304Y-48215335D01*
X160004293Y-48192195D01*
X160058536Y-48169838D01*
X160066491Y-48165537D01*
X160392294Y-47986425D01*
X160440740Y-47953253D01*
X160489627Y-47920773D01*
X160496590Y-47915012D01*
X160496596Y-47915008D01*
X160496601Y-47915003D01*
X160781403Y-47676026D01*
X160822470Y-47634090D01*
X160864132Y-47592719D01*
X160869847Y-47585711D01*
X161102813Y-47295960D01*
X161134962Y-47246832D01*
X161167785Y-47198170D01*
X161172030Y-47190185D01*
X161344279Y-46860703D01*
X161366282Y-46806243D01*
X161389019Y-46752156D01*
X161391633Y-46743498D01*
X161496605Y-46386833D01*
X161507611Y-46329137D01*
X161519409Y-46271665D01*
X161520290Y-46262672D01*
X161520292Y-46262663D01*
X161520292Y-46262655D01*
X161553988Y-45892405D01*
X161553578Y-45833701D01*
X161553988Y-45774998D01*
X161553106Y-45765998D01*
X161514243Y-45396243D01*
X161502430Y-45338696D01*
X161491438Y-45281073D01*
X161488825Y-45272416D01*
X161378883Y-44917252D01*
X161356114Y-44863088D01*
X161334143Y-44808706D01*
X161329898Y-44800722D01*
X161153066Y-44473677D01*
X161120234Y-44425001D01*
X161088094Y-44375886D01*
X161082378Y-44368878D01*
X160845389Y-44082408D01*
X160803733Y-44041042D01*
X160762662Y-43999101D01*
X160755694Y-43993337D01*
X160467577Y-43758354D01*
X160418664Y-43725856D01*
X160370242Y-43692701D01*
X160362292Y-43688403D01*
X160362288Y-43688400D01*
X160362284Y-43688398D01*
X160034015Y-43513855D01*
X159979753Y-43491490D01*
X159925784Y-43468358D01*
X159917145Y-43465684D01*
X159561223Y-43358224D01*
X159503626Y-43346819D01*
X159446213Y-43334616D01*
X159437223Y-43333671D01*
X159437219Y-43333671D01*
X159067204Y-43297391D01*
X159067191Y-43297391D01*
X159035809Y-43294300D01*
X148812191Y-43294300D01*
X148778920Y-43297577D01*
X148754197Y-43297577D01*
X148745204Y-43298522D01*
X148375730Y-43339965D01*
X148318265Y-43352180D01*
X148260722Y-43363573D01*
X148252083Y-43366247D01*
X147897696Y-43478665D01*
X147843720Y-43501799D01*
X147789463Y-43524162D01*
X147781509Y-43528463D01*
X147455706Y-43707575D01*
X147407277Y-43740735D01*
X147358372Y-43773227D01*
X147351410Y-43778988D01*
X147351404Y-43778992D01*
X147351399Y-43778997D01*
X147066597Y-44017974D01*
X147025511Y-44059929D01*
X146983868Y-44101282D01*
X146978158Y-44108284D01*
X146978153Y-44108289D01*
X146978149Y-44108294D01*
X146745187Y-44398040D01*
X146713042Y-44447163D01*
X146680215Y-44495831D01*
X146675973Y-44503811D01*
X146675970Y-44503815D01*
X146675970Y-44503816D01*
X146503721Y-44833297D01*
X146481722Y-44887745D01*
X146458981Y-44941844D01*
X146456367Y-44950501D01*
X146351395Y-45307167D01*
X146340389Y-45364863D01*
X146328591Y-45422335D01*
X146327710Y-45431328D01*
X146327708Y-45431337D01*
X146327708Y-45431345D01*
X146294012Y-45801595D01*
X127660000Y-45801595D01*
X127660000Y-42062000D01*
X180188001Y-42062000D01*
X180188000Y-99608370D01*
M02*
