M48
; DRILL file {KiCad 5.1.1-8be2ce7~80~ubuntu18.04.1} date Wed 17 Apr 2019 04:16:17 AM PDT
; FORMAT={-:-/ absolute / inch / decimal}
; #@! TF.CreationDate,2019-04-17T04:16:17-07:00
; #@! TF.GenerationSoftware,Kicad,Pcbnew,5.1.1-8be2ce7~80~ubuntu18.04.1
; #@! TF.FileFunction,Plated,1,2,PTH
FMAT,2
INCH
T1C0.0295
T2C0.0300
T3C0.0315
T4C0.0354
T5C0.0461
T6C0.0591
%
G90
G05
T1
X6.65Y-4.3
X6.65Y-4.35
X6.65Y-4.4
T2
X6.13Y-4.39
X6.13Y-4.69
X6.23Y-4.39
X6.23Y-4.69
X6.33Y-4.39
X6.33Y-4.69
X6.43Y-4.39
X6.43Y-4.69
T3
X6.41Y-4.17
X6.71Y-4.17
X6.355Y-3.715
X6.355Y-4.015
X6.155Y-3.715
X6.155Y-4.015
X5.98Y-3.72
X5.98Y-4.02
X6.555Y-3.715
X6.555Y-4.015
X6.73Y-3.72
X6.73Y-4.02
X6.9Y-3.72
X6.9Y-4.02
X6.9116Y-4.77
X7.01Y-4.77
X6.6Y-4.61
X6.6787Y-4.61
T4
X6.2781Y-4.875
X6.3766Y-4.875
X6.475Y-4.875
X6.2Y-2.5
X6.3Y-2.5
X5.65Y-2.5
X5.75Y-2.5
T5
X5.875Y-4.525
T6
X5.0876Y-4.525
T0
M30
