G04 #@! TF.GenerationSoftware,KiCad,Pcbnew,5.1.1-8be2ce7~80~ubuntu18.04.1*
G04 #@! TF.CreationDate,2019-04-17T04:14:47-07:00*
G04 #@! TF.ProjectId,555_timer,3535355f-7469-46d6-9572-2e6b69636164,v01*
G04 #@! TF.SameCoordinates,Original*
G04 #@! TF.FileFunction,Legend,Top*
G04 #@! TF.FilePolarity,Positive*
%FSLAX46Y46*%
G04 Gerber Fmt 4.6, Leading zero omitted, Abs format (unit mm)*
G04 Created by KiCad (PCBNEW 5.1.1-8be2ce7~80~ubuntu18.04.1) date 2019-04-17 04:14:47*
%MOMM*%
%LPD*%
G04 APERTURE LIST*
%ADD10C,0.150000*%
%ADD11C,0.010000*%
%ADD12C,0.120000*%
%ADD13C,0.100000*%
%ADD14C,0.203200*%
G04 APERTURE END LIST*
D10*
X131270057Y-76982628D02*
X132031961Y-76982628D01*
X132508152Y-76982628D02*
X133270057Y-76982628D01*
X133746247Y-76982628D02*
X134508152Y-76982628D01*
X134984342Y-76982628D02*
X135746247Y-76982628D01*
X136222438Y-76982628D02*
X136984342Y-76982628D01*
X137460533Y-76982628D02*
X138222438Y-76982628D01*
X138698628Y-76982628D02*
X139460533Y-76982628D01*
X139936723Y-76982628D02*
X140698628Y-76982628D01*
X141174819Y-76982628D02*
X141936723Y-76982628D01*
X142412914Y-76982628D02*
X143174819Y-76982628D01*
X143651009Y-76982628D02*
X144412914Y-76982628D01*
X144889104Y-76982628D02*
X145651009Y-76982628D01*
X146127200Y-76982628D02*
X146889104Y-76982628D01*
X147365295Y-76982628D02*
X148127200Y-76982628D01*
X148603390Y-76982628D02*
X149365295Y-76982628D01*
X149841485Y-76982628D02*
X150603390Y-76982628D01*
X151841485Y-77363580D02*
X151841485Y-76363580D01*
X152174819Y-76363580D02*
X152508152Y-77363580D01*
X152841485Y-76363580D01*
X153936723Y-76982628D02*
X154698628Y-76982628D01*
X156460533Y-77363580D02*
X155889104Y-77363580D01*
X156174819Y-77363580D02*
X156174819Y-76363580D01*
X156079580Y-76506438D01*
X155984342Y-76601676D01*
X155889104Y-76649295D01*
X157651009Y-76982628D02*
X158412914Y-76982628D01*
X158889104Y-76982628D02*
X159651009Y-76982628D01*
X160127200Y-76982628D02*
X160889104Y-76982628D01*
X161365295Y-76982628D02*
X162127200Y-76982628D01*
X162603390Y-76982628D02*
X163365295Y-76982628D01*
X163841485Y-76982628D02*
X164603390Y-76982628D01*
X165079580Y-76982628D02*
X165841485Y-76982628D01*
X166317676Y-76982628D02*
X167079580Y-76982628D01*
X167555771Y-76982628D02*
X168317676Y-76982628D01*
X168793866Y-76982628D02*
X169555771Y-76982628D01*
X170031961Y-76982628D02*
X170793866Y-76982628D01*
X171270057Y-76982628D02*
X172031961Y-76982628D01*
X172508152Y-76982628D02*
X173270057Y-76982628D01*
X173746247Y-76982628D02*
X174508152Y-76982628D01*
X174984342Y-76982628D02*
X175746247Y-76982628D01*
X176222438Y-76982628D02*
X176984342Y-76982628D01*
X137665771Y-72664628D02*
X138427676Y-72664628D01*
X138903866Y-72664628D02*
X139665771Y-72664628D01*
X140141961Y-72664628D02*
X140903866Y-72664628D01*
X141380057Y-72664628D02*
X142141961Y-72664628D01*
X142618152Y-72664628D02*
X143380057Y-72664628D01*
X143856247Y-72664628D02*
X144618152Y-72664628D01*
X145094342Y-72664628D02*
X145856247Y-72664628D01*
X147094342Y-73045580D02*
X147094342Y-72045580D01*
X147427676Y-72759866D01*
X147761009Y-72045580D01*
X147761009Y-73045580D01*
X148951485Y-72759866D02*
X149427676Y-72759866D01*
X148856247Y-73045580D02*
X149189580Y-72045580D01*
X149522914Y-73045580D01*
X150475295Y-72045580D02*
X151046723Y-72045580D01*
X150761009Y-73045580D02*
X150761009Y-72045580D01*
X152094342Y-72759866D02*
X152570533Y-72759866D01*
X151999104Y-73045580D02*
X152332438Y-72045580D01*
X152665771Y-73045580D01*
X153761009Y-73045580D02*
X153761009Y-72045580D01*
X153999104Y-72045580D01*
X154141961Y-72093200D01*
X154237199Y-72188438D01*
X154284819Y-72283676D01*
X154332438Y-72474152D01*
X154332438Y-72617009D01*
X154284819Y-72807485D01*
X154237199Y-72902723D01*
X154141961Y-72997961D01*
X153999104Y-73045580D01*
X153761009Y-73045580D01*
X155713390Y-72045580D02*
X155903866Y-72045580D01*
X155999104Y-72093200D01*
X156094342Y-72188438D01*
X156141961Y-72378914D01*
X156141961Y-72712247D01*
X156094342Y-72902723D01*
X155999104Y-72997961D01*
X155903866Y-73045580D01*
X155713390Y-73045580D01*
X155618152Y-72997961D01*
X155522914Y-72902723D01*
X155475295Y-72712247D01*
X155475295Y-72378914D01*
X155522914Y-72188438D01*
X155618152Y-72093200D01*
X155713390Y-72045580D01*
X157903866Y-73045580D02*
X157570533Y-72569390D01*
X157332438Y-73045580D02*
X157332438Y-72045580D01*
X157713390Y-72045580D01*
X157808628Y-72093200D01*
X157856247Y-72140819D01*
X157903866Y-72236057D01*
X157903866Y-72378914D01*
X157856247Y-72474152D01*
X157808628Y-72521771D01*
X157713390Y-72569390D01*
X157332438Y-72569390D01*
X159094342Y-72664628D02*
X159856247Y-72664628D01*
X160332438Y-72664628D02*
X161094342Y-72664628D01*
X161570533Y-72664628D02*
X162332438Y-72664628D01*
X162808628Y-72664628D02*
X163570533Y-72664628D01*
X164046723Y-72664628D02*
X164808628Y-72664628D01*
X165284819Y-72664628D02*
X166046723Y-72664628D01*
X166522914Y-72664628D02*
X167284819Y-72664628D01*
X132477790Y-69261028D02*
X133239695Y-69261028D01*
X133715885Y-69261028D02*
X134477790Y-69261028D01*
X134953980Y-69261028D02*
X135715885Y-69261028D01*
X136192076Y-69261028D02*
X136953980Y-69261028D01*
X138192076Y-69641980D02*
X138192076Y-68641980D01*
X138763504Y-69641980D02*
X138334933Y-69070552D01*
X138763504Y-68641980D02*
X138192076Y-69213409D01*
X139620647Y-69641980D02*
X139620647Y-69118171D01*
X139573028Y-69022933D01*
X139477790Y-68975314D01*
X139287314Y-68975314D01*
X139192076Y-69022933D01*
X139620647Y-69594361D02*
X139525409Y-69641980D01*
X139287314Y-69641980D01*
X139192076Y-69594361D01*
X139144457Y-69499123D01*
X139144457Y-69403885D01*
X139192076Y-69308647D01*
X139287314Y-69261028D01*
X139525409Y-69261028D01*
X139620647Y-69213409D01*
X140525409Y-69641980D02*
X140525409Y-68641980D01*
X140525409Y-69594361D02*
X140430171Y-69641980D01*
X140239695Y-69641980D01*
X140144457Y-69594361D01*
X140096838Y-69546742D01*
X140049219Y-69451504D01*
X140049219Y-69165790D01*
X140096838Y-69070552D01*
X140144457Y-69022933D01*
X140239695Y-68975314D01*
X140430171Y-68975314D01*
X140525409Y-69022933D01*
X141763504Y-68975314D02*
X141763504Y-69641980D01*
X141763504Y-69070552D02*
X141811123Y-69022933D01*
X141906361Y-68975314D01*
X142049219Y-68975314D01*
X142144457Y-69022933D01*
X142192076Y-69118171D01*
X142192076Y-69641980D01*
X143049219Y-69594361D02*
X142953980Y-69641980D01*
X142763504Y-69641980D01*
X142668266Y-69594361D01*
X142620647Y-69499123D01*
X142620647Y-69118171D01*
X142668266Y-69022933D01*
X142763504Y-68975314D01*
X142953980Y-68975314D01*
X143049219Y-69022933D01*
X143096838Y-69118171D01*
X143096838Y-69213409D01*
X142620647Y-69308647D01*
X143953980Y-69594361D02*
X143858742Y-69641980D01*
X143668266Y-69641980D01*
X143573028Y-69594361D01*
X143525409Y-69546742D01*
X143477790Y-69451504D01*
X143477790Y-69165790D01*
X143525409Y-69070552D01*
X143573028Y-69022933D01*
X143668266Y-68975314D01*
X143858742Y-68975314D01*
X143953980Y-69022933D01*
X144763504Y-69594361D02*
X144668266Y-69641980D01*
X144477790Y-69641980D01*
X144382552Y-69594361D01*
X144334933Y-69499123D01*
X144334933Y-69118171D01*
X144382552Y-69022933D01*
X144477790Y-68975314D01*
X144668266Y-68975314D01*
X144763504Y-69022933D01*
X144811123Y-69118171D01*
X144811123Y-69213409D01*
X144334933Y-69308647D01*
X146430171Y-68975314D02*
X146430171Y-69641980D01*
X146001599Y-68975314D02*
X146001599Y-69499123D01*
X146049219Y-69594361D01*
X146144457Y-69641980D01*
X146287314Y-69641980D01*
X146382552Y-69594361D01*
X146430171Y-69546742D01*
X147668266Y-68975314D02*
X147668266Y-69832457D01*
X147620647Y-69927695D01*
X147525409Y-69975314D01*
X147477790Y-69975314D01*
X147668266Y-68641980D02*
X147620647Y-68689600D01*
X147668266Y-68737219D01*
X147715885Y-68689600D01*
X147668266Y-68641980D01*
X147668266Y-68737219D01*
X148525409Y-69594361D02*
X148430171Y-69641980D01*
X148239695Y-69641980D01*
X148144457Y-69594361D01*
X148096838Y-69499123D01*
X148096838Y-69118171D01*
X148144457Y-69022933D01*
X148239695Y-68975314D01*
X148430171Y-68975314D01*
X148525409Y-69022933D01*
X148573028Y-69118171D01*
X148573028Y-69213409D01*
X148096838Y-69308647D01*
X149430171Y-69641980D02*
X149430171Y-68641980D01*
X149430171Y-69594361D02*
X149334933Y-69641980D01*
X149144457Y-69641980D01*
X149049219Y-69594361D01*
X149001599Y-69546742D01*
X148953980Y-69451504D01*
X148953980Y-69165790D01*
X149001599Y-69070552D01*
X149049219Y-69022933D01*
X149144457Y-68975314D01*
X149334933Y-68975314D01*
X149430171Y-69022933D01*
X149906361Y-68975314D02*
X149906361Y-69641980D01*
X149906361Y-69070552D02*
X149953980Y-69022933D01*
X150049219Y-68975314D01*
X150192076Y-68975314D01*
X150287314Y-69022933D01*
X150334933Y-69118171D01*
X150334933Y-69641980D01*
X151239695Y-68975314D02*
X151239695Y-69641980D01*
X150811123Y-68975314D02*
X150811123Y-69499123D01*
X150858742Y-69594361D01*
X150953980Y-69641980D01*
X151096838Y-69641980D01*
X151192076Y-69594361D01*
X151239695Y-69546742D01*
X152906361Y-68975314D02*
X152906361Y-69641980D01*
X152477790Y-68975314D02*
X152477790Y-69499123D01*
X152525409Y-69594361D01*
X152620647Y-69641980D01*
X152763504Y-69641980D01*
X152858742Y-69594361D01*
X152906361Y-69546742D01*
X153382552Y-69641980D02*
X153382552Y-68641980D01*
X153382552Y-69022933D02*
X153477790Y-68975314D01*
X153668266Y-68975314D01*
X153763504Y-69022933D01*
X153811123Y-69070552D01*
X153858742Y-69165790D01*
X153858742Y-69451504D01*
X153811123Y-69546742D01*
X153763504Y-69594361D01*
X153668266Y-69641980D01*
X153477790Y-69641980D01*
X153382552Y-69594361D01*
X154715885Y-69641980D02*
X154715885Y-69118171D01*
X154668266Y-69022933D01*
X154573028Y-68975314D01*
X154382552Y-68975314D01*
X154287314Y-69022933D01*
X154715885Y-69594361D02*
X154620647Y-69641980D01*
X154382552Y-69641980D01*
X154287314Y-69594361D01*
X154239695Y-69499123D01*
X154239695Y-69403885D01*
X154287314Y-69308647D01*
X154382552Y-69261028D01*
X154620647Y-69261028D01*
X154715885Y-69213409D01*
X155620647Y-69594361D02*
X155525409Y-69641980D01*
X155334933Y-69641980D01*
X155239695Y-69594361D01*
X155192076Y-69546742D01*
X155144457Y-69451504D01*
X155144457Y-69165790D01*
X155192076Y-69070552D01*
X155239695Y-69022933D01*
X155334933Y-68975314D01*
X155525409Y-68975314D01*
X155620647Y-69022933D01*
X156049219Y-69641980D02*
X156049219Y-68975314D01*
X156049219Y-68641980D02*
X156001599Y-68689600D01*
X156049219Y-68737219D01*
X156096838Y-68689600D01*
X156049219Y-68641980D01*
X156049219Y-68737219D01*
X157715885Y-68975314D02*
X157715885Y-69641980D01*
X157287314Y-68975314D02*
X157287314Y-69499123D01*
X157334933Y-69594361D01*
X157430171Y-69641980D01*
X157573028Y-69641980D01*
X157668266Y-69594361D01*
X157715885Y-69546742D01*
X159382552Y-69641980D02*
X159382552Y-68641980D01*
X159382552Y-69594361D02*
X159287314Y-69641980D01*
X159096838Y-69641980D01*
X159001599Y-69594361D01*
X158953980Y-69546742D01*
X158906361Y-69451504D01*
X158906361Y-69165790D01*
X158953980Y-69070552D01*
X159001599Y-69022933D01*
X159096838Y-68975314D01*
X159287314Y-68975314D01*
X159382552Y-69022933D01*
X159858742Y-69641980D02*
X159858742Y-68975314D01*
X159858742Y-69165790D02*
X159906361Y-69070552D01*
X159953980Y-69022933D01*
X160049219Y-68975314D01*
X160144457Y-68975314D01*
X160906361Y-68975314D02*
X160906361Y-69641980D01*
X160477790Y-68975314D02*
X160477790Y-69499123D01*
X160525409Y-69594361D01*
X160620647Y-69641980D01*
X160763504Y-69641980D01*
X160858742Y-69594361D01*
X160906361Y-69546742D01*
X161811123Y-68975314D02*
X161811123Y-69784838D01*
X161763504Y-69880076D01*
X161715885Y-69927695D01*
X161620647Y-69975314D01*
X161477790Y-69975314D01*
X161382552Y-69927695D01*
X161811123Y-69594361D02*
X161715885Y-69641980D01*
X161525409Y-69641980D01*
X161430171Y-69594361D01*
X161382552Y-69546742D01*
X161334933Y-69451504D01*
X161334933Y-69165790D01*
X161382552Y-69070552D01*
X161430171Y-69022933D01*
X161525409Y-68975314D01*
X161715885Y-68975314D01*
X161811123Y-69022933D01*
X162715885Y-68975314D02*
X162715885Y-69641980D01*
X162287314Y-68975314D02*
X162287314Y-69499123D01*
X162334933Y-69594361D01*
X162430171Y-69641980D01*
X162573028Y-69641980D01*
X162668266Y-69594361D01*
X162715885Y-69546742D01*
X163953980Y-69641980D02*
X163953980Y-68975314D01*
X163953980Y-69165790D02*
X164001599Y-69070552D01*
X164049219Y-69022933D01*
X164144457Y-68975314D01*
X164239695Y-68975314D01*
X165001599Y-68975314D02*
X165001599Y-69641980D01*
X164573028Y-68975314D02*
X164573028Y-69499123D01*
X164620647Y-69594361D01*
X164715885Y-69641980D01*
X164858742Y-69641980D01*
X164953980Y-69594361D01*
X165001599Y-69546742D01*
X165477790Y-68975314D02*
X165477790Y-69975314D01*
X165477790Y-69022933D02*
X165573028Y-68975314D01*
X165763504Y-68975314D01*
X165858742Y-69022933D01*
X165906361Y-69070552D01*
X165953980Y-69165790D01*
X165953980Y-69451504D01*
X165906361Y-69546742D01*
X165858742Y-69594361D01*
X165763504Y-69641980D01*
X165573028Y-69641980D01*
X165477790Y-69594361D01*
X166811123Y-68975314D02*
X166811123Y-69641980D01*
X166382552Y-68975314D02*
X166382552Y-69499123D01*
X166430171Y-69594361D01*
X166525409Y-69641980D01*
X166668266Y-69641980D01*
X166763504Y-69594361D01*
X166811123Y-69546742D01*
X168049219Y-69261028D02*
X168811123Y-69261028D01*
X169287314Y-69261028D02*
X170049219Y-69261028D01*
X170525409Y-69261028D02*
X171287314Y-69261028D01*
X171763504Y-69261028D02*
X172525409Y-69261028D01*
X128904457Y-93369380D02*
X129475885Y-93369380D01*
X129190171Y-94369380D02*
X129190171Y-93369380D01*
X130190171Y-94321761D02*
X130094933Y-94369380D01*
X129904457Y-94369380D01*
X129809219Y-94321761D01*
X129761600Y-94226523D01*
X129761600Y-93845571D01*
X129809219Y-93750333D01*
X129904457Y-93702714D01*
X130094933Y-93702714D01*
X130190171Y-93750333D01*
X130237790Y-93845571D01*
X130237790Y-93940809D01*
X129761600Y-94036047D01*
X130666361Y-94369380D02*
X130666361Y-93369380D01*
X131094933Y-94369380D02*
X131094933Y-93845571D01*
X131047314Y-93750333D01*
X130952076Y-93702714D01*
X130809219Y-93702714D01*
X130713980Y-93750333D01*
X130666361Y-93797952D01*
X131571123Y-93702714D02*
X131571123Y-94369380D01*
X131571123Y-93797952D02*
X131618742Y-93750333D01*
X131713980Y-93702714D01*
X131856838Y-93702714D01*
X131952076Y-93750333D01*
X131999695Y-93845571D01*
X131999695Y-94369380D01*
X132475885Y-94369380D02*
X132475885Y-93702714D01*
X132475885Y-93369380D02*
X132428266Y-93417000D01*
X132475885Y-93464619D01*
X132523504Y-93417000D01*
X132475885Y-93369380D01*
X132475885Y-93464619D01*
X133380647Y-94321761D02*
X133285409Y-94369380D01*
X133094933Y-94369380D01*
X132999695Y-94321761D01*
X132952076Y-94274142D01*
X132904457Y-94178904D01*
X132904457Y-93893190D01*
X132952076Y-93797952D01*
X132999695Y-93750333D01*
X133094933Y-93702714D01*
X133285409Y-93702714D01*
X133380647Y-93750333D01*
X133809219Y-94369380D02*
X133809219Y-93369380D01*
X133904457Y-93988428D02*
X134190171Y-94369380D01*
X134190171Y-93702714D02*
X133809219Y-94083666D01*
X135047314Y-94369380D02*
X135047314Y-93845571D01*
X134999695Y-93750333D01*
X134904457Y-93702714D01*
X134713980Y-93702714D01*
X134618742Y-93750333D01*
X135047314Y-94321761D02*
X134952076Y-94369380D01*
X134713980Y-94369380D01*
X134618742Y-94321761D01*
X134571123Y-94226523D01*
X134571123Y-94131285D01*
X134618742Y-94036047D01*
X134713980Y-93988428D01*
X134952076Y-93988428D01*
X135047314Y-93940809D01*
X136237790Y-94321761D02*
X136333028Y-94369380D01*
X136523504Y-94369380D01*
X136618742Y-94321761D01*
X136666361Y-94226523D01*
X136666361Y-94178904D01*
X136618742Y-94083666D01*
X136523504Y-94036047D01*
X136380647Y-94036047D01*
X136285409Y-93988428D01*
X136237790Y-93893190D01*
X136237790Y-93845571D01*
X136285409Y-93750333D01*
X136380647Y-93702714D01*
X136523504Y-93702714D01*
X136618742Y-93750333D01*
X137094933Y-94369380D02*
X137094933Y-93369380D01*
X137190171Y-93988428D02*
X137475885Y-94369380D01*
X137475885Y-93702714D02*
X137094933Y-94083666D01*
X138047314Y-94369380D02*
X137952076Y-94321761D01*
X137904457Y-94274142D01*
X137856838Y-94178904D01*
X137856838Y-93893190D01*
X137904457Y-93797952D01*
X137952076Y-93750333D01*
X138047314Y-93702714D01*
X138190171Y-93702714D01*
X138285409Y-93750333D01*
X138333028Y-93797952D01*
X138380647Y-93893190D01*
X138380647Y-94178904D01*
X138333028Y-94274142D01*
X138285409Y-94321761D01*
X138190171Y-94369380D01*
X138047314Y-94369380D01*
X138952076Y-94369380D02*
X138856838Y-94321761D01*
X138809219Y-94226523D01*
X138809219Y-93369380D01*
X139761600Y-94369380D02*
X139761600Y-93845571D01*
X139713980Y-93750333D01*
X139618742Y-93702714D01*
X139428266Y-93702714D01*
X139333028Y-93750333D01*
X139761600Y-94321761D02*
X139666361Y-94369380D01*
X139428266Y-94369380D01*
X139333028Y-94321761D01*
X139285409Y-94226523D01*
X139285409Y-94131285D01*
X139333028Y-94036047D01*
X139428266Y-93988428D01*
X139666361Y-93988428D01*
X139761600Y-93940809D01*
X140904457Y-93369380D02*
X141571123Y-93369380D01*
X140904457Y-94369380D01*
X141571123Y-94369380D01*
X142333028Y-94321761D02*
X142237790Y-94369380D01*
X142047314Y-94369380D01*
X141952076Y-94321761D01*
X141904457Y-94226523D01*
X141904457Y-93845571D01*
X141952076Y-93750333D01*
X142047314Y-93702714D01*
X142237790Y-93702714D01*
X142333028Y-93750333D01*
X142380647Y-93845571D01*
X142380647Y-93940809D01*
X141904457Y-94036047D01*
X142809219Y-93702714D02*
X142809219Y-94369380D01*
X142809219Y-93797952D02*
X142856838Y-93750333D01*
X142952076Y-93702714D01*
X143094933Y-93702714D01*
X143190171Y-93750333D01*
X143237790Y-93845571D01*
X143237790Y-94369380D01*
X143713980Y-94369380D02*
X143713980Y-93702714D01*
X143713980Y-93369380D02*
X143666361Y-93417000D01*
X143713980Y-93464619D01*
X143761600Y-93417000D01*
X143713980Y-93369380D01*
X143713980Y-93464619D01*
X144618742Y-94321761D02*
X144523504Y-94369380D01*
X144333028Y-94369380D01*
X144237790Y-94321761D01*
X144190171Y-94274142D01*
X144142552Y-94178904D01*
X144142552Y-93893190D01*
X144190171Y-93797952D01*
X144237790Y-93750333D01*
X144333028Y-93702714D01*
X144523504Y-93702714D01*
X144618742Y-93750333D01*
X145475885Y-94369380D02*
X145475885Y-93845571D01*
X145428266Y-93750333D01*
X145333028Y-93702714D01*
X145142552Y-93702714D01*
X145047314Y-93750333D01*
X145475885Y-94321761D02*
X145380647Y-94369380D01*
X145142552Y-94369380D01*
X145047314Y-94321761D01*
X144999695Y-94226523D01*
X144999695Y-94131285D01*
X145047314Y-94036047D01*
X145142552Y-93988428D01*
X145380647Y-93988428D01*
X145475885Y-93940809D01*
X135547314Y-95114619D02*
X135594933Y-95067000D01*
X135690171Y-95019380D01*
X135928266Y-95019380D01*
X136023504Y-95067000D01*
X136071123Y-95114619D01*
X136118742Y-95209857D01*
X136118742Y-95305095D01*
X136071123Y-95447952D01*
X135499695Y-96019380D01*
X136118742Y-96019380D01*
X136737790Y-95019380D02*
X136833028Y-95019380D01*
X136928266Y-95067000D01*
X136975885Y-95114619D01*
X137023504Y-95209857D01*
X137071123Y-95400333D01*
X137071123Y-95638428D01*
X137023504Y-95828904D01*
X136975885Y-95924142D01*
X136928266Y-95971761D01*
X136833028Y-96019380D01*
X136737790Y-96019380D01*
X136642552Y-95971761D01*
X136594933Y-95924142D01*
X136547314Y-95828904D01*
X136499695Y-95638428D01*
X136499695Y-95400333D01*
X136547314Y-95209857D01*
X136594933Y-95114619D01*
X136642552Y-95067000D01*
X136737790Y-95019380D01*
X138023504Y-96019380D02*
X137452076Y-96019380D01*
X137737790Y-96019380D02*
X137737790Y-95019380D01*
X137642552Y-95162238D01*
X137547314Y-95257476D01*
X137452076Y-95305095D01*
X138499695Y-96019380D02*
X138690171Y-96019380D01*
X138785409Y-95971761D01*
X138833028Y-95924142D01*
X138928266Y-95781285D01*
X138975885Y-95590809D01*
X138975885Y-95209857D01*
X138928266Y-95114619D01*
X138880647Y-95067000D01*
X138785409Y-95019380D01*
X138594933Y-95019380D01*
X138499695Y-95067000D01*
X138452076Y-95114619D01*
X138404457Y-95209857D01*
X138404457Y-95447952D01*
X138452076Y-95543190D01*
X138499695Y-95590809D01*
X138594933Y-95638428D01*
X138785409Y-95638428D01*
X138880647Y-95590809D01*
X138928266Y-95543190D01*
X138975885Y-95447952D01*
X154219352Y-123404380D02*
X154409828Y-123404380D01*
X154505066Y-123452000D01*
X154600304Y-123547238D01*
X154647923Y-123737714D01*
X154647923Y-124071047D01*
X154600304Y-124261523D01*
X154505066Y-124356761D01*
X154409828Y-124404380D01*
X154219352Y-124404380D01*
X154124114Y-124356761D01*
X154028876Y-124261523D01*
X153981257Y-124071047D01*
X153981257Y-123737714D01*
X154028876Y-123547238D01*
X154124114Y-123452000D01*
X154219352Y-123404380D01*
X155076495Y-124404380D02*
X155076495Y-123404380D01*
X155647923Y-124404380D01*
X155647923Y-123404380D01*
X128498647Y-119603828D02*
X129260552Y-119603828D01*
X128879600Y-119984780D02*
X128879600Y-119222876D01*
D11*
G36*
X174291707Y-112439885D02*
G01*
X174302220Y-112542272D01*
X174280585Y-112759583D01*
X174240000Y-112999063D01*
X174179557Y-113280569D01*
X174118215Y-113438036D01*
X174024831Y-113514036D01*
X173868260Y-113551140D01*
X173831954Y-113556821D01*
X173676973Y-113577387D01*
X173375431Y-113614478D01*
X172949022Y-113665532D01*
X172419439Y-113727987D01*
X171808377Y-113799282D01*
X171137527Y-113876857D01*
X170561000Y-113943018D01*
X169859191Y-114023705D01*
X169201007Y-114100188D01*
X168607847Y-114169918D01*
X168101109Y-114230348D01*
X167702194Y-114278929D01*
X167432499Y-114313112D01*
X167322500Y-114328661D01*
X167126040Y-114342243D01*
X167051401Y-114284438D01*
X167047334Y-114248737D01*
X167062192Y-114121881D01*
X167099417Y-113901422D01*
X167147982Y-113644307D01*
X167196859Y-113407483D01*
X167235022Y-113247896D01*
X167247844Y-113213224D01*
X167337013Y-113195904D01*
X167572804Y-113163509D01*
X167933821Y-113118389D01*
X168398665Y-113062894D01*
X168945941Y-112999373D01*
X169554250Y-112930175D01*
X170202196Y-112857648D01*
X170868380Y-112784143D01*
X171531407Y-112712009D01*
X172169878Y-112643594D01*
X172762397Y-112581247D01*
X173287566Y-112527319D01*
X173723988Y-112484158D01*
X174050266Y-112454113D01*
X174245003Y-112439534D01*
X174291707Y-112439885D01*
X174291707Y-112439885D01*
G37*
X174291707Y-112439885D02*
X174302220Y-112542272D01*
X174280585Y-112759583D01*
X174240000Y-112999063D01*
X174179557Y-113280569D01*
X174118215Y-113438036D01*
X174024831Y-113514036D01*
X173868260Y-113551140D01*
X173831954Y-113556821D01*
X173676973Y-113577387D01*
X173375431Y-113614478D01*
X172949022Y-113665532D01*
X172419439Y-113727987D01*
X171808377Y-113799282D01*
X171137527Y-113876857D01*
X170561000Y-113943018D01*
X169859191Y-114023705D01*
X169201007Y-114100188D01*
X168607847Y-114169918D01*
X168101109Y-114230348D01*
X167702194Y-114278929D01*
X167432499Y-114313112D01*
X167322500Y-114328661D01*
X167126040Y-114342243D01*
X167051401Y-114284438D01*
X167047334Y-114248737D01*
X167062192Y-114121881D01*
X167099417Y-113901422D01*
X167147982Y-113644307D01*
X167196859Y-113407483D01*
X167235022Y-113247896D01*
X167247844Y-113213224D01*
X167337013Y-113195904D01*
X167572804Y-113163509D01*
X167933821Y-113118389D01*
X168398665Y-113062894D01*
X168945941Y-112999373D01*
X169554250Y-112930175D01*
X170202196Y-112857648D01*
X170868380Y-112784143D01*
X171531407Y-112712009D01*
X172169878Y-112643594D01*
X172762397Y-112581247D01*
X173287566Y-112527319D01*
X173723988Y-112484158D01*
X174050266Y-112454113D01*
X174245003Y-112439534D01*
X174291707Y-112439885D01*
G36*
X170840290Y-114407134D02*
G01*
X170835684Y-114494620D01*
X170808284Y-114725013D01*
X170761418Y-115073911D01*
X170698413Y-115516914D01*
X170622594Y-116029623D01*
X170587237Y-116263110D01*
X170308208Y-118093109D01*
X170011271Y-118141127D01*
X169730687Y-118188233D01*
X169479348Y-118232973D01*
X169329274Y-118251455D01*
X169272875Y-118202074D01*
X169282945Y-118042843D01*
X169297348Y-117952100D01*
X169328428Y-117765231D01*
X169382333Y-117444863D01*
X169453414Y-117024418D01*
X169536021Y-116537319D01*
X169617000Y-116061067D01*
X169883667Y-114494734D01*
X170348990Y-114437945D01*
X170608641Y-114411071D01*
X170788718Y-114401506D01*
X170840290Y-114407134D01*
X170840290Y-114407134D01*
G37*
X170840290Y-114407134D02*
X170835684Y-114494620D01*
X170808284Y-114725013D01*
X170761418Y-115073911D01*
X170698413Y-115516914D01*
X170622594Y-116029623D01*
X170587237Y-116263110D01*
X170308208Y-118093109D01*
X170011271Y-118141127D01*
X169730687Y-118188233D01*
X169479348Y-118232973D01*
X169329274Y-118251455D01*
X169272875Y-118202074D01*
X169282945Y-118042843D01*
X169297348Y-117952100D01*
X169328428Y-117765231D01*
X169382333Y-117444863D01*
X169453414Y-117024418D01*
X169536021Y-116537319D01*
X169617000Y-116061067D01*
X169883667Y-114494734D01*
X170348990Y-114437945D01*
X170608641Y-114411071D01*
X170788718Y-114401506D01*
X170840290Y-114407134D01*
G36*
X175161111Y-116786368D02*
G01*
X175160125Y-116873976D01*
X175130966Y-117083185D01*
X175079861Y-117369795D01*
X175076445Y-117387400D01*
X174963667Y-117966067D01*
X173693667Y-118100717D01*
X172986259Y-118176071D01*
X172429786Y-118235175D01*
X172006676Y-118278465D01*
X171699353Y-118306376D01*
X171490244Y-118319346D01*
X171361776Y-118317810D01*
X171296375Y-118302204D01*
X171276468Y-118272964D01*
X171284479Y-118230528D01*
X171302836Y-118175330D01*
X171306896Y-118159952D01*
X171347201Y-117957940D01*
X171394041Y-117678244D01*
X171411204Y-117563900D01*
X171455130Y-117328931D01*
X171501861Y-117181860D01*
X171523114Y-117157389D01*
X171619729Y-117147279D01*
X171859155Y-117121492D01*
X172215875Y-117082795D01*
X172664375Y-117033960D01*
X173179139Y-116977756D01*
X173355000Y-116958524D01*
X173883621Y-116901840D01*
X174352365Y-116853770D01*
X174736209Y-116816701D01*
X175010131Y-116793016D01*
X175149110Y-116785100D01*
X175161111Y-116786368D01*
X175161111Y-116786368D01*
G37*
X175161111Y-116786368D02*
X175160125Y-116873976D01*
X175130966Y-117083185D01*
X175079861Y-117369795D01*
X175076445Y-117387400D01*
X174963667Y-117966067D01*
X173693667Y-118100717D01*
X172986259Y-118176071D01*
X172429786Y-118235175D01*
X172006676Y-118278465D01*
X171699353Y-118306376D01*
X171490244Y-118319346D01*
X171361776Y-118317810D01*
X171296375Y-118302204D01*
X171276468Y-118272964D01*
X171284479Y-118230528D01*
X171302836Y-118175330D01*
X171306896Y-118159952D01*
X171347201Y-117957940D01*
X171394041Y-117678244D01*
X171411204Y-117563900D01*
X171455130Y-117328931D01*
X171501861Y-117181860D01*
X171523114Y-117157389D01*
X171619729Y-117147279D01*
X171859155Y-117121492D01*
X172215875Y-117082795D01*
X172664375Y-117033960D01*
X173179139Y-116977756D01*
X173355000Y-116958524D01*
X173883621Y-116901840D01*
X174352365Y-116853770D01*
X174736209Y-116816701D01*
X175010131Y-116793016D01*
X175149110Y-116785100D01*
X175161111Y-116786368D01*
G36*
X171354475Y-118694513D02*
G01*
X171502332Y-118847266D01*
X171711890Y-119079397D01*
X171960885Y-119364662D01*
X172227054Y-119676813D01*
X172488136Y-119989606D01*
X172721866Y-120276794D01*
X172905984Y-120512130D01*
X173018225Y-120669371D01*
X173040326Y-120710197D01*
X172970167Y-120738990D01*
X172769471Y-120778669D01*
X172476297Y-120824314D01*
X172128702Y-120871006D01*
X171764743Y-120913825D01*
X171422479Y-120947853D01*
X171139967Y-120968170D01*
X171016936Y-120971734D01*
X170968477Y-120952862D01*
X170944188Y-120879573D01*
X170945111Y-120726861D01*
X170972287Y-120469714D01*
X171026757Y-120083126D01*
X171064230Y-119835577D01*
X171131703Y-119415482D01*
X171195033Y-119057614D01*
X171248055Y-118794328D01*
X171284607Y-118657981D01*
X171290580Y-118647386D01*
X171354475Y-118694513D01*
X171354475Y-118694513D01*
G37*
X171354475Y-118694513D02*
X171502332Y-118847266D01*
X171711890Y-119079397D01*
X171960885Y-119364662D01*
X172227054Y-119676813D01*
X172488136Y-119989606D01*
X172721866Y-120276794D01*
X172905984Y-120512130D01*
X173018225Y-120669371D01*
X173040326Y-120710197D01*
X172970167Y-120738990D01*
X172769471Y-120778669D01*
X172476297Y-120824314D01*
X172128702Y-120871006D01*
X171764743Y-120913825D01*
X171422479Y-120947853D01*
X171139967Y-120968170D01*
X171016936Y-120971734D01*
X170968477Y-120952862D01*
X170944188Y-120879573D01*
X170945111Y-120726861D01*
X170972287Y-120469714D01*
X171026757Y-120083126D01*
X171064230Y-119835577D01*
X171131703Y-119415482D01*
X171195033Y-119057614D01*
X171248055Y-118794328D01*
X171284607Y-118657981D01*
X171290580Y-118647386D01*
X171354475Y-118694513D01*
G36*
X170904160Y-120345493D02*
G01*
X170855635Y-120630532D01*
X170792732Y-120850783D01*
X170744687Y-120938952D01*
X170631001Y-120977990D01*
X170378497Y-121026767D01*
X170017084Y-121080706D01*
X169576671Y-121135231D01*
X169206334Y-121174361D01*
X168700430Y-121224833D01*
X168226109Y-121273699D01*
X167820761Y-121316993D01*
X167521772Y-121350748D01*
X167400385Y-121365940D01*
X167033770Y-121416328D01*
X167094425Y-121003531D01*
X167133174Y-120734442D01*
X167174747Y-120536616D01*
X167243467Y-120396370D01*
X167363655Y-120300025D01*
X167559632Y-120233901D01*
X167855722Y-120184317D01*
X168276245Y-120137593D01*
X168711874Y-120093765D01*
X169220304Y-120041491D01*
X169701855Y-119990989D01*
X170117447Y-119946431D01*
X170427995Y-119911987D01*
X170551139Y-119897478D01*
X170964612Y-119846252D01*
X170904160Y-120345493D01*
X170904160Y-120345493D01*
G37*
X170904160Y-120345493D02*
X170855635Y-120630532D01*
X170792732Y-120850783D01*
X170744687Y-120938952D01*
X170631001Y-120977990D01*
X170378497Y-121026767D01*
X170017084Y-121080706D01*
X169576671Y-121135231D01*
X169206334Y-121174361D01*
X168700430Y-121224833D01*
X168226109Y-121273699D01*
X167820761Y-121316993D01*
X167521772Y-121350748D01*
X167400385Y-121365940D01*
X167033770Y-121416328D01*
X167094425Y-121003531D01*
X167133174Y-120734442D01*
X167174747Y-120536616D01*
X167243467Y-120396370D01*
X167363655Y-120300025D01*
X167559632Y-120233901D01*
X167855722Y-120184317D01*
X168276245Y-120137593D01*
X168711874Y-120093765D01*
X169220304Y-120041491D01*
X169701855Y-119990989D01*
X170117447Y-119946431D01*
X170427995Y-119911987D01*
X170551139Y-119897478D01*
X170964612Y-119846252D01*
X170904160Y-120345493D01*
G36*
X171714471Y-108344767D02*
G01*
X171826980Y-108485581D01*
X171861332Y-108696110D01*
X171791703Y-108943148D01*
X171785688Y-108954633D01*
X171631054Y-109094489D01*
X171430664Y-109099532D01*
X171297600Y-109016800D01*
X171203496Y-108816569D01*
X171235729Y-108581402D01*
X171358290Y-108405107D01*
X171549633Y-108306874D01*
X171714471Y-108344767D01*
X171714471Y-108344767D01*
G37*
X171714471Y-108344767D02*
X171826980Y-108485581D01*
X171861332Y-108696110D01*
X171791703Y-108943148D01*
X171785688Y-108954633D01*
X171631054Y-109094489D01*
X171430664Y-109099532D01*
X171297600Y-109016800D01*
X171203496Y-108816569D01*
X171235729Y-108581402D01*
X171358290Y-108405107D01*
X171549633Y-108306874D01*
X171714471Y-108344767D01*
G36*
X167483562Y-109010287D02*
G01*
X167513000Y-109033734D01*
X167619434Y-109155955D01*
X167640000Y-109213434D01*
X167571273Y-109279397D01*
X167513000Y-109287734D01*
X167409828Y-109216197D01*
X167386000Y-109108033D01*
X167404537Y-108985722D01*
X167483562Y-109010287D01*
X167483562Y-109010287D01*
G37*
X167483562Y-109010287D02*
X167513000Y-109033734D01*
X167619434Y-109155955D01*
X167640000Y-109213434D01*
X167571273Y-109279397D01*
X167513000Y-109287734D01*
X167409828Y-109216197D01*
X167386000Y-109108033D01*
X167404537Y-108985722D01*
X167483562Y-109010287D01*
G36*
X173900487Y-109162904D02*
G01*
X173905334Y-109269614D01*
X173862577Y-109455588D01*
X173745450Y-109500109D01*
X173666457Y-109466413D01*
X173623219Y-109385779D01*
X173720195Y-109259884D01*
X173733999Y-109247211D01*
X173857678Y-109144469D01*
X173900487Y-109162904D01*
X173900487Y-109162904D01*
G37*
X173900487Y-109162904D02*
X173905334Y-109269614D01*
X173862577Y-109455588D01*
X173745450Y-109500109D01*
X173666457Y-109466413D01*
X173623219Y-109385779D01*
X173720195Y-109259884D01*
X173733999Y-109247211D01*
X173857678Y-109144469D01*
X173900487Y-109162904D01*
G36*
X178269854Y-114243008D02*
G01*
X178273049Y-114337420D01*
X178164020Y-114422518D01*
X178110484Y-114437442D01*
X177989647Y-114400970D01*
X177969334Y-114331608D01*
X178040554Y-114221691D01*
X178145722Y-114198400D01*
X178269854Y-114243008D01*
X178269854Y-114243008D01*
G37*
X178269854Y-114243008D02*
X178273049Y-114337420D01*
X178164020Y-114422518D01*
X178110484Y-114437442D01*
X177989647Y-114400970D01*
X177969334Y-114331608D01*
X178040554Y-114221691D01*
X178145722Y-114198400D01*
X178269854Y-114243008D01*
G36*
X171071471Y-109910483D02*
G01*
X171939130Y-110026337D01*
X172750143Y-110261353D01*
X173545768Y-110626870D01*
X174216237Y-111032328D01*
X175033155Y-111671746D01*
X175736901Y-112422967D01*
X176318577Y-113266869D01*
X176769285Y-114184329D01*
X177080128Y-115156226D01*
X177242208Y-116163438D01*
X177246627Y-117186841D01*
X177217377Y-117482056D01*
X177003957Y-118569844D01*
X176642470Y-119581779D01*
X176137125Y-120510022D01*
X175492132Y-121346732D01*
X174773801Y-122033248D01*
X174285664Y-122388187D01*
X173699408Y-122738518D01*
X173076262Y-123052240D01*
X172477452Y-123297350D01*
X172169667Y-123394319D01*
X171751575Y-123475406D01*
X171220731Y-123531643D01*
X170631234Y-123561735D01*
X170037183Y-123564387D01*
X169492675Y-123538301D01*
X169051810Y-123482183D01*
X168994667Y-123470366D01*
X167968393Y-123160415D01*
X167023609Y-122711160D01*
X166170848Y-122135618D01*
X165420642Y-121446804D01*
X165338839Y-121345490D01*
X166940350Y-121345490D01*
X166949386Y-121442901D01*
X166997493Y-121476321D01*
X167052353Y-121479734D01*
X167178365Y-121471092D01*
X167446632Y-121446872D01*
X167831053Y-121409631D01*
X168305521Y-121361927D01*
X168843936Y-121306316D01*
X169137863Y-121275404D01*
X169774635Y-121208390D01*
X170431389Y-121139908D01*
X171063361Y-121074581D01*
X171625785Y-121017031D01*
X172073896Y-120971883D01*
X172148500Y-120964488D01*
X172553016Y-120920232D01*
X172888475Y-120875315D01*
X173123310Y-120834575D01*
X173225953Y-120802850D01*
X173228000Y-120799015D01*
X173176719Y-120717507D01*
X173034559Y-120528303D01*
X172819048Y-120253791D01*
X172547711Y-119916362D01*
X172298807Y-119612014D01*
X171997294Y-119243075D01*
X171739379Y-118921965D01*
X171541976Y-118670201D01*
X171422001Y-118509299D01*
X171393312Y-118460200D01*
X171480735Y-118444919D01*
X171711629Y-118415677D01*
X172060970Y-118375334D01*
X172503733Y-118326753D01*
X173014894Y-118272796D01*
X173190338Y-118254706D01*
X173721056Y-118198142D01*
X174194006Y-118143631D01*
X174583485Y-118094470D01*
X174863789Y-118053960D01*
X175009215Y-118025400D01*
X175022891Y-118019489D01*
X175064798Y-117915643D01*
X175116876Y-117699257D01*
X175170508Y-117421183D01*
X175217075Y-117132276D01*
X175247960Y-116883391D01*
X175254545Y-116725383D01*
X175246974Y-116697152D01*
X175157216Y-116695777D01*
X174928449Y-116710680D01*
X174589897Y-116738861D01*
X174170784Y-116777322D01*
X173700333Y-116823066D01*
X173207769Y-116873094D01*
X172722315Y-116924407D01*
X172273194Y-116974008D01*
X171889632Y-117018899D01*
X171600851Y-117056080D01*
X171436075Y-117082554D01*
X171409284Y-117090879D01*
X171387944Y-117180034D01*
X171346771Y-117407548D01*
X171290685Y-117744266D01*
X171224603Y-118161031D01*
X171183059Y-118431734D01*
X170984039Y-119744067D01*
X170433853Y-119810067D01*
X170153036Y-119842671D01*
X169749370Y-119888113D01*
X169268392Y-119941334D01*
X168755640Y-119997273D01*
X168529000Y-120021734D01*
X167174334Y-120167400D01*
X167036156Y-120823567D01*
X166969551Y-121150306D01*
X166940350Y-121345490D01*
X165338839Y-121345490D01*
X164783524Y-120657735D01*
X164270028Y-119781426D01*
X163890687Y-118830894D01*
X163656033Y-117819154D01*
X163641964Y-117634243D01*
X167689554Y-117634243D01*
X167691742Y-117646506D01*
X167796333Y-117698918D01*
X168006852Y-117814009D01*
X168282749Y-117969501D01*
X168359667Y-118013498D01*
X168664206Y-118182969D01*
X168883696Y-118280346D01*
X169078145Y-118320892D01*
X169307562Y-118319875D01*
X169502667Y-118304263D01*
X169816029Y-118274680D01*
X170079919Y-118247088D01*
X170219185Y-118229915D01*
X170277054Y-118206785D01*
X170327814Y-118142519D01*
X170376600Y-118016241D01*
X170428548Y-117807072D01*
X170488793Y-117494133D01*
X170562469Y-117056545D01*
X170654712Y-116473432D01*
X170660779Y-116434458D01*
X170764533Y-115772834D01*
X170828885Y-115355942D01*
X172357710Y-115355942D01*
X172392665Y-115585900D01*
X172563117Y-115936358D01*
X172824772Y-116171799D01*
X173141954Y-116283104D01*
X173478992Y-116261154D01*
X173800210Y-116096827D01*
X173926500Y-115978005D01*
X174119906Y-115658367D01*
X174174039Y-115317548D01*
X174103579Y-114991045D01*
X173923205Y-114714355D01*
X173647597Y-114522977D01*
X173295616Y-114452400D01*
X172914559Y-114524040D01*
X172615110Y-114718736D01*
X172421438Y-115006149D01*
X172357710Y-115355942D01*
X170828885Y-115355942D01*
X170843602Y-115260601D01*
X170896195Y-114879371D01*
X170920516Y-114610757D01*
X170914773Y-114436369D01*
X170877173Y-114337821D01*
X170805922Y-114296724D01*
X170699226Y-114294690D01*
X170555293Y-114313331D01*
X170455167Y-114326243D01*
X170074389Y-114375442D01*
X169837548Y-114423847D01*
X169719507Y-114479988D01*
X169695127Y-114552393D01*
X169703351Y-114581310D01*
X169700438Y-114687136D01*
X169673438Y-114928707D01*
X169627090Y-115275899D01*
X169566135Y-115698590D01*
X169495312Y-116166655D01*
X169419361Y-116649971D01*
X169343023Y-117118414D01*
X169271037Y-117541861D01*
X169208142Y-117890189D01*
X169159080Y-118133273D01*
X169128590Y-118240990D01*
X169127229Y-118242727D01*
X169040608Y-118224477D01*
X168849484Y-118143782D01*
X168596237Y-118022448D01*
X168323250Y-117882282D01*
X168072906Y-117745089D01*
X167887585Y-117632675D01*
X167809671Y-117566848D01*
X167809334Y-117564649D01*
X167854358Y-117476531D01*
X167979920Y-117270487D01*
X168171751Y-116968899D01*
X168415580Y-116594147D01*
X168697141Y-116168612D01*
X168747062Y-116093833D01*
X169031042Y-115664818D01*
X169276957Y-115285283D01*
X169471196Y-114976905D01*
X169600152Y-114761362D01*
X169650215Y-114660330D01*
X169649756Y-114655934D01*
X169594796Y-114712570D01*
X169460859Y-114890743D01*
X169262021Y-115170522D01*
X169012362Y-115531971D01*
X168725959Y-115955158D01*
X168615603Y-116120231D01*
X168324433Y-116563417D01*
X168073689Y-116957151D01*
X167875925Y-117280693D01*
X167743696Y-117513304D01*
X167689554Y-117634243D01*
X163641964Y-117634243D01*
X163576593Y-116775117D01*
X163598947Y-116052099D01*
X163674622Y-115427993D01*
X163814880Y-114837682D01*
X163998246Y-114304234D01*
X166909802Y-114304234D01*
X166920870Y-114428740D01*
X166978128Y-114451440D01*
X167083666Y-114441570D01*
X167339285Y-114413765D01*
X167726918Y-114370101D01*
X168228499Y-114312653D01*
X168825961Y-114243498D01*
X169501239Y-114164710D01*
X170236265Y-114078366D01*
X170635475Y-114031243D01*
X171390332Y-113941493D01*
X172091299Y-113857187D01*
X172720898Y-113780498D01*
X173261651Y-113713600D01*
X173696080Y-113658665D01*
X174006708Y-113617867D01*
X174176057Y-113593378D01*
X174202607Y-113587703D01*
X174227806Y-113500700D01*
X174273588Y-113298855D01*
X174330017Y-113031258D01*
X174387157Y-112747004D01*
X174435074Y-112495185D01*
X174463831Y-112324894D01*
X174467177Y-112280407D01*
X174383485Y-112287200D01*
X174149130Y-112311962D01*
X173781597Y-112352705D01*
X173298376Y-112407440D01*
X172716955Y-112474180D01*
X172054821Y-112550934D01*
X171329464Y-112635715D01*
X170942000Y-112681264D01*
X170185371Y-112770036D01*
X169478144Y-112852347D01*
X168838649Y-112926113D01*
X168285217Y-112989250D01*
X167836176Y-113039672D01*
X167509855Y-113075296D01*
X167324586Y-113094037D01*
X167291182Y-113096424D01*
X167200285Y-113149160D01*
X167123963Y-113322041D01*
X167053523Y-113626900D01*
X166993752Y-113929488D01*
X166940203Y-114179993D01*
X166909802Y-114304234D01*
X163998246Y-114304234D01*
X164009726Y-114270838D01*
X164471638Y-113301380D01*
X165071899Y-112425123D01*
X165800937Y-111652844D01*
X166649182Y-110995322D01*
X167219864Y-110655828D01*
X167837676Y-110354816D01*
X168417555Y-110142811D01*
X169017079Y-110004782D01*
X169693823Y-109925701D01*
X170105909Y-109902449D01*
X171071471Y-109910483D01*
X171071471Y-109910483D01*
G37*
X171071471Y-109910483D02*
X171939130Y-110026337D01*
X172750143Y-110261353D01*
X173545768Y-110626870D01*
X174216237Y-111032328D01*
X175033155Y-111671746D01*
X175736901Y-112422967D01*
X176318577Y-113266869D01*
X176769285Y-114184329D01*
X177080128Y-115156226D01*
X177242208Y-116163438D01*
X177246627Y-117186841D01*
X177217377Y-117482056D01*
X177003957Y-118569844D01*
X176642470Y-119581779D01*
X176137125Y-120510022D01*
X175492132Y-121346732D01*
X174773801Y-122033248D01*
X174285664Y-122388187D01*
X173699408Y-122738518D01*
X173076262Y-123052240D01*
X172477452Y-123297350D01*
X172169667Y-123394319D01*
X171751575Y-123475406D01*
X171220731Y-123531643D01*
X170631234Y-123561735D01*
X170037183Y-123564387D01*
X169492675Y-123538301D01*
X169051810Y-123482183D01*
X168994667Y-123470366D01*
X167968393Y-123160415D01*
X167023609Y-122711160D01*
X166170848Y-122135618D01*
X165420642Y-121446804D01*
X165338839Y-121345490D01*
X166940350Y-121345490D01*
X166949386Y-121442901D01*
X166997493Y-121476321D01*
X167052353Y-121479734D01*
X167178365Y-121471092D01*
X167446632Y-121446872D01*
X167831053Y-121409631D01*
X168305521Y-121361927D01*
X168843936Y-121306316D01*
X169137863Y-121275404D01*
X169774635Y-121208390D01*
X170431389Y-121139908D01*
X171063361Y-121074581D01*
X171625785Y-121017031D01*
X172073896Y-120971883D01*
X172148500Y-120964488D01*
X172553016Y-120920232D01*
X172888475Y-120875315D01*
X173123310Y-120834575D01*
X173225953Y-120802850D01*
X173228000Y-120799015D01*
X173176719Y-120717507D01*
X173034559Y-120528303D01*
X172819048Y-120253791D01*
X172547711Y-119916362D01*
X172298807Y-119612014D01*
X171997294Y-119243075D01*
X171739379Y-118921965D01*
X171541976Y-118670201D01*
X171422001Y-118509299D01*
X171393312Y-118460200D01*
X171480735Y-118444919D01*
X171711629Y-118415677D01*
X172060970Y-118375334D01*
X172503733Y-118326753D01*
X173014894Y-118272796D01*
X173190338Y-118254706D01*
X173721056Y-118198142D01*
X174194006Y-118143631D01*
X174583485Y-118094470D01*
X174863789Y-118053960D01*
X175009215Y-118025400D01*
X175022891Y-118019489D01*
X175064798Y-117915643D01*
X175116876Y-117699257D01*
X175170508Y-117421183D01*
X175217075Y-117132276D01*
X175247960Y-116883391D01*
X175254545Y-116725383D01*
X175246974Y-116697152D01*
X175157216Y-116695777D01*
X174928449Y-116710680D01*
X174589897Y-116738861D01*
X174170784Y-116777322D01*
X173700333Y-116823066D01*
X173207769Y-116873094D01*
X172722315Y-116924407D01*
X172273194Y-116974008D01*
X171889632Y-117018899D01*
X171600851Y-117056080D01*
X171436075Y-117082554D01*
X171409284Y-117090879D01*
X171387944Y-117180034D01*
X171346771Y-117407548D01*
X171290685Y-117744266D01*
X171224603Y-118161031D01*
X171183059Y-118431734D01*
X170984039Y-119744067D01*
X170433853Y-119810067D01*
X170153036Y-119842671D01*
X169749370Y-119888113D01*
X169268392Y-119941334D01*
X168755640Y-119997273D01*
X168529000Y-120021734D01*
X167174334Y-120167400D01*
X167036156Y-120823567D01*
X166969551Y-121150306D01*
X166940350Y-121345490D01*
X165338839Y-121345490D01*
X164783524Y-120657735D01*
X164270028Y-119781426D01*
X163890687Y-118830894D01*
X163656033Y-117819154D01*
X163641964Y-117634243D01*
X167689554Y-117634243D01*
X167691742Y-117646506D01*
X167796333Y-117698918D01*
X168006852Y-117814009D01*
X168282749Y-117969501D01*
X168359667Y-118013498D01*
X168664206Y-118182969D01*
X168883696Y-118280346D01*
X169078145Y-118320892D01*
X169307562Y-118319875D01*
X169502667Y-118304263D01*
X169816029Y-118274680D01*
X170079919Y-118247088D01*
X170219185Y-118229915D01*
X170277054Y-118206785D01*
X170327814Y-118142519D01*
X170376600Y-118016241D01*
X170428548Y-117807072D01*
X170488793Y-117494133D01*
X170562469Y-117056545D01*
X170654712Y-116473432D01*
X170660779Y-116434458D01*
X170764533Y-115772834D01*
X170828885Y-115355942D01*
X172357710Y-115355942D01*
X172392665Y-115585900D01*
X172563117Y-115936358D01*
X172824772Y-116171799D01*
X173141954Y-116283104D01*
X173478992Y-116261154D01*
X173800210Y-116096827D01*
X173926500Y-115978005D01*
X174119906Y-115658367D01*
X174174039Y-115317548D01*
X174103579Y-114991045D01*
X173923205Y-114714355D01*
X173647597Y-114522977D01*
X173295616Y-114452400D01*
X172914559Y-114524040D01*
X172615110Y-114718736D01*
X172421438Y-115006149D01*
X172357710Y-115355942D01*
X170828885Y-115355942D01*
X170843602Y-115260601D01*
X170896195Y-114879371D01*
X170920516Y-114610757D01*
X170914773Y-114436369D01*
X170877173Y-114337821D01*
X170805922Y-114296724D01*
X170699226Y-114294690D01*
X170555293Y-114313331D01*
X170455167Y-114326243D01*
X170074389Y-114375442D01*
X169837548Y-114423847D01*
X169719507Y-114479988D01*
X169695127Y-114552393D01*
X169703351Y-114581310D01*
X169700438Y-114687136D01*
X169673438Y-114928707D01*
X169627090Y-115275899D01*
X169566135Y-115698590D01*
X169495312Y-116166655D01*
X169419361Y-116649971D01*
X169343023Y-117118414D01*
X169271037Y-117541861D01*
X169208142Y-117890189D01*
X169159080Y-118133273D01*
X169128590Y-118240990D01*
X169127229Y-118242727D01*
X169040608Y-118224477D01*
X168849484Y-118143782D01*
X168596237Y-118022448D01*
X168323250Y-117882282D01*
X168072906Y-117745089D01*
X167887585Y-117632675D01*
X167809671Y-117566848D01*
X167809334Y-117564649D01*
X167854358Y-117476531D01*
X167979920Y-117270487D01*
X168171751Y-116968899D01*
X168415580Y-116594147D01*
X168697141Y-116168612D01*
X168747062Y-116093833D01*
X169031042Y-115664818D01*
X169276957Y-115285283D01*
X169471196Y-114976905D01*
X169600152Y-114761362D01*
X169650215Y-114660330D01*
X169649756Y-114655934D01*
X169594796Y-114712570D01*
X169460859Y-114890743D01*
X169262021Y-115170522D01*
X169012362Y-115531971D01*
X168725959Y-115955158D01*
X168615603Y-116120231D01*
X168324433Y-116563417D01*
X168073689Y-116957151D01*
X167875925Y-117280693D01*
X167743696Y-117513304D01*
X167689554Y-117634243D01*
X163641964Y-117634243D01*
X163576593Y-116775117D01*
X163598947Y-116052099D01*
X163674622Y-115427993D01*
X163814880Y-114837682D01*
X163998246Y-114304234D01*
X166909802Y-114304234D01*
X166920870Y-114428740D01*
X166978128Y-114451440D01*
X167083666Y-114441570D01*
X167339285Y-114413765D01*
X167726918Y-114370101D01*
X168228499Y-114312653D01*
X168825961Y-114243498D01*
X169501239Y-114164710D01*
X170236265Y-114078366D01*
X170635475Y-114031243D01*
X171390332Y-113941493D01*
X172091299Y-113857187D01*
X172720898Y-113780498D01*
X173261651Y-113713600D01*
X173696080Y-113658665D01*
X174006708Y-113617867D01*
X174176057Y-113593378D01*
X174202607Y-113587703D01*
X174227806Y-113500700D01*
X174273588Y-113298855D01*
X174330017Y-113031258D01*
X174387157Y-112747004D01*
X174435074Y-112495185D01*
X174463831Y-112324894D01*
X174467177Y-112280407D01*
X174383485Y-112287200D01*
X174149130Y-112311962D01*
X173781597Y-112352705D01*
X173298376Y-112407440D01*
X172716955Y-112474180D01*
X172054821Y-112550934D01*
X171329464Y-112635715D01*
X170942000Y-112681264D01*
X170185371Y-112770036D01*
X169478144Y-112852347D01*
X168838649Y-112926113D01*
X168285217Y-112989250D01*
X167836176Y-113039672D01*
X167509855Y-113075296D01*
X167324586Y-113094037D01*
X167291182Y-113096424D01*
X167200285Y-113149160D01*
X167123963Y-113322041D01*
X167053523Y-113626900D01*
X166993752Y-113929488D01*
X166940203Y-114179993D01*
X166909802Y-114304234D01*
X163998246Y-114304234D01*
X164009726Y-114270838D01*
X164471638Y-113301380D01*
X165071899Y-112425123D01*
X165800937Y-111652844D01*
X166649182Y-110995322D01*
X167219864Y-110655828D01*
X167837676Y-110354816D01*
X168417555Y-110142811D01*
X169017079Y-110004782D01*
X169693823Y-109925701D01*
X170105909Y-109902449D01*
X171071471Y-109910483D01*
G36*
X171017427Y-124470905D02*
G01*
X171012620Y-124538638D01*
X170931369Y-124706903D01*
X170829141Y-124767263D01*
X170724177Y-124767629D01*
X170738485Y-124678960D01*
X170766097Y-124624677D01*
X170886917Y-124446603D01*
X170978978Y-124392455D01*
X171017427Y-124470905D01*
X171017427Y-124470905D01*
G37*
X171017427Y-124470905D02*
X171012620Y-124538638D01*
X170931369Y-124706903D01*
X170829141Y-124767263D01*
X170724177Y-124767629D01*
X170738485Y-124678960D01*
X170766097Y-124624677D01*
X170886917Y-124446603D01*
X170978978Y-124392455D01*
X171017427Y-124470905D01*
G36*
X170294793Y-124269366D02*
G01*
X170339037Y-124311818D01*
X170426339Y-124428465D01*
X170380499Y-124531016D01*
X170339037Y-124574316D01*
X170225276Y-124661525D01*
X170135884Y-124616768D01*
X170098860Y-124574316D01*
X170032328Y-124439512D01*
X170098860Y-124311818D01*
X170197789Y-124224609D01*
X170294793Y-124269366D01*
X170294793Y-124269366D01*
G37*
X170294793Y-124269366D02*
X170339037Y-124311818D01*
X170426339Y-124428465D01*
X170380499Y-124531016D01*
X170339037Y-124574316D01*
X170225276Y-124661525D01*
X170135884Y-124616768D01*
X170098860Y-124574316D01*
X170032328Y-124439512D01*
X170098860Y-124311818D01*
X170197789Y-124224609D01*
X170294793Y-124269366D01*
G36*
X172153394Y-107590495D02*
G01*
X173336427Y-107911648D01*
X174493421Y-108396386D01*
X174540334Y-108419871D01*
X175576195Y-109034939D01*
X176515067Y-109781019D01*
X177345967Y-110643257D01*
X178057912Y-111606797D01*
X178639917Y-112656785D01*
X179080999Y-113778368D01*
X179369062Y-114950324D01*
X179499899Y-116166758D01*
X179469381Y-117362862D01*
X179285285Y-118526515D01*
X178955391Y-119645595D01*
X178487477Y-120707979D01*
X177889322Y-121701544D01*
X177168704Y-122614168D01*
X176333401Y-123433730D01*
X175391193Y-124148105D01*
X174349859Y-124745173D01*
X173217176Y-125212811D01*
X172677667Y-125378362D01*
X172354449Y-125457202D01*
X172022492Y-125513504D01*
X171640357Y-125551556D01*
X171166605Y-125575645D01*
X170645667Y-125588618D01*
X170163504Y-125594437D01*
X169723327Y-125594807D01*
X169360990Y-125590067D01*
X169112344Y-125580557D01*
X169037000Y-125573408D01*
X168244270Y-125399555D01*
X167391152Y-125121450D01*
X166530809Y-124760455D01*
X165849928Y-124407207D01*
X169271210Y-124407207D01*
X169280315Y-124439725D01*
X169354500Y-124417747D01*
X169449385Y-124409002D01*
X169496918Y-124497703D01*
X169516167Y-124719593D01*
X169516217Y-124720891D01*
X169526244Y-124924700D01*
X169538003Y-124967930D01*
X169546487Y-124918566D01*
X169954770Y-124918566D01*
X169968334Y-124951067D01*
X170080493Y-125032573D01*
X170105327Y-125035734D01*
X170151230Y-124983568D01*
X170137667Y-124951067D01*
X170025508Y-124869561D01*
X170000673Y-124866400D01*
X169954770Y-124918566D01*
X169546487Y-124918566D01*
X169556673Y-124859300D01*
X169564027Y-124801384D01*
X169580548Y-124530106D01*
X169579644Y-124507188D01*
X169949472Y-124507188D01*
X170036180Y-124660045D01*
X170194767Y-124737644D01*
X170328167Y-124720904D01*
X170421747Y-124729082D01*
X170413077Y-124825613D01*
X170332400Y-124934134D01*
X170280873Y-125021103D01*
X170323342Y-125035734D01*
X170429954Y-124967675D01*
X170467275Y-124901809D01*
X170484588Y-124812894D01*
X170603334Y-124812894D01*
X170674483Y-124856420D01*
X170772667Y-124866400D01*
X170910247Y-124901856D01*
X170942000Y-124951067D01*
X170993368Y-125029977D01*
X171087836Y-125006038D01*
X171127038Y-124946070D01*
X171365334Y-124946070D01*
X171426794Y-125032288D01*
X171450000Y-125035734D01*
X171532466Y-125006847D01*
X171534667Y-124998397D01*
X171475338Y-124926111D01*
X171450000Y-124908734D01*
X171371981Y-124915446D01*
X171365334Y-124946070D01*
X171127038Y-124946070D01*
X171127184Y-124945848D01*
X171143351Y-124793269D01*
X171130770Y-124578682D01*
X171118535Y-124499035D01*
X171316032Y-124499035D01*
X171334716Y-124570067D01*
X171436794Y-124688762D01*
X171638311Y-124708371D01*
X171682834Y-124703387D01*
X171769911Y-124750776D01*
X171782157Y-124868758D01*
X171713784Y-124973310D01*
X171701884Y-124979995D01*
X171682599Y-125006630D01*
X171723050Y-125001672D01*
X171798869Y-124911901D01*
X171851381Y-124716164D01*
X171857943Y-124658198D01*
X171856076Y-124428873D01*
X171817158Y-124272675D01*
X171804957Y-124256157D01*
X171755739Y-124255067D01*
X171764430Y-124382346D01*
X171748778Y-124573837D01*
X171666044Y-124641338D01*
X171532217Y-124630266D01*
X171465051Y-124510074D01*
X171485501Y-124334691D01*
X171520066Y-124265651D01*
X171574395Y-124154520D01*
X171517755Y-124149107D01*
X171497641Y-124156412D01*
X171350142Y-124291967D01*
X171316032Y-124499035D01*
X171118535Y-124499035D01*
X171098095Y-124365988D01*
X171053983Y-124219083D01*
X171024679Y-124189067D01*
X170945932Y-124253690D01*
X170825794Y-124408550D01*
X170703788Y-124595132D01*
X170619436Y-124754921D01*
X170603334Y-124812894D01*
X170484588Y-124812894D01*
X170519777Y-124632178D01*
X170481508Y-124393334D01*
X170372496Y-124222894D01*
X170212770Y-124158470D01*
X170089454Y-124192214D01*
X169959083Y-124333202D01*
X169949472Y-124507188D01*
X169579644Y-124507188D01*
X169571644Y-124304516D01*
X169545000Y-124084330D01*
X169375667Y-124278055D01*
X169271210Y-124407207D01*
X165849928Y-124407207D01*
X165716407Y-124337935D01*
X165259321Y-124055410D01*
X164545908Y-123505919D01*
X163847720Y-122828309D01*
X163197825Y-122062851D01*
X162629293Y-121249819D01*
X162175194Y-120429483D01*
X162047986Y-120144664D01*
X161639677Y-118950913D01*
X161396466Y-117738266D01*
X161339129Y-116857193D01*
X163371044Y-116857193D01*
X163397422Y-117505779D01*
X163463610Y-118087020D01*
X163524999Y-118389400D01*
X163720996Y-118997432D01*
X164004925Y-119659042D01*
X164346686Y-120315080D01*
X164716182Y-120906394D01*
X164989114Y-121266743D01*
X165756119Y-122049329D01*
X166623898Y-122701227D01*
X167576472Y-123213539D01*
X168597865Y-123577368D01*
X169460334Y-123756492D01*
X169903600Y-123812271D01*
X170277983Y-123835186D01*
X170653875Y-123825430D01*
X171101670Y-123783195D01*
X171282888Y-123761460D01*
X172322923Y-123549890D01*
X173305026Y-123187445D01*
X174215848Y-122686609D01*
X175042042Y-122059865D01*
X175770258Y-121319696D01*
X176387149Y-120478587D01*
X176879366Y-119549020D01*
X177233561Y-118543479D01*
X177338659Y-118098017D01*
X177415292Y-117533589D01*
X177444556Y-116878892D01*
X177428213Y-116195383D01*
X177368028Y-115544518D01*
X177265763Y-114987756D01*
X177247430Y-114918067D01*
X176908197Y-113971214D01*
X177414375Y-113971214D01*
X177427098Y-114061973D01*
X177532951Y-114180286D01*
X177599487Y-114198400D01*
X177713362Y-114269319D01*
X177805948Y-114425712D01*
X177849833Y-114607339D01*
X177791858Y-114707497D01*
X177765036Y-114724284D01*
X177679077Y-114845500D01*
X177685286Y-114919553D01*
X177716069Y-114977355D01*
X177766794Y-114988211D01*
X177862933Y-114937372D01*
X178029955Y-114810091D01*
X178293333Y-114591619D01*
X178385234Y-114514270D01*
X178581342Y-114311139D01*
X178618993Y-114164018D01*
X178497222Y-114071230D01*
X178215063Y-114031097D01*
X178105915Y-114029067D01*
X177820914Y-114019916D01*
X177592587Y-113996478D01*
X177509631Y-113977307D01*
X177414375Y-113971214D01*
X176908197Y-113971214D01*
X176876832Y-113883670D01*
X176505226Y-113193894D01*
X177120606Y-113193894D01*
X177165840Y-113448552D01*
X177307740Y-113641066D01*
X177310839Y-113643266D01*
X177509115Y-113757765D01*
X177609620Y-113747897D01*
X177630667Y-113657942D01*
X177559731Y-113544218D01*
X177461334Y-113496535D01*
X177326026Y-113391032D01*
X177298811Y-113217328D01*
X177386364Y-113042827D01*
X177413880Y-113017316D01*
X177584867Y-112950993D01*
X177773714Y-112943449D01*
X177950496Y-112995874D01*
X178009567Y-113128053D01*
X178011667Y-113182400D01*
X178045593Y-113365211D01*
X178119003Y-113411285D01*
X178189346Y-113312519D01*
X178208513Y-113219878D01*
X178170577Y-112977896D01*
X178026796Y-112777631D01*
X177822799Y-112677344D01*
X177781312Y-112674400D01*
X177550198Y-112724036D01*
X177316722Y-112842809D01*
X177187463Y-112962242D01*
X177120606Y-113193894D01*
X176505226Y-113193894D01*
X176364885Y-112933393D01*
X176221355Y-112742231D01*
X176764277Y-112742231D01*
X176830088Y-112789531D01*
X176979560Y-112728237D01*
X177067281Y-112673008D01*
X177301211Y-112526733D01*
X177510892Y-112409208D01*
X177524834Y-112402241D01*
X177653395Y-112299114D01*
X177718391Y-112177619D01*
X177697359Y-112094066D01*
X177651834Y-112083901D01*
X177516544Y-112132732D01*
X177317299Y-112251024D01*
X177098932Y-112405523D01*
X176906276Y-112562974D01*
X176784165Y-112690122D01*
X176764277Y-112742231D01*
X176221355Y-112742231D01*
X175723259Y-112078837D01*
X175442473Y-111802635D01*
X176116421Y-111802635D01*
X176212473Y-111794814D01*
X176414775Y-111679780D01*
X176445911Y-111657989D01*
X176607306Y-111546822D01*
X176678885Y-111526642D01*
X176671485Y-111619014D01*
X176595939Y-111845504D01*
X176572908Y-111910771D01*
X176487246Y-112192324D01*
X176481792Y-112346213D01*
X176567224Y-112375395D01*
X176754222Y-112282823D01*
X177053464Y-112071454D01*
X177080334Y-112051194D01*
X177280341Y-111900309D01*
X177416636Y-111798190D01*
X177448645Y-111774702D01*
X177440573Y-111697992D01*
X177422273Y-111663695D01*
X177321706Y-111648792D01*
X177127800Y-111756309D01*
X177075128Y-111795111D01*
X176890757Y-111929116D01*
X176806636Y-111957535D01*
X176812114Y-111864664D01*
X176896545Y-111634804D01*
X176922405Y-111569919D01*
X177006383Y-111298969D01*
X176987412Y-111159462D01*
X176863547Y-111150670D01*
X176632847Y-111271866D01*
X176456865Y-111395797D01*
X176239506Y-111581827D01*
X176125729Y-111724540D01*
X176116421Y-111802635D01*
X175442473Y-111802635D01*
X174963623Y-111331604D01*
X174441838Y-110953022D01*
X175271466Y-110953022D01*
X175577364Y-111258920D01*
X175779217Y-111433340D01*
X175919825Y-111508768D01*
X175976875Y-111488567D01*
X175928052Y-111376103D01*
X175800901Y-111225221D01*
X175655095Y-111047614D01*
X175631458Y-110931777D01*
X175665837Y-110880030D01*
X175767689Y-110838441D01*
X175907639Y-110916952D01*
X175978212Y-110979700D01*
X176134273Y-111098008D01*
X176239590Y-111127512D01*
X176247778Y-111122178D01*
X176234806Y-111029861D01*
X176128377Y-110877993D01*
X176105300Y-110852612D01*
X175978469Y-110687037D01*
X175977358Y-110575673D01*
X176005067Y-110540800D01*
X176107238Y-110500037D01*
X176248482Y-110580128D01*
X176316878Y-110641033D01*
X176473078Y-110759200D01*
X176578740Y-110788361D01*
X176586994Y-110782962D01*
X176570908Y-110695061D01*
X176466452Y-110547826D01*
X176317073Y-110388218D01*
X176166214Y-110263199D01*
X176065311Y-110219067D01*
X175960336Y-110276294D01*
X175784718Y-110424643D01*
X175621218Y-110586044D01*
X175271466Y-110953022D01*
X174441838Y-110953022D01*
X174097649Y-110703296D01*
X173247481Y-110262759D01*
X174466861Y-110262759D01*
X174507317Y-110366163D01*
X174654144Y-110517898D01*
X174780108Y-110616325D01*
X175003932Y-110748582D01*
X175140619Y-110782947D01*
X175169753Y-110730189D01*
X175070916Y-110601079D01*
X174971982Y-110515113D01*
X174744366Y-110333618D01*
X175256183Y-110191321D01*
X175521392Y-110108292D01*
X175705708Y-110032815D01*
X175766192Y-109985878D01*
X175701747Y-109896217D01*
X175546914Y-109769431D01*
X175354334Y-109640250D01*
X175176648Y-109543403D01*
X175066496Y-109513620D01*
X175057582Y-109518374D01*
X175078630Y-109601327D01*
X175202518Y-109733448D01*
X175233952Y-109759468D01*
X175466216Y-109944669D01*
X174986362Y-110052056D01*
X174720212Y-110126758D01*
X174529524Y-110208583D01*
X174466861Y-110262759D01*
X173247481Y-110262759D01*
X173137005Y-110205513D01*
X172169667Y-109870099D01*
X171604446Y-109759092D01*
X170939155Y-109694791D01*
X170234604Y-109678012D01*
X169551604Y-109709570D01*
X168950964Y-109790282D01*
X168793471Y-109824803D01*
X167756375Y-110163521D01*
X166799653Y-110645788D01*
X165934164Y-111260751D01*
X165170766Y-111997552D01*
X164520314Y-112845338D01*
X163993667Y-113793252D01*
X163601683Y-114830440D01*
X163529905Y-115087400D01*
X163437371Y-115589999D01*
X163384389Y-116199265D01*
X163371044Y-116857193D01*
X161339129Y-116857193D01*
X161317150Y-116519463D01*
X161400526Y-115307241D01*
X161484755Y-114896900D01*
X161997640Y-114896900D01*
X162001650Y-115021484D01*
X162076325Y-115032560D01*
X162163481Y-114926493D01*
X162171246Y-114907744D01*
X162221786Y-114834708D01*
X162322445Y-114807357D01*
X162506847Y-114826484D01*
X162808619Y-114892884D01*
X162942161Y-114925924D01*
X163105692Y-114948991D01*
X163142918Y-114894230D01*
X163136329Y-114869054D01*
X163036962Y-114781114D01*
X162830950Y-114693420D01*
X162723124Y-114662906D01*
X162471724Y-114580371D01*
X162349547Y-114474078D01*
X162321278Y-114385202D01*
X162268892Y-114225761D01*
X162195332Y-114222067D01*
X162121689Y-114365893D01*
X162094740Y-114473567D01*
X162042917Y-114713412D01*
X161997640Y-114896900D01*
X161484755Y-114896900D01*
X161645389Y-114114340D01*
X161770364Y-113756257D01*
X162352338Y-113756257D01*
X162365151Y-113866393D01*
X162463705Y-113922583D01*
X162662108Y-114016706D01*
X162903105Y-114123518D01*
X163129440Y-114217773D01*
X163283855Y-114274227D01*
X163299697Y-114278450D01*
X163341307Y-114211778D01*
X163420890Y-114039614D01*
X163450750Y-113969485D01*
X163536529Y-113718467D01*
X163558238Y-113555219D01*
X163523249Y-113500900D01*
X163438933Y-113576667D01*
X163359768Y-113708359D01*
X163230209Y-113910490D01*
X163122867Y-113966866D01*
X163077522Y-113950285D01*
X163006251Y-113861116D01*
X163024333Y-113701226D01*
X163052144Y-113614826D01*
X163102044Y-113430810D01*
X163073067Y-113358480D01*
X163030441Y-113351734D01*
X162927222Y-113423878D01*
X162863899Y-113563400D01*
X162777774Y-113722400D01*
X162675512Y-113775067D01*
X162580608Y-113727371D01*
X162592459Y-113605734D01*
X162664296Y-113372734D01*
X162696875Y-113267067D01*
X162704837Y-113132976D01*
X162663735Y-113097734D01*
X162579569Y-113170059D01*
X162483472Y-113345479D01*
X162399657Y-113561657D01*
X162352338Y-113756257D01*
X161770364Y-113756257D01*
X162050536Y-112953499D01*
X162195256Y-112667241D01*
X162814000Y-112667241D01*
X162878512Y-112743178D01*
X163039783Y-112872640D01*
X163249415Y-113021957D01*
X163459007Y-113157456D01*
X163620162Y-113245467D01*
X163667722Y-113261176D01*
X163766141Y-113217384D01*
X163775712Y-113208466D01*
X163758811Y-113121800D01*
X163639092Y-112989207D01*
X163623014Y-112975633D01*
X163485233Y-112844469D01*
X163469665Y-112743568D01*
X163538291Y-112634179D01*
X163655406Y-112520870D01*
X163782184Y-112542699D01*
X163842082Y-112577630D01*
X164021990Y-112639271D01*
X164099969Y-112607631D01*
X164073185Y-112531759D01*
X163940906Y-112405079D01*
X163746205Y-112258032D01*
X163532156Y-112121060D01*
X163341830Y-112024604D01*
X163236062Y-111997067D01*
X163155045Y-112042029D01*
X163188837Y-112143292D01*
X163319450Y-112249702D01*
X163431369Y-112339851D01*
X163423985Y-112468559D01*
X163390526Y-112549014D01*
X163274361Y-112728063D01*
X163165654Y-112738236D01*
X163110334Y-112674400D01*
X163004800Y-112602299D01*
X162876981Y-112598869D01*
X162814008Y-112666214D01*
X162814000Y-112667241D01*
X162195256Y-112667241D01*
X162614763Y-111837456D01*
X162816635Y-111514284D01*
X163518082Y-111514284D01*
X163547497Y-111609352D01*
X163675334Y-111763046D01*
X163860878Y-111940072D01*
X164063411Y-112105136D01*
X164242218Y-112222942D01*
X164356584Y-112258197D01*
X164368740Y-112251678D01*
X164356553Y-112159152D01*
X164240861Y-112007347D01*
X164163859Y-111932769D01*
X163885905Y-111684417D01*
X164365953Y-111724226D01*
X164658631Y-111734096D01*
X164820732Y-111707091D01*
X164846000Y-111676768D01*
X164787399Y-111571954D01*
X164638883Y-111419315D01*
X164441383Y-111250993D01*
X164235830Y-111099127D01*
X164063154Y-110995860D01*
X163964286Y-110973332D01*
X163957994Y-110979458D01*
X163982066Y-111083206D01*
X164108141Y-111235930D01*
X164166733Y-111288765D01*
X164324951Y-111431390D01*
X164403500Y-111521244D01*
X164405076Y-111532793D01*
X164314694Y-111534228D01*
X164112293Y-111512527D01*
X163975151Y-111492889D01*
X163701493Y-111469240D01*
X163540251Y-111495095D01*
X163518082Y-111514284D01*
X162816635Y-111514284D01*
X162871687Y-111426153D01*
X163184922Y-111005459D01*
X163572604Y-110557895D01*
X164380234Y-110557895D01*
X164401386Y-110673502D01*
X164535261Y-110866878D01*
X164684418Y-111031298D01*
X164945038Y-111279931D01*
X165108394Y-111394694D01*
X165178014Y-111377784D01*
X165180873Y-111340900D01*
X165126356Y-111249627D01*
X164987674Y-111073527D01*
X164809651Y-110867497D01*
X164577012Y-110632067D01*
X164429856Y-110539853D01*
X164380234Y-110557895D01*
X163572604Y-110557895D01*
X163595925Y-110530973D01*
X164063031Y-110044984D01*
X164265682Y-109853419D01*
X164706474Y-109853419D01*
X164798747Y-109869490D01*
X164817479Y-109870579D01*
X164937933Y-109893832D01*
X164956018Y-109978431D01*
X164906510Y-110129738D01*
X164873715Y-110431282D01*
X164990063Y-110701034D01*
X165215532Y-110882059D01*
X165454206Y-110965462D01*
X165634516Y-110928353D01*
X165777334Y-110811734D01*
X165902668Y-110629776D01*
X165942824Y-110451639D01*
X165893867Y-110329092D01*
X165815955Y-110303734D01*
X165708918Y-110358085D01*
X165698987Y-110409567D01*
X165695615Y-110621517D01*
X165596653Y-110714384D01*
X165482952Y-110727067D01*
X165301077Y-110670460D01*
X165157448Y-110530781D01*
X165069701Y-110353239D01*
X165055477Y-110183047D01*
X165132412Y-110065416D01*
X165214892Y-110039967D01*
X165401302Y-110013805D01*
X165471914Y-109972552D01*
X165481000Y-109922734D01*
X165408329Y-109865318D01*
X165248167Y-109850551D01*
X165072620Y-109830145D01*
X165009142Y-109720225D01*
X165005512Y-109681217D01*
X164990628Y-109572444D01*
X164962100Y-109627155D01*
X164957973Y-109642361D01*
X164851014Y-109786961D01*
X164777295Y-109823040D01*
X164706474Y-109853419D01*
X164265682Y-109853419D01*
X164544575Y-109589783D01*
X164679934Y-109475934D01*
X165827766Y-109475934D01*
X165915733Y-109706788D01*
X166031334Y-109922734D01*
X166199706Y-110191562D01*
X166317880Y-110316094D01*
X166397048Y-110310552D01*
X166441735Y-110192688D01*
X166396727Y-110127260D01*
X166337859Y-109975278D01*
X166345368Y-109880782D01*
X166381773Y-109788367D01*
X166452710Y-109779212D01*
X166605237Y-109855946D01*
X166679632Y-109899465D01*
X166909828Y-110006895D01*
X167046838Y-109996759D01*
X167062797Y-109983470D01*
X167068453Y-109897385D01*
X166926460Y-109783573D01*
X166803407Y-109716206D01*
X166575187Y-109588316D01*
X166476106Y-109477382D01*
X166480655Y-109331386D01*
X166492155Y-109297727D01*
X167216667Y-109297727D01*
X167227615Y-109621679D01*
X167258910Y-109804925D01*
X167301334Y-109838067D01*
X167378880Y-109715716D01*
X167386000Y-109661641D01*
X167396721Y-109642849D01*
X173084926Y-109642849D01*
X173087716Y-109683671D01*
X173199246Y-109693942D01*
X173318467Y-109642427D01*
X173524324Y-109591091D01*
X173710107Y-109661541D01*
X173814419Y-109824320D01*
X173820667Y-109883379D01*
X173874321Y-110018979D01*
X173947667Y-110049734D01*
X174016919Y-110014673D01*
X174056427Y-109888692D01*
X174072933Y-109640588D01*
X174074667Y-109462064D01*
X174061648Y-109143079D01*
X174026651Y-108913095D01*
X173980630Y-108816275D01*
X173882640Y-108841972D01*
X173715894Y-108959354D01*
X173516571Y-109133278D01*
X173320850Y-109328598D01*
X173164909Y-109510170D01*
X173084926Y-109642849D01*
X167396721Y-109642849D01*
X167458363Y-109534813D01*
X167627035Y-109445441D01*
X167819391Y-109419356D01*
X167943785Y-109463251D01*
X168088820Y-109529993D01*
X168148631Y-109527412D01*
X168141349Y-109455730D01*
X168056585Y-109322513D01*
X172255982Y-109322513D01*
X172326409Y-109398410D01*
X172502592Y-109488191D01*
X172550667Y-109506572D01*
X172804154Y-109591863D01*
X172931935Y-109612780D01*
X172964486Y-109570383D01*
X172952873Y-109520567D01*
X172849100Y-109418360D01*
X172755317Y-109385349D01*
X172587082Y-109331393D01*
X172517012Y-109224344D01*
X172534204Y-109026429D01*
X172591279Y-108817029D01*
X172670790Y-108555060D01*
X172705909Y-108416927D01*
X172698144Y-108363472D01*
X172649000Y-108355535D01*
X172609006Y-108356400D01*
X172537913Y-108430054D01*
X172447763Y-108615772D01*
X172357874Y-108860692D01*
X172287562Y-109111951D01*
X172256144Y-109316684D01*
X172255982Y-109322513D01*
X168056585Y-109322513D01*
X168038571Y-109294203D01*
X167861671Y-109075524D01*
X167829066Y-109038698D01*
X167586783Y-108791583D01*
X167407396Y-108657319D01*
X167317588Y-108642688D01*
X167259424Y-108764686D01*
X167224760Y-109028087D01*
X167216667Y-109297727D01*
X166492155Y-109297727D01*
X166535697Y-109170298D01*
X166578019Y-109021922D01*
X166533872Y-108991792D01*
X166494283Y-109004158D01*
X166397692Y-109109521D01*
X166303470Y-109316652D01*
X166277715Y-109400693D01*
X166183591Y-109750242D01*
X166057533Y-109509651D01*
X165943419Y-109350483D01*
X165848572Y-109352158D01*
X165844289Y-109356245D01*
X165827766Y-109475934D01*
X164679934Y-109475934D01*
X164998892Y-109207662D01*
X165211459Y-109051249D01*
X165949374Y-108610464D01*
X168667162Y-108610464D01*
X168722503Y-108700146D01*
X168875435Y-108763037D01*
X169100500Y-108816608D01*
X169269084Y-108880290D01*
X169333334Y-108953337D01*
X169264113Y-109059805D01*
X169104630Y-109101981D01*
X168927151Y-109063092D01*
X168907913Y-109052079D01*
X168755335Y-108998549D01*
X168694041Y-109051820D01*
X168751768Y-109174110D01*
X168924392Y-109267788D01*
X169162570Y-109277921D01*
X169385853Y-109206735D01*
X169454286Y-109154686D01*
X169568349Y-108963667D01*
X169522259Y-108795859D01*
X169325057Y-108667668D01*
X169272345Y-108652734D01*
X169841334Y-108652734D01*
X169853296Y-108940316D01*
X169884986Y-109137210D01*
X169926000Y-109203067D01*
X169996224Y-109132631D01*
X170010667Y-109044100D01*
X170070694Y-108856611D01*
X170130345Y-108785810D01*
X170228894Y-108746579D01*
X170327691Y-108828784D01*
X170402600Y-108944776D01*
X170532683Y-109117486D01*
X170651064Y-109201509D01*
X170663922Y-109203067D01*
X170749755Y-109186866D01*
X170754859Y-109117659D01*
X170671441Y-108964536D01*
X170562241Y-108799746D01*
X170441209Y-108621632D01*
X171027393Y-108621632D01*
X171049188Y-108880953D01*
X171163948Y-109107665D01*
X171361887Y-109255628D01*
X171534667Y-109287734D01*
X171763187Y-109229092D01*
X171908151Y-109126705D01*
X172026632Y-108885374D01*
X172029929Y-108601769D01*
X171927943Y-108341855D01*
X171767500Y-108189727D01*
X171582836Y-108107734D01*
X171432124Y-108124734D01*
X171301834Y-108189727D01*
X171108347Y-108375843D01*
X171027393Y-108621632D01*
X170441209Y-108621632D01*
X170351814Y-108490076D01*
X170583264Y-108248495D01*
X170716343Y-108100329D01*
X170732207Y-108047444D01*
X170645524Y-108067068D01*
X170469552Y-108164649D01*
X170264963Y-108322873D01*
X170243500Y-108342319D01*
X170010667Y-108557414D01*
X170010667Y-108329907D01*
X169983532Y-108163367D01*
X169926000Y-108102400D01*
X169881757Y-108180158D01*
X169851465Y-108386140D01*
X169841334Y-108652734D01*
X169272345Y-108652734D01*
X169160108Y-108620936D01*
X168958515Y-108550580D01*
X168845210Y-108456558D01*
X168841954Y-108448594D01*
X168852323Y-108378656D01*
X168972840Y-108369805D01*
X169119681Y-108392775D01*
X169326987Y-108418782D01*
X169402882Y-108386973D01*
X169398668Y-108340738D01*
X169291635Y-108263558D01*
X169064383Y-108229856D01*
X169029945Y-108229400D01*
X168812627Y-108242466D01*
X168711234Y-108304564D01*
X168672997Y-108450040D01*
X168671497Y-108462715D01*
X168667162Y-108610464D01*
X165949374Y-108610464D01*
X166287073Y-108408744D01*
X167270423Y-107985631D01*
X168750338Y-107985631D01*
X168794132Y-108042977D01*
X168892665Y-108046603D01*
X169042013Y-107995236D01*
X169151593Y-107924299D01*
X169164000Y-107898338D01*
X169091312Y-107876682D01*
X168952334Y-107869567D01*
X168775383Y-107900099D01*
X168750338Y-107985631D01*
X167270423Y-107985631D01*
X167411977Y-107924724D01*
X168573615Y-107600040D01*
X169759434Y-107435540D01*
X170956879Y-107432075D01*
X172153394Y-107590495D01*
X172153394Y-107590495D01*
G37*
X172153394Y-107590495D02*
X173336427Y-107911648D01*
X174493421Y-108396386D01*
X174540334Y-108419871D01*
X175576195Y-109034939D01*
X176515067Y-109781019D01*
X177345967Y-110643257D01*
X178057912Y-111606797D01*
X178639917Y-112656785D01*
X179080999Y-113778368D01*
X179369062Y-114950324D01*
X179499899Y-116166758D01*
X179469381Y-117362862D01*
X179285285Y-118526515D01*
X178955391Y-119645595D01*
X178487477Y-120707979D01*
X177889322Y-121701544D01*
X177168704Y-122614168D01*
X176333401Y-123433730D01*
X175391193Y-124148105D01*
X174349859Y-124745173D01*
X173217176Y-125212811D01*
X172677667Y-125378362D01*
X172354449Y-125457202D01*
X172022492Y-125513504D01*
X171640357Y-125551556D01*
X171166605Y-125575645D01*
X170645667Y-125588618D01*
X170163504Y-125594437D01*
X169723327Y-125594807D01*
X169360990Y-125590067D01*
X169112344Y-125580557D01*
X169037000Y-125573408D01*
X168244270Y-125399555D01*
X167391152Y-125121450D01*
X166530809Y-124760455D01*
X165849928Y-124407207D01*
X169271210Y-124407207D01*
X169280315Y-124439725D01*
X169354500Y-124417747D01*
X169449385Y-124409002D01*
X169496918Y-124497703D01*
X169516167Y-124719593D01*
X169516217Y-124720891D01*
X169526244Y-124924700D01*
X169538003Y-124967930D01*
X169546487Y-124918566D01*
X169954770Y-124918566D01*
X169968334Y-124951067D01*
X170080493Y-125032573D01*
X170105327Y-125035734D01*
X170151230Y-124983568D01*
X170137667Y-124951067D01*
X170025508Y-124869561D01*
X170000673Y-124866400D01*
X169954770Y-124918566D01*
X169546487Y-124918566D01*
X169556673Y-124859300D01*
X169564027Y-124801384D01*
X169580548Y-124530106D01*
X169579644Y-124507188D01*
X169949472Y-124507188D01*
X170036180Y-124660045D01*
X170194767Y-124737644D01*
X170328167Y-124720904D01*
X170421747Y-124729082D01*
X170413077Y-124825613D01*
X170332400Y-124934134D01*
X170280873Y-125021103D01*
X170323342Y-125035734D01*
X170429954Y-124967675D01*
X170467275Y-124901809D01*
X170484588Y-124812894D01*
X170603334Y-124812894D01*
X170674483Y-124856420D01*
X170772667Y-124866400D01*
X170910247Y-124901856D01*
X170942000Y-124951067D01*
X170993368Y-125029977D01*
X171087836Y-125006038D01*
X171127038Y-124946070D01*
X171365334Y-124946070D01*
X171426794Y-125032288D01*
X171450000Y-125035734D01*
X171532466Y-125006847D01*
X171534667Y-124998397D01*
X171475338Y-124926111D01*
X171450000Y-124908734D01*
X171371981Y-124915446D01*
X171365334Y-124946070D01*
X171127038Y-124946070D01*
X171127184Y-124945848D01*
X171143351Y-124793269D01*
X171130770Y-124578682D01*
X171118535Y-124499035D01*
X171316032Y-124499035D01*
X171334716Y-124570067D01*
X171436794Y-124688762D01*
X171638311Y-124708371D01*
X171682834Y-124703387D01*
X171769911Y-124750776D01*
X171782157Y-124868758D01*
X171713784Y-124973310D01*
X171701884Y-124979995D01*
X171682599Y-125006630D01*
X171723050Y-125001672D01*
X171798869Y-124911901D01*
X171851381Y-124716164D01*
X171857943Y-124658198D01*
X171856076Y-124428873D01*
X171817158Y-124272675D01*
X171804957Y-124256157D01*
X171755739Y-124255067D01*
X171764430Y-124382346D01*
X171748778Y-124573837D01*
X171666044Y-124641338D01*
X171532217Y-124630266D01*
X171465051Y-124510074D01*
X171485501Y-124334691D01*
X171520066Y-124265651D01*
X171574395Y-124154520D01*
X171517755Y-124149107D01*
X171497641Y-124156412D01*
X171350142Y-124291967D01*
X171316032Y-124499035D01*
X171118535Y-124499035D01*
X171098095Y-124365988D01*
X171053983Y-124219083D01*
X171024679Y-124189067D01*
X170945932Y-124253690D01*
X170825794Y-124408550D01*
X170703788Y-124595132D01*
X170619436Y-124754921D01*
X170603334Y-124812894D01*
X170484588Y-124812894D01*
X170519777Y-124632178D01*
X170481508Y-124393334D01*
X170372496Y-124222894D01*
X170212770Y-124158470D01*
X170089454Y-124192214D01*
X169959083Y-124333202D01*
X169949472Y-124507188D01*
X169579644Y-124507188D01*
X169571644Y-124304516D01*
X169545000Y-124084330D01*
X169375667Y-124278055D01*
X169271210Y-124407207D01*
X165849928Y-124407207D01*
X165716407Y-124337935D01*
X165259321Y-124055410D01*
X164545908Y-123505919D01*
X163847720Y-122828309D01*
X163197825Y-122062851D01*
X162629293Y-121249819D01*
X162175194Y-120429483D01*
X162047986Y-120144664D01*
X161639677Y-118950913D01*
X161396466Y-117738266D01*
X161339129Y-116857193D01*
X163371044Y-116857193D01*
X163397422Y-117505779D01*
X163463610Y-118087020D01*
X163524999Y-118389400D01*
X163720996Y-118997432D01*
X164004925Y-119659042D01*
X164346686Y-120315080D01*
X164716182Y-120906394D01*
X164989114Y-121266743D01*
X165756119Y-122049329D01*
X166623898Y-122701227D01*
X167576472Y-123213539D01*
X168597865Y-123577368D01*
X169460334Y-123756492D01*
X169903600Y-123812271D01*
X170277983Y-123835186D01*
X170653875Y-123825430D01*
X171101670Y-123783195D01*
X171282888Y-123761460D01*
X172322923Y-123549890D01*
X173305026Y-123187445D01*
X174215848Y-122686609D01*
X175042042Y-122059865D01*
X175770258Y-121319696D01*
X176387149Y-120478587D01*
X176879366Y-119549020D01*
X177233561Y-118543479D01*
X177338659Y-118098017D01*
X177415292Y-117533589D01*
X177444556Y-116878892D01*
X177428213Y-116195383D01*
X177368028Y-115544518D01*
X177265763Y-114987756D01*
X177247430Y-114918067D01*
X176908197Y-113971214D01*
X177414375Y-113971214D01*
X177427098Y-114061973D01*
X177532951Y-114180286D01*
X177599487Y-114198400D01*
X177713362Y-114269319D01*
X177805948Y-114425712D01*
X177849833Y-114607339D01*
X177791858Y-114707497D01*
X177765036Y-114724284D01*
X177679077Y-114845500D01*
X177685286Y-114919553D01*
X177716069Y-114977355D01*
X177766794Y-114988211D01*
X177862933Y-114937372D01*
X178029955Y-114810091D01*
X178293333Y-114591619D01*
X178385234Y-114514270D01*
X178581342Y-114311139D01*
X178618993Y-114164018D01*
X178497222Y-114071230D01*
X178215063Y-114031097D01*
X178105915Y-114029067D01*
X177820914Y-114019916D01*
X177592587Y-113996478D01*
X177509631Y-113977307D01*
X177414375Y-113971214D01*
X176908197Y-113971214D01*
X176876832Y-113883670D01*
X176505226Y-113193894D01*
X177120606Y-113193894D01*
X177165840Y-113448552D01*
X177307740Y-113641066D01*
X177310839Y-113643266D01*
X177509115Y-113757765D01*
X177609620Y-113747897D01*
X177630667Y-113657942D01*
X177559731Y-113544218D01*
X177461334Y-113496535D01*
X177326026Y-113391032D01*
X177298811Y-113217328D01*
X177386364Y-113042827D01*
X177413880Y-113017316D01*
X177584867Y-112950993D01*
X177773714Y-112943449D01*
X177950496Y-112995874D01*
X178009567Y-113128053D01*
X178011667Y-113182400D01*
X178045593Y-113365211D01*
X178119003Y-113411285D01*
X178189346Y-113312519D01*
X178208513Y-113219878D01*
X178170577Y-112977896D01*
X178026796Y-112777631D01*
X177822799Y-112677344D01*
X177781312Y-112674400D01*
X177550198Y-112724036D01*
X177316722Y-112842809D01*
X177187463Y-112962242D01*
X177120606Y-113193894D01*
X176505226Y-113193894D01*
X176364885Y-112933393D01*
X176221355Y-112742231D01*
X176764277Y-112742231D01*
X176830088Y-112789531D01*
X176979560Y-112728237D01*
X177067281Y-112673008D01*
X177301211Y-112526733D01*
X177510892Y-112409208D01*
X177524834Y-112402241D01*
X177653395Y-112299114D01*
X177718391Y-112177619D01*
X177697359Y-112094066D01*
X177651834Y-112083901D01*
X177516544Y-112132732D01*
X177317299Y-112251024D01*
X177098932Y-112405523D01*
X176906276Y-112562974D01*
X176784165Y-112690122D01*
X176764277Y-112742231D01*
X176221355Y-112742231D01*
X175723259Y-112078837D01*
X175442473Y-111802635D01*
X176116421Y-111802635D01*
X176212473Y-111794814D01*
X176414775Y-111679780D01*
X176445911Y-111657989D01*
X176607306Y-111546822D01*
X176678885Y-111526642D01*
X176671485Y-111619014D01*
X176595939Y-111845504D01*
X176572908Y-111910771D01*
X176487246Y-112192324D01*
X176481792Y-112346213D01*
X176567224Y-112375395D01*
X176754222Y-112282823D01*
X177053464Y-112071454D01*
X177080334Y-112051194D01*
X177280341Y-111900309D01*
X177416636Y-111798190D01*
X177448645Y-111774702D01*
X177440573Y-111697992D01*
X177422273Y-111663695D01*
X177321706Y-111648792D01*
X177127800Y-111756309D01*
X177075128Y-111795111D01*
X176890757Y-111929116D01*
X176806636Y-111957535D01*
X176812114Y-111864664D01*
X176896545Y-111634804D01*
X176922405Y-111569919D01*
X177006383Y-111298969D01*
X176987412Y-111159462D01*
X176863547Y-111150670D01*
X176632847Y-111271866D01*
X176456865Y-111395797D01*
X176239506Y-111581827D01*
X176125729Y-111724540D01*
X176116421Y-111802635D01*
X175442473Y-111802635D01*
X174963623Y-111331604D01*
X174441838Y-110953022D01*
X175271466Y-110953022D01*
X175577364Y-111258920D01*
X175779217Y-111433340D01*
X175919825Y-111508768D01*
X175976875Y-111488567D01*
X175928052Y-111376103D01*
X175800901Y-111225221D01*
X175655095Y-111047614D01*
X175631458Y-110931777D01*
X175665837Y-110880030D01*
X175767689Y-110838441D01*
X175907639Y-110916952D01*
X175978212Y-110979700D01*
X176134273Y-111098008D01*
X176239590Y-111127512D01*
X176247778Y-111122178D01*
X176234806Y-111029861D01*
X176128377Y-110877993D01*
X176105300Y-110852612D01*
X175978469Y-110687037D01*
X175977358Y-110575673D01*
X176005067Y-110540800D01*
X176107238Y-110500037D01*
X176248482Y-110580128D01*
X176316878Y-110641033D01*
X176473078Y-110759200D01*
X176578740Y-110788361D01*
X176586994Y-110782962D01*
X176570908Y-110695061D01*
X176466452Y-110547826D01*
X176317073Y-110388218D01*
X176166214Y-110263199D01*
X176065311Y-110219067D01*
X175960336Y-110276294D01*
X175784718Y-110424643D01*
X175621218Y-110586044D01*
X175271466Y-110953022D01*
X174441838Y-110953022D01*
X174097649Y-110703296D01*
X173247481Y-110262759D01*
X174466861Y-110262759D01*
X174507317Y-110366163D01*
X174654144Y-110517898D01*
X174780108Y-110616325D01*
X175003932Y-110748582D01*
X175140619Y-110782947D01*
X175169753Y-110730189D01*
X175070916Y-110601079D01*
X174971982Y-110515113D01*
X174744366Y-110333618D01*
X175256183Y-110191321D01*
X175521392Y-110108292D01*
X175705708Y-110032815D01*
X175766192Y-109985878D01*
X175701747Y-109896217D01*
X175546914Y-109769431D01*
X175354334Y-109640250D01*
X175176648Y-109543403D01*
X175066496Y-109513620D01*
X175057582Y-109518374D01*
X175078630Y-109601327D01*
X175202518Y-109733448D01*
X175233952Y-109759468D01*
X175466216Y-109944669D01*
X174986362Y-110052056D01*
X174720212Y-110126758D01*
X174529524Y-110208583D01*
X174466861Y-110262759D01*
X173247481Y-110262759D01*
X173137005Y-110205513D01*
X172169667Y-109870099D01*
X171604446Y-109759092D01*
X170939155Y-109694791D01*
X170234604Y-109678012D01*
X169551604Y-109709570D01*
X168950964Y-109790282D01*
X168793471Y-109824803D01*
X167756375Y-110163521D01*
X166799653Y-110645788D01*
X165934164Y-111260751D01*
X165170766Y-111997552D01*
X164520314Y-112845338D01*
X163993667Y-113793252D01*
X163601683Y-114830440D01*
X163529905Y-115087400D01*
X163437371Y-115589999D01*
X163384389Y-116199265D01*
X163371044Y-116857193D01*
X161339129Y-116857193D01*
X161317150Y-116519463D01*
X161400526Y-115307241D01*
X161484755Y-114896900D01*
X161997640Y-114896900D01*
X162001650Y-115021484D01*
X162076325Y-115032560D01*
X162163481Y-114926493D01*
X162171246Y-114907744D01*
X162221786Y-114834708D01*
X162322445Y-114807357D01*
X162506847Y-114826484D01*
X162808619Y-114892884D01*
X162942161Y-114925924D01*
X163105692Y-114948991D01*
X163142918Y-114894230D01*
X163136329Y-114869054D01*
X163036962Y-114781114D01*
X162830950Y-114693420D01*
X162723124Y-114662906D01*
X162471724Y-114580371D01*
X162349547Y-114474078D01*
X162321278Y-114385202D01*
X162268892Y-114225761D01*
X162195332Y-114222067D01*
X162121689Y-114365893D01*
X162094740Y-114473567D01*
X162042917Y-114713412D01*
X161997640Y-114896900D01*
X161484755Y-114896900D01*
X161645389Y-114114340D01*
X161770364Y-113756257D01*
X162352338Y-113756257D01*
X162365151Y-113866393D01*
X162463705Y-113922583D01*
X162662108Y-114016706D01*
X162903105Y-114123518D01*
X163129440Y-114217773D01*
X163283855Y-114274227D01*
X163299697Y-114278450D01*
X163341307Y-114211778D01*
X163420890Y-114039614D01*
X163450750Y-113969485D01*
X163536529Y-113718467D01*
X163558238Y-113555219D01*
X163523249Y-113500900D01*
X163438933Y-113576667D01*
X163359768Y-113708359D01*
X163230209Y-113910490D01*
X163122867Y-113966866D01*
X163077522Y-113950285D01*
X163006251Y-113861116D01*
X163024333Y-113701226D01*
X163052144Y-113614826D01*
X163102044Y-113430810D01*
X163073067Y-113358480D01*
X163030441Y-113351734D01*
X162927222Y-113423878D01*
X162863899Y-113563400D01*
X162777774Y-113722400D01*
X162675512Y-113775067D01*
X162580608Y-113727371D01*
X162592459Y-113605734D01*
X162664296Y-113372734D01*
X162696875Y-113267067D01*
X162704837Y-113132976D01*
X162663735Y-113097734D01*
X162579569Y-113170059D01*
X162483472Y-113345479D01*
X162399657Y-113561657D01*
X162352338Y-113756257D01*
X161770364Y-113756257D01*
X162050536Y-112953499D01*
X162195256Y-112667241D01*
X162814000Y-112667241D01*
X162878512Y-112743178D01*
X163039783Y-112872640D01*
X163249415Y-113021957D01*
X163459007Y-113157456D01*
X163620162Y-113245467D01*
X163667722Y-113261176D01*
X163766141Y-113217384D01*
X163775712Y-113208466D01*
X163758811Y-113121800D01*
X163639092Y-112989207D01*
X163623014Y-112975633D01*
X163485233Y-112844469D01*
X163469665Y-112743568D01*
X163538291Y-112634179D01*
X163655406Y-112520870D01*
X163782184Y-112542699D01*
X163842082Y-112577630D01*
X164021990Y-112639271D01*
X164099969Y-112607631D01*
X164073185Y-112531759D01*
X163940906Y-112405079D01*
X163746205Y-112258032D01*
X163532156Y-112121060D01*
X163341830Y-112024604D01*
X163236062Y-111997067D01*
X163155045Y-112042029D01*
X163188837Y-112143292D01*
X163319450Y-112249702D01*
X163431369Y-112339851D01*
X163423985Y-112468559D01*
X163390526Y-112549014D01*
X163274361Y-112728063D01*
X163165654Y-112738236D01*
X163110334Y-112674400D01*
X163004800Y-112602299D01*
X162876981Y-112598869D01*
X162814008Y-112666214D01*
X162814000Y-112667241D01*
X162195256Y-112667241D01*
X162614763Y-111837456D01*
X162816635Y-111514284D01*
X163518082Y-111514284D01*
X163547497Y-111609352D01*
X163675334Y-111763046D01*
X163860878Y-111940072D01*
X164063411Y-112105136D01*
X164242218Y-112222942D01*
X164356584Y-112258197D01*
X164368740Y-112251678D01*
X164356553Y-112159152D01*
X164240861Y-112007347D01*
X164163859Y-111932769D01*
X163885905Y-111684417D01*
X164365953Y-111724226D01*
X164658631Y-111734096D01*
X164820732Y-111707091D01*
X164846000Y-111676768D01*
X164787399Y-111571954D01*
X164638883Y-111419315D01*
X164441383Y-111250993D01*
X164235830Y-111099127D01*
X164063154Y-110995860D01*
X163964286Y-110973332D01*
X163957994Y-110979458D01*
X163982066Y-111083206D01*
X164108141Y-111235930D01*
X164166733Y-111288765D01*
X164324951Y-111431390D01*
X164403500Y-111521244D01*
X164405076Y-111532793D01*
X164314694Y-111534228D01*
X164112293Y-111512527D01*
X163975151Y-111492889D01*
X163701493Y-111469240D01*
X163540251Y-111495095D01*
X163518082Y-111514284D01*
X162816635Y-111514284D01*
X162871687Y-111426153D01*
X163184922Y-111005459D01*
X163572604Y-110557895D01*
X164380234Y-110557895D01*
X164401386Y-110673502D01*
X164535261Y-110866878D01*
X164684418Y-111031298D01*
X164945038Y-111279931D01*
X165108394Y-111394694D01*
X165178014Y-111377784D01*
X165180873Y-111340900D01*
X165126356Y-111249627D01*
X164987674Y-111073527D01*
X164809651Y-110867497D01*
X164577012Y-110632067D01*
X164429856Y-110539853D01*
X164380234Y-110557895D01*
X163572604Y-110557895D01*
X163595925Y-110530973D01*
X164063031Y-110044984D01*
X164265682Y-109853419D01*
X164706474Y-109853419D01*
X164798747Y-109869490D01*
X164817479Y-109870579D01*
X164937933Y-109893832D01*
X164956018Y-109978431D01*
X164906510Y-110129738D01*
X164873715Y-110431282D01*
X164990063Y-110701034D01*
X165215532Y-110882059D01*
X165454206Y-110965462D01*
X165634516Y-110928353D01*
X165777334Y-110811734D01*
X165902668Y-110629776D01*
X165942824Y-110451639D01*
X165893867Y-110329092D01*
X165815955Y-110303734D01*
X165708918Y-110358085D01*
X165698987Y-110409567D01*
X165695615Y-110621517D01*
X165596653Y-110714384D01*
X165482952Y-110727067D01*
X165301077Y-110670460D01*
X165157448Y-110530781D01*
X165069701Y-110353239D01*
X165055477Y-110183047D01*
X165132412Y-110065416D01*
X165214892Y-110039967D01*
X165401302Y-110013805D01*
X165471914Y-109972552D01*
X165481000Y-109922734D01*
X165408329Y-109865318D01*
X165248167Y-109850551D01*
X165072620Y-109830145D01*
X165009142Y-109720225D01*
X165005512Y-109681217D01*
X164990628Y-109572444D01*
X164962100Y-109627155D01*
X164957973Y-109642361D01*
X164851014Y-109786961D01*
X164777295Y-109823040D01*
X164706474Y-109853419D01*
X164265682Y-109853419D01*
X164544575Y-109589783D01*
X164679934Y-109475934D01*
X165827766Y-109475934D01*
X165915733Y-109706788D01*
X166031334Y-109922734D01*
X166199706Y-110191562D01*
X166317880Y-110316094D01*
X166397048Y-110310552D01*
X166441735Y-110192688D01*
X166396727Y-110127260D01*
X166337859Y-109975278D01*
X166345368Y-109880782D01*
X166381773Y-109788367D01*
X166452710Y-109779212D01*
X166605237Y-109855946D01*
X166679632Y-109899465D01*
X166909828Y-110006895D01*
X167046838Y-109996759D01*
X167062797Y-109983470D01*
X167068453Y-109897385D01*
X166926460Y-109783573D01*
X166803407Y-109716206D01*
X166575187Y-109588316D01*
X166476106Y-109477382D01*
X166480655Y-109331386D01*
X166492155Y-109297727D01*
X167216667Y-109297727D01*
X167227615Y-109621679D01*
X167258910Y-109804925D01*
X167301334Y-109838067D01*
X167378880Y-109715716D01*
X167386000Y-109661641D01*
X167396721Y-109642849D01*
X173084926Y-109642849D01*
X173087716Y-109683671D01*
X173199246Y-109693942D01*
X173318467Y-109642427D01*
X173524324Y-109591091D01*
X173710107Y-109661541D01*
X173814419Y-109824320D01*
X173820667Y-109883379D01*
X173874321Y-110018979D01*
X173947667Y-110049734D01*
X174016919Y-110014673D01*
X174056427Y-109888692D01*
X174072933Y-109640588D01*
X174074667Y-109462064D01*
X174061648Y-109143079D01*
X174026651Y-108913095D01*
X173980630Y-108816275D01*
X173882640Y-108841972D01*
X173715894Y-108959354D01*
X173516571Y-109133278D01*
X173320850Y-109328598D01*
X173164909Y-109510170D01*
X173084926Y-109642849D01*
X167396721Y-109642849D01*
X167458363Y-109534813D01*
X167627035Y-109445441D01*
X167819391Y-109419356D01*
X167943785Y-109463251D01*
X168088820Y-109529993D01*
X168148631Y-109527412D01*
X168141349Y-109455730D01*
X168056585Y-109322513D01*
X172255982Y-109322513D01*
X172326409Y-109398410D01*
X172502592Y-109488191D01*
X172550667Y-109506572D01*
X172804154Y-109591863D01*
X172931935Y-109612780D01*
X172964486Y-109570383D01*
X172952873Y-109520567D01*
X172849100Y-109418360D01*
X172755317Y-109385349D01*
X172587082Y-109331393D01*
X172517012Y-109224344D01*
X172534204Y-109026429D01*
X172591279Y-108817029D01*
X172670790Y-108555060D01*
X172705909Y-108416927D01*
X172698144Y-108363472D01*
X172649000Y-108355535D01*
X172609006Y-108356400D01*
X172537913Y-108430054D01*
X172447763Y-108615772D01*
X172357874Y-108860692D01*
X172287562Y-109111951D01*
X172256144Y-109316684D01*
X172255982Y-109322513D01*
X168056585Y-109322513D01*
X168038571Y-109294203D01*
X167861671Y-109075524D01*
X167829066Y-109038698D01*
X167586783Y-108791583D01*
X167407396Y-108657319D01*
X167317588Y-108642688D01*
X167259424Y-108764686D01*
X167224760Y-109028087D01*
X167216667Y-109297727D01*
X166492155Y-109297727D01*
X166535697Y-109170298D01*
X166578019Y-109021922D01*
X166533872Y-108991792D01*
X166494283Y-109004158D01*
X166397692Y-109109521D01*
X166303470Y-109316652D01*
X166277715Y-109400693D01*
X166183591Y-109750242D01*
X166057533Y-109509651D01*
X165943419Y-109350483D01*
X165848572Y-109352158D01*
X165844289Y-109356245D01*
X165827766Y-109475934D01*
X164679934Y-109475934D01*
X164998892Y-109207662D01*
X165211459Y-109051249D01*
X165949374Y-108610464D01*
X168667162Y-108610464D01*
X168722503Y-108700146D01*
X168875435Y-108763037D01*
X169100500Y-108816608D01*
X169269084Y-108880290D01*
X169333334Y-108953337D01*
X169264113Y-109059805D01*
X169104630Y-109101981D01*
X168927151Y-109063092D01*
X168907913Y-109052079D01*
X168755335Y-108998549D01*
X168694041Y-109051820D01*
X168751768Y-109174110D01*
X168924392Y-109267788D01*
X169162570Y-109277921D01*
X169385853Y-109206735D01*
X169454286Y-109154686D01*
X169568349Y-108963667D01*
X169522259Y-108795859D01*
X169325057Y-108667668D01*
X169272345Y-108652734D01*
X169841334Y-108652734D01*
X169853296Y-108940316D01*
X169884986Y-109137210D01*
X169926000Y-109203067D01*
X169996224Y-109132631D01*
X170010667Y-109044100D01*
X170070694Y-108856611D01*
X170130345Y-108785810D01*
X170228894Y-108746579D01*
X170327691Y-108828784D01*
X170402600Y-108944776D01*
X170532683Y-109117486D01*
X170651064Y-109201509D01*
X170663922Y-109203067D01*
X170749755Y-109186866D01*
X170754859Y-109117659D01*
X170671441Y-108964536D01*
X170562241Y-108799746D01*
X170441209Y-108621632D01*
X171027393Y-108621632D01*
X171049188Y-108880953D01*
X171163948Y-109107665D01*
X171361887Y-109255628D01*
X171534667Y-109287734D01*
X171763187Y-109229092D01*
X171908151Y-109126705D01*
X172026632Y-108885374D01*
X172029929Y-108601769D01*
X171927943Y-108341855D01*
X171767500Y-108189727D01*
X171582836Y-108107734D01*
X171432124Y-108124734D01*
X171301834Y-108189727D01*
X171108347Y-108375843D01*
X171027393Y-108621632D01*
X170441209Y-108621632D01*
X170351814Y-108490076D01*
X170583264Y-108248495D01*
X170716343Y-108100329D01*
X170732207Y-108047444D01*
X170645524Y-108067068D01*
X170469552Y-108164649D01*
X170264963Y-108322873D01*
X170243500Y-108342319D01*
X170010667Y-108557414D01*
X170010667Y-108329907D01*
X169983532Y-108163367D01*
X169926000Y-108102400D01*
X169881757Y-108180158D01*
X169851465Y-108386140D01*
X169841334Y-108652734D01*
X169272345Y-108652734D01*
X169160108Y-108620936D01*
X168958515Y-108550580D01*
X168845210Y-108456558D01*
X168841954Y-108448594D01*
X168852323Y-108378656D01*
X168972840Y-108369805D01*
X169119681Y-108392775D01*
X169326987Y-108418782D01*
X169402882Y-108386973D01*
X169398668Y-108340738D01*
X169291635Y-108263558D01*
X169064383Y-108229856D01*
X169029945Y-108229400D01*
X168812627Y-108242466D01*
X168711234Y-108304564D01*
X168672997Y-108450040D01*
X168671497Y-108462715D01*
X168667162Y-108610464D01*
X165949374Y-108610464D01*
X166287073Y-108408744D01*
X167270423Y-107985631D01*
X168750338Y-107985631D01*
X168794132Y-108042977D01*
X168892665Y-108046603D01*
X169042013Y-107995236D01*
X169151593Y-107924299D01*
X169164000Y-107898338D01*
X169091312Y-107876682D01*
X168952334Y-107869567D01*
X168775383Y-107900099D01*
X168750338Y-107985631D01*
X167270423Y-107985631D01*
X167411977Y-107924724D01*
X168573615Y-107600040D01*
X169759434Y-107435540D01*
X170956879Y-107432075D01*
X172153394Y-107590495D01*
G36*
X180001334Y-126051734D02*
G01*
X160951334Y-126051734D01*
X160951334Y-117059584D01*
X161138011Y-117059584D01*
X161275933Y-118252483D01*
X161561134Y-119405674D01*
X161958428Y-120422806D01*
X162559737Y-121517687D01*
X163281684Y-122507041D01*
X164111297Y-123383591D01*
X165035603Y-124140061D01*
X166041633Y-124769173D01*
X167116413Y-125263650D01*
X168246974Y-125616216D01*
X169420343Y-125819594D01*
X170623549Y-125866507D01*
X171534667Y-125795031D01*
X172765473Y-125553088D01*
X173938059Y-125157592D01*
X175039612Y-124616768D01*
X176057321Y-123938840D01*
X176978371Y-123132033D01*
X177789950Y-122204571D01*
X178313521Y-121443766D01*
X178894541Y-120347645D01*
X179318849Y-119206492D01*
X179588005Y-118035232D01*
X179703570Y-116848793D01*
X179667105Y-115662101D01*
X179480170Y-114490082D01*
X179144327Y-113347663D01*
X178661137Y-112249771D01*
X178032159Y-111211332D01*
X177258956Y-110247272D01*
X177128117Y-110107364D01*
X176437393Y-109440171D01*
X175740666Y-108891620D01*
X174980396Y-108419054D01*
X174540334Y-108188937D01*
X173382454Y-107705823D01*
X172197363Y-107385148D01*
X170998504Y-107224971D01*
X169799321Y-107223350D01*
X168613259Y-107378346D01*
X167453760Y-107688015D01*
X166334271Y-108150418D01*
X165268234Y-108763613D01*
X164269095Y-109525659D01*
X164073642Y-109700190D01*
X163285744Y-110530329D01*
X162593683Y-111478917D01*
X162019417Y-112512036D01*
X161620011Y-113490282D01*
X161308841Y-114653719D01*
X161148577Y-115851741D01*
X161138011Y-117059584D01*
X160951334Y-117059584D01*
X160951334Y-107001734D01*
X180001334Y-107001734D01*
X180001334Y-126051734D01*
X180001334Y-126051734D01*
G37*
X180001334Y-126051734D02*
X160951334Y-126051734D01*
X160951334Y-117059584D01*
X161138011Y-117059584D01*
X161275933Y-118252483D01*
X161561134Y-119405674D01*
X161958428Y-120422806D01*
X162559737Y-121517687D01*
X163281684Y-122507041D01*
X164111297Y-123383591D01*
X165035603Y-124140061D01*
X166041633Y-124769173D01*
X167116413Y-125263650D01*
X168246974Y-125616216D01*
X169420343Y-125819594D01*
X170623549Y-125866507D01*
X171534667Y-125795031D01*
X172765473Y-125553088D01*
X173938059Y-125157592D01*
X175039612Y-124616768D01*
X176057321Y-123938840D01*
X176978371Y-123132033D01*
X177789950Y-122204571D01*
X178313521Y-121443766D01*
X178894541Y-120347645D01*
X179318849Y-119206492D01*
X179588005Y-118035232D01*
X179703570Y-116848793D01*
X179667105Y-115662101D01*
X179480170Y-114490082D01*
X179144327Y-113347663D01*
X178661137Y-112249771D01*
X178032159Y-111211332D01*
X177258956Y-110247272D01*
X177128117Y-110107364D01*
X176437393Y-109440171D01*
X175740666Y-108891620D01*
X174980396Y-108419054D01*
X174540334Y-108188937D01*
X173382454Y-107705823D01*
X172197363Y-107385148D01*
X170998504Y-107224971D01*
X169799321Y-107223350D01*
X168613259Y-107378346D01*
X167453760Y-107688015D01*
X166334271Y-108150418D01*
X165268234Y-108763613D01*
X164269095Y-109525659D01*
X164073642Y-109700190D01*
X163285744Y-110530329D01*
X162593683Y-111478917D01*
X162019417Y-112512036D01*
X161620011Y-113490282D01*
X161308841Y-114653719D01*
X161148577Y-115851741D01*
X161138011Y-117059584D01*
X160951334Y-117059584D01*
X160951334Y-107001734D01*
X180001334Y-107001734D01*
X180001334Y-126051734D01*
D12*
X155760000Y-63500462D02*
G75*
G02X161310000Y-61955170I2990000J462D01*
G01*
X155760000Y-63499538D02*
G75*
G03X161310000Y-65044830I2990000J-462D01*
G01*
X161250000Y-63500000D02*
G75*
G03X161250000Y-63500000I-2500000J0D01*
G01*
X161310000Y-65045000D02*
X161310000Y-61955000D01*
D13*
X128447800Y-111023400D02*
X128447800Y-113868200D01*
X128447800Y-118846600D02*
X128447800Y-116001800D01*
X131191000Y-111023400D02*
X128447800Y-111023400D01*
X131191000Y-118846600D02*
X128447800Y-118846600D01*
X152984200Y-114935000D02*
G75*
G03X152984200Y-114935000I-11226800J0D01*
G01*
D12*
X171260000Y-117094000D02*
G75*
G03X171260000Y-117094000I-2620000J0D01*
G01*
X168640000Y-118134000D02*
X168640000Y-119674000D01*
X168640000Y-114514000D02*
X168640000Y-116054000D01*
X168680000Y-118134000D02*
X168680000Y-119674000D01*
X168680000Y-114514000D02*
X168680000Y-116054000D01*
X168720000Y-114515000D02*
X168720000Y-116054000D01*
X168720000Y-118134000D02*
X168720000Y-119673000D01*
X168760000Y-114516000D02*
X168760000Y-116054000D01*
X168760000Y-118134000D02*
X168760000Y-119672000D01*
X168800000Y-114518000D02*
X168800000Y-116054000D01*
X168800000Y-118134000D02*
X168800000Y-119670000D01*
X168840000Y-114521000D02*
X168840000Y-116054000D01*
X168840000Y-118134000D02*
X168840000Y-119667000D01*
X168880000Y-114525000D02*
X168880000Y-116054000D01*
X168880000Y-118134000D02*
X168880000Y-119663000D01*
X168920000Y-114529000D02*
X168920000Y-116054000D01*
X168920000Y-118134000D02*
X168920000Y-119659000D01*
X168960000Y-114533000D02*
X168960000Y-116054000D01*
X168960000Y-118134000D02*
X168960000Y-119655000D01*
X169000000Y-114538000D02*
X169000000Y-116054000D01*
X169000000Y-118134000D02*
X169000000Y-119650000D01*
X169040000Y-114544000D02*
X169040000Y-116054000D01*
X169040000Y-118134000D02*
X169040000Y-119644000D01*
X169080000Y-114551000D02*
X169080000Y-116054000D01*
X169080000Y-118134000D02*
X169080000Y-119637000D01*
X169120000Y-114558000D02*
X169120000Y-116054000D01*
X169120000Y-118134000D02*
X169120000Y-119630000D01*
X169160000Y-114566000D02*
X169160000Y-116054000D01*
X169160000Y-118134000D02*
X169160000Y-119622000D01*
X169200000Y-114574000D02*
X169200000Y-116054000D01*
X169200000Y-118134000D02*
X169200000Y-119614000D01*
X169240000Y-114583000D02*
X169240000Y-116054000D01*
X169240000Y-118134000D02*
X169240000Y-119605000D01*
X169280000Y-114593000D02*
X169280000Y-116054000D01*
X169280000Y-118134000D02*
X169280000Y-119595000D01*
X169320000Y-114603000D02*
X169320000Y-116054000D01*
X169320000Y-118134000D02*
X169320000Y-119585000D01*
X169361000Y-114614000D02*
X169361000Y-116054000D01*
X169361000Y-118134000D02*
X169361000Y-119574000D01*
X169401000Y-114626000D02*
X169401000Y-116054000D01*
X169401000Y-118134000D02*
X169401000Y-119562000D01*
X169441000Y-114639000D02*
X169441000Y-116054000D01*
X169441000Y-118134000D02*
X169441000Y-119549000D01*
X169481000Y-114652000D02*
X169481000Y-116054000D01*
X169481000Y-118134000D02*
X169481000Y-119536000D01*
X169521000Y-114666000D02*
X169521000Y-116054000D01*
X169521000Y-118134000D02*
X169521000Y-119522000D01*
X169561000Y-114680000D02*
X169561000Y-116054000D01*
X169561000Y-118134000D02*
X169561000Y-119508000D01*
X169601000Y-114696000D02*
X169601000Y-116054000D01*
X169601000Y-118134000D02*
X169601000Y-119492000D01*
X169641000Y-114712000D02*
X169641000Y-116054000D01*
X169641000Y-118134000D02*
X169641000Y-119476000D01*
X169681000Y-114729000D02*
X169681000Y-116054000D01*
X169681000Y-118134000D02*
X169681000Y-119459000D01*
X169721000Y-114746000D02*
X169721000Y-116054000D01*
X169721000Y-118134000D02*
X169721000Y-119442000D01*
X169761000Y-114765000D02*
X169761000Y-116054000D01*
X169761000Y-118134000D02*
X169761000Y-119423000D01*
X169801000Y-114784000D02*
X169801000Y-116054000D01*
X169801000Y-118134000D02*
X169801000Y-119404000D01*
X169841000Y-114804000D02*
X169841000Y-116054000D01*
X169841000Y-118134000D02*
X169841000Y-119384000D01*
X169881000Y-114826000D02*
X169881000Y-116054000D01*
X169881000Y-118134000D02*
X169881000Y-119362000D01*
X169921000Y-114847000D02*
X169921000Y-116054000D01*
X169921000Y-118134000D02*
X169921000Y-119341000D01*
X169961000Y-114870000D02*
X169961000Y-116054000D01*
X169961000Y-118134000D02*
X169961000Y-119318000D01*
X170001000Y-114894000D02*
X170001000Y-116054000D01*
X170001000Y-118134000D02*
X170001000Y-119294000D01*
X170041000Y-114919000D02*
X170041000Y-116054000D01*
X170041000Y-118134000D02*
X170041000Y-119269000D01*
X170081000Y-114945000D02*
X170081000Y-116054000D01*
X170081000Y-118134000D02*
X170081000Y-119243000D01*
X170121000Y-114972000D02*
X170121000Y-116054000D01*
X170121000Y-118134000D02*
X170121000Y-119216000D01*
X170161000Y-114999000D02*
X170161000Y-116054000D01*
X170161000Y-118134000D02*
X170161000Y-119189000D01*
X170201000Y-115029000D02*
X170201000Y-116054000D01*
X170201000Y-118134000D02*
X170201000Y-119159000D01*
X170241000Y-115059000D02*
X170241000Y-116054000D01*
X170241000Y-118134000D02*
X170241000Y-119129000D01*
X170281000Y-115090000D02*
X170281000Y-116054000D01*
X170281000Y-118134000D02*
X170281000Y-119098000D01*
X170321000Y-115123000D02*
X170321000Y-116054000D01*
X170321000Y-118134000D02*
X170321000Y-119065000D01*
X170361000Y-115157000D02*
X170361000Y-116054000D01*
X170361000Y-118134000D02*
X170361000Y-119031000D01*
X170401000Y-115193000D02*
X170401000Y-116054000D01*
X170401000Y-118134000D02*
X170401000Y-118995000D01*
X170441000Y-115230000D02*
X170441000Y-116054000D01*
X170441000Y-118134000D02*
X170441000Y-118958000D01*
X170481000Y-115268000D02*
X170481000Y-116054000D01*
X170481000Y-118134000D02*
X170481000Y-118920000D01*
X170521000Y-115309000D02*
X170521000Y-116054000D01*
X170521000Y-118134000D02*
X170521000Y-118879000D01*
X170561000Y-115351000D02*
X170561000Y-116054000D01*
X170561000Y-118134000D02*
X170561000Y-118837000D01*
X170601000Y-115395000D02*
X170601000Y-116054000D01*
X170601000Y-118134000D02*
X170601000Y-118793000D01*
X170641000Y-115441000D02*
X170641000Y-116054000D01*
X170641000Y-118134000D02*
X170641000Y-118747000D01*
X170681000Y-115489000D02*
X170681000Y-118699000D01*
X170721000Y-115540000D02*
X170721000Y-118648000D01*
X170761000Y-115594000D02*
X170761000Y-118594000D01*
X170801000Y-115651000D02*
X170801000Y-118537000D01*
X170841000Y-115711000D02*
X170841000Y-118477000D01*
X170881000Y-115775000D02*
X170881000Y-118413000D01*
X170921000Y-115843000D02*
X170921000Y-118345000D01*
X170961000Y-115916000D02*
X170961000Y-118272000D01*
X171001000Y-115996000D02*
X171001000Y-118192000D01*
X171041000Y-116083000D02*
X171041000Y-118105000D01*
X171081000Y-116179000D02*
X171081000Y-118009000D01*
X171121000Y-116289000D02*
X171121000Y-117899000D01*
X171161000Y-116417000D02*
X171161000Y-117771000D01*
X171201000Y-116576000D02*
X171201000Y-117612000D01*
X171241000Y-116810000D02*
X171241000Y-117378000D01*
X165835225Y-115619000D02*
X166335225Y-115619000D01*
X166085225Y-115369000D02*
X166085225Y-115869000D01*
X180074000Y-121158000D02*
G75*
G03X180074000Y-121158000I-3270000J0D01*
G01*
X176804000Y-124388000D02*
X176804000Y-117928000D01*
X176764000Y-124388000D02*
X176764000Y-117928000D01*
X176724000Y-124388000D02*
X176724000Y-117928000D01*
X176684000Y-124386000D02*
X176684000Y-117930000D01*
X176644000Y-124385000D02*
X176644000Y-117931000D01*
X176604000Y-124382000D02*
X176604000Y-117934000D01*
X176564000Y-124380000D02*
X176564000Y-122198000D01*
X176564000Y-120118000D02*
X176564000Y-117936000D01*
X176524000Y-124376000D02*
X176524000Y-122198000D01*
X176524000Y-120118000D02*
X176524000Y-117940000D01*
X176484000Y-124373000D02*
X176484000Y-122198000D01*
X176484000Y-120118000D02*
X176484000Y-117943000D01*
X176444000Y-124369000D02*
X176444000Y-122198000D01*
X176444000Y-120118000D02*
X176444000Y-117947000D01*
X176404000Y-124364000D02*
X176404000Y-122198000D01*
X176404000Y-120118000D02*
X176404000Y-117952000D01*
X176364000Y-124359000D02*
X176364000Y-122198000D01*
X176364000Y-120118000D02*
X176364000Y-117957000D01*
X176324000Y-124353000D02*
X176324000Y-122198000D01*
X176324000Y-120118000D02*
X176324000Y-117963000D01*
X176284000Y-124347000D02*
X176284000Y-122198000D01*
X176284000Y-120118000D02*
X176284000Y-117969000D01*
X176244000Y-124340000D02*
X176244000Y-122198000D01*
X176244000Y-120118000D02*
X176244000Y-117976000D01*
X176204000Y-124333000D02*
X176204000Y-122198000D01*
X176204000Y-120118000D02*
X176204000Y-117983000D01*
X176164000Y-124325000D02*
X176164000Y-122198000D01*
X176164000Y-120118000D02*
X176164000Y-117991000D01*
X176124000Y-124317000D02*
X176124000Y-122198000D01*
X176124000Y-120118000D02*
X176124000Y-117999000D01*
X176083000Y-124308000D02*
X176083000Y-122198000D01*
X176083000Y-120118000D02*
X176083000Y-118008000D01*
X176043000Y-124299000D02*
X176043000Y-122198000D01*
X176043000Y-120118000D02*
X176043000Y-118017000D01*
X176003000Y-124289000D02*
X176003000Y-122198000D01*
X176003000Y-120118000D02*
X176003000Y-118027000D01*
X175963000Y-124279000D02*
X175963000Y-122198000D01*
X175963000Y-120118000D02*
X175963000Y-118037000D01*
X175923000Y-124268000D02*
X175923000Y-122198000D01*
X175923000Y-120118000D02*
X175923000Y-118048000D01*
X175883000Y-124256000D02*
X175883000Y-122198000D01*
X175883000Y-120118000D02*
X175883000Y-118060000D01*
X175843000Y-124244000D02*
X175843000Y-122198000D01*
X175843000Y-120118000D02*
X175843000Y-118072000D01*
X175803000Y-124232000D02*
X175803000Y-122198000D01*
X175803000Y-120118000D02*
X175803000Y-118084000D01*
X175763000Y-124219000D02*
X175763000Y-122198000D01*
X175763000Y-120118000D02*
X175763000Y-118097000D01*
X175723000Y-124205000D02*
X175723000Y-122198000D01*
X175723000Y-120118000D02*
X175723000Y-118111000D01*
X175683000Y-124191000D02*
X175683000Y-122198000D01*
X175683000Y-120118000D02*
X175683000Y-118125000D01*
X175643000Y-124176000D02*
X175643000Y-122198000D01*
X175643000Y-120118000D02*
X175643000Y-118140000D01*
X175603000Y-124160000D02*
X175603000Y-122198000D01*
X175603000Y-120118000D02*
X175603000Y-118156000D01*
X175563000Y-124144000D02*
X175563000Y-122198000D01*
X175563000Y-120118000D02*
X175563000Y-118172000D01*
X175523000Y-124128000D02*
X175523000Y-122198000D01*
X175523000Y-120118000D02*
X175523000Y-118188000D01*
X175483000Y-124110000D02*
X175483000Y-122198000D01*
X175483000Y-120118000D02*
X175483000Y-118206000D01*
X175443000Y-124092000D02*
X175443000Y-122198000D01*
X175443000Y-120118000D02*
X175443000Y-118224000D01*
X175403000Y-124074000D02*
X175403000Y-122198000D01*
X175403000Y-120118000D02*
X175403000Y-118242000D01*
X175363000Y-124054000D02*
X175363000Y-122198000D01*
X175363000Y-120118000D02*
X175363000Y-118262000D01*
X175323000Y-124034000D02*
X175323000Y-122198000D01*
X175323000Y-120118000D02*
X175323000Y-118282000D01*
X175283000Y-124014000D02*
X175283000Y-122198000D01*
X175283000Y-120118000D02*
X175283000Y-118302000D01*
X175243000Y-123992000D02*
X175243000Y-122198000D01*
X175243000Y-120118000D02*
X175243000Y-118324000D01*
X175203000Y-123970000D02*
X175203000Y-122198000D01*
X175203000Y-120118000D02*
X175203000Y-118346000D01*
X175163000Y-123948000D02*
X175163000Y-122198000D01*
X175163000Y-120118000D02*
X175163000Y-118368000D01*
X175123000Y-123924000D02*
X175123000Y-122198000D01*
X175123000Y-120118000D02*
X175123000Y-118392000D01*
X175083000Y-123900000D02*
X175083000Y-122198000D01*
X175083000Y-120118000D02*
X175083000Y-118416000D01*
X175043000Y-123874000D02*
X175043000Y-122198000D01*
X175043000Y-120118000D02*
X175043000Y-118442000D01*
X175003000Y-123848000D02*
X175003000Y-122198000D01*
X175003000Y-120118000D02*
X175003000Y-118468000D01*
X174963000Y-123822000D02*
X174963000Y-122198000D01*
X174963000Y-120118000D02*
X174963000Y-118494000D01*
X174923000Y-123794000D02*
X174923000Y-122198000D01*
X174923000Y-120118000D02*
X174923000Y-118522000D01*
X174883000Y-123765000D02*
X174883000Y-122198000D01*
X174883000Y-120118000D02*
X174883000Y-118551000D01*
X174843000Y-123736000D02*
X174843000Y-122198000D01*
X174843000Y-120118000D02*
X174843000Y-118580000D01*
X174803000Y-123706000D02*
X174803000Y-122198000D01*
X174803000Y-120118000D02*
X174803000Y-118610000D01*
X174763000Y-123674000D02*
X174763000Y-122198000D01*
X174763000Y-120118000D02*
X174763000Y-118642000D01*
X174723000Y-123642000D02*
X174723000Y-122198000D01*
X174723000Y-120118000D02*
X174723000Y-118674000D01*
X174683000Y-123608000D02*
X174683000Y-122198000D01*
X174683000Y-120118000D02*
X174683000Y-118708000D01*
X174643000Y-123574000D02*
X174643000Y-122198000D01*
X174643000Y-120118000D02*
X174643000Y-118742000D01*
X174603000Y-123538000D02*
X174603000Y-122198000D01*
X174603000Y-120118000D02*
X174603000Y-118778000D01*
X174563000Y-123501000D02*
X174563000Y-122198000D01*
X174563000Y-120118000D02*
X174563000Y-118815000D01*
X174523000Y-123463000D02*
X174523000Y-122198000D01*
X174523000Y-120118000D02*
X174523000Y-118853000D01*
X174483000Y-123423000D02*
X174483000Y-118893000D01*
X174443000Y-123382000D02*
X174443000Y-118934000D01*
X174403000Y-123340000D02*
X174403000Y-118976000D01*
X174363000Y-123295000D02*
X174363000Y-119021000D01*
X174323000Y-123250000D02*
X174323000Y-119066000D01*
X174283000Y-123202000D02*
X174283000Y-119114000D01*
X174243000Y-123153000D02*
X174243000Y-119163000D01*
X174203000Y-123102000D02*
X174203000Y-119214000D01*
X174163000Y-123048000D02*
X174163000Y-119268000D01*
X174123000Y-122992000D02*
X174123000Y-119324000D01*
X174083000Y-122934000D02*
X174083000Y-119382000D01*
X174043000Y-122872000D02*
X174043000Y-119444000D01*
X174003000Y-122808000D02*
X174003000Y-119508000D01*
X173963000Y-122739000D02*
X173963000Y-119577000D01*
X173923000Y-122667000D02*
X173923000Y-119649000D01*
X173883000Y-122590000D02*
X173883000Y-119726000D01*
X173843000Y-122508000D02*
X173843000Y-119808000D01*
X173803000Y-122420000D02*
X173803000Y-119896000D01*
X173763000Y-122323000D02*
X173763000Y-119993000D01*
X173723000Y-122217000D02*
X173723000Y-120099000D01*
X173683000Y-122098000D02*
X173683000Y-120218000D01*
X173643000Y-121960000D02*
X173643000Y-120356000D01*
X173603000Y-121791000D02*
X173603000Y-120525000D01*
X173563000Y-121560000D02*
X173563000Y-120756000D01*
X180304241Y-122997000D02*
X179674241Y-122997000D01*
X179989241Y-123312000D02*
X179989241Y-122682000D01*
X142220000Y-61955000D02*
X142220000Y-65045000D01*
X147280000Y-63500000D02*
G75*
G03X147280000Y-63500000I-2500000J0D01*
G01*
X147770000Y-63500462D02*
G75*
G03X142220000Y-61955170I-2990000J462D01*
G01*
X147770000Y-63499538D02*
G75*
G02X142220000Y-65044830I-2990000J-462D01*
G01*
X170760000Y-112290000D02*
X170760000Y-108690000D01*
X170748478Y-112328478D02*
G75*
G02X166310000Y-110490000I-1838478J1838478D01*
G01*
X170748478Y-108651522D02*
G75*
G03X166310000Y-110490000I-1838478J-1838478D01*
G01*
X153262000Y-95028000D02*
X152932000Y-95028000D01*
X153262000Y-101568000D02*
X153262000Y-95028000D01*
X152932000Y-101568000D02*
X153262000Y-101568000D01*
X150522000Y-95028000D02*
X150852000Y-95028000D01*
X150522000Y-101568000D02*
X150522000Y-95028000D01*
X150852000Y-101568000D02*
X150522000Y-101568000D01*
X155297000Y-101441000D02*
X154967000Y-101441000D01*
X154967000Y-101441000D02*
X154967000Y-94901000D01*
X154967000Y-94901000D02*
X155297000Y-94901000D01*
X157377000Y-101441000D02*
X157707000Y-101441000D01*
X157707000Y-101441000D02*
X157707000Y-94901000D01*
X157707000Y-94901000D02*
X157377000Y-94901000D01*
X160377000Y-101441000D02*
X160047000Y-101441000D01*
X160047000Y-101441000D02*
X160047000Y-94901000D01*
X160047000Y-94901000D02*
X160377000Y-94901000D01*
X162457000Y-101441000D02*
X162787000Y-101441000D01*
X162787000Y-101441000D02*
X162787000Y-94901000D01*
X162787000Y-94901000D02*
X162457000Y-94901000D01*
X165457000Y-101441000D02*
X165127000Y-101441000D01*
X165127000Y-101441000D02*
X165127000Y-94901000D01*
X165127000Y-94901000D02*
X165457000Y-94901000D01*
X167537000Y-101441000D02*
X167867000Y-101441000D01*
X167867000Y-101441000D02*
X167867000Y-94901000D01*
X167867000Y-94901000D02*
X167537000Y-94901000D01*
X163354000Y-104548000D02*
X163354000Y-104878000D01*
X169894000Y-104548000D02*
X163354000Y-104548000D01*
X169894000Y-104878000D02*
X169894000Y-104548000D01*
X163354000Y-107288000D02*
X163354000Y-106958000D01*
X169894000Y-107288000D02*
X163354000Y-107288000D01*
X169894000Y-106958000D02*
X169894000Y-107288000D01*
X169902000Y-101568000D02*
X169572000Y-101568000D01*
X169572000Y-101568000D02*
X169572000Y-95028000D01*
X169572000Y-95028000D02*
X169902000Y-95028000D01*
X171982000Y-101568000D02*
X172312000Y-101568000D01*
X172312000Y-101568000D02*
X172312000Y-95028000D01*
X172312000Y-95028000D02*
X171982000Y-95028000D01*
X176630000Y-95028000D02*
X176300000Y-95028000D01*
X176630000Y-101568000D02*
X176630000Y-95028000D01*
X176300000Y-101568000D02*
X176630000Y-101568000D01*
X173890000Y-95028000D02*
X174220000Y-95028000D01*
X173890000Y-101568000D02*
X173890000Y-95028000D01*
X174220000Y-101568000D02*
X173890000Y-101568000D01*
D13*
X156165000Y-121725000D02*
X156665000Y-121725000D01*
X156165000Y-121725000D02*
X156165000Y-122225000D01*
X168065000Y-121725000D02*
X167565000Y-121725000D01*
X168065000Y-121725000D02*
X168065000Y-122225000D01*
X168065000Y-125925000D02*
X167565000Y-125925000D01*
X168065000Y-125925000D02*
X168065000Y-125425000D01*
X156165000Y-125925000D02*
X156165000Y-125425000D01*
X156165000Y-125925000D02*
X156665000Y-125925000D01*
D14*
X154432000Y-111760000D02*
X154432000Y-118872000D01*
X164592000Y-111760000D02*
X164592000Y-118872000D01*
X154432000Y-119634000D02*
G75*
G03X154432000Y-119634000I-254000J0D01*
G01*
D10*
X158011904Y-67912380D02*
X158011904Y-66912380D01*
X158250000Y-66912380D01*
X158392857Y-66960000D01*
X158488095Y-67055238D01*
X158535714Y-67150476D01*
X158583333Y-67340952D01*
X158583333Y-67483809D01*
X158535714Y-67674285D01*
X158488095Y-67769523D01*
X158392857Y-67864761D01*
X158250000Y-67912380D01*
X158011904Y-67912380D01*
X158964285Y-67007619D02*
X159011904Y-66960000D01*
X159107142Y-66912380D01*
X159345238Y-66912380D01*
X159440476Y-66960000D01*
X159488095Y-67007619D01*
X159535714Y-67102857D01*
X159535714Y-67198095D01*
X159488095Y-67340952D01*
X158916666Y-67912380D01*
X159535714Y-67912380D01*
X140644714Y-102481071D02*
X140787571Y-102528690D01*
X140835190Y-102576309D01*
X140882809Y-102671547D01*
X140882809Y-102814404D01*
X140835190Y-102909642D01*
X140787571Y-102957261D01*
X140692333Y-103004880D01*
X140311380Y-103004880D01*
X140311380Y-102004880D01*
X140644714Y-102004880D01*
X140739952Y-102052500D01*
X140787571Y-102100119D01*
X140835190Y-102195357D01*
X140835190Y-102290595D01*
X140787571Y-102385833D01*
X140739952Y-102433452D01*
X140644714Y-102481071D01*
X140311380Y-102481071D01*
X141263761Y-102719166D02*
X141739952Y-102719166D01*
X141168523Y-103004880D02*
X141501857Y-102004880D01*
X141835190Y-103004880D01*
X142025666Y-102004880D02*
X142597095Y-102004880D01*
X142311380Y-103004880D02*
X142311380Y-102004880D01*
X143454238Y-103004880D02*
X142882809Y-103004880D01*
X143168523Y-103004880D02*
X143168523Y-102004880D01*
X143073285Y-102147738D01*
X142978047Y-102242976D01*
X142882809Y-102290595D01*
X171600833Y-114911142D02*
X171553214Y-114958761D01*
X171410357Y-115006380D01*
X171315119Y-115006380D01*
X171172261Y-114958761D01*
X171077023Y-114863523D01*
X171029404Y-114768285D01*
X170981785Y-114577809D01*
X170981785Y-114434952D01*
X171029404Y-114244476D01*
X171077023Y-114149238D01*
X171172261Y-114054000D01*
X171315119Y-114006380D01*
X171410357Y-114006380D01*
X171553214Y-114054000D01*
X171600833Y-114101619D01*
X172553214Y-115006380D02*
X171981785Y-115006380D01*
X172267500Y-115006380D02*
X172267500Y-114006380D01*
X172172261Y-114149238D01*
X172077023Y-114244476D01*
X171981785Y-114292095D01*
X177950833Y-125960142D02*
X177903214Y-126007761D01*
X177760357Y-126055380D01*
X177665119Y-126055380D01*
X177522261Y-126007761D01*
X177427023Y-125912523D01*
X177379404Y-125817285D01*
X177331785Y-125626809D01*
X177331785Y-125483952D01*
X177379404Y-125293476D01*
X177427023Y-125198238D01*
X177522261Y-125103000D01*
X177665119Y-125055380D01*
X177760357Y-125055380D01*
X177903214Y-125103000D01*
X177950833Y-125150619D01*
X178331785Y-125150619D02*
X178379404Y-125103000D01*
X178474642Y-125055380D01*
X178712738Y-125055380D01*
X178807976Y-125103000D01*
X178855595Y-125150619D01*
X178903214Y-125245857D01*
X178903214Y-125341095D01*
X178855595Y-125483952D01*
X178284166Y-126055380D01*
X178903214Y-126055380D01*
X144105404Y-67952880D02*
X144105404Y-66952880D01*
X144343500Y-66952880D01*
X144486357Y-67000500D01*
X144581595Y-67095738D01*
X144629214Y-67190976D01*
X144676833Y-67381452D01*
X144676833Y-67524309D01*
X144629214Y-67714785D01*
X144581595Y-67810023D01*
X144486357Y-67905261D01*
X144343500Y-67952880D01*
X144105404Y-67952880D01*
X145629214Y-67952880D02*
X145057785Y-67952880D01*
X145343500Y-67952880D02*
X145343500Y-66952880D01*
X145248261Y-67095738D01*
X145153023Y-67190976D01*
X145057785Y-67238595D01*
X165897619Y-110585238D02*
X165850000Y-110680476D01*
X165754761Y-110775714D01*
X165611904Y-110918571D01*
X165564285Y-111013809D01*
X165564285Y-111109047D01*
X165802380Y-111061428D02*
X165754761Y-111156666D01*
X165659523Y-111251904D01*
X165469047Y-111299523D01*
X165135714Y-111299523D01*
X164945238Y-111251904D01*
X164850000Y-111156666D01*
X164802380Y-111061428D01*
X164802380Y-110870952D01*
X164850000Y-110775714D01*
X164945238Y-110680476D01*
X165135714Y-110632857D01*
X165469047Y-110632857D01*
X165659523Y-110680476D01*
X165754761Y-110775714D01*
X165802380Y-110870952D01*
X165802380Y-111061428D01*
X165802380Y-109680476D02*
X165802380Y-110251904D01*
X165802380Y-109966190D02*
X164802380Y-109966190D01*
X164945238Y-110061428D01*
X165040476Y-110156666D01*
X165088095Y-110251904D01*
X149974380Y-98274166D02*
X149498190Y-98607500D01*
X149974380Y-98845595D02*
X148974380Y-98845595D01*
X148974380Y-98464642D01*
X149022000Y-98369404D01*
X149069619Y-98321785D01*
X149164857Y-98274166D01*
X149307714Y-98274166D01*
X149402952Y-98321785D01*
X149450571Y-98369404D01*
X149498190Y-98464642D01*
X149498190Y-98845595D01*
X149974380Y-97321785D02*
X149974380Y-97893214D01*
X149974380Y-97607500D02*
X148974380Y-97607500D01*
X149117238Y-97702738D01*
X149212476Y-97797976D01*
X149260095Y-97893214D01*
X154630380Y-98210666D02*
X154154190Y-98544000D01*
X154630380Y-98782095D02*
X153630380Y-98782095D01*
X153630380Y-98401142D01*
X153678000Y-98305904D01*
X153725619Y-98258285D01*
X153820857Y-98210666D01*
X153963714Y-98210666D01*
X154058952Y-98258285D01*
X154106571Y-98305904D01*
X154154190Y-98401142D01*
X154154190Y-98782095D01*
X153725619Y-97829714D02*
X153678000Y-97782095D01*
X153630380Y-97686857D01*
X153630380Y-97448761D01*
X153678000Y-97353523D01*
X153725619Y-97305904D01*
X153820857Y-97258285D01*
X153916095Y-97258285D01*
X154058952Y-97305904D01*
X154630380Y-97877333D01*
X154630380Y-97258285D01*
X159499380Y-98337666D02*
X159023190Y-98671000D01*
X159499380Y-98909095D02*
X158499380Y-98909095D01*
X158499380Y-98528142D01*
X158547000Y-98432904D01*
X158594619Y-98385285D01*
X158689857Y-98337666D01*
X158832714Y-98337666D01*
X158927952Y-98385285D01*
X158975571Y-98432904D01*
X159023190Y-98528142D01*
X159023190Y-98909095D01*
X158499380Y-98004333D02*
X158499380Y-97385285D01*
X158880333Y-97718619D01*
X158880333Y-97575761D01*
X158927952Y-97480523D01*
X158975571Y-97432904D01*
X159070809Y-97385285D01*
X159308904Y-97385285D01*
X159404142Y-97432904D01*
X159451761Y-97480523D01*
X159499380Y-97575761D01*
X159499380Y-97861476D01*
X159451761Y-97956714D01*
X159404142Y-98004333D01*
X164579380Y-98337666D02*
X164103190Y-98671000D01*
X164579380Y-98909095D02*
X163579380Y-98909095D01*
X163579380Y-98528142D01*
X163627000Y-98432904D01*
X163674619Y-98385285D01*
X163769857Y-98337666D01*
X163912714Y-98337666D01*
X164007952Y-98385285D01*
X164055571Y-98432904D01*
X164103190Y-98528142D01*
X164103190Y-98909095D01*
X163912714Y-97480523D02*
X164579380Y-97480523D01*
X163531761Y-97718619D02*
X164246047Y-97956714D01*
X164246047Y-97337666D01*
X160234333Y-106179880D02*
X159901000Y-105703690D01*
X159662904Y-106179880D02*
X159662904Y-105179880D01*
X160043857Y-105179880D01*
X160139095Y-105227500D01*
X160186714Y-105275119D01*
X160234333Y-105370357D01*
X160234333Y-105513214D01*
X160186714Y-105608452D01*
X160139095Y-105656071D01*
X160043857Y-105703690D01*
X159662904Y-105703690D01*
X161139095Y-105179880D02*
X160662904Y-105179880D01*
X160615285Y-105656071D01*
X160662904Y-105608452D01*
X160758142Y-105560833D01*
X160996238Y-105560833D01*
X161091476Y-105608452D01*
X161139095Y-105656071D01*
X161186714Y-105751309D01*
X161186714Y-105989404D01*
X161139095Y-106084642D01*
X161091476Y-106132261D01*
X160996238Y-106179880D01*
X160758142Y-106179880D01*
X160662904Y-106132261D01*
X160615285Y-106084642D01*
X169108380Y-98337666D02*
X168632190Y-98671000D01*
X169108380Y-98909095D02*
X168108380Y-98909095D01*
X168108380Y-98528142D01*
X168156000Y-98432904D01*
X168203619Y-98385285D01*
X168298857Y-98337666D01*
X168441714Y-98337666D01*
X168536952Y-98385285D01*
X168584571Y-98432904D01*
X168632190Y-98528142D01*
X168632190Y-98909095D01*
X168108380Y-97480523D02*
X168108380Y-97671000D01*
X168156000Y-97766238D01*
X168203619Y-97813857D01*
X168346476Y-97909095D01*
X168536952Y-97956714D01*
X168917904Y-97956714D01*
X169013142Y-97909095D01*
X169060761Y-97861476D01*
X169108380Y-97766238D01*
X169108380Y-97575761D01*
X169060761Y-97480523D01*
X169013142Y-97432904D01*
X168917904Y-97385285D01*
X168679809Y-97385285D01*
X168584571Y-97432904D01*
X168536952Y-97480523D01*
X168489333Y-97575761D01*
X168489333Y-97766238D01*
X168536952Y-97861476D01*
X168584571Y-97909095D01*
X168679809Y-97956714D01*
X173680380Y-98274166D02*
X173204190Y-98607500D01*
X173680380Y-98845595D02*
X172680380Y-98845595D01*
X172680380Y-98464642D01*
X172728000Y-98369404D01*
X172775619Y-98321785D01*
X172870857Y-98274166D01*
X173013714Y-98274166D01*
X173108952Y-98321785D01*
X173156571Y-98369404D01*
X173204190Y-98464642D01*
X173204190Y-98845595D01*
X172680380Y-97940833D02*
X172680380Y-97274166D01*
X173680380Y-97702738D01*
X168592595Y-124293261D02*
X168735452Y-124340880D01*
X168973547Y-124340880D01*
X169068785Y-124293261D01*
X169116404Y-124245642D01*
X169164023Y-124150404D01*
X169164023Y-124055166D01*
X169116404Y-123959928D01*
X169068785Y-123912309D01*
X168973547Y-123864690D01*
X168783071Y-123817071D01*
X168687833Y-123769452D01*
X168640214Y-123721833D01*
X168592595Y-123626595D01*
X168592595Y-123531357D01*
X168640214Y-123436119D01*
X168687833Y-123388500D01*
X168783071Y-123340880D01*
X169021166Y-123340880D01*
X169164023Y-123388500D01*
X170116404Y-124340880D02*
X169544976Y-124340880D01*
X169830690Y-124340880D02*
X169830690Y-123340880D01*
X169735452Y-123483738D01*
X169640214Y-123578976D01*
X169544976Y-123626595D01*
X153757380Y-110235904D02*
X154566904Y-110235904D01*
X154662142Y-110188285D01*
X154709761Y-110140666D01*
X154757380Y-110045428D01*
X154757380Y-109854952D01*
X154709761Y-109759714D01*
X154662142Y-109712095D01*
X154566904Y-109664476D01*
X153757380Y-109664476D01*
X154757380Y-108664476D02*
X154757380Y-109235904D01*
X154757380Y-108950190D02*
X153757380Y-108950190D01*
X153900238Y-109045428D01*
X153995476Y-109140666D01*
X154043095Y-109235904D01*
M02*
