G04 #@! TF.GenerationSoftware,KiCad,Pcbnew,5.1.1-8be2ce7~80~ubuntu18.04.1*
G04 #@! TF.CreationDate,2019-04-21T05:50:51-07:00*
G04 #@! TF.ProjectId,raskrsnica,7261736b-7273-46e6-9963-612e6b696361,rev?*
G04 #@! TF.SameCoordinates,Original*
G04 #@! TF.FileFunction,Legend,Top*
G04 #@! TF.FilePolarity,Positive*
%FSLAX46Y46*%
G04 Gerber Fmt 4.6, Leading zero omitted, Abs format (unit mm)*
G04 Created by KiCad (PCBNEW 5.1.1-8be2ce7~80~ubuntu18.04.1) date 2019-04-21 05:50:51*
%MOMM*%
%LPD*%
G04 APERTURE LIST*
%ADD10C,0.150000*%
%ADD11C,0.100000*%
%ADD12C,0.254000*%
%ADD13C,0.120000*%
G04 APERTURE END LIST*
D10*
X59368180Y-121732228D02*
X58844371Y-121732228D01*
X58749133Y-121779847D01*
X58701514Y-121875085D01*
X58701514Y-122065561D01*
X58749133Y-122160800D01*
X59320561Y-121732228D02*
X59368180Y-121827466D01*
X59368180Y-122065561D01*
X59320561Y-122160800D01*
X59225323Y-122208419D01*
X59130085Y-122208419D01*
X59034847Y-122160800D01*
X58987228Y-122065561D01*
X58987228Y-121827466D01*
X58939609Y-121732228D01*
X58701514Y-121256038D02*
X59701514Y-121256038D01*
X58749133Y-121256038D02*
X58701514Y-121160800D01*
X58701514Y-120970323D01*
X58749133Y-120875085D01*
X58796752Y-120827466D01*
X58891990Y-120779847D01*
X59177704Y-120779847D01*
X59272942Y-120827466D01*
X59320561Y-120875085D01*
X59368180Y-120970323D01*
X59368180Y-121160800D01*
X59320561Y-121256038D01*
X59368180Y-120351276D02*
X58701514Y-120351276D01*
X58891990Y-120351276D02*
X58796752Y-120303657D01*
X58749133Y-120256038D01*
X58701514Y-120160800D01*
X58701514Y-120065561D01*
X59368180Y-119732228D02*
X58701514Y-119732228D01*
X58368180Y-119732228D02*
X58415800Y-119779847D01*
X58463419Y-119732228D01*
X58415800Y-119684609D01*
X58368180Y-119732228D01*
X58463419Y-119732228D01*
X59368180Y-119113180D02*
X59320561Y-119208419D01*
X59225323Y-119256038D01*
X58368180Y-119256038D01*
X59320561Y-118684609D02*
X59368180Y-118684609D01*
X59463419Y-118732228D01*
X59511038Y-118779847D01*
X58463419Y-117541752D02*
X58415800Y-117494133D01*
X58368180Y-117398895D01*
X58368180Y-117160800D01*
X58415800Y-117065561D01*
X58463419Y-117017942D01*
X58558657Y-116970323D01*
X58653895Y-116970323D01*
X58796752Y-117017942D01*
X59368180Y-117589371D01*
X59368180Y-116970323D01*
X58368180Y-116351276D02*
X58368180Y-116256038D01*
X58415800Y-116160800D01*
X58463419Y-116113180D01*
X58558657Y-116065561D01*
X58749133Y-116017942D01*
X58987228Y-116017942D01*
X59177704Y-116065561D01*
X59272942Y-116113180D01*
X59320561Y-116160800D01*
X59368180Y-116256038D01*
X59368180Y-116351276D01*
X59320561Y-116446514D01*
X59272942Y-116494133D01*
X59177704Y-116541752D01*
X58987228Y-116589371D01*
X58749133Y-116589371D01*
X58558657Y-116541752D01*
X58463419Y-116494133D01*
X58415800Y-116446514D01*
X58368180Y-116351276D01*
X59368180Y-115065561D02*
X59368180Y-115636990D01*
X59368180Y-115351276D02*
X58368180Y-115351276D01*
X58511038Y-115446514D01*
X58606276Y-115541752D01*
X58653895Y-115636990D01*
X59368180Y-114589371D02*
X59368180Y-114398895D01*
X59320561Y-114303657D01*
X59272942Y-114256038D01*
X59130085Y-114160800D01*
X58939609Y-114113180D01*
X58558657Y-114113180D01*
X58463419Y-114160800D01*
X58415800Y-114208419D01*
X58368180Y-114303657D01*
X58368180Y-114494133D01*
X58415800Y-114589371D01*
X58463419Y-114636990D01*
X58558657Y-114684609D01*
X58796752Y-114684609D01*
X58891990Y-114636990D01*
X58939609Y-114589371D01*
X58987228Y-114494133D01*
X58987228Y-114303657D01*
X58939609Y-114208419D01*
X58891990Y-114160800D01*
X58796752Y-114113180D01*
X53447371Y-121709771D02*
X53447371Y-121376438D01*
X53971180Y-121233580D02*
X53971180Y-121709771D01*
X52971180Y-121709771D01*
X52971180Y-121233580D01*
X53971180Y-120805009D02*
X53304514Y-120805009D01*
X53399752Y-120805009D02*
X53352133Y-120757390D01*
X53304514Y-120662152D01*
X53304514Y-120519295D01*
X53352133Y-120424057D01*
X53447371Y-120376438D01*
X53971180Y-120376438D01*
X53447371Y-120376438D02*
X53352133Y-120328819D01*
X53304514Y-120233580D01*
X53304514Y-120090723D01*
X53352133Y-119995485D01*
X53447371Y-119947866D01*
X53971180Y-119947866D01*
X53971180Y-119471676D02*
X53304514Y-119471676D01*
X53494990Y-119471676D02*
X53399752Y-119424057D01*
X53352133Y-119376438D01*
X53304514Y-119281200D01*
X53304514Y-119185961D01*
X53971180Y-118424057D02*
X53447371Y-118424057D01*
X53352133Y-118471676D01*
X53304514Y-118566914D01*
X53304514Y-118757390D01*
X53352133Y-118852628D01*
X53923561Y-118424057D02*
X53971180Y-118519295D01*
X53971180Y-118757390D01*
X53923561Y-118852628D01*
X53828323Y-118900247D01*
X53733085Y-118900247D01*
X53637847Y-118852628D01*
X53590228Y-118757390D01*
X53590228Y-118519295D01*
X53542609Y-118424057D01*
X53971180Y-117947866D02*
X52971180Y-117947866D01*
X53971180Y-117519295D02*
X53447371Y-117519295D01*
X53352133Y-117566914D01*
X53304514Y-117662152D01*
X53304514Y-117805009D01*
X53352133Y-117900247D01*
X53399752Y-117947866D01*
X53923561Y-116328819D02*
X53971180Y-116185961D01*
X53971180Y-115947866D01*
X53923561Y-115852628D01*
X53875942Y-115805009D01*
X53780704Y-115757390D01*
X53685466Y-115757390D01*
X53590228Y-115805009D01*
X53542609Y-115852628D01*
X53494990Y-115947866D01*
X53447371Y-116138342D01*
X53399752Y-116233580D01*
X53352133Y-116281200D01*
X53256895Y-116328819D01*
X53161657Y-116328819D01*
X53066419Y-116281200D01*
X53018800Y-116233580D01*
X52971180Y-116138342D01*
X52971180Y-115900247D01*
X53018800Y-115757390D01*
X53971180Y-115328819D02*
X52971180Y-115328819D01*
X53590228Y-115233580D02*
X53971180Y-114947866D01*
X53304514Y-114947866D02*
X53685466Y-115328819D01*
X53923561Y-114138342D02*
X53971180Y-114233580D01*
X53971180Y-114424057D01*
X53923561Y-114519295D01*
X53828323Y-114566914D01*
X53447371Y-114566914D01*
X53352133Y-114519295D01*
X53304514Y-114424057D01*
X53304514Y-114233580D01*
X53352133Y-114138342D01*
X53447371Y-114090723D01*
X53542609Y-114090723D01*
X53637847Y-114566914D01*
X53304514Y-113662152D02*
X53971180Y-113662152D01*
X53399752Y-113662152D02*
X53352133Y-113614533D01*
X53304514Y-113519295D01*
X53304514Y-113376438D01*
X53352133Y-113281200D01*
X53447371Y-113233580D01*
X53971180Y-113233580D01*
X53971180Y-112328819D02*
X52971180Y-112328819D01*
X53923561Y-112328819D02*
X53971180Y-112424057D01*
X53971180Y-112614533D01*
X53923561Y-112709771D01*
X53875942Y-112757390D01*
X53780704Y-112805009D01*
X53494990Y-112805009D01*
X53399752Y-112757390D01*
X53352133Y-112709771D01*
X53304514Y-112614533D01*
X53304514Y-112424057D01*
X53352133Y-112328819D01*
X53923561Y-111471676D02*
X53971180Y-111566914D01*
X53971180Y-111757390D01*
X53923561Y-111852628D01*
X53828323Y-111900247D01*
X53447371Y-111900247D01*
X53352133Y-111852628D01*
X53304514Y-111757390D01*
X53304514Y-111566914D01*
X53352133Y-111471676D01*
X53447371Y-111424057D01*
X53542609Y-111424057D01*
X53637847Y-111900247D01*
X53971180Y-110995485D02*
X53304514Y-110995485D01*
X53494990Y-110995485D02*
X53399752Y-110947866D01*
X53352133Y-110900247D01*
X53304514Y-110805009D01*
X53304514Y-110709771D01*
X55335466Y-121066914D02*
X55335466Y-120590723D01*
X55621180Y-121162152D02*
X54621180Y-120828819D01*
X55621180Y-120495485D01*
X55621180Y-120019295D02*
X55573561Y-120114533D01*
X55478323Y-120162152D01*
X54621180Y-120162152D01*
X55621180Y-119209771D02*
X55097371Y-119209771D01*
X55002133Y-119257390D01*
X54954514Y-119352628D01*
X54954514Y-119543104D01*
X55002133Y-119638342D01*
X55573561Y-119209771D02*
X55621180Y-119305009D01*
X55621180Y-119543104D01*
X55573561Y-119638342D01*
X55478323Y-119685961D01*
X55383085Y-119685961D01*
X55287847Y-119638342D01*
X55240228Y-119543104D01*
X55240228Y-119305009D01*
X55192609Y-119209771D01*
X55621180Y-118305009D02*
X54621180Y-118305009D01*
X55573561Y-118305009D02*
X55621180Y-118400247D01*
X55621180Y-118590723D01*
X55573561Y-118685961D01*
X55525942Y-118733580D01*
X55430704Y-118781200D01*
X55144990Y-118781200D01*
X55049752Y-118733580D01*
X55002133Y-118685961D01*
X54954514Y-118590723D01*
X54954514Y-118400247D01*
X55002133Y-118305009D01*
X55621180Y-117828819D02*
X54954514Y-117828819D01*
X54621180Y-117828819D02*
X54668800Y-117876438D01*
X54716419Y-117828819D01*
X54668800Y-117781200D01*
X54621180Y-117828819D01*
X54716419Y-117828819D01*
X54954514Y-117352628D02*
X55621180Y-117352628D01*
X55049752Y-117352628D02*
X55002133Y-117305009D01*
X54954514Y-117209771D01*
X54954514Y-117066914D01*
X55002133Y-116971676D01*
X55097371Y-116924057D01*
X55621180Y-116924057D01*
X54621180Y-115400247D02*
X55335466Y-115400247D01*
X55478323Y-115447866D01*
X55573561Y-115543104D01*
X55621180Y-115685961D01*
X55621180Y-115781200D01*
X55621180Y-114495485D02*
X55097371Y-114495485D01*
X55002133Y-114543104D01*
X54954514Y-114638342D01*
X54954514Y-114828819D01*
X55002133Y-114924057D01*
X55573561Y-114495485D02*
X55621180Y-114590723D01*
X55621180Y-114828819D01*
X55573561Y-114924057D01*
X55478323Y-114971676D01*
X55383085Y-114971676D01*
X55287847Y-114924057D01*
X55240228Y-114828819D01*
X55240228Y-114590723D01*
X55192609Y-114495485D01*
X54954514Y-114114533D02*
X54954514Y-113590723D01*
X55621180Y-114114533D01*
X55621180Y-113590723D01*
X54954514Y-113305009D02*
X55621180Y-113066914D01*
X54954514Y-112828819D01*
X55621180Y-112447866D02*
X54954514Y-112447866D01*
X54621180Y-112447866D02*
X54668800Y-112495485D01*
X54716419Y-112447866D01*
X54668800Y-112400247D01*
X54621180Y-112447866D01*
X54716419Y-112447866D01*
X54954514Y-111971676D02*
X55621180Y-111971676D01*
X55049752Y-111971676D02*
X55002133Y-111924057D01*
X54954514Y-111828819D01*
X54954514Y-111685961D01*
X55002133Y-111590723D01*
X55097371Y-111543104D01*
X55621180Y-111543104D01*
X56604514Y-123852628D02*
X57604514Y-123852628D01*
X56652133Y-123852628D02*
X56604514Y-123757390D01*
X56604514Y-123566914D01*
X56652133Y-123471676D01*
X56699752Y-123424057D01*
X56794990Y-123376438D01*
X57080704Y-123376438D01*
X57175942Y-123424057D01*
X57223561Y-123471676D01*
X57271180Y-123566914D01*
X57271180Y-123757390D01*
X57223561Y-123852628D01*
X57271180Y-122947866D02*
X56604514Y-122947866D01*
X56794990Y-122947866D02*
X56699752Y-122900247D01*
X56652133Y-122852628D01*
X56604514Y-122757390D01*
X56604514Y-122662152D01*
X57271180Y-122185961D02*
X57223561Y-122281200D01*
X57175942Y-122328819D01*
X57080704Y-122376438D01*
X56794990Y-122376438D01*
X56699752Y-122328819D01*
X56652133Y-122281200D01*
X56604514Y-122185961D01*
X56604514Y-122043104D01*
X56652133Y-121947866D01*
X56699752Y-121900247D01*
X56794990Y-121852628D01*
X57080704Y-121852628D01*
X57175942Y-121900247D01*
X57223561Y-121947866D01*
X57271180Y-122043104D01*
X57271180Y-122185961D01*
X56604514Y-121566914D02*
X56604514Y-121185961D01*
X57271180Y-121424057D02*
X56414038Y-121424057D01*
X56318800Y-121376438D01*
X56271180Y-121281200D01*
X56271180Y-121185961D01*
X57175942Y-120852628D02*
X57223561Y-120805009D01*
X57271180Y-120852628D01*
X57223561Y-120900247D01*
X57175942Y-120852628D01*
X57271180Y-120852628D01*
X56985466Y-119662152D02*
X56985466Y-119185961D01*
X57271180Y-119757390D02*
X56271180Y-119424057D01*
X57271180Y-119090723D01*
X56604514Y-118757390D02*
X57271180Y-118757390D01*
X56699752Y-118757390D02*
X56652133Y-118709771D01*
X56604514Y-118614533D01*
X56604514Y-118471676D01*
X56652133Y-118376438D01*
X56747371Y-118328819D01*
X57271180Y-118328819D01*
X57223561Y-117471676D02*
X57271180Y-117566914D01*
X57271180Y-117757390D01*
X57223561Y-117852628D01*
X57128323Y-117900247D01*
X56747371Y-117900247D01*
X56652133Y-117852628D01*
X56604514Y-117757390D01*
X56604514Y-117566914D01*
X56652133Y-117471676D01*
X56747371Y-117424057D01*
X56842609Y-117424057D01*
X56937847Y-117900247D01*
X57271180Y-116852628D02*
X57223561Y-116947866D01*
X57128323Y-116995485D01*
X56271180Y-116995485D01*
X57271180Y-115709771D02*
X56271180Y-115709771D01*
X56747371Y-115709771D02*
X56747371Y-115138342D01*
X57271180Y-115138342D02*
X56271180Y-115138342D01*
X56604514Y-114233580D02*
X57271180Y-114233580D01*
X56604514Y-114662152D02*
X57128323Y-114662152D01*
X57223561Y-114614533D01*
X57271180Y-114519295D01*
X57271180Y-114376438D01*
X57223561Y-114281200D01*
X57175942Y-114233580D01*
X57223561Y-113805009D02*
X57271180Y-113709771D01*
X57271180Y-113519295D01*
X57223561Y-113424057D01*
X57128323Y-113376438D01*
X57080704Y-113376438D01*
X56985466Y-113424057D01*
X56937847Y-113519295D01*
X56937847Y-113662152D01*
X56890228Y-113757390D01*
X56794990Y-113805009D01*
X56747371Y-113805009D01*
X56652133Y-113757390D01*
X56604514Y-113662152D01*
X56604514Y-113519295D01*
X56652133Y-113424057D01*
X57271180Y-112519295D02*
X56747371Y-112519295D01*
X56652133Y-112566914D01*
X56604514Y-112662152D01*
X56604514Y-112852628D01*
X56652133Y-112947866D01*
X57223561Y-112519295D02*
X57271180Y-112614533D01*
X57271180Y-112852628D01*
X57223561Y-112947866D01*
X57128323Y-112995485D01*
X57033085Y-112995485D01*
X56937847Y-112947866D01*
X56890228Y-112852628D01*
X56890228Y-112614533D01*
X56842609Y-112519295D01*
X57271180Y-112043104D02*
X56271180Y-112043104D01*
X56890228Y-111947866D02*
X57271180Y-111662152D01*
X56604514Y-111662152D02*
X56985466Y-112043104D01*
X57271180Y-111090723D02*
X57223561Y-111185961D01*
X57175942Y-111233580D01*
X57080704Y-111281200D01*
X56794990Y-111281200D01*
X56699752Y-111233580D01*
X56652133Y-111185961D01*
X56604514Y-111090723D01*
X56604514Y-110947866D01*
X56652133Y-110852628D01*
X56699752Y-110805009D01*
X56794990Y-110757390D01*
X57080704Y-110757390D01*
X57175942Y-110805009D01*
X57223561Y-110852628D01*
X57271180Y-110947866D01*
X57271180Y-111090723D01*
X56604514Y-110424057D02*
X57271180Y-110185961D01*
X56604514Y-109947866D01*
X57271180Y-109566914D02*
X56604514Y-109566914D01*
X56271180Y-109566914D02*
X56318800Y-109614533D01*
X56366419Y-109566914D01*
X56318800Y-109519295D01*
X56271180Y-109566914D01*
X56366419Y-109566914D01*
X57223561Y-108662152D02*
X57271180Y-108757390D01*
X57271180Y-108947866D01*
X57223561Y-109043104D01*
X57175942Y-109090723D01*
X57080704Y-109138342D01*
X56794990Y-109138342D01*
X56699752Y-109090723D01*
X56652133Y-109043104D01*
X56604514Y-108947866D01*
X56604514Y-108757390D01*
X56652133Y-108662152D01*
X54787161Y-104228609D02*
X54834780Y-104085752D01*
X54834780Y-103847657D01*
X54787161Y-103752419D01*
X54739542Y-103704800D01*
X54644304Y-103657180D01*
X54549066Y-103657180D01*
X54453828Y-103704800D01*
X54406209Y-103752419D01*
X54358590Y-103847657D01*
X54310971Y-104038133D01*
X54263352Y-104133371D01*
X54215733Y-104180990D01*
X54120495Y-104228609D01*
X54025257Y-104228609D01*
X53930019Y-104180990D01*
X53882400Y-104133371D01*
X53834780Y-104038133D01*
X53834780Y-103800038D01*
X53882400Y-103657180D01*
X54834780Y-103228609D02*
X54168114Y-103228609D01*
X54358590Y-103228609D02*
X54263352Y-103180990D01*
X54215733Y-103133371D01*
X54168114Y-103038133D01*
X54168114Y-102942895D01*
X54787161Y-102228609D02*
X54834780Y-102323847D01*
X54834780Y-102514323D01*
X54787161Y-102609561D01*
X54691923Y-102657180D01*
X54310971Y-102657180D01*
X54215733Y-102609561D01*
X54168114Y-102514323D01*
X54168114Y-102323847D01*
X54215733Y-102228609D01*
X54310971Y-102180990D01*
X54406209Y-102180990D01*
X54501447Y-102657180D01*
X54834780Y-101323847D02*
X53834780Y-101323847D01*
X54787161Y-101323847D02*
X54834780Y-101419085D01*
X54834780Y-101609561D01*
X54787161Y-101704800D01*
X54739542Y-101752419D01*
X54644304Y-101800038D01*
X54358590Y-101800038D01*
X54263352Y-101752419D01*
X54215733Y-101704800D01*
X54168114Y-101609561D01*
X54168114Y-101419085D01*
X54215733Y-101323847D01*
X54168114Y-100847657D02*
X54834780Y-100847657D01*
X54263352Y-100847657D02*
X54215733Y-100800038D01*
X54168114Y-100704800D01*
X54168114Y-100561942D01*
X54215733Y-100466704D01*
X54310971Y-100419085D01*
X54834780Y-100419085D01*
X54168114Y-99942895D02*
X55025257Y-99942895D01*
X55120495Y-99990514D01*
X55168114Y-100085752D01*
X55168114Y-100133371D01*
X53834780Y-99942895D02*
X53882400Y-99990514D01*
X53930019Y-99942895D01*
X53882400Y-99895276D01*
X53834780Y-99942895D01*
X53930019Y-99942895D01*
X54834780Y-99038133D02*
X54310971Y-99038133D01*
X54215733Y-99085752D01*
X54168114Y-99180990D01*
X54168114Y-99371466D01*
X54215733Y-99466704D01*
X54787161Y-99038133D02*
X54834780Y-99133371D01*
X54834780Y-99371466D01*
X54787161Y-99466704D01*
X54691923Y-99514323D01*
X54596685Y-99514323D01*
X54501447Y-99466704D01*
X54453828Y-99371466D01*
X54453828Y-99133371D01*
X54406209Y-99038133D01*
X54834780Y-97800038D02*
X54168114Y-97800038D01*
X54263352Y-97800038D02*
X54215733Y-97752419D01*
X54168114Y-97657180D01*
X54168114Y-97514323D01*
X54215733Y-97419085D01*
X54310971Y-97371466D01*
X54834780Y-97371466D01*
X54310971Y-97371466D02*
X54215733Y-97323847D01*
X54168114Y-97228609D01*
X54168114Y-97085752D01*
X54215733Y-96990514D01*
X54310971Y-96942895D01*
X54834780Y-96942895D01*
X54168114Y-96466704D02*
X55025257Y-96466704D01*
X55120495Y-96514323D01*
X55168114Y-96609561D01*
X55168114Y-96657180D01*
X53834780Y-96466704D02*
X53882400Y-96514323D01*
X53930019Y-96466704D01*
X53882400Y-96419085D01*
X53834780Y-96466704D01*
X53930019Y-96466704D01*
X54787161Y-95609561D02*
X54834780Y-95704800D01*
X54834780Y-95895276D01*
X54787161Y-95990514D01*
X54691923Y-96038133D01*
X54310971Y-96038133D01*
X54215733Y-95990514D01*
X54168114Y-95895276D01*
X54168114Y-95704800D01*
X54215733Y-95609561D01*
X54310971Y-95561942D01*
X54406209Y-95561942D01*
X54501447Y-96038133D01*
X54787161Y-95180990D02*
X54834780Y-95085752D01*
X54834780Y-94895276D01*
X54787161Y-94800038D01*
X54691923Y-94752419D01*
X54644304Y-94752419D01*
X54549066Y-94800038D01*
X54501447Y-94895276D01*
X54501447Y-95038133D01*
X54453828Y-95133371D01*
X54358590Y-95180990D01*
X54310971Y-95180990D01*
X54215733Y-95133371D01*
X54168114Y-95038133D01*
X54168114Y-94895276D01*
X54215733Y-94800038D01*
X54834780Y-94180990D02*
X54787161Y-94276228D01*
X54739542Y-94323847D01*
X54644304Y-94371466D01*
X54358590Y-94371466D01*
X54263352Y-94323847D01*
X54215733Y-94276228D01*
X54168114Y-94180990D01*
X54168114Y-94038133D01*
X54215733Y-93942895D01*
X54263352Y-93895276D01*
X54358590Y-93847657D01*
X54644304Y-93847657D01*
X54739542Y-93895276D01*
X54787161Y-93942895D01*
X54834780Y-94038133D01*
X54834780Y-94180990D01*
X54168114Y-93514323D02*
X54834780Y-93276228D01*
X54168114Y-93038133D01*
X54834780Y-92657180D02*
X54168114Y-92657180D01*
X53834780Y-92657180D02*
X53882400Y-92704800D01*
X53930019Y-92657180D01*
X53882400Y-92609561D01*
X53834780Y-92657180D01*
X53930019Y-92657180D01*
X54168114Y-92323847D02*
X54168114Y-91942895D01*
X53834780Y-92180990D02*
X54691923Y-92180990D01*
X54787161Y-92133371D01*
X54834780Y-92038133D01*
X54834780Y-91942895D01*
X54834780Y-91180990D02*
X54310971Y-91180990D01*
X54215733Y-91228609D01*
X54168114Y-91323847D01*
X54168114Y-91514323D01*
X54215733Y-91609561D01*
X54787161Y-91180990D02*
X54834780Y-91276228D01*
X54834780Y-91514323D01*
X54787161Y-91609561D01*
X54691923Y-91657180D01*
X54596685Y-91657180D01*
X54501447Y-91609561D01*
X54453828Y-91514323D01*
X54453828Y-91276228D01*
X54406209Y-91180990D01*
X54787161Y-89990514D02*
X54834780Y-89895276D01*
X54834780Y-89704800D01*
X54787161Y-89609561D01*
X54691923Y-89561942D01*
X54644304Y-89561942D01*
X54549066Y-89609561D01*
X54501447Y-89704800D01*
X54501447Y-89847657D01*
X54453828Y-89942895D01*
X54358590Y-89990514D01*
X54310971Y-89990514D01*
X54215733Y-89942895D01*
X54168114Y-89847657D01*
X54168114Y-89704800D01*
X54215733Y-89609561D01*
X54834780Y-89133371D02*
X53834780Y-89133371D01*
X54453828Y-89038133D02*
X54834780Y-88752419D01*
X54168114Y-88752419D02*
X54549066Y-89133371D01*
X54834780Y-88180990D02*
X54787161Y-88276228D01*
X54739542Y-88323847D01*
X54644304Y-88371466D01*
X54358590Y-88371466D01*
X54263352Y-88323847D01*
X54215733Y-88276228D01*
X54168114Y-88180990D01*
X54168114Y-88038133D01*
X54215733Y-87942895D01*
X54263352Y-87895276D01*
X54358590Y-87847657D01*
X54644304Y-87847657D01*
X54739542Y-87895276D01*
X54787161Y-87942895D01*
X54834780Y-88038133D01*
X54834780Y-88180990D01*
X54834780Y-87276228D02*
X54787161Y-87371466D01*
X54691923Y-87419085D01*
X53834780Y-87419085D01*
X54834780Y-86466704D02*
X54310971Y-86466704D01*
X54215733Y-86514323D01*
X54168114Y-86609561D01*
X54168114Y-86800038D01*
X54215733Y-86895276D01*
X54787161Y-86466704D02*
X54834780Y-86561942D01*
X54834780Y-86800038D01*
X54787161Y-86895276D01*
X54691923Y-86942895D01*
X54596685Y-86942895D01*
X54501447Y-86895276D01*
X54453828Y-86800038D01*
X54453828Y-86561942D01*
X54406209Y-86466704D01*
X54834780Y-85228609D02*
X53834780Y-85228609D01*
X54549066Y-84895276D01*
X53834780Y-84561942D01*
X54834780Y-84561942D01*
X54834780Y-83942895D02*
X54787161Y-84038133D01*
X54691923Y-84085752D01*
X53834780Y-84085752D01*
X54834780Y-83133371D02*
X54310971Y-83133371D01*
X54215733Y-83180990D01*
X54168114Y-83276228D01*
X54168114Y-83466704D01*
X54215733Y-83561942D01*
X54787161Y-83133371D02*
X54834780Y-83228609D01*
X54834780Y-83466704D01*
X54787161Y-83561942D01*
X54691923Y-83609561D01*
X54596685Y-83609561D01*
X54501447Y-83561942D01*
X54453828Y-83466704D01*
X54453828Y-83228609D01*
X54406209Y-83133371D01*
X54834780Y-82228609D02*
X53834780Y-82228609D01*
X54787161Y-82228609D02*
X54834780Y-82323847D01*
X54834780Y-82514323D01*
X54787161Y-82609561D01*
X54739542Y-82657180D01*
X54644304Y-82704800D01*
X54358590Y-82704800D01*
X54263352Y-82657180D01*
X54215733Y-82609561D01*
X54168114Y-82514323D01*
X54168114Y-82323847D01*
X54215733Y-82228609D01*
X54834780Y-81609561D02*
X54787161Y-81704800D01*
X54739542Y-81752419D01*
X54644304Y-81800038D01*
X54358590Y-81800038D01*
X54263352Y-81752419D01*
X54215733Y-81704800D01*
X54168114Y-81609561D01*
X54168114Y-81466704D01*
X54215733Y-81371466D01*
X54263352Y-81323847D01*
X54358590Y-81276228D01*
X54644304Y-81276228D01*
X54739542Y-81323847D01*
X54787161Y-81371466D01*
X54834780Y-81466704D01*
X54834780Y-81609561D01*
X54787161Y-80895276D02*
X54834780Y-80800038D01*
X54834780Y-80609561D01*
X54787161Y-80514323D01*
X54691923Y-80466704D01*
X54644304Y-80466704D01*
X54549066Y-80514323D01*
X54501447Y-80609561D01*
X54501447Y-80752419D01*
X54453828Y-80847657D01*
X54358590Y-80895276D01*
X54310971Y-80895276D01*
X54215733Y-80847657D01*
X54168114Y-80752419D01*
X54168114Y-80609561D01*
X54215733Y-80514323D01*
X54168114Y-80180990D02*
X54168114Y-79800038D01*
X53834780Y-80038133D02*
X54691923Y-80038133D01*
X54787161Y-79990514D01*
X54834780Y-79895276D01*
X54834780Y-79800038D01*
X53834780Y-78800038D02*
X53834780Y-78133371D01*
X54834780Y-78800038D01*
X54834780Y-78133371D01*
X54787161Y-77371466D02*
X54834780Y-77466704D01*
X54834780Y-77657180D01*
X54787161Y-77752419D01*
X54691923Y-77800038D01*
X54310971Y-77800038D01*
X54215733Y-77752419D01*
X54168114Y-77657180D01*
X54168114Y-77466704D01*
X54215733Y-77371466D01*
X54310971Y-77323847D01*
X54406209Y-77323847D01*
X54501447Y-77800038D01*
X54168114Y-76895276D02*
X54834780Y-76895276D01*
X54263352Y-76895276D02*
X54215733Y-76847657D01*
X54168114Y-76752419D01*
X54168114Y-76609561D01*
X54215733Y-76514323D01*
X54310971Y-76466704D01*
X54834780Y-76466704D01*
X54834780Y-75990514D02*
X54168114Y-75990514D01*
X53834780Y-75990514D02*
X53882400Y-76038133D01*
X53930019Y-75990514D01*
X53882400Y-75942895D01*
X53834780Y-75990514D01*
X53930019Y-75990514D01*
X54787161Y-75085752D02*
X54834780Y-75180990D01*
X54834780Y-75371466D01*
X54787161Y-75466704D01*
X54739542Y-75514323D01*
X54644304Y-75561942D01*
X54358590Y-75561942D01*
X54263352Y-75514323D01*
X54215733Y-75466704D01*
X54168114Y-75371466D01*
X54168114Y-75180990D01*
X54215733Y-75085752D01*
X54834780Y-74228609D02*
X54310971Y-74228609D01*
X54215733Y-74276228D01*
X54168114Y-74371466D01*
X54168114Y-74561942D01*
X54215733Y-74657180D01*
X54787161Y-74228609D02*
X54834780Y-74323847D01*
X54834780Y-74561942D01*
X54787161Y-74657180D01*
X54691923Y-74704800D01*
X54596685Y-74704800D01*
X54501447Y-74657180D01*
X54453828Y-74561942D01*
X54453828Y-74323847D01*
X54406209Y-74228609D01*
X55960971Y-96585752D02*
X55960971Y-96919085D01*
X56484780Y-96919085D02*
X55484780Y-96919085D01*
X55484780Y-96442895D01*
X56437161Y-95680990D02*
X56484780Y-95776228D01*
X56484780Y-95966704D01*
X56437161Y-96061942D01*
X56341923Y-96109561D01*
X55960971Y-96109561D01*
X55865733Y-96061942D01*
X55818114Y-95966704D01*
X55818114Y-95776228D01*
X55865733Y-95680990D01*
X55960971Y-95633371D01*
X56056209Y-95633371D01*
X56151447Y-96109561D01*
X56437161Y-95252419D02*
X56484780Y-95157180D01*
X56484780Y-94966704D01*
X56437161Y-94871466D01*
X56341923Y-94823847D01*
X56294304Y-94823847D01*
X56199066Y-94871466D01*
X56151447Y-94966704D01*
X56151447Y-95109561D01*
X56103828Y-95204800D01*
X56008590Y-95252419D01*
X55960971Y-95252419D01*
X55865733Y-95204800D01*
X55818114Y-95109561D01*
X55818114Y-94966704D01*
X55865733Y-94871466D01*
X55818114Y-94538133D02*
X55818114Y-94157180D01*
X55484780Y-94395276D02*
X56341923Y-94395276D01*
X56437161Y-94347657D01*
X56484780Y-94252419D01*
X56484780Y-94157180D01*
X56484780Y-93823847D02*
X55818114Y-93823847D01*
X55484780Y-93823847D02*
X55532400Y-93871466D01*
X55580019Y-93823847D01*
X55532400Y-93776228D01*
X55484780Y-93823847D01*
X55580019Y-93823847D01*
X55818114Y-93442895D02*
X56484780Y-93204800D01*
X55818114Y-92966704D01*
X56484780Y-92157180D02*
X55960971Y-92157180D01*
X55865733Y-92204800D01*
X55818114Y-92300038D01*
X55818114Y-92490514D01*
X55865733Y-92585752D01*
X56437161Y-92157180D02*
X56484780Y-92252419D01*
X56484780Y-92490514D01*
X56437161Y-92585752D01*
X56341923Y-92633371D01*
X56246685Y-92633371D01*
X56151447Y-92585752D01*
X56103828Y-92490514D01*
X56103828Y-92252419D01*
X56056209Y-92157180D01*
X56484780Y-91538133D02*
X56437161Y-91633371D01*
X56341923Y-91680990D01*
X55484780Y-91680990D01*
X56484780Y-90395276D02*
X55818114Y-90395276D01*
X56008590Y-90395276D02*
X55913352Y-90347657D01*
X55865733Y-90300038D01*
X55818114Y-90204800D01*
X55818114Y-90109561D01*
X56484780Y-89347657D02*
X55960971Y-89347657D01*
X55865733Y-89395276D01*
X55818114Y-89490514D01*
X55818114Y-89680990D01*
X55865733Y-89776228D01*
X56437161Y-89347657D02*
X56484780Y-89442895D01*
X56484780Y-89680990D01*
X56437161Y-89776228D01*
X56341923Y-89823847D01*
X56246685Y-89823847D01*
X56151447Y-89776228D01*
X56103828Y-89680990D01*
X56103828Y-89442895D01*
X56056209Y-89347657D01*
X56484780Y-88442895D02*
X55484780Y-88442895D01*
X56437161Y-88442895D02*
X56484780Y-88538133D01*
X56484780Y-88728609D01*
X56437161Y-88823847D01*
X56389542Y-88871466D01*
X56294304Y-88919085D01*
X56008590Y-88919085D01*
X55913352Y-88871466D01*
X55865733Y-88823847D01*
X55818114Y-88728609D01*
X55818114Y-88538133D01*
X55865733Y-88442895D01*
X56484780Y-87538133D02*
X55960971Y-87538133D01*
X55865733Y-87585752D01*
X55818114Y-87680990D01*
X55818114Y-87871466D01*
X55865733Y-87966704D01*
X56437161Y-87538133D02*
X56484780Y-87633371D01*
X56484780Y-87871466D01*
X56437161Y-87966704D01*
X56341923Y-88014323D01*
X56246685Y-88014323D01*
X56151447Y-87966704D01*
X56103828Y-87871466D01*
X56103828Y-87633371D01*
X56056209Y-87538133D01*
X55960971Y-85966704D02*
X56008590Y-85823847D01*
X56056209Y-85776228D01*
X56151447Y-85728609D01*
X56294304Y-85728609D01*
X56389542Y-85776228D01*
X56437161Y-85823847D01*
X56484780Y-85919085D01*
X56484780Y-86300038D01*
X55484780Y-86300038D01*
X55484780Y-85966704D01*
X55532400Y-85871466D01*
X55580019Y-85823847D01*
X55675257Y-85776228D01*
X55770495Y-85776228D01*
X55865733Y-85823847D01*
X55913352Y-85871466D01*
X55960971Y-85966704D01*
X55960971Y-86300038D01*
X55818114Y-84871466D02*
X56484780Y-84871466D01*
X55818114Y-85300038D02*
X56341923Y-85300038D01*
X56437161Y-85252419D01*
X56484780Y-85157180D01*
X56484780Y-85014323D01*
X56437161Y-84919085D01*
X56389542Y-84871466D01*
X55818114Y-84490514D02*
X55818114Y-83966704D01*
X56484780Y-84490514D01*
X56484780Y-83966704D01*
X56484780Y-83585752D02*
X55818114Y-83585752D01*
X55484780Y-83585752D02*
X55532400Y-83633371D01*
X55580019Y-83585752D01*
X55532400Y-83538133D01*
X55484780Y-83585752D01*
X55580019Y-83585752D01*
X56484780Y-83109561D02*
X55818114Y-83109561D01*
X55913352Y-83109561D02*
X55865733Y-83061942D01*
X55818114Y-82966704D01*
X55818114Y-82823847D01*
X55865733Y-82728609D01*
X55960971Y-82680990D01*
X56484780Y-82680990D01*
X55960971Y-82680990D02*
X55865733Y-82633371D01*
X55818114Y-82538133D01*
X55818114Y-82395276D01*
X55865733Y-82300038D01*
X55960971Y-82252419D01*
X56484780Y-82252419D01*
X57134780Y-97252419D02*
X57325257Y-97252419D01*
X57134780Y-96871466D02*
X57325257Y-96871466D01*
X58134780Y-96442895D02*
X57134780Y-96442895D01*
X57134780Y-96061942D01*
X57182400Y-95966704D01*
X57230019Y-95919085D01*
X57325257Y-95871466D01*
X57468114Y-95871466D01*
X57563352Y-95919085D01*
X57610971Y-95966704D01*
X57658590Y-96061942D01*
X57658590Y-96442895D01*
X58134780Y-95014323D02*
X57610971Y-95014323D01*
X57515733Y-95061942D01*
X57468114Y-95157180D01*
X57468114Y-95347657D01*
X57515733Y-95442895D01*
X58087161Y-95014323D02*
X58134780Y-95109561D01*
X58134780Y-95347657D01*
X58087161Y-95442895D01*
X57991923Y-95490514D01*
X57896685Y-95490514D01*
X57801447Y-95442895D01*
X57753828Y-95347657D01*
X57753828Y-95109561D01*
X57706209Y-95014323D01*
X58134780Y-94538133D02*
X57468114Y-94538133D01*
X57563352Y-94538133D02*
X57515733Y-94490514D01*
X57468114Y-94395276D01*
X57468114Y-94252419D01*
X57515733Y-94157180D01*
X57610971Y-94109561D01*
X58134780Y-94109561D01*
X57610971Y-94109561D02*
X57515733Y-94061942D01*
X57468114Y-93966704D01*
X57468114Y-93823847D01*
X57515733Y-93728609D01*
X57610971Y-93680990D01*
X58134780Y-93680990D01*
X58087161Y-92823847D02*
X58134780Y-92919085D01*
X58134780Y-93109561D01*
X58087161Y-93204800D01*
X57991923Y-93252419D01*
X57610971Y-93252419D01*
X57515733Y-93204800D01*
X57468114Y-93109561D01*
X57468114Y-92919085D01*
X57515733Y-92823847D01*
X57610971Y-92776228D01*
X57706209Y-92776228D01*
X57801447Y-93252419D01*
X57468114Y-92490514D02*
X57468114Y-92109561D01*
X57134780Y-92347657D02*
X57991923Y-92347657D01*
X58087161Y-92300038D01*
X58134780Y-92204800D01*
X58134780Y-92109561D01*
X57468114Y-91776228D02*
X58134780Y-91776228D01*
X57563352Y-91776228D02*
X57515733Y-91728609D01*
X57468114Y-91633371D01*
X57468114Y-91490514D01*
X57515733Y-91395276D01*
X57610971Y-91347657D01*
X58134780Y-91347657D01*
X58134780Y-90442895D02*
X57610971Y-90442895D01*
X57515733Y-90490514D01*
X57468114Y-90585752D01*
X57468114Y-90776228D01*
X57515733Y-90871466D01*
X58087161Y-90442895D02*
X58134780Y-90538133D01*
X58134780Y-90776228D01*
X58087161Y-90871466D01*
X57991923Y-90919085D01*
X57896685Y-90919085D01*
X57801447Y-90871466D01*
X57753828Y-90776228D01*
X57753828Y-90538133D01*
X57706209Y-90442895D01*
X58134780Y-89204800D02*
X57468114Y-89204800D01*
X57658590Y-89204800D02*
X57563352Y-89157180D01*
X57515733Y-89109561D01*
X57468114Y-89014323D01*
X57468114Y-88919085D01*
X58134780Y-88157180D02*
X57610971Y-88157180D01*
X57515733Y-88204800D01*
X57468114Y-88300038D01*
X57468114Y-88490514D01*
X57515733Y-88585752D01*
X58087161Y-88157180D02*
X58134780Y-88252419D01*
X58134780Y-88490514D01*
X58087161Y-88585752D01*
X57991923Y-88633371D01*
X57896685Y-88633371D01*
X57801447Y-88585752D01*
X57753828Y-88490514D01*
X57753828Y-88252419D01*
X57706209Y-88157180D01*
X58087161Y-87728609D02*
X58134780Y-87633371D01*
X58134780Y-87442895D01*
X58087161Y-87347657D01*
X57991923Y-87300038D01*
X57944304Y-87300038D01*
X57849066Y-87347657D01*
X57801447Y-87442895D01*
X57801447Y-87585752D01*
X57753828Y-87680990D01*
X57658590Y-87728609D01*
X57610971Y-87728609D01*
X57515733Y-87680990D01*
X57468114Y-87585752D01*
X57468114Y-87442895D01*
X57515733Y-87347657D01*
X58134780Y-86871466D02*
X57134780Y-86871466D01*
X57753828Y-86776228D02*
X58134780Y-86490514D01*
X57468114Y-86490514D02*
X57849066Y-86871466D01*
X58134780Y-86061942D02*
X57468114Y-86061942D01*
X57658590Y-86061942D02*
X57563352Y-86014323D01*
X57515733Y-85966704D01*
X57468114Y-85871466D01*
X57468114Y-85776228D01*
X58087161Y-85490514D02*
X58134780Y-85395276D01*
X58134780Y-85204800D01*
X58087161Y-85109561D01*
X57991923Y-85061942D01*
X57944304Y-85061942D01*
X57849066Y-85109561D01*
X57801447Y-85204800D01*
X57801447Y-85347657D01*
X57753828Y-85442895D01*
X57658590Y-85490514D01*
X57610971Y-85490514D01*
X57515733Y-85442895D01*
X57468114Y-85347657D01*
X57468114Y-85204800D01*
X57515733Y-85109561D01*
X57468114Y-84633371D02*
X58134780Y-84633371D01*
X57563352Y-84633371D02*
X57515733Y-84585752D01*
X57468114Y-84490514D01*
X57468114Y-84347657D01*
X57515733Y-84252419D01*
X57610971Y-84204800D01*
X58134780Y-84204800D01*
X58134780Y-83728609D02*
X57468114Y-83728609D01*
X57134780Y-83728609D02*
X57182400Y-83776228D01*
X57230019Y-83728609D01*
X57182400Y-83680990D01*
X57134780Y-83728609D01*
X57230019Y-83728609D01*
X58087161Y-82823847D02*
X58134780Y-82919085D01*
X58134780Y-83109561D01*
X58087161Y-83204800D01*
X58039542Y-83252419D01*
X57944304Y-83300038D01*
X57658590Y-83300038D01*
X57563352Y-83252419D01*
X57515733Y-83204800D01*
X57468114Y-83109561D01*
X57468114Y-82919085D01*
X57515733Y-82823847D01*
X58134780Y-81966704D02*
X57610971Y-81966704D01*
X57515733Y-82014323D01*
X57468114Y-82109561D01*
X57468114Y-82300038D01*
X57515733Y-82395276D01*
X58087161Y-81966704D02*
X58134780Y-82061942D01*
X58134780Y-82300038D01*
X58087161Y-82395276D01*
X57991923Y-82442895D01*
X57896685Y-82442895D01*
X57801447Y-82395276D01*
X57753828Y-82300038D01*
X57753828Y-82061942D01*
X57706209Y-81966704D01*
X57134780Y-81538133D02*
X57325257Y-81538133D01*
X57134780Y-81157180D02*
X57325257Y-81157180D01*
D11*
X114046038Y-105210000D02*
X114007942Y-105190952D01*
X113950800Y-105190952D01*
X113893657Y-105210000D01*
X113855561Y-105248095D01*
X113836514Y-105286190D01*
X113817466Y-105362380D01*
X113817466Y-105419523D01*
X113836514Y-105495714D01*
X113855561Y-105533809D01*
X113893657Y-105571904D01*
X113950800Y-105590952D01*
X113988895Y-105590952D01*
X114046038Y-105571904D01*
X114065085Y-105552857D01*
X114065085Y-105419523D01*
X113988895Y-105419523D01*
X114236514Y-105590952D02*
X114236514Y-105190952D01*
X114465085Y-105590952D01*
X114465085Y-105190952D01*
X114655561Y-105590952D02*
X114655561Y-105190952D01*
X114750800Y-105190952D01*
X114807942Y-105210000D01*
X114846038Y-105248095D01*
X114865085Y-105286190D01*
X114884133Y-105362380D01*
X114884133Y-105419523D01*
X114865085Y-105495714D01*
X114846038Y-105533809D01*
X114807942Y-105571904D01*
X114750800Y-105590952D01*
X114655561Y-105590952D01*
X122148609Y-121497752D02*
X121958133Y-121497752D01*
X121939085Y-121688228D01*
X121958133Y-121669180D01*
X121996228Y-121650133D01*
X122091466Y-121650133D01*
X122129561Y-121669180D01*
X122148609Y-121688228D01*
X122167657Y-121726323D01*
X122167657Y-121821561D01*
X122148609Y-121859657D01*
X122129561Y-121878704D01*
X122091466Y-121897752D01*
X121996228Y-121897752D01*
X121958133Y-121878704D01*
X121939085Y-121859657D01*
X122281942Y-121497752D02*
X122415276Y-121897752D01*
X122548609Y-121497752D01*
D12*
X52000000Y-130000000D02*
X124000000Y-130000000D01*
X52000000Y-43000000D02*
X52000000Y-130000000D01*
X124000000Y-43000000D02*
X52000000Y-43000000D01*
X124000000Y-43000000D02*
X124000000Y-130000000D01*
D13*
X118016800Y-51654400D02*
X116366800Y-51654400D01*
X118016800Y-72094400D02*
X118016800Y-51654400D01*
X112716800Y-72094400D02*
X118016800Y-72094400D01*
X112716800Y-51654400D02*
X112716800Y-72094400D01*
X114366800Y-51654400D02*
X112716800Y-51654400D01*
X116366800Y-51654400D02*
G75*
G02X114366800Y-51654400I-1000000J0D01*
G01*
X116645200Y-97323600D02*
X114995200Y-97323600D01*
X116645200Y-117763600D02*
X116645200Y-97323600D01*
X111345200Y-117763600D02*
X116645200Y-117763600D01*
X111345200Y-97323600D02*
X111345200Y-117763600D01*
X112995200Y-97323600D02*
X111345200Y-97323600D01*
X114995200Y-97323600D02*
G75*
G02X112995200Y-97323600I-1000000J0D01*
G01*
X70224400Y-95858000D02*
X70224400Y-95528000D01*
X63684400Y-95858000D02*
X70224400Y-95858000D01*
X63684400Y-95528000D02*
X63684400Y-95858000D01*
X70224400Y-93118000D02*
X70224400Y-93448000D01*
X63684400Y-93118000D02*
X70224400Y-93118000D01*
X63684400Y-93448000D02*
X63684400Y-93118000D01*
X70580000Y-102004800D02*
X70580000Y-101674800D01*
X64040000Y-102004800D02*
X70580000Y-102004800D01*
X64040000Y-101674800D02*
X64040000Y-102004800D01*
X70580000Y-99264800D02*
X70580000Y-99594800D01*
X64040000Y-99264800D02*
X70580000Y-99264800D01*
X64040000Y-99594800D02*
X64040000Y-99264800D01*
X106851200Y-80059200D02*
X106851200Y-79729200D01*
X100311200Y-80059200D02*
X106851200Y-80059200D01*
X100311200Y-79729200D02*
X100311200Y-80059200D01*
X106851200Y-77319200D02*
X106851200Y-77649200D01*
X100311200Y-77319200D02*
X106851200Y-77319200D01*
X100311200Y-77649200D02*
X100311200Y-77319200D01*
X107054400Y-75131600D02*
X107054400Y-74801600D01*
X100514400Y-75131600D02*
X107054400Y-75131600D01*
X100514400Y-74801600D02*
X100514400Y-75131600D01*
X107054400Y-72391600D02*
X107054400Y-72721600D01*
X100514400Y-72391600D02*
X107054400Y-72391600D01*
X100514400Y-72721600D02*
X100514400Y-72391600D01*
X107156000Y-70559600D02*
X107156000Y-70229600D01*
X100616000Y-70559600D02*
X107156000Y-70559600D01*
X100616000Y-70229600D02*
X100616000Y-70559600D01*
X107156000Y-67819600D02*
X107156000Y-68149600D01*
X100616000Y-67819600D02*
X107156000Y-67819600D01*
X100616000Y-68149600D02*
X100616000Y-67819600D01*
X107156000Y-66241600D02*
X107156000Y-65911600D01*
X100616000Y-66241600D02*
X107156000Y-66241600D01*
X100616000Y-65911600D02*
X100616000Y-66241600D01*
X107156000Y-63501600D02*
X107156000Y-63831600D01*
X100616000Y-63501600D02*
X107156000Y-63501600D01*
X100616000Y-63831600D02*
X100616000Y-63501600D01*
X107257600Y-61720400D02*
X107257600Y-61390400D01*
X100717600Y-61720400D02*
X107257600Y-61720400D01*
X100717600Y-61390400D02*
X100717600Y-61720400D01*
X107257600Y-58980400D02*
X107257600Y-59310400D01*
X100717600Y-58980400D02*
X107257600Y-58980400D01*
X100717600Y-59310400D02*
X100717600Y-58980400D01*
X107156000Y-57046800D02*
X107156000Y-56716800D01*
X100616000Y-57046800D02*
X107156000Y-57046800D01*
X100616000Y-56716800D02*
X100616000Y-57046800D01*
X107156000Y-54306800D02*
X107156000Y-54636800D01*
X100616000Y-54306800D02*
X107156000Y-54306800D01*
X100616000Y-54636800D02*
X100616000Y-54306800D01*
X107105200Y-52678000D02*
X107105200Y-52348000D01*
X100565200Y-52678000D02*
X107105200Y-52678000D01*
X100565200Y-52348000D02*
X100565200Y-52678000D01*
X107105200Y-49938000D02*
X107105200Y-50268000D01*
X100565200Y-49938000D02*
X107105200Y-49938000D01*
X100565200Y-50268000D02*
X100565200Y-49938000D01*
X107156000Y-48004400D02*
X107156000Y-47674400D01*
X100616000Y-48004400D02*
X107156000Y-48004400D01*
X100616000Y-47674400D02*
X100616000Y-48004400D01*
X107156000Y-45264400D02*
X107156000Y-45594400D01*
X100616000Y-45264400D02*
X107156000Y-45264400D01*
X100616000Y-45594400D02*
X100616000Y-45264400D01*
X104971600Y-112622000D02*
X104971600Y-112292000D01*
X98431600Y-112622000D02*
X104971600Y-112622000D01*
X98431600Y-112292000D02*
X98431600Y-112622000D01*
X104971600Y-109882000D02*
X104971600Y-110212000D01*
X98431600Y-109882000D02*
X104971600Y-109882000D01*
X98431600Y-110212000D02*
X98431600Y-109882000D01*
X103142800Y-108151600D02*
X103142800Y-107821600D01*
X96602800Y-108151600D02*
X103142800Y-108151600D01*
X96602800Y-107821600D02*
X96602800Y-108151600D01*
X103142800Y-105411600D02*
X103142800Y-105741600D01*
X96602800Y-105411600D02*
X103142800Y-105411600D01*
X96602800Y-105741600D02*
X96602800Y-105411600D01*
X104768400Y-103630400D02*
X104768400Y-103300400D01*
X98228400Y-103630400D02*
X104768400Y-103630400D01*
X98228400Y-103300400D02*
X98228400Y-103630400D01*
X104768400Y-100890400D02*
X104768400Y-101220400D01*
X98228400Y-100890400D02*
X104768400Y-100890400D01*
X98228400Y-101220400D02*
X98228400Y-100890400D01*
X105479600Y-98753600D02*
X105479600Y-98423600D01*
X98939600Y-98753600D02*
X105479600Y-98753600D01*
X98939600Y-98423600D02*
X98939600Y-98753600D01*
X105479600Y-96013600D02*
X105479600Y-96343600D01*
X98939600Y-96013600D02*
X105479600Y-96013600D01*
X98939600Y-96343600D02*
X98939600Y-96013600D01*
X106495600Y-94283200D02*
X106495600Y-93953200D01*
X99955600Y-94283200D02*
X106495600Y-94283200D01*
X99955600Y-93953200D02*
X99955600Y-94283200D01*
X106495600Y-91543200D02*
X106495600Y-91873200D01*
X99955600Y-91543200D02*
X106495600Y-91543200D01*
X99955600Y-91873200D02*
X99955600Y-91543200D01*
X106546400Y-89660400D02*
X106546400Y-89330400D01*
X100006400Y-89660400D02*
X106546400Y-89660400D01*
X100006400Y-89330400D02*
X100006400Y-89660400D01*
X106546400Y-86920400D02*
X106546400Y-87250400D01*
X100006400Y-86920400D02*
X106546400Y-86920400D01*
X100006400Y-87250400D02*
X100006400Y-86920400D01*
X106495600Y-84986800D02*
X106495600Y-84656800D01*
X99955600Y-84986800D02*
X106495600Y-84986800D01*
X99955600Y-84656800D02*
X99955600Y-84986800D01*
X106495600Y-82246800D02*
X106495600Y-82576800D01*
X99955600Y-82246800D02*
X106495600Y-82246800D01*
X99955600Y-82576800D02*
X99955600Y-82246800D01*
X118027200Y-96467600D02*
X118027200Y-96137600D01*
X111487200Y-96467600D02*
X118027200Y-96467600D01*
X111487200Y-96137600D02*
X111487200Y-96467600D01*
X118027200Y-93727600D02*
X118027200Y-94057600D01*
X111487200Y-93727600D02*
X118027200Y-93727600D01*
X111487200Y-94057600D02*
X111487200Y-93727600D01*
X111098000Y-73011600D02*
X118518000Y-73011600D01*
X111098000Y-82131600D02*
X118518000Y-82131600D01*
X118518000Y-82131600D02*
X118518000Y-73011600D01*
X111098000Y-82131600D02*
X111098000Y-73011600D01*
X115932000Y-78947600D02*
X116119000Y-79134600D01*
X113245000Y-76259600D02*
X113389000Y-76403600D01*
X116227000Y-78739600D02*
X116371000Y-78883600D01*
X113497000Y-76008600D02*
X113683000Y-76195600D01*
X116868000Y-77571600D02*
G75*
G03X116868000Y-77571600I-2060000J0D01*
G01*
X111352000Y-83781200D02*
X118772000Y-83781200D01*
X111352000Y-92901200D02*
X118772000Y-92901200D01*
X118772000Y-92901200D02*
X118772000Y-83781200D01*
X111352000Y-92901200D02*
X111352000Y-83781200D01*
X116186000Y-89717200D02*
X116373000Y-89904200D01*
X113499000Y-87029200D02*
X113643000Y-87173200D01*
X116481000Y-89509200D02*
X116625000Y-89653200D01*
X113751000Y-86778200D02*
X113937000Y-86965200D01*
X117122000Y-88341200D02*
G75*
G03X117122000Y-88341200I-2060000J0D01*
G01*
X96304800Y-55319600D02*
X96304800Y-62739600D01*
X87184800Y-55319600D02*
X87184800Y-62739600D01*
X87184800Y-62739600D02*
X96304800Y-62739600D01*
X87184800Y-55319600D02*
X96304800Y-55319600D01*
X90368800Y-60153600D02*
X90181800Y-60340600D01*
X93056800Y-57466600D02*
X92912800Y-57610600D01*
X90576800Y-60448600D02*
X90432800Y-60592600D01*
X93307800Y-57718600D02*
X93120800Y-57904600D01*
X93804800Y-59029600D02*
G75*
G03X93804800Y-59029600I-2060000J0D01*
G01*
X85586000Y-55065600D02*
X85586000Y-62485600D01*
X76466000Y-55065600D02*
X76466000Y-62485600D01*
X76466000Y-62485600D02*
X85586000Y-62485600D01*
X76466000Y-55065600D02*
X85586000Y-55065600D01*
X79650000Y-59899600D02*
X79463000Y-60086600D01*
X82338000Y-57212600D02*
X82194000Y-57356600D01*
X79858000Y-60194600D02*
X79714000Y-60338600D01*
X82589000Y-57464600D02*
X82402000Y-57650600D01*
X83086000Y-58775600D02*
G75*
G03X83086000Y-58775600I-2060000J0D01*
G01*
X74714800Y-55065600D02*
X74714800Y-62485600D01*
X65594800Y-55065600D02*
X65594800Y-62485600D01*
X65594800Y-62485600D02*
X74714800Y-62485600D01*
X65594800Y-55065600D02*
X74714800Y-55065600D01*
X68778800Y-59899600D02*
X68591800Y-60086600D01*
X71466800Y-57212600D02*
X71322800Y-57356600D01*
X68986800Y-60194600D02*
X68842800Y-60338600D01*
X71717800Y-57464600D02*
X71530800Y-57650600D01*
X72214800Y-58775600D02*
G75*
G03X72214800Y-58775600I-2060000J0D01*
G01*
X95796800Y-45159600D02*
X95796800Y-52579600D01*
X86676800Y-45159600D02*
X86676800Y-52579600D01*
X86676800Y-52579600D02*
X95796800Y-52579600D01*
X86676800Y-45159600D02*
X95796800Y-45159600D01*
X89860800Y-49993600D02*
X89673800Y-50180600D01*
X92548800Y-47306600D02*
X92404800Y-47450600D01*
X90068800Y-50288600D02*
X89924800Y-50432600D01*
X92799800Y-47558600D02*
X92612800Y-47744600D01*
X93296800Y-48869600D02*
G75*
G03X93296800Y-48869600I-2060000J0D01*
G01*
X85027200Y-44956400D02*
X85027200Y-52376400D01*
X75907200Y-44956400D02*
X75907200Y-52376400D01*
X75907200Y-52376400D02*
X85027200Y-52376400D01*
X75907200Y-44956400D02*
X85027200Y-44956400D01*
X79091200Y-49790400D02*
X78904200Y-49977400D01*
X81779200Y-47103400D02*
X81635200Y-47247400D01*
X79299200Y-50085400D02*
X79155200Y-50229400D01*
X82030200Y-47355400D02*
X81843200Y-47541400D01*
X82527200Y-48666400D02*
G75*
G03X82527200Y-48666400I-2060000J0D01*
G01*
X74613200Y-44956400D02*
X74613200Y-52376400D01*
X65493200Y-44956400D02*
X65493200Y-52376400D01*
X65493200Y-52376400D02*
X74613200Y-52376400D01*
X65493200Y-44956400D02*
X74613200Y-44956400D01*
X68677200Y-49790400D02*
X68490200Y-49977400D01*
X71365200Y-47103400D02*
X71221200Y-47247400D01*
X68885200Y-50085400D02*
X68741200Y-50229400D01*
X71616200Y-47355400D02*
X71429200Y-47541400D01*
X72113200Y-48666400D02*
G75*
G03X72113200Y-48666400I-2060000J0D01*
G01*
X106668000Y-122070800D02*
X106668000Y-129490800D01*
X97548000Y-122070800D02*
X97548000Y-129490800D01*
X97548000Y-129490800D02*
X106668000Y-129490800D01*
X97548000Y-122070800D02*
X106668000Y-122070800D01*
X100732000Y-126904800D02*
X100545000Y-127091800D01*
X103420000Y-124217800D02*
X103276000Y-124361800D01*
X100940000Y-127199800D02*
X100796000Y-127343800D01*
X103671000Y-124469800D02*
X103484000Y-124655800D01*
X104168000Y-125780800D02*
G75*
G03X104168000Y-125780800I-2060000J0D01*
G01*
X96254000Y-122070800D02*
X96254000Y-129490800D01*
X87134000Y-122070800D02*
X87134000Y-129490800D01*
X87134000Y-129490800D02*
X96254000Y-129490800D01*
X87134000Y-122070800D02*
X96254000Y-122070800D01*
X90318000Y-126904800D02*
X90131000Y-127091800D01*
X93006000Y-124217800D02*
X92862000Y-124361800D01*
X90526000Y-127199800D02*
X90382000Y-127343800D01*
X93257000Y-124469800D02*
X93070000Y-124655800D01*
X93754000Y-125780800D02*
G75*
G03X93754000Y-125780800I-2060000J0D01*
G01*
X85789200Y-122070800D02*
X85789200Y-129490800D01*
X76669200Y-122070800D02*
X76669200Y-129490800D01*
X76669200Y-129490800D02*
X85789200Y-129490800D01*
X76669200Y-122070800D02*
X85789200Y-122070800D01*
X79853200Y-126904800D02*
X79666200Y-127091800D01*
X82541200Y-124217800D02*
X82397200Y-124361800D01*
X80061200Y-127199800D02*
X79917200Y-127343800D01*
X82792200Y-124469800D02*
X82605200Y-124655800D01*
X83289200Y-125780800D02*
G75*
G03X83289200Y-125780800I-2060000J0D01*
G01*
X74511600Y-120800800D02*
X74511600Y-128220800D01*
X65391600Y-120800800D02*
X65391600Y-128220800D01*
X65391600Y-128220800D02*
X74511600Y-128220800D01*
X65391600Y-120800800D02*
X74511600Y-120800800D01*
X68575600Y-125634800D02*
X68388600Y-125821800D01*
X71263600Y-122947800D02*
X71119600Y-123091800D01*
X68783600Y-125929800D02*
X68639600Y-126073800D01*
X71514600Y-123199800D02*
X71327600Y-123385800D01*
X72011600Y-124510800D02*
G75*
G03X72011600Y-124510800I-2060000J0D01*
G01*
X85789200Y-113638000D02*
X85789200Y-121058000D01*
X76669200Y-113638000D02*
X76669200Y-121058000D01*
X76669200Y-121058000D02*
X85789200Y-121058000D01*
X76669200Y-113638000D02*
X85789200Y-113638000D01*
X79853200Y-118472000D02*
X79666200Y-118659000D01*
X82541200Y-115785000D02*
X82397200Y-115929000D01*
X80061200Y-118767000D02*
X79917200Y-118911000D01*
X82792200Y-116037000D02*
X82605200Y-116223000D01*
X83289200Y-117348000D02*
G75*
G03X83289200Y-117348000I-2060000J0D01*
G01*
X96304800Y-113638000D02*
X96304800Y-121058000D01*
X87184800Y-113638000D02*
X87184800Y-121058000D01*
X87184800Y-121058000D02*
X96304800Y-121058000D01*
X87184800Y-113638000D02*
X96304800Y-113638000D01*
X90368800Y-118472000D02*
X90181800Y-118659000D01*
X93056800Y-115785000D02*
X92912800Y-115929000D01*
X90576800Y-118767000D02*
X90432800Y-118911000D01*
X93307800Y-116037000D02*
X93120800Y-116223000D01*
X93804800Y-117348000D02*
G75*
G03X93804800Y-117348000I-2060000J0D01*
G01*
X106617200Y-113638000D02*
X106617200Y-121058000D01*
X97497200Y-113638000D02*
X97497200Y-121058000D01*
X97497200Y-121058000D02*
X106617200Y-121058000D01*
X97497200Y-113638000D02*
X106617200Y-113638000D01*
X100681200Y-118472000D02*
X100494200Y-118659000D01*
X103369200Y-115785000D02*
X103225200Y-115929000D01*
X100889200Y-118767000D02*
X100745200Y-118911000D01*
X103620200Y-116037000D02*
X103433200Y-116223000D01*
X104117200Y-117348000D02*
G75*
G03X104117200Y-117348000I-2060000J0D01*
G01*
X116878800Y-119276800D02*
X116878800Y-126696800D01*
X107758800Y-119276800D02*
X107758800Y-126696800D01*
X107758800Y-126696800D02*
X116878800Y-126696800D01*
X107758800Y-119276800D02*
X116878800Y-119276800D01*
X110942800Y-124110800D02*
X110755800Y-124297800D01*
X113630800Y-121423800D02*
X113486800Y-121567800D01*
X111150800Y-124405800D02*
X111006800Y-124549800D01*
X113881800Y-121675800D02*
X113694800Y-121861800D01*
X114378800Y-122986800D02*
G75*
G03X114378800Y-122986800I-2060000J0D01*
G01*
X63589600Y-55218000D02*
X63589600Y-62638000D01*
X54469600Y-55218000D02*
X54469600Y-62638000D01*
X54469600Y-62638000D02*
X63589600Y-62638000D01*
X54469600Y-55218000D02*
X63589600Y-55218000D01*
X57653600Y-60052000D02*
X57466600Y-60239000D01*
X60341600Y-57365000D02*
X60197600Y-57509000D01*
X57861600Y-60347000D02*
X57717600Y-60491000D01*
X60592600Y-57617000D02*
X60405600Y-57803000D01*
X61089600Y-58928000D02*
G75*
G03X61089600Y-58928000I-2060000J0D01*
G01*
X71362000Y-72998000D02*
X71362000Y-80418000D01*
X62242000Y-72998000D02*
X62242000Y-80418000D01*
X62242000Y-80418000D02*
X71362000Y-80418000D01*
X62242000Y-72998000D02*
X71362000Y-72998000D01*
X65426000Y-77832000D02*
X65239000Y-78019000D01*
X68114000Y-75145000D02*
X67970000Y-75289000D01*
X65634000Y-78127000D02*
X65490000Y-78271000D01*
X68365000Y-75397000D02*
X68178000Y-75583000D01*
X68862000Y-76708000D02*
G75*
G03X68862000Y-76708000I-2060000J0D01*
G01*
X71260400Y-82243600D02*
X71260400Y-89663600D01*
X62140400Y-82243600D02*
X62140400Y-89663600D01*
X62140400Y-89663600D02*
X71260400Y-89663600D01*
X62140400Y-82243600D02*
X71260400Y-82243600D01*
X65324400Y-87077600D02*
X65137400Y-87264600D01*
X68012400Y-84390600D02*
X67868400Y-84534600D01*
X65532400Y-87372600D02*
X65388400Y-87516600D01*
X68263400Y-84642600D02*
X68076400Y-84828600D01*
X68760400Y-85953600D02*
G75*
G03X68760400Y-85953600I-2060000J0D01*
G01*
X64751200Y-66346400D02*
X64751200Y-66676400D01*
X71291200Y-66346400D02*
X64751200Y-66346400D01*
X71291200Y-66676400D02*
X71291200Y-66346400D01*
X64751200Y-69086400D02*
X64751200Y-68756400D01*
X71291200Y-69086400D02*
X64751200Y-69086400D01*
X71291200Y-68756400D02*
X71291200Y-69086400D01*
X92484400Y-65706800D02*
X74444400Y-65706800D01*
X92484400Y-109146800D02*
X92484400Y-65706800D01*
X74444400Y-109146800D02*
X92484400Y-109146800D01*
X77114400Y-106476800D02*
X74444400Y-106476800D01*
X77114400Y-70916800D02*
X77114400Y-106476800D01*
X77114400Y-70916800D02*
X74444400Y-70916800D01*
X89814400Y-106476800D02*
X92484400Y-106476800D01*
X89814400Y-68376800D02*
X89814400Y-106476800D01*
X89814400Y-68376800D02*
X92484400Y-68376800D01*
X74444400Y-65706800D02*
X74444400Y-68376800D01*
X74444400Y-70916800D02*
X74444400Y-109146800D01*
X77114400Y-68376800D02*
X74444400Y-68376800D01*
X77114400Y-70916800D02*
X77114400Y-68376800D01*
D10*
X114604895Y-50106780D02*
X114604895Y-50916304D01*
X114652514Y-51011542D01*
X114700133Y-51059161D01*
X114795371Y-51106780D01*
X114985847Y-51106780D01*
X115081085Y-51059161D01*
X115128704Y-51011542D01*
X115176323Y-50916304D01*
X115176323Y-50106780D01*
X115604895Y-50202019D02*
X115652514Y-50154400D01*
X115747752Y-50106780D01*
X115985847Y-50106780D01*
X116081085Y-50154400D01*
X116128704Y-50202019D01*
X116176323Y-50297257D01*
X116176323Y-50392495D01*
X116128704Y-50535352D01*
X115557276Y-51106780D01*
X116176323Y-51106780D01*
X117449695Y-118425980D02*
X117449695Y-119235504D01*
X117497314Y-119330742D01*
X117544933Y-119378361D01*
X117640171Y-119425980D01*
X117830647Y-119425980D01*
X117925885Y-119378361D01*
X117973504Y-119330742D01*
X118021123Y-119235504D01*
X118021123Y-118425980D01*
X119021123Y-119425980D02*
X118449695Y-119425980D01*
X118735409Y-119425980D02*
X118735409Y-118425980D01*
X118640171Y-118568838D01*
X118544933Y-118664076D01*
X118449695Y-118711695D01*
X66311542Y-92570380D02*
X65978209Y-92094190D01*
X65740114Y-92570380D02*
X65740114Y-91570380D01*
X66121066Y-91570380D01*
X66216304Y-91618000D01*
X66263923Y-91665619D01*
X66311542Y-91760857D01*
X66311542Y-91903714D01*
X66263923Y-91998952D01*
X66216304Y-92046571D01*
X66121066Y-92094190D01*
X65740114Y-92094190D01*
X67263923Y-92570380D02*
X66692495Y-92570380D01*
X66978209Y-92570380D02*
X66978209Y-91570380D01*
X66882971Y-91713238D01*
X66787733Y-91808476D01*
X66692495Y-91856095D01*
X67835352Y-91998952D02*
X67740114Y-91951333D01*
X67692495Y-91903714D01*
X67644876Y-91808476D01*
X67644876Y-91760857D01*
X67692495Y-91665619D01*
X67740114Y-91618000D01*
X67835352Y-91570380D01*
X68025828Y-91570380D01*
X68121066Y-91618000D01*
X68168685Y-91665619D01*
X68216304Y-91760857D01*
X68216304Y-91808476D01*
X68168685Y-91903714D01*
X68121066Y-91951333D01*
X68025828Y-91998952D01*
X67835352Y-91998952D01*
X67740114Y-92046571D01*
X67692495Y-92094190D01*
X67644876Y-92189428D01*
X67644876Y-92379904D01*
X67692495Y-92475142D01*
X67740114Y-92522761D01*
X67835352Y-92570380D01*
X68025828Y-92570380D01*
X68121066Y-92522761D01*
X68168685Y-92475142D01*
X68216304Y-92379904D01*
X68216304Y-92189428D01*
X68168685Y-92094190D01*
X68121066Y-92046571D01*
X68025828Y-91998952D01*
X66667142Y-98717180D02*
X66333809Y-98240990D01*
X66095714Y-98717180D02*
X66095714Y-97717180D01*
X66476666Y-97717180D01*
X66571904Y-97764800D01*
X66619523Y-97812419D01*
X66667142Y-97907657D01*
X66667142Y-98050514D01*
X66619523Y-98145752D01*
X66571904Y-98193371D01*
X66476666Y-98240990D01*
X66095714Y-98240990D01*
X67619523Y-98717180D02*
X67048095Y-98717180D01*
X67333809Y-98717180D02*
X67333809Y-97717180D01*
X67238571Y-97860038D01*
X67143333Y-97955276D01*
X67048095Y-98002895D01*
X67952857Y-97717180D02*
X68619523Y-97717180D01*
X68190952Y-98717180D01*
X102938342Y-76771580D02*
X102605009Y-76295390D01*
X102366914Y-76771580D02*
X102366914Y-75771580D01*
X102747866Y-75771580D01*
X102843104Y-75819200D01*
X102890723Y-75866819D01*
X102938342Y-75962057D01*
X102938342Y-76104914D01*
X102890723Y-76200152D01*
X102843104Y-76247771D01*
X102747866Y-76295390D01*
X102366914Y-76295390D01*
X103890723Y-76771580D02*
X103319295Y-76771580D01*
X103605009Y-76771580D02*
X103605009Y-75771580D01*
X103509771Y-75914438D01*
X103414533Y-76009676D01*
X103319295Y-76057295D01*
X104747866Y-75771580D02*
X104557390Y-75771580D01*
X104462152Y-75819200D01*
X104414533Y-75866819D01*
X104319295Y-76009676D01*
X104271676Y-76200152D01*
X104271676Y-76581104D01*
X104319295Y-76676342D01*
X104366914Y-76723961D01*
X104462152Y-76771580D01*
X104652628Y-76771580D01*
X104747866Y-76723961D01*
X104795485Y-76676342D01*
X104843104Y-76581104D01*
X104843104Y-76343009D01*
X104795485Y-76247771D01*
X104747866Y-76200152D01*
X104652628Y-76152533D01*
X104462152Y-76152533D01*
X104366914Y-76200152D01*
X104319295Y-76247771D01*
X104271676Y-76343009D01*
X103141542Y-71843980D02*
X102808209Y-71367790D01*
X102570114Y-71843980D02*
X102570114Y-70843980D01*
X102951066Y-70843980D01*
X103046304Y-70891600D01*
X103093923Y-70939219D01*
X103141542Y-71034457D01*
X103141542Y-71177314D01*
X103093923Y-71272552D01*
X103046304Y-71320171D01*
X102951066Y-71367790D01*
X102570114Y-71367790D01*
X104093923Y-71843980D02*
X103522495Y-71843980D01*
X103808209Y-71843980D02*
X103808209Y-70843980D01*
X103712971Y-70986838D01*
X103617733Y-71082076D01*
X103522495Y-71129695D01*
X104998685Y-70843980D02*
X104522495Y-70843980D01*
X104474876Y-71320171D01*
X104522495Y-71272552D01*
X104617733Y-71224933D01*
X104855828Y-71224933D01*
X104951066Y-71272552D01*
X104998685Y-71320171D01*
X105046304Y-71415409D01*
X105046304Y-71653504D01*
X104998685Y-71748742D01*
X104951066Y-71796361D01*
X104855828Y-71843980D01*
X104617733Y-71843980D01*
X104522495Y-71796361D01*
X104474876Y-71748742D01*
X103243142Y-67271980D02*
X102909809Y-66795790D01*
X102671714Y-67271980D02*
X102671714Y-66271980D01*
X103052666Y-66271980D01*
X103147904Y-66319600D01*
X103195523Y-66367219D01*
X103243142Y-66462457D01*
X103243142Y-66605314D01*
X103195523Y-66700552D01*
X103147904Y-66748171D01*
X103052666Y-66795790D01*
X102671714Y-66795790D01*
X104195523Y-67271980D02*
X103624095Y-67271980D01*
X103909809Y-67271980D02*
X103909809Y-66271980D01*
X103814571Y-66414838D01*
X103719333Y-66510076D01*
X103624095Y-66557695D01*
X105052666Y-66605314D02*
X105052666Y-67271980D01*
X104814571Y-66224361D02*
X104576476Y-66938647D01*
X105195523Y-66938647D01*
X103243142Y-62953980D02*
X102909809Y-62477790D01*
X102671714Y-62953980D02*
X102671714Y-61953980D01*
X103052666Y-61953980D01*
X103147904Y-62001600D01*
X103195523Y-62049219D01*
X103243142Y-62144457D01*
X103243142Y-62287314D01*
X103195523Y-62382552D01*
X103147904Y-62430171D01*
X103052666Y-62477790D01*
X102671714Y-62477790D01*
X104195523Y-62953980D02*
X103624095Y-62953980D01*
X103909809Y-62953980D02*
X103909809Y-61953980D01*
X103814571Y-62096838D01*
X103719333Y-62192076D01*
X103624095Y-62239695D01*
X104528857Y-61953980D02*
X105147904Y-61953980D01*
X104814571Y-62334933D01*
X104957428Y-62334933D01*
X105052666Y-62382552D01*
X105100285Y-62430171D01*
X105147904Y-62525409D01*
X105147904Y-62763504D01*
X105100285Y-62858742D01*
X105052666Y-62906361D01*
X104957428Y-62953980D01*
X104671714Y-62953980D01*
X104576476Y-62906361D01*
X104528857Y-62858742D01*
X103344742Y-58432780D02*
X103011409Y-57956590D01*
X102773314Y-58432780D02*
X102773314Y-57432780D01*
X103154266Y-57432780D01*
X103249504Y-57480400D01*
X103297123Y-57528019D01*
X103344742Y-57623257D01*
X103344742Y-57766114D01*
X103297123Y-57861352D01*
X103249504Y-57908971D01*
X103154266Y-57956590D01*
X102773314Y-57956590D01*
X104297123Y-58432780D02*
X103725695Y-58432780D01*
X104011409Y-58432780D02*
X104011409Y-57432780D01*
X103916171Y-57575638D01*
X103820933Y-57670876D01*
X103725695Y-57718495D01*
X104678076Y-57528019D02*
X104725695Y-57480400D01*
X104820933Y-57432780D01*
X105059028Y-57432780D01*
X105154266Y-57480400D01*
X105201885Y-57528019D01*
X105249504Y-57623257D01*
X105249504Y-57718495D01*
X105201885Y-57861352D01*
X104630457Y-58432780D01*
X105249504Y-58432780D01*
X103243142Y-53759180D02*
X102909809Y-53282990D01*
X102671714Y-53759180D02*
X102671714Y-52759180D01*
X103052666Y-52759180D01*
X103147904Y-52806800D01*
X103195523Y-52854419D01*
X103243142Y-52949657D01*
X103243142Y-53092514D01*
X103195523Y-53187752D01*
X103147904Y-53235371D01*
X103052666Y-53282990D01*
X102671714Y-53282990D01*
X104195523Y-53759180D02*
X103624095Y-53759180D01*
X103909809Y-53759180D02*
X103909809Y-52759180D01*
X103814571Y-52902038D01*
X103719333Y-52997276D01*
X103624095Y-53044895D01*
X105147904Y-53759180D02*
X104576476Y-53759180D01*
X104862190Y-53759180D02*
X104862190Y-52759180D01*
X104766952Y-52902038D01*
X104671714Y-52997276D01*
X104576476Y-53044895D01*
X103192342Y-49390380D02*
X102859009Y-48914190D01*
X102620914Y-49390380D02*
X102620914Y-48390380D01*
X103001866Y-48390380D01*
X103097104Y-48438000D01*
X103144723Y-48485619D01*
X103192342Y-48580857D01*
X103192342Y-48723714D01*
X103144723Y-48818952D01*
X103097104Y-48866571D01*
X103001866Y-48914190D01*
X102620914Y-48914190D01*
X104144723Y-49390380D02*
X103573295Y-49390380D01*
X103859009Y-49390380D02*
X103859009Y-48390380D01*
X103763771Y-48533238D01*
X103668533Y-48628476D01*
X103573295Y-48676095D01*
X104763771Y-48390380D02*
X104859009Y-48390380D01*
X104954247Y-48438000D01*
X105001866Y-48485619D01*
X105049485Y-48580857D01*
X105097104Y-48771333D01*
X105097104Y-49009428D01*
X105049485Y-49199904D01*
X105001866Y-49295142D01*
X104954247Y-49342761D01*
X104859009Y-49390380D01*
X104763771Y-49390380D01*
X104668533Y-49342761D01*
X104620914Y-49295142D01*
X104573295Y-49199904D01*
X104525676Y-49009428D01*
X104525676Y-48771333D01*
X104573295Y-48580857D01*
X104620914Y-48485619D01*
X104668533Y-48438000D01*
X104763771Y-48390380D01*
X103719333Y-44716780D02*
X103386000Y-44240590D01*
X103147904Y-44716780D02*
X103147904Y-43716780D01*
X103528857Y-43716780D01*
X103624095Y-43764400D01*
X103671714Y-43812019D01*
X103719333Y-43907257D01*
X103719333Y-44050114D01*
X103671714Y-44145352D01*
X103624095Y-44192971D01*
X103528857Y-44240590D01*
X103147904Y-44240590D01*
X104195523Y-44716780D02*
X104386000Y-44716780D01*
X104481238Y-44669161D01*
X104528857Y-44621542D01*
X104624095Y-44478685D01*
X104671714Y-44288209D01*
X104671714Y-43907257D01*
X104624095Y-43812019D01*
X104576476Y-43764400D01*
X104481238Y-43716780D01*
X104290761Y-43716780D01*
X104195523Y-43764400D01*
X104147904Y-43812019D01*
X104100285Y-43907257D01*
X104100285Y-44145352D01*
X104147904Y-44240590D01*
X104195523Y-44288209D01*
X104290761Y-44335828D01*
X104481238Y-44335828D01*
X104576476Y-44288209D01*
X104624095Y-44240590D01*
X104671714Y-44145352D01*
X101534933Y-109334380D02*
X101201600Y-108858190D01*
X100963504Y-109334380D02*
X100963504Y-108334380D01*
X101344457Y-108334380D01*
X101439695Y-108382000D01*
X101487314Y-108429619D01*
X101534933Y-108524857D01*
X101534933Y-108667714D01*
X101487314Y-108762952D01*
X101439695Y-108810571D01*
X101344457Y-108858190D01*
X100963504Y-108858190D01*
X102106361Y-108762952D02*
X102011123Y-108715333D01*
X101963504Y-108667714D01*
X101915885Y-108572476D01*
X101915885Y-108524857D01*
X101963504Y-108429619D01*
X102011123Y-108382000D01*
X102106361Y-108334380D01*
X102296838Y-108334380D01*
X102392076Y-108382000D01*
X102439695Y-108429619D01*
X102487314Y-108524857D01*
X102487314Y-108572476D01*
X102439695Y-108667714D01*
X102392076Y-108715333D01*
X102296838Y-108762952D01*
X102106361Y-108762952D01*
X102011123Y-108810571D01*
X101963504Y-108858190D01*
X101915885Y-108953428D01*
X101915885Y-109143904D01*
X101963504Y-109239142D01*
X102011123Y-109286761D01*
X102106361Y-109334380D01*
X102296838Y-109334380D01*
X102392076Y-109286761D01*
X102439695Y-109239142D01*
X102487314Y-109143904D01*
X102487314Y-108953428D01*
X102439695Y-108858190D01*
X102392076Y-108810571D01*
X102296838Y-108762952D01*
X99706133Y-104863980D02*
X99372800Y-104387790D01*
X99134704Y-104863980D02*
X99134704Y-103863980D01*
X99515657Y-103863980D01*
X99610895Y-103911600D01*
X99658514Y-103959219D01*
X99706133Y-104054457D01*
X99706133Y-104197314D01*
X99658514Y-104292552D01*
X99610895Y-104340171D01*
X99515657Y-104387790D01*
X99134704Y-104387790D01*
X100039466Y-103863980D02*
X100706133Y-103863980D01*
X100277561Y-104863980D01*
X101331733Y-100342780D02*
X100998400Y-99866590D01*
X100760304Y-100342780D02*
X100760304Y-99342780D01*
X101141257Y-99342780D01*
X101236495Y-99390400D01*
X101284114Y-99438019D01*
X101331733Y-99533257D01*
X101331733Y-99676114D01*
X101284114Y-99771352D01*
X101236495Y-99818971D01*
X101141257Y-99866590D01*
X100760304Y-99866590D01*
X102188876Y-99342780D02*
X101998400Y-99342780D01*
X101903161Y-99390400D01*
X101855542Y-99438019D01*
X101760304Y-99580876D01*
X101712685Y-99771352D01*
X101712685Y-100152304D01*
X101760304Y-100247542D01*
X101807923Y-100295161D01*
X101903161Y-100342780D01*
X102093638Y-100342780D01*
X102188876Y-100295161D01*
X102236495Y-100247542D01*
X102284114Y-100152304D01*
X102284114Y-99914209D01*
X102236495Y-99818971D01*
X102188876Y-99771352D01*
X102093638Y-99723733D01*
X101903161Y-99723733D01*
X101807923Y-99771352D01*
X101760304Y-99818971D01*
X101712685Y-99914209D01*
X102042933Y-95465980D02*
X101709600Y-94989790D01*
X101471504Y-95465980D02*
X101471504Y-94465980D01*
X101852457Y-94465980D01*
X101947695Y-94513600D01*
X101995314Y-94561219D01*
X102042933Y-94656457D01*
X102042933Y-94799314D01*
X101995314Y-94894552D01*
X101947695Y-94942171D01*
X101852457Y-94989790D01*
X101471504Y-94989790D01*
X102947695Y-94465980D02*
X102471504Y-94465980D01*
X102423885Y-94942171D01*
X102471504Y-94894552D01*
X102566742Y-94846933D01*
X102804838Y-94846933D01*
X102900076Y-94894552D01*
X102947695Y-94942171D01*
X102995314Y-95037409D01*
X102995314Y-95275504D01*
X102947695Y-95370742D01*
X102900076Y-95418361D01*
X102804838Y-95465980D01*
X102566742Y-95465980D01*
X102471504Y-95418361D01*
X102423885Y-95370742D01*
X103058933Y-90995580D02*
X102725600Y-90519390D01*
X102487504Y-90995580D02*
X102487504Y-89995580D01*
X102868457Y-89995580D01*
X102963695Y-90043200D01*
X103011314Y-90090819D01*
X103058933Y-90186057D01*
X103058933Y-90328914D01*
X103011314Y-90424152D01*
X102963695Y-90471771D01*
X102868457Y-90519390D01*
X102487504Y-90519390D01*
X103916076Y-90328914D02*
X103916076Y-90995580D01*
X103677980Y-89947961D02*
X103439885Y-90662247D01*
X104058933Y-90662247D01*
X103109733Y-86372780D02*
X102776400Y-85896590D01*
X102538304Y-86372780D02*
X102538304Y-85372780D01*
X102919257Y-85372780D01*
X103014495Y-85420400D01*
X103062114Y-85468019D01*
X103109733Y-85563257D01*
X103109733Y-85706114D01*
X103062114Y-85801352D01*
X103014495Y-85848971D01*
X102919257Y-85896590D01*
X102538304Y-85896590D01*
X103443066Y-85372780D02*
X104062114Y-85372780D01*
X103728780Y-85753733D01*
X103871638Y-85753733D01*
X103966876Y-85801352D01*
X104014495Y-85848971D01*
X104062114Y-85944209D01*
X104062114Y-86182304D01*
X104014495Y-86277542D01*
X103966876Y-86325161D01*
X103871638Y-86372780D01*
X103585923Y-86372780D01*
X103490685Y-86325161D01*
X103443066Y-86277542D01*
X103312933Y-81884780D02*
X102979600Y-81408590D01*
X102741504Y-81884780D02*
X102741504Y-80884780D01*
X103122457Y-80884780D01*
X103217695Y-80932400D01*
X103265314Y-80980019D01*
X103312933Y-81075257D01*
X103312933Y-81218114D01*
X103265314Y-81313352D01*
X103217695Y-81360971D01*
X103122457Y-81408590D01*
X102741504Y-81408590D01*
X103693885Y-80980019D02*
X103741504Y-80932400D01*
X103836742Y-80884780D01*
X104074838Y-80884780D01*
X104170076Y-80932400D01*
X104217695Y-80980019D01*
X104265314Y-81075257D01*
X104265314Y-81170495D01*
X104217695Y-81313352D01*
X103646266Y-81884780D01*
X104265314Y-81884780D01*
X114641333Y-93365580D02*
X114308000Y-92889390D01*
X114069904Y-93365580D02*
X114069904Y-92365580D01*
X114450857Y-92365580D01*
X114546095Y-92413200D01*
X114593714Y-92460819D01*
X114641333Y-92556057D01*
X114641333Y-92698914D01*
X114593714Y-92794152D01*
X114546095Y-92841771D01*
X114450857Y-92889390D01*
X114069904Y-92889390D01*
X115593714Y-93365580D02*
X115022285Y-93365580D01*
X115308000Y-93365580D02*
X115308000Y-92365580D01*
X115212761Y-92508438D01*
X115117523Y-92603676D01*
X115022285Y-92651295D01*
X109550380Y-78381123D02*
X110264666Y-78381123D01*
X110407523Y-78428742D01*
X110502761Y-78523980D01*
X110550380Y-78666838D01*
X110550380Y-78762076D01*
X109645619Y-77952552D02*
X109598000Y-77904933D01*
X109550380Y-77809695D01*
X109550380Y-77571600D01*
X109598000Y-77476361D01*
X109645619Y-77428742D01*
X109740857Y-77381123D01*
X109836095Y-77381123D01*
X109978952Y-77428742D01*
X110550380Y-78000171D01*
X110550380Y-77381123D01*
X109550380Y-76762076D02*
X109550380Y-76666838D01*
X109598000Y-76571600D01*
X109645619Y-76523980D01*
X109740857Y-76476361D01*
X109931333Y-76428742D01*
X110169428Y-76428742D01*
X110359904Y-76476361D01*
X110455142Y-76523980D01*
X110502761Y-76571600D01*
X110550380Y-76666838D01*
X110550380Y-76762076D01*
X110502761Y-76857314D01*
X110455142Y-76904933D01*
X110359904Y-76952552D01*
X110169428Y-77000171D01*
X109931333Y-77000171D01*
X109740857Y-76952552D01*
X109645619Y-76904933D01*
X109598000Y-76857314D01*
X109550380Y-76762076D01*
X109804380Y-89150723D02*
X110518666Y-89150723D01*
X110661523Y-89198342D01*
X110756761Y-89293580D01*
X110804380Y-89436438D01*
X110804380Y-89531676D01*
X110804380Y-88150723D02*
X110804380Y-88722152D01*
X110804380Y-88436438D02*
X109804380Y-88436438D01*
X109947238Y-88531676D01*
X110042476Y-88626914D01*
X110090095Y-88722152D01*
X110804380Y-87674533D02*
X110804380Y-87484057D01*
X110756761Y-87388819D01*
X110709142Y-87341200D01*
X110566285Y-87245961D01*
X110375809Y-87198342D01*
X109994857Y-87198342D01*
X109899619Y-87245961D01*
X109852000Y-87293580D01*
X109804380Y-87388819D01*
X109804380Y-87579295D01*
X109852000Y-87674533D01*
X109899619Y-87722152D01*
X109994857Y-87769771D01*
X110232952Y-87769771D01*
X110328190Y-87722152D01*
X110375809Y-87674533D01*
X110423428Y-87579295D01*
X110423428Y-87388819D01*
X110375809Y-87293580D01*
X110328190Y-87245961D01*
X110232952Y-87198342D01*
X90935276Y-53771980D02*
X90935276Y-54486266D01*
X90887657Y-54629123D01*
X90792419Y-54724361D01*
X90649561Y-54771980D01*
X90554323Y-54771980D01*
X91935276Y-54771980D02*
X91363847Y-54771980D01*
X91649561Y-54771980D02*
X91649561Y-53771980D01*
X91554323Y-53914838D01*
X91459085Y-54010076D01*
X91363847Y-54057695D01*
X92506704Y-54200552D02*
X92411466Y-54152933D01*
X92363847Y-54105314D01*
X92316228Y-54010076D01*
X92316228Y-53962457D01*
X92363847Y-53867219D01*
X92411466Y-53819600D01*
X92506704Y-53771980D01*
X92697180Y-53771980D01*
X92792419Y-53819600D01*
X92840038Y-53867219D01*
X92887657Y-53962457D01*
X92887657Y-54010076D01*
X92840038Y-54105314D01*
X92792419Y-54152933D01*
X92697180Y-54200552D01*
X92506704Y-54200552D01*
X92411466Y-54248171D01*
X92363847Y-54295790D01*
X92316228Y-54391028D01*
X92316228Y-54581504D01*
X92363847Y-54676742D01*
X92411466Y-54724361D01*
X92506704Y-54771980D01*
X92697180Y-54771980D01*
X92792419Y-54724361D01*
X92840038Y-54676742D01*
X92887657Y-54581504D01*
X92887657Y-54391028D01*
X92840038Y-54295790D01*
X92792419Y-54248171D01*
X92697180Y-54200552D01*
X80216476Y-53517980D02*
X80216476Y-54232266D01*
X80168857Y-54375123D01*
X80073619Y-54470361D01*
X79930761Y-54517980D01*
X79835523Y-54517980D01*
X81216476Y-54517980D02*
X80645047Y-54517980D01*
X80930761Y-54517980D02*
X80930761Y-53517980D01*
X80835523Y-53660838D01*
X80740285Y-53756076D01*
X80645047Y-53803695D01*
X81549809Y-53517980D02*
X82216476Y-53517980D01*
X81787904Y-54517980D01*
X69345276Y-53517980D02*
X69345276Y-54232266D01*
X69297657Y-54375123D01*
X69202419Y-54470361D01*
X69059561Y-54517980D01*
X68964323Y-54517980D01*
X70345276Y-54517980D02*
X69773847Y-54517980D01*
X70059561Y-54517980D02*
X70059561Y-53517980D01*
X69964323Y-53660838D01*
X69869085Y-53756076D01*
X69773847Y-53803695D01*
X71202419Y-53517980D02*
X71011942Y-53517980D01*
X70916704Y-53565600D01*
X70869085Y-53613219D01*
X70773847Y-53756076D01*
X70726228Y-53946552D01*
X70726228Y-54327504D01*
X70773847Y-54422742D01*
X70821466Y-54470361D01*
X70916704Y-54517980D01*
X71107180Y-54517980D01*
X71202419Y-54470361D01*
X71250038Y-54422742D01*
X71297657Y-54327504D01*
X71297657Y-54089409D01*
X71250038Y-53994171D01*
X71202419Y-53946552D01*
X71107180Y-53898933D01*
X70916704Y-53898933D01*
X70821466Y-53946552D01*
X70773847Y-53994171D01*
X70726228Y-54089409D01*
X90427276Y-43611980D02*
X90427276Y-44326266D01*
X90379657Y-44469123D01*
X90284419Y-44564361D01*
X90141561Y-44611980D01*
X90046323Y-44611980D01*
X91427276Y-44611980D02*
X90855847Y-44611980D01*
X91141561Y-44611980D02*
X91141561Y-43611980D01*
X91046323Y-43754838D01*
X90951085Y-43850076D01*
X90855847Y-43897695D01*
X92332038Y-43611980D02*
X91855847Y-43611980D01*
X91808228Y-44088171D01*
X91855847Y-44040552D01*
X91951085Y-43992933D01*
X92189180Y-43992933D01*
X92284419Y-44040552D01*
X92332038Y-44088171D01*
X92379657Y-44183409D01*
X92379657Y-44421504D01*
X92332038Y-44516742D01*
X92284419Y-44564361D01*
X92189180Y-44611980D01*
X91951085Y-44611980D01*
X91855847Y-44564361D01*
X91808228Y-44516742D01*
X79657676Y-43408780D02*
X79657676Y-44123066D01*
X79610057Y-44265923D01*
X79514819Y-44361161D01*
X79371961Y-44408780D01*
X79276723Y-44408780D01*
X80657676Y-44408780D02*
X80086247Y-44408780D01*
X80371961Y-44408780D02*
X80371961Y-43408780D01*
X80276723Y-43551638D01*
X80181485Y-43646876D01*
X80086247Y-43694495D01*
X81514819Y-43742114D02*
X81514819Y-44408780D01*
X81276723Y-43361161D02*
X81038628Y-44075447D01*
X81657676Y-44075447D01*
X69243676Y-43408780D02*
X69243676Y-44123066D01*
X69196057Y-44265923D01*
X69100819Y-44361161D01*
X68957961Y-44408780D01*
X68862723Y-44408780D01*
X70243676Y-44408780D02*
X69672247Y-44408780D01*
X69957961Y-44408780D02*
X69957961Y-43408780D01*
X69862723Y-43551638D01*
X69767485Y-43646876D01*
X69672247Y-43694495D01*
X70577009Y-43408780D02*
X71196057Y-43408780D01*
X70862723Y-43789733D01*
X71005580Y-43789733D01*
X71100819Y-43837352D01*
X71148438Y-43884971D01*
X71196057Y-43980209D01*
X71196057Y-44218304D01*
X71148438Y-44313542D01*
X71100819Y-44361161D01*
X71005580Y-44408780D01*
X70719866Y-44408780D01*
X70624628Y-44361161D01*
X70577009Y-44313542D01*
X101298476Y-120523180D02*
X101298476Y-121237466D01*
X101250857Y-121380323D01*
X101155619Y-121475561D01*
X101012761Y-121523180D01*
X100917523Y-121523180D01*
X102298476Y-121523180D02*
X101727047Y-121523180D01*
X102012761Y-121523180D02*
X102012761Y-120523180D01*
X101917523Y-120666038D01*
X101822285Y-120761276D01*
X101727047Y-120808895D01*
X102679428Y-120618419D02*
X102727047Y-120570800D01*
X102822285Y-120523180D01*
X103060380Y-120523180D01*
X103155619Y-120570800D01*
X103203238Y-120618419D01*
X103250857Y-120713657D01*
X103250857Y-120808895D01*
X103203238Y-120951752D01*
X102631809Y-121523180D01*
X103250857Y-121523180D01*
X90884476Y-120523180D02*
X90884476Y-121237466D01*
X90836857Y-121380323D01*
X90741619Y-121475561D01*
X90598761Y-121523180D01*
X90503523Y-121523180D01*
X91884476Y-121523180D02*
X91313047Y-121523180D01*
X91598761Y-121523180D02*
X91598761Y-120523180D01*
X91503523Y-120666038D01*
X91408285Y-120761276D01*
X91313047Y-120808895D01*
X92836857Y-121523180D02*
X92265428Y-121523180D01*
X92551142Y-121523180D02*
X92551142Y-120523180D01*
X92455904Y-120666038D01*
X92360666Y-120761276D01*
X92265428Y-120808895D01*
X80419676Y-120523180D02*
X80419676Y-121237466D01*
X80372057Y-121380323D01*
X80276819Y-121475561D01*
X80133961Y-121523180D01*
X80038723Y-121523180D01*
X81419676Y-121523180D02*
X80848247Y-121523180D01*
X81133961Y-121523180D02*
X81133961Y-120523180D01*
X81038723Y-120666038D01*
X80943485Y-120761276D01*
X80848247Y-120808895D01*
X82038723Y-120523180D02*
X82133961Y-120523180D01*
X82229200Y-120570800D01*
X82276819Y-120618419D01*
X82324438Y-120713657D01*
X82372057Y-120904133D01*
X82372057Y-121142228D01*
X82324438Y-121332704D01*
X82276819Y-121427942D01*
X82229200Y-121475561D01*
X82133961Y-121523180D01*
X82038723Y-121523180D01*
X81943485Y-121475561D01*
X81895866Y-121427942D01*
X81848247Y-121332704D01*
X81800628Y-121142228D01*
X81800628Y-120904133D01*
X81848247Y-120713657D01*
X81895866Y-120618419D01*
X81943485Y-120570800D01*
X82038723Y-120523180D01*
X69618266Y-119253180D02*
X69618266Y-119967466D01*
X69570647Y-120110323D01*
X69475409Y-120205561D01*
X69332552Y-120253180D01*
X69237314Y-120253180D01*
X70142076Y-120253180D02*
X70332552Y-120253180D01*
X70427790Y-120205561D01*
X70475409Y-120157942D01*
X70570647Y-120015085D01*
X70618266Y-119824609D01*
X70618266Y-119443657D01*
X70570647Y-119348419D01*
X70523028Y-119300800D01*
X70427790Y-119253180D01*
X70237314Y-119253180D01*
X70142076Y-119300800D01*
X70094457Y-119348419D01*
X70046838Y-119443657D01*
X70046838Y-119681752D01*
X70094457Y-119776990D01*
X70142076Y-119824609D01*
X70237314Y-119872228D01*
X70427790Y-119872228D01*
X70523028Y-119824609D01*
X70570647Y-119776990D01*
X70618266Y-119681752D01*
X80895866Y-112090380D02*
X80895866Y-112804666D01*
X80848247Y-112947523D01*
X80753009Y-113042761D01*
X80610152Y-113090380D01*
X80514914Y-113090380D01*
X81514914Y-112518952D02*
X81419676Y-112471333D01*
X81372057Y-112423714D01*
X81324438Y-112328476D01*
X81324438Y-112280857D01*
X81372057Y-112185619D01*
X81419676Y-112138000D01*
X81514914Y-112090380D01*
X81705390Y-112090380D01*
X81800628Y-112138000D01*
X81848247Y-112185619D01*
X81895866Y-112280857D01*
X81895866Y-112328476D01*
X81848247Y-112423714D01*
X81800628Y-112471333D01*
X81705390Y-112518952D01*
X81514914Y-112518952D01*
X81419676Y-112566571D01*
X81372057Y-112614190D01*
X81324438Y-112709428D01*
X81324438Y-112899904D01*
X81372057Y-112995142D01*
X81419676Y-113042761D01*
X81514914Y-113090380D01*
X81705390Y-113090380D01*
X81800628Y-113042761D01*
X81848247Y-112995142D01*
X81895866Y-112899904D01*
X81895866Y-112709428D01*
X81848247Y-112614190D01*
X81800628Y-112566571D01*
X81705390Y-112518952D01*
X91411466Y-112090380D02*
X91411466Y-112804666D01*
X91363847Y-112947523D01*
X91268609Y-113042761D01*
X91125752Y-113090380D01*
X91030514Y-113090380D01*
X91792419Y-112090380D02*
X92459085Y-112090380D01*
X92030514Y-113090380D01*
X101723866Y-112090380D02*
X101723866Y-112804666D01*
X101676247Y-112947523D01*
X101581009Y-113042761D01*
X101438152Y-113090380D01*
X101342914Y-113090380D01*
X102628628Y-112090380D02*
X102438152Y-112090380D01*
X102342914Y-112138000D01*
X102295295Y-112185619D01*
X102200057Y-112328476D01*
X102152438Y-112518952D01*
X102152438Y-112899904D01*
X102200057Y-112995142D01*
X102247676Y-113042761D01*
X102342914Y-113090380D01*
X102533390Y-113090380D01*
X102628628Y-113042761D01*
X102676247Y-112995142D01*
X102723866Y-112899904D01*
X102723866Y-112661809D01*
X102676247Y-112566571D01*
X102628628Y-112518952D01*
X102533390Y-112471333D01*
X102342914Y-112471333D01*
X102247676Y-112518952D01*
X102200057Y-112566571D01*
X102152438Y-112661809D01*
X111985466Y-117729180D02*
X111985466Y-118443466D01*
X111937847Y-118586323D01*
X111842609Y-118681561D01*
X111699752Y-118729180D01*
X111604514Y-118729180D01*
X112937847Y-117729180D02*
X112461657Y-117729180D01*
X112414038Y-118205371D01*
X112461657Y-118157752D01*
X112556895Y-118110133D01*
X112794990Y-118110133D01*
X112890228Y-118157752D01*
X112937847Y-118205371D01*
X112985466Y-118300609D01*
X112985466Y-118538704D01*
X112937847Y-118633942D01*
X112890228Y-118681561D01*
X112794990Y-118729180D01*
X112556895Y-118729180D01*
X112461657Y-118681561D01*
X112414038Y-118633942D01*
X58696266Y-53670380D02*
X58696266Y-54384666D01*
X58648647Y-54527523D01*
X58553409Y-54622761D01*
X58410552Y-54670380D01*
X58315314Y-54670380D01*
X59601028Y-54003714D02*
X59601028Y-54670380D01*
X59362933Y-53622761D02*
X59124838Y-54337047D01*
X59743885Y-54337047D01*
X66468666Y-71450380D02*
X66468666Y-72164666D01*
X66421047Y-72307523D01*
X66325809Y-72402761D01*
X66182952Y-72450380D01*
X66087714Y-72450380D01*
X66849619Y-71450380D02*
X67468666Y-71450380D01*
X67135333Y-71831333D01*
X67278190Y-71831333D01*
X67373428Y-71878952D01*
X67421047Y-71926571D01*
X67468666Y-72021809D01*
X67468666Y-72259904D01*
X67421047Y-72355142D01*
X67373428Y-72402761D01*
X67278190Y-72450380D01*
X66992476Y-72450380D01*
X66897238Y-72402761D01*
X66849619Y-72355142D01*
X66367066Y-80695980D02*
X66367066Y-81410266D01*
X66319447Y-81553123D01*
X66224209Y-81648361D01*
X66081352Y-81695980D01*
X65986114Y-81695980D01*
X66795638Y-80791219D02*
X66843257Y-80743600D01*
X66938495Y-80695980D01*
X67176590Y-80695980D01*
X67271828Y-80743600D01*
X67319447Y-80791219D01*
X67367066Y-80886457D01*
X67367066Y-80981695D01*
X67319447Y-81124552D01*
X66748019Y-81695980D01*
X67367066Y-81695980D01*
X67687866Y-69538780D02*
X67687866Y-70253066D01*
X67640247Y-70395923D01*
X67545009Y-70491161D01*
X67402152Y-70538780D01*
X67306914Y-70538780D01*
X68687866Y-70538780D02*
X68116438Y-70538780D01*
X68402152Y-70538780D02*
X68402152Y-69538780D01*
X68306914Y-69681638D01*
X68211676Y-69776876D01*
X68116438Y-69824495D01*
X82750114Y-64733466D02*
X83226304Y-64733466D01*
X82654876Y-65019180D02*
X82988209Y-64019180D01*
X83321542Y-65019180D01*
X84178685Y-65019180D02*
X83607257Y-65019180D01*
X83892971Y-65019180D02*
X83892971Y-64019180D01*
X83797733Y-64162038D01*
X83702495Y-64257276D01*
X83607257Y-64304895D01*
M02*
