G04 #@! TF.GenerationSoftware,KiCad,Pcbnew,5.1.1-8be2ce7~80~ubuntu18.04.1*
G04 #@! TF.CreationDate,2019-04-21T05:50:51-07:00*
G04 #@! TF.ProjectId,raskrsnica,7261736b-7273-46e6-9963-612e6b696361,rev?*
G04 #@! TF.SameCoordinates,Original*
G04 #@! TF.FileFunction,Copper,L2,Bot*
G04 #@! TF.FilePolarity,Positive*
%FSLAX46Y46*%
G04 Gerber Fmt 4.6, Leading zero omitted, Abs format (unit mm)*
G04 Created by KiCad (PCBNEW 5.1.1-8be2ce7~80~ubuntu18.04.1) date 2019-04-21 05:50:51*
%MOMM*%
%LPD*%
G04 APERTURE LIST*
%ADD10C,0.254000*%
%ADD11O,1.600000X1.600000*%
%ADD12R,1.600000X1.600000*%
%ADD13C,1.600000*%
%ADD14C,3.000000*%
%ADD15C,0.800000*%
%ADD16C,0.250000*%
%ADD17C,0.500000*%
G04 APERTURE END LIST*
D10*
X52000000Y-130000000D02*
X124000000Y-130000000D01*
X52000000Y-43000000D02*
X52000000Y-130000000D01*
X124000000Y-43000000D02*
X52000000Y-43000000D01*
X124000000Y-43000000D02*
X124000000Y-130000000D01*
D11*
X119176800Y-52984400D03*
X111556800Y-70764400D03*
X119176800Y-55524400D03*
X111556800Y-68224400D03*
X119176800Y-58064400D03*
X111556800Y-65684400D03*
X119176800Y-60604400D03*
X111556800Y-63144400D03*
X119176800Y-63144400D03*
X111556800Y-60604400D03*
X119176800Y-65684400D03*
X111556800Y-58064400D03*
X119176800Y-68224400D03*
X111556800Y-55524400D03*
X119176800Y-70764400D03*
D12*
X111556800Y-52984400D03*
D11*
X117805200Y-98653600D03*
X110185200Y-116433600D03*
X117805200Y-101193600D03*
X110185200Y-113893600D03*
X117805200Y-103733600D03*
X110185200Y-111353600D03*
X117805200Y-106273600D03*
X110185200Y-108813600D03*
X117805200Y-108813600D03*
X110185200Y-106273600D03*
X117805200Y-111353600D03*
X110185200Y-103733600D03*
X117805200Y-113893600D03*
X110185200Y-101193600D03*
X117805200Y-116433600D03*
D12*
X110185200Y-98653600D03*
D11*
X70764400Y-94488000D03*
D13*
X63144400Y-94488000D03*
D11*
X71120000Y-100634800D03*
D13*
X63500000Y-100634800D03*
D11*
X107391200Y-78689200D03*
D13*
X99771200Y-78689200D03*
D11*
X107594400Y-73761600D03*
D13*
X99974400Y-73761600D03*
D11*
X107696000Y-69189600D03*
D13*
X100076000Y-69189600D03*
D11*
X107696000Y-64871600D03*
D13*
X100076000Y-64871600D03*
D11*
X107797600Y-60350400D03*
D13*
X100177600Y-60350400D03*
D11*
X107696000Y-55676800D03*
D13*
X100076000Y-55676800D03*
D11*
X107645200Y-51308000D03*
D13*
X100025200Y-51308000D03*
D11*
X107696000Y-46634400D03*
D13*
X100076000Y-46634400D03*
D11*
X105511600Y-111252000D03*
D13*
X97891600Y-111252000D03*
D11*
X103682800Y-106781600D03*
D13*
X96062800Y-106781600D03*
D11*
X105308400Y-102260400D03*
D13*
X97688400Y-102260400D03*
D11*
X106019600Y-97383600D03*
D13*
X98399600Y-97383600D03*
D11*
X107035600Y-92913200D03*
D13*
X99415600Y-92913200D03*
D11*
X107086400Y-88290400D03*
D13*
X99466400Y-88290400D03*
D11*
X107035600Y-83616800D03*
D13*
X99415600Y-83616800D03*
D11*
X118567200Y-95097600D03*
D13*
X110947200Y-95097600D03*
D14*
X114808000Y-77571600D03*
X115062000Y-88341200D03*
X91744800Y-59029600D03*
X81026000Y-58775600D03*
X70154800Y-58775600D03*
X91236800Y-48869600D03*
X80467200Y-48666400D03*
X70053200Y-48666400D03*
X102108000Y-125780800D03*
X91694000Y-125780800D03*
X81229200Y-125780800D03*
X69951600Y-124510800D03*
X81229200Y-117348000D03*
X91744800Y-117348000D03*
X102057200Y-117348000D03*
X112318800Y-122986800D03*
X59029600Y-58928000D03*
X66802000Y-76708000D03*
X66700400Y-85953600D03*
D11*
X64211200Y-67716400D03*
D13*
X71831200Y-67716400D03*
D11*
X91084400Y-105206800D03*
X75844400Y-105206800D03*
X91084400Y-69646800D03*
X75844400Y-102666800D03*
X91084400Y-72186800D03*
X75844400Y-100126800D03*
X91084400Y-74726800D03*
X75844400Y-97586800D03*
X91084400Y-77266800D03*
X75844400Y-95046800D03*
X91084400Y-79806800D03*
X75844400Y-92506800D03*
X91084400Y-82346800D03*
X75844400Y-89966800D03*
X91084400Y-84886800D03*
X75844400Y-87426800D03*
X91084400Y-87426800D03*
X75844400Y-84886800D03*
X91084400Y-89966800D03*
X75844400Y-82346800D03*
X91084400Y-92506800D03*
X75844400Y-79806800D03*
X91084400Y-95046800D03*
X75844400Y-77266800D03*
X91084400Y-97586800D03*
X75844400Y-74726800D03*
X91084400Y-100126800D03*
X75844400Y-72186800D03*
X91084400Y-102666800D03*
D12*
X75844400Y-69646800D03*
D15*
X94538800Y-69697600D03*
X94538800Y-64617600D03*
X114808000Y-106121200D03*
X116281200Y-68376800D03*
X121259600Y-122123200D03*
X94488000Y-74930000D03*
D16*
X117805200Y-108813600D02*
X122174000Y-104444800D01*
X119976799Y-63944399D02*
X119176800Y-63144400D01*
X122174000Y-104444800D02*
X122174000Y-66141600D01*
X122174000Y-66141600D02*
X119976799Y-63944399D01*
X114858800Y-118516400D02*
X114858800Y-111760000D01*
X116789200Y-120446800D02*
X114858800Y-118516400D01*
X116789200Y-125323600D02*
X116789200Y-120446800D01*
X113690400Y-128422400D02*
X116789200Y-125323600D01*
X68630800Y-128422400D02*
X113690400Y-128422400D01*
X66446400Y-126238000D02*
X68630800Y-128422400D01*
X75361800Y-110921800D02*
X69977000Y-110921800D01*
X91084400Y-105206800D02*
X79806800Y-105206800D01*
X69977000Y-110921800D02*
X66446400Y-114452400D01*
X75361800Y-109651800D02*
X75361800Y-110921800D01*
X114858800Y-111760000D02*
X117805200Y-108813600D01*
X79806800Y-105206800D02*
X75361800Y-109651800D01*
X66446400Y-114452400D02*
X66446400Y-126238000D01*
X122986800Y-106172000D02*
X118605199Y-110553601D01*
X118605199Y-110553601D02*
X117805200Y-111353600D01*
X117652800Y-64160400D02*
X117652800Y-62128400D01*
X119176800Y-65684400D02*
X117652800Y-64160400D01*
X117652800Y-62128400D02*
X117957600Y-61823600D01*
X117957600Y-61823600D02*
X120497600Y-61823600D01*
X120497600Y-61823600D02*
X122986800Y-64312800D01*
X122986800Y-64312800D02*
X122986800Y-106172000D01*
X117005201Y-112153599D02*
X117805200Y-111353600D01*
X116686631Y-112153599D02*
X117005201Y-112153599D01*
X115976400Y-118211600D02*
X115976400Y-112863830D01*
X118211600Y-125120400D02*
X118211600Y-120345200D01*
X114096800Y-129235200D02*
X118211600Y-125120400D01*
X75844400Y-105206800D02*
X74713030Y-105206800D01*
X72528630Y-107391200D02*
X68326000Y-107391200D01*
X116078000Y-118211600D02*
X115976400Y-118211600D01*
X74713030Y-105206800D02*
X72528630Y-107391200D01*
X115976400Y-112863830D02*
X116686631Y-112153599D01*
X68326000Y-107391200D02*
X64668400Y-111048800D01*
X65786000Y-129235200D02*
X114096800Y-129235200D01*
X64668400Y-111048800D02*
X64668400Y-128117600D01*
X118211600Y-120345200D02*
X116078000Y-118211600D01*
X64668400Y-128117600D02*
X65786000Y-129235200D01*
D17*
X72962570Y-67716400D02*
X73724570Y-66954400D01*
X71831200Y-67716400D02*
X72962570Y-67716400D01*
X88392000Y-66954400D02*
X91084400Y-69646800D01*
X73724570Y-66954400D02*
X88392000Y-66954400D01*
D16*
X94488000Y-69646800D02*
X94538800Y-69697600D01*
X91084400Y-69646800D02*
X91084400Y-66598800D01*
X91084400Y-66598800D02*
X93065600Y-64617600D01*
X93522800Y-64617600D02*
X93726000Y-64617600D01*
X93522800Y-64617600D02*
X94538800Y-64617600D01*
X93065600Y-64617600D02*
X93522800Y-64617600D01*
X111607600Y-51409600D02*
X113131600Y-51409600D01*
X106222800Y-48920400D02*
X109118400Y-48920400D01*
X109118400Y-48920400D02*
X111607600Y-51409600D01*
X94284800Y-79095600D02*
X94284800Y-78486000D01*
X78130400Y-100380800D02*
X78130400Y-82042000D01*
X104140000Y-71729600D02*
X104851200Y-71018400D01*
X79095600Y-81076800D02*
X92303600Y-81076800D01*
X116141601Y-57264401D02*
X118376801Y-57264401D01*
X75844400Y-102666800D02*
X78130400Y-100380800D01*
X78130400Y-82042000D02*
X79095600Y-81076800D01*
X114655600Y-52933600D02*
X114655600Y-55778400D01*
X92303600Y-81076800D02*
X94284800Y-79095600D01*
X114655600Y-55778400D02*
X116141601Y-57264401D01*
X104851200Y-71018400D02*
X104851200Y-50292000D01*
X94284800Y-78486000D02*
X94843600Y-78486000D01*
X94843600Y-78486000D02*
X97637600Y-75692000D01*
X97637600Y-75692000D02*
X97637600Y-74091000D01*
X99263200Y-72465400D02*
X99391000Y-72465400D01*
X97637600Y-74091000D02*
X99263200Y-72465400D01*
X118376801Y-57264401D02*
X119176800Y-58064400D01*
X113131600Y-51409600D02*
X114655600Y-52933600D01*
X99391000Y-72465400D02*
X100126800Y-71729600D01*
X100126800Y-71729600D02*
X104140000Y-71729600D01*
X104851200Y-50292000D02*
X106222800Y-48920400D01*
D17*
X116179600Y-60604400D02*
X114554000Y-62230000D01*
X119176800Y-60604400D02*
X116179600Y-60604400D01*
X114554000Y-67767200D02*
X111556800Y-70764400D01*
X114554000Y-62230000D02*
X114554000Y-67767200D01*
X59029600Y-62534800D02*
X59029600Y-58928000D01*
X64211200Y-67716400D02*
X59029600Y-62534800D01*
X75044401Y-76466801D02*
X72758401Y-76466801D01*
X75844400Y-77266800D02*
X75044401Y-76466801D01*
X72758401Y-76466801D02*
X68224400Y-71932800D01*
X68224400Y-71932800D02*
X65227200Y-71932800D01*
X64211200Y-70916800D02*
X64211200Y-67716400D01*
X65227200Y-71932800D02*
X64211200Y-70916800D01*
D16*
X117005201Y-107073599D02*
X117805200Y-106273600D01*
X111709200Y-116433600D02*
X113207800Y-114935000D01*
X113207800Y-114935000D02*
X113207800Y-112801400D01*
X113207800Y-112801400D02*
X114408790Y-111600410D01*
X110185200Y-116433600D02*
X111709200Y-116433600D01*
X114408790Y-109670010D02*
X117005201Y-107073599D01*
X114408790Y-111600410D02*
X114408790Y-109670010D01*
X114960400Y-106273600D02*
X114808000Y-106121200D01*
X117805200Y-106273600D02*
X114960400Y-106273600D01*
X59029600Y-49580800D02*
X59029600Y-58928000D01*
X64008000Y-44602400D02*
X59029600Y-49580800D01*
X73355200Y-44602400D02*
X64008000Y-44602400D01*
X120308170Y-60604400D02*
X120904000Y-60008570D01*
X120904000Y-60008570D02*
X120904000Y-49225200D01*
X120904000Y-49225200D02*
X115519200Y-43840400D01*
X74117200Y-43840400D02*
X73355200Y-44602400D01*
X119176800Y-60604400D02*
X120308170Y-60604400D01*
X115519200Y-43840400D02*
X74117200Y-43840400D01*
X86911399Y-86011801D02*
X86758999Y-86011801D01*
X77114400Y-103987600D02*
X74777600Y-103987600D01*
X74777600Y-103987600D02*
X73710800Y-102920800D01*
X73710800Y-102260400D02*
X73812400Y-102158800D01*
X73710800Y-102920800D02*
X73710800Y-102260400D01*
X73812400Y-102158800D02*
X75844400Y-100126800D01*
X88181399Y-86011801D02*
X86200199Y-86011801D01*
X88181399Y-86011801D02*
X86911399Y-86011801D01*
X85267800Y-86944200D02*
X85267800Y-95834200D01*
X86200199Y-86011801D02*
X85267800Y-86944200D01*
X85267800Y-95834200D02*
X77114400Y-103987600D01*
X92245399Y-86011801D02*
X88181399Y-86011801D01*
X117805200Y-103733600D02*
X112623600Y-98552000D01*
X96469200Y-81788000D02*
X92245399Y-86011801D01*
X108915200Y-81788000D02*
X96469200Y-81788000D01*
X112623600Y-85496400D02*
X108915200Y-81788000D01*
X112623600Y-98552000D02*
X112623600Y-85496400D01*
X71919999Y-99834801D02*
X71919999Y-98361601D01*
X71120000Y-100634800D02*
X71919999Y-99834801D01*
X72694800Y-97586800D02*
X75844400Y-97586800D01*
X71919999Y-98361601D02*
X72694800Y-97586800D01*
X91084400Y-77266800D02*
X92215770Y-77266800D01*
D17*
X121310400Y-70358000D02*
X119176800Y-68224400D01*
X120345200Y-74777600D02*
X121310400Y-73812400D01*
X121310400Y-73812400D02*
X121310400Y-70358000D01*
X117805200Y-98653600D02*
X120345200Y-96113600D01*
X120345200Y-96113600D02*
X120345200Y-74777600D01*
D16*
X118605199Y-114693599D02*
X120637199Y-114693599D01*
X117805200Y-113893600D02*
X118605199Y-114693599D01*
X121259600Y-115316000D02*
X121259600Y-122123200D01*
X120637199Y-114693599D02*
X121259600Y-115316000D01*
D17*
X92215770Y-77266800D02*
X92488285Y-76994285D01*
D16*
X92215770Y-77266800D02*
X92354400Y-77266800D01*
X94488000Y-76874170D02*
X94488000Y-74930000D01*
X94367885Y-76994285D02*
X94488000Y-76874170D01*
X94367885Y-76994285D02*
X95079085Y-76994285D01*
X92488285Y-76994285D02*
X94367885Y-76994285D01*
X98362570Y-71120000D02*
X97637600Y-71120000D01*
X97637600Y-71120000D02*
X96062800Y-72694800D01*
X96062800Y-76010570D02*
X95612485Y-76460885D01*
X96062800Y-72694800D02*
X96062800Y-76010570D01*
X95079085Y-76994285D02*
X95612485Y-76460885D01*
D17*
X119176800Y-49834800D02*
X119176800Y-52984400D01*
X113944400Y-44602400D02*
X119176800Y-49834800D01*
X98362570Y-71120000D02*
X98667370Y-70815200D01*
X102362000Y-70815200D02*
X103530400Y-69646800D01*
X106273600Y-44602400D02*
X113944400Y-44602400D01*
X98667370Y-70815200D02*
X102362000Y-70815200D01*
X103530400Y-47345600D02*
X106273600Y-44602400D01*
X103530400Y-69646800D02*
X103530400Y-47345600D01*
D16*
X75285600Y-94488000D02*
X75844400Y-95046800D01*
X70764400Y-94488000D02*
X75285600Y-94488000D01*
X63500000Y-100634800D02*
X66700400Y-97434400D01*
X66700400Y-97434400D02*
X66700400Y-85953600D01*
X63144400Y-80365600D02*
X66802000Y-76708000D01*
X63144400Y-94488000D02*
X63144400Y-80365600D01*
X110947200Y-96228970D02*
X110947200Y-95097600D01*
X111455200Y-96736970D02*
X110947200Y-96228970D01*
X108000800Y-118668800D02*
X108000800Y-115824000D01*
X112318800Y-122986800D02*
X108000800Y-118668800D01*
X108000800Y-115824000D02*
X108661200Y-115163600D01*
X111760000Y-115163600D02*
X112420400Y-114503200D01*
X111455200Y-98602800D02*
X111455200Y-96736970D01*
X108661200Y-115163600D02*
X111760000Y-115163600D01*
X112420400Y-99568000D02*
X111455200Y-98602800D01*
X112420400Y-114503200D02*
X112420400Y-99568000D01*
X102158800Y-113487200D02*
X102616000Y-113030000D01*
X102616000Y-113030000D02*
X102616000Y-108356400D01*
X102616000Y-108356400D02*
X101244400Y-106984800D01*
X101244400Y-106984800D02*
X101244400Y-103428800D01*
X101244400Y-103428800D02*
X103327200Y-101346000D01*
X103327200Y-101346000D02*
X103327200Y-92456000D01*
X103327200Y-92456000D02*
X105308400Y-90474800D01*
X105308400Y-90474800D02*
X105308400Y-85394800D01*
X103530400Y-83616800D02*
X99415600Y-83616800D01*
X105308400Y-85394800D02*
X103530400Y-83616800D01*
X102158800Y-115125080D02*
X102158800Y-113487200D01*
X102057200Y-115226680D02*
X102158800Y-115125080D01*
X102057200Y-117348000D02*
X102057200Y-115226680D01*
X93866120Y-117348000D02*
X91744800Y-117348000D01*
X95034520Y-116179600D02*
X93866120Y-117348000D01*
X98094800Y-116179600D02*
X95034520Y-116179600D01*
X100787200Y-113487200D02*
X98094800Y-116179600D01*
X100787200Y-107950000D02*
X100787200Y-113487200D01*
X99466400Y-88290400D02*
X101142800Y-88290400D01*
X100540601Y-101084599D02*
X100540601Y-107703401D01*
X102260400Y-99364800D02*
X100540601Y-101084599D01*
X101142800Y-88290400D02*
X102260400Y-89408000D01*
X102260400Y-89408000D02*
X102260400Y-99364800D01*
X100540601Y-107703401D02*
X100787200Y-107950000D01*
X81229200Y-117348000D02*
X88036400Y-117348000D01*
X88036400Y-117348000D02*
X91389200Y-113995200D01*
X91389200Y-113995200D02*
X98298000Y-113995200D01*
X98298000Y-113995200D02*
X99923600Y-112369600D01*
X99923600Y-112369600D02*
X99923600Y-106273600D01*
X99923600Y-106273600D02*
X99568000Y-105918000D01*
X99568000Y-105918000D02*
X99568000Y-99872800D01*
X99568000Y-99872800D02*
X101295200Y-98145600D01*
X101295200Y-98145600D02*
X101295200Y-93370400D01*
X100838000Y-92913200D02*
X99415600Y-92913200D01*
X101295200Y-93370400D02*
X100838000Y-92913200D01*
X93878400Y-105460800D02*
X93878400Y-99009200D01*
X95504000Y-97383600D02*
X98399600Y-97383600D01*
X91389200Y-107950000D02*
X93878400Y-105460800D01*
X86258400Y-107950000D02*
X91389200Y-107950000D01*
X69951600Y-122389480D02*
X72948800Y-119392280D01*
X72948800Y-114960400D02*
X77724000Y-110185200D01*
X72948800Y-119392280D02*
X72948800Y-114960400D01*
X93878400Y-99009200D02*
X95504000Y-97383600D01*
X69951600Y-124510800D02*
X69951600Y-122389480D01*
X77724000Y-110185200D02*
X84023200Y-110185200D01*
X84023200Y-110185200D02*
X86258400Y-107950000D01*
X96164400Y-102260400D02*
X97688400Y-102260400D01*
X95250000Y-105054400D02*
X95250000Y-103174800D01*
X94411800Y-105892600D02*
X95250000Y-105054400D01*
X93319600Y-107899200D02*
X94411800Y-106807000D01*
X93319600Y-109728000D02*
X93319600Y-107899200D01*
X92151200Y-110896400D02*
X93319600Y-109728000D01*
X94411800Y-106807000D02*
X94411800Y-105892600D01*
X84937600Y-111709200D02*
X85750400Y-110896400D01*
X76935201Y-124077601D02*
X75641200Y-122783600D01*
X79475201Y-124077601D02*
X76935201Y-124077601D01*
X75641200Y-114147600D02*
X78079600Y-111709200D01*
X95250000Y-103174800D02*
X96164400Y-102260400D01*
X85750400Y-110896400D02*
X92151200Y-110896400D01*
X75641200Y-122783600D02*
X75641200Y-114147600D01*
X78079600Y-111709200D02*
X84937600Y-111709200D01*
X79806800Y-124358400D02*
X81229200Y-125780800D01*
X79756000Y-124358400D02*
X79806800Y-124358400D01*
X79756000Y-124358400D02*
X79475201Y-124077601D01*
X80975200Y-125577600D02*
X79756000Y-124358400D01*
X91490800Y-123253080D02*
X91186000Y-122948280D01*
X91186000Y-122948280D02*
X80073080Y-122948280D01*
X80073080Y-122948280D02*
X77419200Y-120294400D01*
X77419200Y-120294400D02*
X77419200Y-114960400D01*
X77419200Y-114960400D02*
X79197200Y-113182400D01*
X79197200Y-113182400D02*
X85445600Y-113182400D01*
X85445600Y-113182400D02*
X86461600Y-112166400D01*
X86461600Y-112166400D02*
X94284800Y-112166400D01*
X96062800Y-110388400D02*
X96062800Y-106781600D01*
X94284800Y-112166400D02*
X96062800Y-110388400D01*
X91490800Y-125577600D02*
X91694000Y-125780800D01*
X91490800Y-123850400D02*
X91490800Y-125577600D01*
X91490800Y-123850400D02*
X91490800Y-123253080D01*
X91490800Y-125374400D02*
X91490800Y-123850400D01*
X102108000Y-121920000D02*
X100431600Y-120243600D01*
X100431600Y-120243600D02*
X79146400Y-120243600D01*
X79146400Y-120243600D02*
X78486000Y-119583200D01*
X78486000Y-119583200D02*
X78486000Y-115671600D01*
X78486000Y-115671600D02*
X79756000Y-114401600D01*
X79756000Y-114401600D02*
X86614000Y-114401600D01*
X86614000Y-114401600D02*
X88036400Y-112979200D01*
X96164400Y-112979200D02*
X97891600Y-111252000D01*
X88036400Y-112979200D02*
X96164400Y-112979200D01*
X102108000Y-123444000D02*
X102108000Y-124256800D01*
X102108000Y-123444000D02*
X102108000Y-121920000D01*
X102108000Y-125374400D02*
X102108000Y-123444000D01*
X102108000Y-123444000D02*
X102108000Y-125780800D01*
X71553199Y-47166401D02*
X73331199Y-47166401D01*
X70053200Y-48666400D02*
X71553199Y-47166401D01*
X73331199Y-47166401D02*
X74980800Y-45516800D01*
X98958400Y-45516800D02*
X100076000Y-46634400D01*
X74980800Y-45516800D02*
X98958400Y-45516800D01*
X81967199Y-47166401D02*
X85624799Y-47166401D01*
X80467200Y-48666400D02*
X81967199Y-47166401D01*
X85624799Y-47166401D02*
X86309200Y-46482000D01*
X86309200Y-46482000D02*
X95859600Y-46482000D01*
X95859600Y-47142400D02*
X100025200Y-51308000D01*
X95859600Y-46482000D02*
X95859600Y-47142400D01*
X100076000Y-55587480D02*
X100076000Y-55676800D01*
X91236800Y-48869600D02*
X93358120Y-48869600D01*
X93358120Y-48869600D02*
X100076000Y-55587480D01*
X100177600Y-59219030D02*
X95822570Y-54864000D01*
X100177600Y-60350400D02*
X100177600Y-59219030D01*
X74066400Y-54864000D02*
X70154800Y-58775600D01*
X95822570Y-54864000D02*
X74066400Y-54864000D01*
X82525999Y-57275601D02*
X86437599Y-57275601D01*
X81026000Y-58775600D02*
X82525999Y-57275601D01*
X86437599Y-57275601D02*
X87274400Y-56438800D01*
X87274400Y-56438800D02*
X93624400Y-56438800D01*
X93624400Y-56438800D02*
X96723200Y-59537600D01*
X96723200Y-61518800D02*
X100076000Y-64871600D01*
X96723200Y-59537600D02*
X96723200Y-61518800D01*
X93244799Y-60529599D02*
X94260799Y-60529599D01*
X91744800Y-59029600D02*
X93244799Y-60529599D01*
X95859600Y-62128400D02*
X95859600Y-64973200D01*
X94260799Y-60529599D02*
X95859600Y-62128400D01*
X100076000Y-69189600D02*
X95859600Y-64973200D01*
X99974400Y-74892970D02*
X99161600Y-75705770D01*
X99974400Y-73761600D02*
X99974400Y-74892970D01*
X99161600Y-75705770D02*
X99046230Y-75705770D01*
X99046230Y-75705770D02*
X97485200Y-77266800D01*
X97485200Y-77266800D02*
X97485200Y-79806800D01*
X97485200Y-79806800D02*
X98653600Y-80975200D01*
X98653600Y-80975200D02*
X111150400Y-80975200D01*
X115062000Y-84886800D02*
X115062000Y-88341200D01*
X111150400Y-80975200D02*
X115062000Y-84886800D01*
X112115600Y-80264000D02*
X114808000Y-77571600D01*
X100214630Y-80264000D02*
X112115600Y-80264000D01*
X99771200Y-78689200D02*
X99771200Y-79820570D01*
X99771200Y-79820570D02*
X100214630Y-80264000D01*
X117435830Y-95097600D02*
X115519200Y-97014230D01*
X118567200Y-95097600D02*
X117435830Y-95097600D01*
X115519200Y-98907600D02*
X117805200Y-101193600D01*
X115519200Y-97014230D02*
X115519200Y-98907600D01*
X109372400Y-87934800D02*
X109372400Y-96790800D01*
X109372400Y-96790800D02*
X110185200Y-97603600D01*
X108211401Y-86773801D02*
X109372400Y-87934800D01*
X107035600Y-83616800D02*
X108211401Y-84792601D01*
X110185200Y-97603600D02*
X110185200Y-98653600D01*
X108211401Y-84792601D02*
X108211401Y-86773801D01*
X107886399Y-89090399D02*
X107886399Y-90360399D01*
X107086400Y-88290400D02*
X107886399Y-89090399D01*
X107886399Y-90360399D02*
X108661200Y-91135200D01*
X108661200Y-99669600D02*
X110185200Y-101193600D01*
X108661200Y-91135200D02*
X108661200Y-99669600D01*
X107035600Y-92913200D02*
X107035600Y-94691200D01*
X107035600Y-94691200D02*
X107746800Y-95402400D01*
X107746800Y-95402400D02*
X107746800Y-100228400D01*
X107746800Y-100228400D02*
X108661200Y-101142800D01*
X108661200Y-102209600D02*
X110185200Y-103733600D01*
X108661200Y-101142800D02*
X108661200Y-102209600D01*
X106019600Y-98514970D02*
X106666230Y-99161600D01*
X106019600Y-97383600D02*
X106019600Y-98514970D01*
X106666230Y-99161600D02*
X106666230Y-100417830D01*
X106666230Y-100417830D02*
X107543600Y-101295200D01*
X107543600Y-102757002D02*
X108254800Y-103468202D01*
X107543600Y-101295200D02*
X107543600Y-102757002D01*
X108254800Y-104343200D02*
X110185200Y-106273600D01*
X108254800Y-103468202D02*
X108254800Y-104343200D01*
X109385201Y-108013601D02*
X108775601Y-108013601D01*
X110185200Y-108813600D02*
X109385201Y-108013601D01*
X108775601Y-108013601D02*
X106680000Y-105918000D01*
X106680000Y-103632000D02*
X105308400Y-102260400D01*
X106680000Y-105918000D02*
X106680000Y-103632000D01*
X104814170Y-106781600D02*
X105423770Y-107391200D01*
X103682800Y-106781600D02*
X104814170Y-106781600D01*
X106222800Y-107391200D02*
X110185200Y-111353600D01*
X105423770Y-107391200D02*
X106222800Y-107391200D01*
X107543600Y-111252000D02*
X110185200Y-113893600D01*
X105511600Y-111252000D02*
X107543600Y-111252000D01*
X117551200Y-55524400D02*
X119176800Y-55524400D01*
X116179600Y-54152800D02*
X117551200Y-55524400D01*
X108407200Y-46634400D02*
X112471200Y-50698400D01*
X116179600Y-52527200D02*
X116179600Y-54152800D01*
X107696000Y-46634400D02*
X108407200Y-46634400D01*
X112471200Y-50698400D02*
X114757200Y-50698400D01*
X114757200Y-51104800D02*
X116179600Y-52527200D01*
X114757200Y-50698400D02*
X114757200Y-51104800D01*
X109321600Y-52984400D02*
X111556800Y-52984400D01*
X107645200Y-51308000D02*
X109321600Y-52984400D01*
X111404400Y-55676800D02*
X111556800Y-55524400D01*
X107696000Y-55676800D02*
X111404400Y-55676800D01*
X110439200Y-58064400D02*
X111556800Y-58064400D01*
X109474000Y-59029600D02*
X110439200Y-58064400D01*
X109118400Y-59029600D02*
X107797600Y-60350400D01*
X109474000Y-59029600D02*
X109118400Y-59029600D01*
X109067600Y-63093600D02*
X111556800Y-60604400D01*
X108102400Y-63093600D02*
X109067600Y-63093600D01*
X107696000Y-63500000D02*
X108102400Y-63093600D01*
X107696000Y-64871600D02*
X107696000Y-63500000D01*
X107696000Y-67005200D02*
X111556800Y-63144400D01*
X107696000Y-69189600D02*
X107696000Y-67005200D01*
X107594400Y-72288400D02*
X107594400Y-73761600D01*
X109118400Y-70764400D02*
X107594400Y-72288400D01*
X111556800Y-65684400D02*
X109118400Y-68122800D01*
X109118400Y-68122800D02*
X109118400Y-70764400D01*
X111556800Y-68224400D02*
X109829600Y-69951600D01*
X109829600Y-76250800D02*
X107391200Y-78689200D01*
X109829600Y-69951600D02*
X109829600Y-76250800D01*
M02*
