M48
; DRILL file {KiCad 5.1.1-8be2ce7~80~ubuntu18.04.1} date Sun 21 Apr 2019 05:51:19 AM PDT
; FORMAT={-:-/ absolute / inch / decimal}
; #@! TF.CreationDate,2019-04-21T05:51:19-07:00
; #@! TF.GenerationSoftware,Kicad,Pcbnew,5.1.1-8be2ce7~80~ubuntu18.04.1
; #@! TF.FileFunction,Plated,1,2,PTH
FMAT,2
INCH
T1C0.0157
T2C0.0315
T3C0.0591
%
G90
G05
T1
X3.72Y-2.95
X3.722Y-2.544
X3.722Y-2.744
X4.52Y-4.178
X4.578Y-2.692
X4.774Y-4.808
T2
X3.94Y-2.724
X4.24Y-2.724
X3.938Y-2.02
X4.238Y-2.02
X3.928Y-3.098
X4.228Y-3.098
X2.5Y-3.962
X2.8Y-3.962
X3.916Y-3.476
X4.216Y-3.476
X3.94Y-2.192
X4.24Y-2.192
X3.944Y-2.376
X4.244Y-2.376
X3.782Y-4.204
X4.082Y-4.204
X2.986Y-2.742
X2.986Y-2.842
X2.986Y-2.942
X2.986Y-3.042
X2.986Y-3.142
X2.986Y-3.242
X2.986Y-3.342
X2.986Y-3.442
X2.986Y-3.542
X2.986Y-3.642
X2.986Y-3.742
X2.986Y-3.842
X2.986Y-3.942
X2.986Y-4.042
X2.986Y-4.142
X3.586Y-2.742
X3.586Y-2.842
X3.586Y-2.942
X3.586Y-3.042
X3.586Y-3.142
X3.586Y-3.242
X3.586Y-3.342
X3.586Y-3.442
X3.586Y-3.542
X3.586Y-3.642
X3.586Y-3.742
X3.586Y-3.842
X3.586Y-3.942
X3.586Y-4.042
X3.586Y-4.142
X4.338Y-3.884
X4.338Y-3.984
X4.338Y-4.084
X4.338Y-4.184
X4.338Y-4.284
X4.338Y-4.384
X4.338Y-4.484
X4.338Y-4.584
X4.638Y-3.884
X4.638Y-3.984
X4.638Y-4.084
X4.638Y-4.184
X4.638Y-4.284
X4.638Y-4.384
X4.638Y-4.484
X4.638Y-4.584
X3.914Y-3.658
X4.214Y-3.658
X3.914Y-3.292
X4.214Y-3.292
X3.936Y-2.904
X4.236Y-2.904
X4.392Y-2.086
X4.392Y-2.186
X4.392Y-2.286
X4.392Y-2.386
X4.392Y-2.486
X4.392Y-2.586
X4.392Y-2.686
X4.392Y-2.786
X4.692Y-2.086
X4.692Y-2.186
X4.692Y-2.286
X4.692Y-2.386
X4.692Y-2.486
X4.692Y-2.586
X4.692Y-2.686
X4.692Y-2.786
X2.528Y-2.666
X2.828Y-2.666
X4.368Y-3.744
X4.668Y-3.744
X3.94Y-2.554
X4.24Y-2.554
X3.874Y-3.834
X4.174Y-3.834
X3.846Y-4.026
X4.146Y-4.026
X3.854Y-4.38
X4.154Y-4.38
X3.94Y-1.836
X4.24Y-1.836
X2.486Y-3.72
X2.786Y-3.72
T3
X3.19Y-2.314
X3.168Y-1.916
X2.324Y-2.32
X4.52Y-3.054
X2.758Y-1.916
X3.198Y-4.952
X4.02Y-4.952
X3.61Y-4.952
X4.53Y-3.478
X3.612Y-2.324
X4.422Y-4.842
X4.018Y-4.62
X3.592Y-1.924
X2.762Y-2.314
X2.626Y-3.384
X2.63Y-3.02
X3.612Y-4.62
X2.754Y-4.902
X3.198Y-4.62
T0
M30
