G04 #@! TF.GenerationSoftware,KiCad,Pcbnew,5.1.1-8be2ce7~80~ubuntu18.04.1*
G04 #@! TF.CreationDate,2019-04-19T02:08:46-07:00*
G04 #@! TF.ProjectId,shift_reg,73686966-745f-4726-9567-2e6b69636164,v01*
G04 #@! TF.SameCoordinates,Original*
G04 #@! TF.FileFunction,Copper,L2,Bot*
G04 #@! TF.FilePolarity,Positive*
%FSLAX46Y46*%
G04 Gerber Fmt 4.6, Leading zero omitted, Abs format (unit mm)*
G04 Created by KiCad (PCBNEW 5.1.1-8be2ce7~80~ubuntu18.04.1) date 2019-04-19 02:08:46*
%MOMM*%
%LPD*%
G04 APERTURE LIST*
%ADD10C,2.000000*%
%ADD11C,3.000000*%
%ADD12R,3.000000X3.000000*%
%ADD13O,1.600000X1.600000*%
%ADD14C,1.600000*%
%ADD15O,2.400000X1.600000*%
%ADD16R,2.400000X1.600000*%
%ADD17C,1.800000*%
%ADD18R,1.800000X1.800000*%
%ADD19C,0.250000*%
%ADD20C,0.500000*%
%ADD21C,0.200000*%
G04 APERTURE END LIST*
D10*
X92300000Y-77116800D03*
X96800000Y-77116800D03*
X92300000Y-83616800D03*
X96800000Y-83616800D03*
X71828800Y-32004000D03*
X71828800Y-36504000D03*
X65328800Y-32004000D03*
X65328800Y-36504000D03*
X92300000Y-67007600D03*
X96800000Y-67007600D03*
X92300000Y-73507600D03*
X96800000Y-73507600D03*
X92300000Y-56085600D03*
X96800000Y-56085600D03*
X92300000Y-62585600D03*
X96800000Y-62585600D03*
X92300000Y-45500000D03*
X96800000Y-45500000D03*
X92300000Y-52000000D03*
X96800000Y-52000000D03*
D11*
X82042000Y-95097600D03*
D12*
X76962000Y-95097600D03*
D13*
X79552800Y-39065200D03*
D14*
X79552800Y-46685200D03*
D15*
X83159600Y-57404000D03*
X75539600Y-75184000D03*
X83159600Y-59944000D03*
X75539600Y-72644000D03*
X83159600Y-62484000D03*
X75539600Y-70104000D03*
X83159600Y-65024000D03*
X75539600Y-67564000D03*
X83159600Y-67564000D03*
X75539600Y-65024000D03*
X83159600Y-70104000D03*
X75539600Y-62484000D03*
X83159600Y-72644000D03*
X75539600Y-59944000D03*
X83159600Y-75184000D03*
D16*
X75539600Y-57404000D03*
D13*
X60401200Y-96316800D03*
D14*
X68021200Y-96316800D03*
D13*
X60960000Y-88442800D03*
D14*
X68580000Y-88442800D03*
D13*
X60756800Y-80568800D03*
D14*
X68376800Y-80568800D03*
D13*
X60502800Y-74117200D03*
D14*
X68122800Y-74117200D03*
D13*
X60756800Y-67513200D03*
D14*
X68376800Y-67513200D03*
D13*
X61010800Y-60553600D03*
D14*
X68630800Y-60553600D03*
D13*
X60960000Y-54152800D03*
D14*
X68580000Y-54152800D03*
D13*
X60807600Y-47091600D03*
D14*
X68427600Y-47091600D03*
D13*
X60858400Y-40436800D03*
D14*
X68478400Y-40436800D03*
D13*
X80162400Y-34594800D03*
D14*
X87782400Y-34594800D03*
D17*
X54610000Y-94742000D03*
D18*
X54610000Y-97282000D03*
D17*
X54610000Y-87630000D03*
D18*
X54610000Y-90170000D03*
D17*
X54610000Y-80721200D03*
D18*
X54610000Y-83261200D03*
D17*
X54592800Y-73848400D03*
D18*
X54592800Y-76388400D03*
D17*
X54559200Y-67106800D03*
D18*
X54559200Y-69646800D03*
D17*
X54000400Y-60096400D03*
D18*
X54000400Y-62636400D03*
D17*
X54305200Y-53340000D03*
D18*
X54305200Y-55880000D03*
D17*
X54484000Y-45992400D03*
D18*
X54484000Y-48532400D03*
D17*
X54484000Y-38492400D03*
D18*
X54484000Y-41032400D03*
D17*
X93421200Y-34950400D03*
D18*
X95961200Y-34950400D03*
D17*
X87426800Y-41960800D03*
D18*
X84886800Y-41960800D03*
D19*
X52998400Y-41032400D02*
X54484000Y-41032400D01*
X51460400Y-42570400D02*
X52998400Y-41032400D01*
X54610000Y-97282000D02*
X53210000Y-97282000D01*
X53210000Y-97282000D02*
X51460400Y-95532400D01*
X53065600Y-48514000D02*
X51460400Y-48514000D01*
X53084000Y-48532400D02*
X53065600Y-48514000D01*
X54484000Y-48532400D02*
X53084000Y-48532400D01*
X51460400Y-48514000D02*
X51460400Y-42570400D01*
X52702000Y-55676800D02*
X51460400Y-55676800D01*
X52905200Y-55880000D02*
X52702000Y-55676800D01*
X54305200Y-55880000D02*
X52905200Y-55880000D01*
X51460400Y-55676800D02*
X51460400Y-48514000D01*
X52498800Y-62534800D02*
X51460400Y-62534800D01*
X54000400Y-62636400D02*
X52600400Y-62636400D01*
X52600400Y-62636400D02*
X52498800Y-62534800D01*
X51460400Y-62534800D02*
X51460400Y-55676800D01*
X52854400Y-69951600D02*
X51460400Y-69951600D01*
X53159200Y-69646800D02*
X52854400Y-69951600D01*
X54559200Y-69646800D02*
X53159200Y-69646800D01*
X51460400Y-69951600D02*
X51460400Y-62534800D01*
X53192800Y-76388400D02*
X52974800Y-76606400D01*
X54592800Y-76388400D02*
X53192800Y-76388400D01*
X51511200Y-76606400D02*
X51460400Y-76657200D01*
X52974800Y-76606400D02*
X51511200Y-76606400D01*
X51460400Y-76657200D02*
X51460400Y-69951600D01*
X53210000Y-83261200D02*
X53108400Y-83159600D01*
X54610000Y-83261200D02*
X53210000Y-83261200D01*
X53108400Y-83159600D02*
X51460400Y-83159600D01*
X51460400Y-83159600D02*
X51460400Y-76657200D01*
X53057600Y-90322400D02*
X51460400Y-90322400D01*
X53210000Y-90170000D02*
X53057600Y-90322400D01*
X54610000Y-90170000D02*
X53210000Y-90170000D01*
X51460400Y-95532400D02*
X51460400Y-90322400D01*
X51460400Y-90322400D02*
X51460400Y-83159600D01*
X76962000Y-97586800D02*
X76962000Y-95097600D01*
X54610000Y-97282000D02*
X56010000Y-97282000D01*
X56010000Y-97282000D02*
X57889600Y-99161600D01*
X57889600Y-99161600D02*
X70898000Y-99161600D01*
X70898000Y-99161600D02*
X71355200Y-98704400D01*
X71355200Y-98704400D02*
X75844400Y-98704400D01*
X75844400Y-98704400D02*
X76962000Y-97586800D01*
X87426800Y-40688008D02*
X86515192Y-39776400D01*
X87426800Y-41960800D02*
X87426800Y-40688008D01*
X86515192Y-39776400D02*
X83413600Y-39776400D01*
X83413600Y-39776400D02*
X81991200Y-41198800D01*
X81991200Y-41198800D02*
X72593200Y-41198800D01*
X51460400Y-38912800D02*
X51460400Y-42570400D01*
X53543200Y-36830000D02*
X51460400Y-38912800D01*
X87426800Y-41960800D02*
X89103200Y-41960800D01*
X89103200Y-41960800D02*
X93776800Y-37287200D01*
X95961200Y-36100400D02*
X95961200Y-34950400D01*
X94774400Y-37287200D02*
X95961200Y-36100400D01*
X93776800Y-37287200D02*
X94774400Y-37287200D01*
X75212000Y-95097600D02*
X74196000Y-96113600D01*
X76962000Y-95097600D02*
X75212000Y-95097600D01*
X74196000Y-96113600D02*
X71170800Y-96113600D01*
X71170800Y-96113600D02*
X69291200Y-97993200D01*
X69291200Y-97993200D02*
X66294000Y-97993200D01*
X66294000Y-97993200D02*
X64922400Y-96621600D01*
X64922400Y-96621600D02*
X64922400Y-93116400D01*
X64922400Y-93116400D02*
X66802000Y-91236800D01*
X66802000Y-91236800D02*
X69189600Y-91236800D01*
X75539600Y-84886800D02*
X75539600Y-75184000D01*
X69189600Y-91236800D02*
X75539600Y-84886800D01*
D20*
X59029600Y-36830000D02*
X60350400Y-36830000D01*
D19*
X59029600Y-36830000D02*
X53543200Y-36830000D01*
D20*
X60350400Y-36830000D02*
X63601600Y-40081200D01*
X63601600Y-40081200D02*
X65633600Y-40081200D01*
X65633600Y-40081200D02*
X67411600Y-38303200D01*
X67411600Y-38303200D02*
X69697600Y-38303200D01*
D19*
X72593200Y-41198800D02*
X69697600Y-38303200D01*
X81312400Y-46685200D02*
X80684170Y-46685200D01*
X80684170Y-46685200D02*
X79552800Y-46685200D01*
X84886800Y-43110800D02*
X81312400Y-46685200D01*
X84886800Y-41960800D02*
X84886800Y-43110800D01*
D21*
X85516985Y-61142615D02*
X85902800Y-60756800D01*
X81656185Y-61142615D02*
X84256615Y-61142615D01*
X80219590Y-62579210D02*
X81656185Y-61142615D01*
X80438800Y-68754800D02*
X80219590Y-68535590D01*
X81759600Y-70104000D02*
X80438800Y-68783200D01*
X84256615Y-61142615D02*
X85516985Y-61142615D01*
X83159600Y-70104000D02*
X81759600Y-70104000D01*
X84074000Y-58674000D02*
X82362722Y-58674000D01*
X81076800Y-57429249D02*
X81076800Y-49987200D01*
X82303961Y-58656410D02*
X81076800Y-57429249D01*
X81076800Y-49987200D02*
X79552800Y-48463200D01*
X79552800Y-48463200D02*
X79552800Y-46837600D01*
X80438800Y-68783200D02*
X80438800Y-68754800D01*
X80219590Y-68535590D02*
X80219590Y-62579210D01*
X84332815Y-58973985D02*
X84015239Y-58656410D01*
X85085185Y-58973985D02*
X84332815Y-58973985D01*
X85394800Y-59283600D02*
X85085185Y-58973985D01*
X85902800Y-59791600D02*
X85085185Y-58973985D01*
X85902800Y-60401200D02*
X85902800Y-59791600D01*
X85902800Y-60756800D02*
X85902800Y-60401200D01*
D19*
X88138000Y-34950400D02*
X87782400Y-34594800D01*
X93421200Y-34950400D02*
X88138000Y-34950400D01*
X58914000Y-38492400D02*
X60858400Y-40436800D01*
X54484000Y-38492400D02*
X58914000Y-38492400D01*
X55583200Y-47091600D02*
X60807600Y-47091600D01*
X54484000Y-45992400D02*
X55583200Y-47091600D01*
X60147200Y-53340000D02*
X60960000Y-54152800D01*
X54305200Y-53340000D02*
X60147200Y-53340000D01*
X60553600Y-60096400D02*
X61010800Y-60553600D01*
X54000400Y-60096400D02*
X60553600Y-60096400D01*
D21*
X60350400Y-67106800D02*
X60756800Y-67513200D01*
X54559200Y-67106800D02*
X60350400Y-67106800D01*
D19*
X60234000Y-73848400D02*
X60502800Y-74117200D01*
X54592800Y-73848400D02*
X60234000Y-73848400D01*
X60604400Y-80721200D02*
X60756800Y-80568800D01*
X54610000Y-80721200D02*
X60604400Y-80721200D01*
X60147200Y-87630000D02*
X60960000Y-88442800D01*
X54610000Y-87630000D02*
X60147200Y-87630000D01*
X58826400Y-94742000D02*
X60401200Y-96316800D01*
X54610000Y-94742000D02*
X58826400Y-94742000D01*
X68478400Y-40436800D02*
X68478400Y-43078400D01*
X68478400Y-43078400D02*
X80010000Y-54610000D01*
X82759600Y-59944000D02*
X83159600Y-59944000D01*
X80010000Y-57194400D02*
X82759600Y-59944000D01*
X80010000Y-54610000D02*
X80010000Y-57194400D01*
X68427600Y-47091600D02*
X70713600Y-47091600D01*
X75539600Y-51917600D02*
X75539600Y-57404000D01*
X70713600Y-47091600D02*
X75539600Y-51917600D01*
X68580000Y-54152800D02*
X69379999Y-54952799D01*
X74089600Y-59944000D02*
X70967600Y-56822000D01*
X75539600Y-59944000D02*
X74089600Y-59944000D01*
X70967600Y-56540400D02*
X68580000Y-54152800D01*
X70967600Y-56822000D02*
X70967600Y-56540400D01*
X69430799Y-61353599D02*
X72478799Y-61353599D01*
X68630800Y-60553600D02*
X69430799Y-61353599D01*
X73609200Y-62484000D02*
X75539600Y-62484000D01*
X72478799Y-61353599D02*
X73609200Y-62484000D01*
X74089600Y-65024000D02*
X73378400Y-65735200D01*
X75539600Y-65024000D02*
X74089600Y-65024000D01*
X70154800Y-65735200D02*
X68376800Y-67513200D01*
X73378400Y-65735200D02*
X70154800Y-65735200D01*
X74089600Y-67564000D02*
X72718000Y-68935600D01*
X75539600Y-67564000D02*
X74089600Y-67564000D01*
X72718000Y-68935600D02*
X71120000Y-68935600D01*
X68122800Y-71932800D02*
X68122800Y-74117200D01*
X71120000Y-68935600D02*
X68122800Y-71932800D01*
X74089600Y-70104000D02*
X71475600Y-72718000D01*
X75539600Y-70104000D02*
X74089600Y-70104000D01*
X71475600Y-72718000D02*
X71475600Y-76047600D01*
X68376800Y-79146400D02*
X68376800Y-80568800D01*
X71475600Y-76047600D02*
X68376800Y-79146400D01*
X74089600Y-72644000D02*
X73050400Y-73683200D01*
X75539600Y-72644000D02*
X74089600Y-72644000D01*
X73050400Y-73683200D02*
X73050400Y-79806800D01*
X73050400Y-79806800D02*
X69900800Y-82956400D01*
X69900800Y-87122000D02*
X68580000Y-88442800D01*
X69900800Y-82956400D02*
X69900800Y-87122000D01*
X83159600Y-81178400D02*
X83159600Y-75184000D01*
X68021200Y-96316800D02*
X83159600Y-81178400D01*
D20*
X82042000Y-95097600D02*
X85699600Y-95097600D01*
X92300000Y-88497200D02*
X92300000Y-83616800D01*
X85699600Y-95097600D02*
X92300000Y-88497200D01*
X92300000Y-77116800D02*
X92300000Y-73507600D01*
X92300000Y-67007600D02*
X92300000Y-62585600D01*
X92300000Y-56085600D02*
X92300000Y-52000000D01*
X92300000Y-45500000D02*
X92300000Y-42878800D01*
X92300000Y-42878800D02*
X98450400Y-36728400D01*
X98450400Y-36728400D02*
X98450400Y-33324800D01*
X97332800Y-32207200D02*
X97129600Y-32004000D01*
X97332800Y-32207200D02*
X97078800Y-31953200D01*
X97129600Y-32004000D02*
X71828800Y-32004000D01*
X98450400Y-33324800D02*
X97332800Y-32207200D01*
D19*
X83159600Y-57404000D02*
X85902800Y-57404000D01*
X87221200Y-56085600D02*
X92300000Y-56085600D01*
X85902800Y-57404000D02*
X87221200Y-56085600D01*
X83159600Y-62484000D02*
X88138000Y-62484000D01*
X88138000Y-62484000D02*
X91490800Y-59131200D01*
X91490800Y-59131200D02*
X92811600Y-59131200D01*
X94716600Y-54083400D02*
X96800000Y-52000000D01*
X94716600Y-57226200D02*
X94716600Y-54083400D01*
X94716600Y-57226200D02*
X94843600Y-57099200D01*
X92811600Y-59131200D02*
X94716600Y-57226200D01*
X96800000Y-62585600D02*
X96800000Y-64186400D01*
X96800000Y-64186400D02*
X98755200Y-66141600D01*
X98755200Y-66141600D02*
X98755200Y-85598000D01*
X98755200Y-85598000D02*
X98044000Y-86309200D01*
X98044000Y-86309200D02*
X96316800Y-86309200D01*
X96316800Y-86309200D02*
X94386400Y-84378800D01*
X94386400Y-84378800D02*
X94386400Y-82550000D01*
X94386400Y-82550000D02*
X93472000Y-81635600D01*
X93472000Y-81635600D02*
X86766400Y-81635600D01*
X86766400Y-81635600D02*
X85394800Y-80264000D01*
X83559600Y-72644000D02*
X83159600Y-72644000D01*
X85394800Y-74479200D02*
X83559600Y-72644000D01*
X85394800Y-80264000D02*
X85394800Y-74479200D01*
X96800000Y-73507600D02*
X95300800Y-73507600D01*
X95300800Y-73507600D02*
X91744800Y-69951600D01*
X91744800Y-69951600D02*
X91744800Y-69900800D01*
X91744800Y-69900800D02*
X88595200Y-66751200D01*
X88595200Y-66751200D02*
X88595200Y-66700400D01*
D21*
X88595200Y-66751200D02*
X88595200Y-66649600D01*
X88595200Y-66649600D02*
X85648800Y-63703200D01*
X85648800Y-63703200D02*
X81330800Y-63703200D01*
X80619600Y-66548000D02*
X81635600Y-67564000D01*
X81635600Y-67564000D02*
X83159600Y-67564000D01*
X80619600Y-64414400D02*
X80619600Y-66548000D01*
X81330800Y-63703200D02*
X80619600Y-64414400D01*
D19*
X93805200Y-80111600D02*
X96800000Y-77116800D01*
X88595200Y-78232000D02*
X90474800Y-80111600D01*
X90474800Y-80111600D02*
X93805200Y-80111600D01*
X88595200Y-70059600D02*
X88595200Y-78232000D01*
X83559600Y-65024000D02*
X88595200Y-70059600D01*
X83159600Y-65024000D02*
X83559600Y-65024000D01*
X80162400Y-38455600D02*
X79552800Y-39065200D01*
X80162400Y-34594800D02*
X80162400Y-38455600D01*
X76991600Y-36504000D02*
X71828800Y-36504000D01*
X79552800Y-39065200D02*
X76991600Y-36504000D01*
M02*
