G04 #@! TF.GenerationSoftware,KiCad,Pcbnew,5.1.1-8be2ce7~80~ubuntu18.04.1*
G04 #@! TF.CreationDate,2019-04-19T02:08:46-07:00*
G04 #@! TF.ProjectId,shift_reg,73686966-745f-4726-9567-2e6b69636164,v01*
G04 #@! TF.SameCoordinates,Original*
G04 #@! TF.FileFunction,Legend,Top*
G04 #@! TF.FilePolarity,Positive*
%FSLAX46Y46*%
G04 Gerber Fmt 4.6, Leading zero omitted, Abs format (unit mm)*
G04 Created by KiCad (PCBNEW 5.1.1-8be2ce7~80~ubuntu18.04.1) date 2019-04-19 02:08:46*
%MOMM*%
%LPD*%
G04 APERTURE LIST*
%ADD10C,0.150000*%
%ADD11C,0.120000*%
G04 APERTURE END LIST*
D10*
X91726095Y-89479952D02*
X91630857Y-89432333D01*
X91583238Y-89384714D01*
X91535619Y-89289476D01*
X91535619Y-89241857D01*
X91583238Y-89146619D01*
X91630857Y-89099000D01*
X91726095Y-89051380D01*
X91916571Y-89051380D01*
X92011809Y-89099000D01*
X92059428Y-89146619D01*
X92107047Y-89241857D01*
X92107047Y-89289476D01*
X92059428Y-89384714D01*
X92011809Y-89432333D01*
X91916571Y-89479952D01*
X91726095Y-89479952D01*
X91630857Y-89527571D01*
X91583238Y-89575190D01*
X91535619Y-89670428D01*
X91535619Y-89860904D01*
X91583238Y-89956142D01*
X91630857Y-90003761D01*
X91726095Y-90051380D01*
X91916571Y-90051380D01*
X92011809Y-90003761D01*
X92059428Y-89956142D01*
X92107047Y-89860904D01*
X92107047Y-89670428D01*
X92059428Y-89575190D01*
X92011809Y-89527571D01*
X91916571Y-89479952D01*
X92535619Y-89670428D02*
X93297523Y-89670428D01*
X93773714Y-90051380D02*
X93773714Y-89051380D01*
X93773714Y-89432333D02*
X93868952Y-89384714D01*
X94059428Y-89384714D01*
X94154666Y-89432333D01*
X94202285Y-89479952D01*
X94249904Y-89575190D01*
X94249904Y-89860904D01*
X94202285Y-89956142D01*
X94154666Y-90003761D01*
X94059428Y-90051380D01*
X93868952Y-90051380D01*
X93773714Y-90003761D01*
X94678476Y-90051380D02*
X94678476Y-89384714D01*
X94678476Y-89051380D02*
X94630857Y-89099000D01*
X94678476Y-89146619D01*
X94726095Y-89099000D01*
X94678476Y-89051380D01*
X94678476Y-89146619D01*
X95011809Y-89384714D02*
X95392761Y-89384714D01*
X95154666Y-89051380D02*
X95154666Y-89908523D01*
X95202285Y-90003761D01*
X95297523Y-90051380D01*
X95392761Y-90051380D01*
X95726095Y-89384714D02*
X95726095Y-90051380D01*
X95726095Y-89479952D02*
X95773714Y-89432333D01*
X95868952Y-89384714D01*
X96011809Y-89384714D01*
X96107047Y-89432333D01*
X96154666Y-89527571D01*
X96154666Y-90051380D01*
X96630857Y-90051380D02*
X96630857Y-89384714D01*
X96630857Y-89051380D02*
X96583238Y-89099000D01*
X96630857Y-89146619D01*
X96678476Y-89099000D01*
X96630857Y-89051380D01*
X96630857Y-89146619D01*
X89749904Y-91653761D02*
X89845142Y-91701380D01*
X90035619Y-91701380D01*
X90130857Y-91653761D01*
X90178476Y-91558523D01*
X90178476Y-91510904D01*
X90130857Y-91415666D01*
X90035619Y-91368047D01*
X89892761Y-91368047D01*
X89797523Y-91320428D01*
X89749904Y-91225190D01*
X89749904Y-91177571D01*
X89797523Y-91082333D01*
X89892761Y-91034714D01*
X90035619Y-91034714D01*
X90130857Y-91082333D01*
X90607047Y-91701380D02*
X90607047Y-90701380D01*
X91035619Y-91701380D02*
X91035619Y-91177571D01*
X90988000Y-91082333D01*
X90892761Y-91034714D01*
X90749904Y-91034714D01*
X90654666Y-91082333D01*
X90607047Y-91129952D01*
X91511809Y-91701380D02*
X91511809Y-91034714D01*
X91511809Y-90701380D02*
X91464190Y-90749000D01*
X91511809Y-90796619D01*
X91559428Y-90749000D01*
X91511809Y-90701380D01*
X91511809Y-90796619D01*
X91845142Y-91034714D02*
X92226095Y-91034714D01*
X91988000Y-91701380D02*
X91988000Y-90844238D01*
X92035619Y-90749000D01*
X92130857Y-90701380D01*
X92226095Y-90701380D01*
X92416571Y-91034714D02*
X92797523Y-91034714D01*
X92559428Y-90701380D02*
X92559428Y-91558523D01*
X92607047Y-91653761D01*
X92702285Y-91701380D01*
X92797523Y-91701380D01*
X93892761Y-91701380D02*
X93892761Y-91034714D01*
X93892761Y-91225190D02*
X93940380Y-91129952D01*
X93988000Y-91082333D01*
X94083238Y-91034714D01*
X94178476Y-91034714D01*
X94892761Y-91653761D02*
X94797523Y-91701380D01*
X94607047Y-91701380D01*
X94511809Y-91653761D01*
X94464190Y-91558523D01*
X94464190Y-91177571D01*
X94511809Y-91082333D01*
X94607047Y-91034714D01*
X94797523Y-91034714D01*
X94892761Y-91082333D01*
X94940380Y-91177571D01*
X94940380Y-91272809D01*
X94464190Y-91368047D01*
X95797523Y-91034714D02*
X95797523Y-91844238D01*
X95749904Y-91939476D01*
X95702285Y-91987095D01*
X95607047Y-92034714D01*
X95464190Y-92034714D01*
X95368952Y-91987095D01*
X95797523Y-91653761D02*
X95702285Y-91701380D01*
X95511809Y-91701380D01*
X95416571Y-91653761D01*
X95368952Y-91606142D01*
X95321333Y-91510904D01*
X95321333Y-91225190D01*
X95368952Y-91129952D01*
X95416571Y-91082333D01*
X95511809Y-91034714D01*
X95702285Y-91034714D01*
X95797523Y-91082333D01*
X96273714Y-91701380D02*
X96273714Y-91034714D01*
X96273714Y-90701380D02*
X96226095Y-90749000D01*
X96273714Y-90796619D01*
X96321333Y-90749000D01*
X96273714Y-90701380D01*
X96273714Y-90796619D01*
X96702285Y-91653761D02*
X96797523Y-91701380D01*
X96988000Y-91701380D01*
X97083238Y-91653761D01*
X97130857Y-91558523D01*
X97130857Y-91510904D01*
X97083238Y-91415666D01*
X96988000Y-91368047D01*
X96845142Y-91368047D01*
X96749904Y-91320428D01*
X96702285Y-91225190D01*
X96702285Y-91177571D01*
X96749904Y-91082333D01*
X96845142Y-91034714D01*
X96988000Y-91034714D01*
X97083238Y-91082333D01*
X97416571Y-91034714D02*
X97797523Y-91034714D01*
X97559428Y-90701380D02*
X97559428Y-91558523D01*
X97607047Y-91653761D01*
X97702285Y-91701380D01*
X97797523Y-91701380D01*
X98559428Y-91701380D02*
X98559428Y-91177571D01*
X98511809Y-91082333D01*
X98416571Y-91034714D01*
X98226095Y-91034714D01*
X98130857Y-91082333D01*
X98559428Y-91653761D02*
X98464190Y-91701380D01*
X98226095Y-91701380D01*
X98130857Y-91653761D01*
X98083238Y-91558523D01*
X98083238Y-91463285D01*
X98130857Y-91368047D01*
X98226095Y-91320428D01*
X98464190Y-91320428D01*
X98559428Y-91272809D01*
X99035619Y-91701380D02*
X99035619Y-91034714D01*
X99035619Y-91225190D02*
X99083238Y-91129952D01*
X99130857Y-91082333D01*
X99226095Y-91034714D01*
X99321333Y-91034714D01*
X71983695Y-94750000D02*
X71888457Y-94702380D01*
X71745600Y-94702380D01*
X71602742Y-94750000D01*
X71507504Y-94845238D01*
X71459885Y-94940476D01*
X71412266Y-95130952D01*
X71412266Y-95273809D01*
X71459885Y-95464285D01*
X71507504Y-95559523D01*
X71602742Y-95654761D01*
X71745600Y-95702380D01*
X71840838Y-95702380D01*
X71983695Y-95654761D01*
X72031314Y-95607142D01*
X72031314Y-95273809D01*
X71840838Y-95273809D01*
X72459885Y-95702380D02*
X72459885Y-94702380D01*
X73031314Y-95702380D01*
X73031314Y-94702380D01*
X73507504Y-95702380D02*
X73507504Y-94702380D01*
X73745600Y-94702380D01*
X73888457Y-94750000D01*
X73983695Y-94845238D01*
X74031314Y-94940476D01*
X74078933Y-95130952D01*
X74078933Y-95273809D01*
X74031314Y-95464285D01*
X73983695Y-95559523D01*
X73888457Y-95654761D01*
X73745600Y-95702380D01*
X73507504Y-95702380D01*
X85166247Y-95270628D02*
X85928152Y-95270628D01*
X85547200Y-95651580D02*
X85547200Y-94889676D01*
X51030857Y-31927161D02*
X51173714Y-31974780D01*
X51411809Y-31974780D01*
X51507047Y-31927161D01*
X51554666Y-31879542D01*
X51602285Y-31784304D01*
X51602285Y-31689066D01*
X51554666Y-31593828D01*
X51507047Y-31546209D01*
X51411809Y-31498590D01*
X51221333Y-31450971D01*
X51126095Y-31403352D01*
X51078476Y-31355733D01*
X51030857Y-31260495D01*
X51030857Y-31165257D01*
X51078476Y-31070019D01*
X51126095Y-31022400D01*
X51221333Y-30974780D01*
X51459428Y-30974780D01*
X51602285Y-31022400D01*
X52030857Y-31974780D02*
X52030857Y-30974780D01*
X52364190Y-31689066D01*
X52697523Y-30974780D01*
X52697523Y-31974780D01*
X53126095Y-31927161D02*
X53268952Y-31974780D01*
X53507047Y-31974780D01*
X53602285Y-31927161D01*
X53649904Y-31879542D01*
X53697523Y-31784304D01*
X53697523Y-31689066D01*
X53649904Y-31593828D01*
X53602285Y-31546209D01*
X53507047Y-31498590D01*
X53316571Y-31450971D01*
X53221333Y-31403352D01*
X53173714Y-31355733D01*
X53126095Y-31260495D01*
X53126095Y-31165257D01*
X53173714Y-31070019D01*
X53221333Y-31022400D01*
X53316571Y-30974780D01*
X53554666Y-30974780D01*
X53697523Y-31022400D01*
X54840380Y-30974780D02*
X54840380Y-31165257D01*
X55221333Y-30974780D02*
X55221333Y-31165257D01*
X55649904Y-31974780D02*
X55649904Y-30974780D01*
X55983238Y-31689066D01*
X56316571Y-30974780D01*
X56316571Y-31974780D01*
X56935619Y-31974780D02*
X56840380Y-31927161D01*
X56792761Y-31831923D01*
X56792761Y-30974780D01*
X57745142Y-31974780D02*
X57745142Y-31450971D01*
X57697523Y-31355733D01*
X57602285Y-31308114D01*
X57411809Y-31308114D01*
X57316571Y-31355733D01*
X57745142Y-31927161D02*
X57649904Y-31974780D01*
X57411809Y-31974780D01*
X57316571Y-31927161D01*
X57268952Y-31831923D01*
X57268952Y-31736685D01*
X57316571Y-31641447D01*
X57411809Y-31593828D01*
X57649904Y-31593828D01*
X57745142Y-31546209D01*
X58649904Y-31974780D02*
X58649904Y-30974780D01*
X58649904Y-31927161D02*
X58554666Y-31974780D01*
X58364190Y-31974780D01*
X58268952Y-31927161D01*
X58221333Y-31879542D01*
X58173714Y-31784304D01*
X58173714Y-31498590D01*
X58221333Y-31403352D01*
X58268952Y-31355733D01*
X58364190Y-31308114D01*
X58554666Y-31308114D01*
X58649904Y-31355733D01*
X59268952Y-31974780D02*
X59173714Y-31927161D01*
X59126095Y-31879542D01*
X59078476Y-31784304D01*
X59078476Y-31498590D01*
X59126095Y-31403352D01*
X59173714Y-31355733D01*
X59268952Y-31308114D01*
X59411809Y-31308114D01*
X59507047Y-31355733D01*
X59554666Y-31403352D01*
X59602285Y-31498590D01*
X59602285Y-31784304D01*
X59554666Y-31879542D01*
X59507047Y-31927161D01*
X59411809Y-31974780D01*
X59268952Y-31974780D01*
X59983238Y-31927161D02*
X60078476Y-31974780D01*
X60268952Y-31974780D01*
X60364190Y-31927161D01*
X60411809Y-31831923D01*
X60411809Y-31784304D01*
X60364190Y-31689066D01*
X60268952Y-31641447D01*
X60126095Y-31641447D01*
X60030857Y-31593828D01*
X59983238Y-31498590D01*
X59983238Y-31450971D01*
X60030857Y-31355733D01*
X60126095Y-31308114D01*
X60268952Y-31308114D01*
X60364190Y-31355733D01*
X60697523Y-31308114D02*
X61078476Y-31308114D01*
X60840380Y-30974780D02*
X60840380Y-31831923D01*
X60888000Y-31927161D01*
X60983238Y-31974780D01*
X61078476Y-31974780D01*
X61364190Y-30974780D02*
X61364190Y-31165257D01*
X61745142Y-30974780D02*
X61745142Y-31165257D01*
X54054666Y-32624780D02*
X54721333Y-32624780D01*
X54054666Y-33624780D01*
X54721333Y-33624780D01*
X55483238Y-33577161D02*
X55388000Y-33624780D01*
X55197523Y-33624780D01*
X55102285Y-33577161D01*
X55054666Y-33481923D01*
X55054666Y-33100971D01*
X55102285Y-33005733D01*
X55197523Y-32958114D01*
X55388000Y-32958114D01*
X55483238Y-33005733D01*
X55530857Y-33100971D01*
X55530857Y-33196209D01*
X55054666Y-33291447D01*
X55959428Y-32958114D02*
X55959428Y-33624780D01*
X55959428Y-33053352D02*
X56007047Y-33005733D01*
X56102285Y-32958114D01*
X56245142Y-32958114D01*
X56340380Y-33005733D01*
X56388000Y-33100971D01*
X56388000Y-33624780D01*
X56864190Y-33624780D02*
X56864190Y-32958114D01*
X56864190Y-32624780D02*
X56816571Y-32672400D01*
X56864190Y-32720019D01*
X56911809Y-32672400D01*
X56864190Y-32624780D01*
X56864190Y-32720019D01*
X57768952Y-33577161D02*
X57673714Y-33624780D01*
X57483238Y-33624780D01*
X57388000Y-33577161D01*
X57340380Y-33529542D01*
X57292761Y-33434304D01*
X57292761Y-33148590D01*
X57340380Y-33053352D01*
X57388000Y-33005733D01*
X57483238Y-32958114D01*
X57673714Y-32958114D01*
X57768952Y-33005733D01*
X58626095Y-33624780D02*
X58626095Y-33100971D01*
X58578476Y-33005733D01*
X58483238Y-32958114D01*
X58292761Y-32958114D01*
X58197523Y-33005733D01*
X58626095Y-33577161D02*
X58530857Y-33624780D01*
X58292761Y-33624780D01*
X58197523Y-33577161D01*
X58149904Y-33481923D01*
X58149904Y-33386685D01*
X58197523Y-33291447D01*
X58292761Y-33243828D01*
X58530857Y-33243828D01*
X58626095Y-33196209D01*
X52816571Y-35274780D02*
X52816571Y-34750971D01*
X52768952Y-34655733D01*
X52673714Y-34608114D01*
X52483238Y-34608114D01*
X52388000Y-34655733D01*
X52816571Y-35227161D02*
X52721333Y-35274780D01*
X52483238Y-35274780D01*
X52388000Y-35227161D01*
X52340380Y-35131923D01*
X52340380Y-35036685D01*
X52388000Y-34941447D01*
X52483238Y-34893828D01*
X52721333Y-34893828D01*
X52816571Y-34846209D01*
X53292761Y-34608114D02*
X53292761Y-35608114D01*
X53292761Y-34655733D02*
X53388000Y-34608114D01*
X53578476Y-34608114D01*
X53673714Y-34655733D01*
X53721333Y-34703352D01*
X53768952Y-34798590D01*
X53768952Y-35084304D01*
X53721333Y-35179542D01*
X53673714Y-35227161D01*
X53578476Y-35274780D01*
X53388000Y-35274780D01*
X53292761Y-35227161D01*
X54197523Y-35274780D02*
X54197523Y-34608114D01*
X54197523Y-34798590D02*
X54245142Y-34703352D01*
X54292761Y-34655733D01*
X54388000Y-34608114D01*
X54483238Y-34608114D01*
X54816571Y-35274780D02*
X54816571Y-34608114D01*
X54816571Y-34274780D02*
X54768952Y-34322400D01*
X54816571Y-34370019D01*
X54864190Y-34322400D01*
X54816571Y-34274780D01*
X54816571Y-34370019D01*
X55435619Y-35274780D02*
X55340380Y-35227161D01*
X55292761Y-35131923D01*
X55292761Y-34274780D01*
X55864190Y-35227161D02*
X55864190Y-35274780D01*
X55816571Y-35370019D01*
X55768952Y-35417638D01*
X57007047Y-34370019D02*
X57054666Y-34322400D01*
X57149904Y-34274780D01*
X57388000Y-34274780D01*
X57483238Y-34322400D01*
X57530857Y-34370019D01*
X57578476Y-34465257D01*
X57578476Y-34560495D01*
X57530857Y-34703352D01*
X56959428Y-35274780D01*
X57578476Y-35274780D01*
X58197523Y-34274780D02*
X58292761Y-34274780D01*
X58388000Y-34322400D01*
X58435619Y-34370019D01*
X58483238Y-34465257D01*
X58530857Y-34655733D01*
X58530857Y-34893828D01*
X58483238Y-35084304D01*
X58435619Y-35179542D01*
X58388000Y-35227161D01*
X58292761Y-35274780D01*
X58197523Y-35274780D01*
X58102285Y-35227161D01*
X58054666Y-35179542D01*
X58007047Y-35084304D01*
X57959428Y-34893828D01*
X57959428Y-34655733D01*
X58007047Y-34465257D01*
X58054666Y-34370019D01*
X58102285Y-34322400D01*
X58197523Y-34274780D01*
X59483238Y-35274780D02*
X58911809Y-35274780D01*
X59197523Y-35274780D02*
X59197523Y-34274780D01*
X59102285Y-34417638D01*
X59007047Y-34512876D01*
X58911809Y-34560495D01*
X59959428Y-35274780D02*
X60149904Y-35274780D01*
X60245142Y-35227161D01*
X60292761Y-35179542D01*
X60388000Y-35036685D01*
X60435619Y-34846209D01*
X60435619Y-34465257D01*
X60388000Y-34370019D01*
X60340380Y-34322400D01*
X60245142Y-34274780D01*
X60054666Y-34274780D01*
X59959428Y-34322400D01*
X59911809Y-34370019D01*
X59864190Y-34465257D01*
X59864190Y-34703352D01*
X59911809Y-34798590D01*
X59959428Y-34846209D01*
X60054666Y-34893828D01*
X60245142Y-34893828D01*
X60340380Y-34846209D01*
X60388000Y-34798590D01*
X60435619Y-34703352D01*
X69228247Y-39977961D02*
X69323485Y-40025580D01*
X69513961Y-40025580D01*
X69609200Y-39977961D01*
X69656819Y-39882723D01*
X69656819Y-39835104D01*
X69609200Y-39739866D01*
X69513961Y-39692247D01*
X69371104Y-39692247D01*
X69275866Y-39644628D01*
X69228247Y-39549390D01*
X69228247Y-39501771D01*
X69275866Y-39406533D01*
X69371104Y-39358914D01*
X69513961Y-39358914D01*
X69609200Y-39406533D01*
X69942533Y-39358914D02*
X70323485Y-39358914D01*
X70085390Y-39025580D02*
X70085390Y-39882723D01*
X70133009Y-39977961D01*
X70228247Y-40025580D01*
X70323485Y-40025580D01*
X70799676Y-40025580D02*
X70704438Y-39977961D01*
X70656819Y-39930342D01*
X70609200Y-39835104D01*
X70609200Y-39549390D01*
X70656819Y-39454152D01*
X70704438Y-39406533D01*
X70799676Y-39358914D01*
X70942533Y-39358914D01*
X71037771Y-39406533D01*
X71085390Y-39454152D01*
X71133009Y-39549390D01*
X71133009Y-39835104D01*
X71085390Y-39930342D01*
X71037771Y-39977961D01*
X70942533Y-40025580D01*
X70799676Y-40025580D01*
X71561580Y-40025580D02*
X71561580Y-39358914D01*
X71561580Y-39549390D02*
X71609200Y-39454152D01*
X71656819Y-39406533D01*
X71752057Y-39358914D01*
X71847295Y-39358914D01*
X72609200Y-40025580D02*
X72609200Y-39501771D01*
X72561580Y-39406533D01*
X72466342Y-39358914D01*
X72275866Y-39358914D01*
X72180628Y-39406533D01*
X72609200Y-39977961D02*
X72513961Y-40025580D01*
X72275866Y-40025580D01*
X72180628Y-39977961D01*
X72133009Y-39882723D01*
X72133009Y-39787485D01*
X72180628Y-39692247D01*
X72275866Y-39644628D01*
X72513961Y-39644628D01*
X72609200Y-39597009D01*
X73513961Y-39358914D02*
X73513961Y-40168438D01*
X73466342Y-40263676D01*
X73418723Y-40311295D01*
X73323485Y-40358914D01*
X73180628Y-40358914D01*
X73085390Y-40311295D01*
X73513961Y-39977961D02*
X73418723Y-40025580D01*
X73228247Y-40025580D01*
X73133009Y-39977961D01*
X73085390Y-39930342D01*
X73037771Y-39835104D01*
X73037771Y-39549390D01*
X73085390Y-39454152D01*
X73133009Y-39406533D01*
X73228247Y-39358914D01*
X73418723Y-39358914D01*
X73513961Y-39406533D01*
X74371104Y-39977961D02*
X74275866Y-40025580D01*
X74085390Y-40025580D01*
X73990152Y-39977961D01*
X73942533Y-39882723D01*
X73942533Y-39501771D01*
X73990152Y-39406533D01*
X74085390Y-39358914D01*
X74275866Y-39358914D01*
X74371104Y-39406533D01*
X74418723Y-39501771D01*
X74418723Y-39597009D01*
X73942533Y-39692247D01*
X76180628Y-39930342D02*
X76133009Y-39977961D01*
X75990152Y-40025580D01*
X75894914Y-40025580D01*
X75752057Y-39977961D01*
X75656819Y-39882723D01*
X75609200Y-39787485D01*
X75561580Y-39597009D01*
X75561580Y-39454152D01*
X75609200Y-39263676D01*
X75656819Y-39168438D01*
X75752057Y-39073200D01*
X75894914Y-39025580D01*
X75990152Y-39025580D01*
X76133009Y-39073200D01*
X76180628Y-39120819D01*
X77085390Y-40025580D02*
X76609200Y-40025580D01*
X76609200Y-39025580D01*
X77418723Y-40025580D02*
X77418723Y-39025580D01*
X77990152Y-40025580D02*
X77561580Y-39454152D01*
X77990152Y-39025580D02*
X77418723Y-39597009D01*
D11*
X95300000Y-76866800D02*
X93800000Y-76866800D01*
X91300000Y-78116800D02*
X91300000Y-82616800D01*
X93800000Y-83866800D02*
X95300000Y-83866800D01*
X97800000Y-82616800D02*
X97800000Y-78116800D01*
X72078800Y-35004000D02*
X72078800Y-33504000D01*
X70828800Y-31004000D02*
X66328800Y-31004000D01*
X65078800Y-33504000D02*
X65078800Y-35004000D01*
X66328800Y-37504000D02*
X70828800Y-37504000D01*
X95300000Y-66757600D02*
X93800000Y-66757600D01*
X91300000Y-68007600D02*
X91300000Y-72507600D01*
X93800000Y-73757600D02*
X95300000Y-73757600D01*
X97800000Y-72507600D02*
X97800000Y-68007600D01*
X95300000Y-55835600D02*
X93800000Y-55835600D01*
X91300000Y-57085600D02*
X91300000Y-61585600D01*
X93800000Y-62835600D02*
X95300000Y-62835600D01*
X97800000Y-61585600D02*
X97800000Y-57085600D01*
X95300000Y-45250000D02*
X93800000Y-45250000D01*
X91300000Y-46500000D02*
X91300000Y-51000000D01*
X93800000Y-52250000D02*
X95300000Y-52250000D01*
X97800000Y-51000000D02*
X97800000Y-46500000D01*
X74422000Y-98907600D02*
X84582000Y-98907600D01*
X74422000Y-91287600D02*
X74422000Y-98907600D01*
X84582000Y-91287600D02*
X74422000Y-91287600D01*
X84582000Y-98907600D02*
X84582000Y-91287600D01*
X84582000Y-97637600D02*
X74422000Y-97637600D01*
X80922800Y-39605200D02*
X80592800Y-39605200D01*
X80922800Y-46145200D02*
X80922800Y-39605200D01*
X80592800Y-46145200D02*
X80922800Y-46145200D01*
X78182800Y-39605200D02*
X78512800Y-39605200D01*
X78182800Y-46145200D02*
X78182800Y-39605200D01*
X78512800Y-46145200D02*
X78182800Y-46145200D01*
X81599600Y-56074000D02*
X80349600Y-56074000D01*
X81599600Y-76514000D02*
X81599600Y-56074000D01*
X77099600Y-76514000D02*
X81599600Y-76514000D01*
X77099600Y-56074000D02*
X77099600Y-76514000D01*
X78349600Y-56074000D02*
X77099600Y-56074000D01*
X80349600Y-56074000D02*
G75*
G02X78349600Y-56074000I-1000000J0D01*
G01*
X60941200Y-94946800D02*
X60941200Y-95276800D01*
X67481200Y-94946800D02*
X60941200Y-94946800D01*
X67481200Y-95276800D02*
X67481200Y-94946800D01*
X60941200Y-97686800D02*
X60941200Y-97356800D01*
X67481200Y-97686800D02*
X60941200Y-97686800D01*
X67481200Y-97356800D02*
X67481200Y-97686800D01*
X61500000Y-87072800D02*
X61500000Y-87402800D01*
X68040000Y-87072800D02*
X61500000Y-87072800D01*
X68040000Y-87402800D02*
X68040000Y-87072800D01*
X61500000Y-89812800D02*
X61500000Y-89482800D01*
X68040000Y-89812800D02*
X61500000Y-89812800D01*
X68040000Y-89482800D02*
X68040000Y-89812800D01*
X61296800Y-79198800D02*
X61296800Y-79528800D01*
X67836800Y-79198800D02*
X61296800Y-79198800D01*
X67836800Y-79528800D02*
X67836800Y-79198800D01*
X61296800Y-81938800D02*
X61296800Y-81608800D01*
X67836800Y-81938800D02*
X61296800Y-81938800D01*
X67836800Y-81608800D02*
X67836800Y-81938800D01*
X61042800Y-72747200D02*
X61042800Y-73077200D01*
X67582800Y-72747200D02*
X61042800Y-72747200D01*
X67582800Y-73077200D02*
X67582800Y-72747200D01*
X61042800Y-75487200D02*
X61042800Y-75157200D01*
X67582800Y-75487200D02*
X61042800Y-75487200D01*
X67582800Y-75157200D02*
X67582800Y-75487200D01*
X61296800Y-66143200D02*
X61296800Y-66473200D01*
X67836800Y-66143200D02*
X61296800Y-66143200D01*
X67836800Y-66473200D02*
X67836800Y-66143200D01*
X61296800Y-68883200D02*
X61296800Y-68553200D01*
X67836800Y-68883200D02*
X61296800Y-68883200D01*
X67836800Y-68553200D02*
X67836800Y-68883200D01*
X61550800Y-59183600D02*
X61550800Y-59513600D01*
X68090800Y-59183600D02*
X61550800Y-59183600D01*
X68090800Y-59513600D02*
X68090800Y-59183600D01*
X61550800Y-61923600D02*
X61550800Y-61593600D01*
X68090800Y-61923600D02*
X61550800Y-61923600D01*
X68090800Y-61593600D02*
X68090800Y-61923600D01*
X61500000Y-52782800D02*
X61500000Y-53112800D01*
X68040000Y-52782800D02*
X61500000Y-52782800D01*
X68040000Y-53112800D02*
X68040000Y-52782800D01*
X61500000Y-55522800D02*
X61500000Y-55192800D01*
X68040000Y-55522800D02*
X61500000Y-55522800D01*
X68040000Y-55192800D02*
X68040000Y-55522800D01*
X61347600Y-45721600D02*
X61347600Y-46051600D01*
X67887600Y-45721600D02*
X61347600Y-45721600D01*
X67887600Y-46051600D02*
X67887600Y-45721600D01*
X61347600Y-48461600D02*
X61347600Y-48131600D01*
X67887600Y-48461600D02*
X61347600Y-48461600D01*
X67887600Y-48131600D02*
X67887600Y-48461600D01*
X61398400Y-39066800D02*
X61398400Y-39396800D01*
X67938400Y-39066800D02*
X61398400Y-39066800D01*
X67938400Y-39396800D02*
X67938400Y-39066800D01*
X61398400Y-41806800D02*
X61398400Y-41476800D01*
X67938400Y-41806800D02*
X61398400Y-41806800D01*
X67938400Y-41476800D02*
X67938400Y-41806800D01*
X80702400Y-33224800D02*
X80702400Y-33554800D01*
X87242400Y-33224800D02*
X80702400Y-33224800D01*
X87242400Y-33554800D02*
X87242400Y-33224800D01*
X80702400Y-35964800D02*
X80702400Y-35634800D01*
X87242400Y-35964800D02*
X80702400Y-35964800D01*
X87242400Y-35634800D02*
X87242400Y-35964800D01*
X54609538Y-93022000D02*
G75*
G02X56154830Y-98572000I462J-2990000D01*
G01*
X54610462Y-93022000D02*
G75*
G03X53065170Y-98572000I-462J-2990000D01*
G01*
X57110000Y-96012000D02*
G75*
G03X57110000Y-96012000I-2500000J0D01*
G01*
X53065000Y-98572000D02*
X56155000Y-98572000D01*
X54609538Y-85910000D02*
G75*
G02X56154830Y-91460000I462J-2990000D01*
G01*
X54610462Y-85910000D02*
G75*
G03X53065170Y-91460000I-462J-2990000D01*
G01*
X57110000Y-88900000D02*
G75*
G03X57110000Y-88900000I-2500000J0D01*
G01*
X53065000Y-91460000D02*
X56155000Y-91460000D01*
X54609538Y-79001200D02*
G75*
G02X56154830Y-84551200I462J-2990000D01*
G01*
X54610462Y-79001200D02*
G75*
G03X53065170Y-84551200I-462J-2990000D01*
G01*
X57110000Y-81991200D02*
G75*
G03X57110000Y-81991200I-2500000J0D01*
G01*
X53065000Y-84551200D02*
X56155000Y-84551200D01*
X54592338Y-72128400D02*
G75*
G02X56137630Y-77678400I462J-2990000D01*
G01*
X54593262Y-72128400D02*
G75*
G03X53047970Y-77678400I-462J-2990000D01*
G01*
X57092800Y-75118400D02*
G75*
G03X57092800Y-75118400I-2500000J0D01*
G01*
X53047800Y-77678400D02*
X56137800Y-77678400D01*
X54558738Y-65386800D02*
G75*
G02X56104030Y-70936800I462J-2990000D01*
G01*
X54559662Y-65386800D02*
G75*
G03X53014370Y-70936800I-462J-2990000D01*
G01*
X57059200Y-68376800D02*
G75*
G03X57059200Y-68376800I-2500000J0D01*
G01*
X53014200Y-70936800D02*
X56104200Y-70936800D01*
X53999938Y-58376400D02*
G75*
G02X55545230Y-63926400I462J-2990000D01*
G01*
X54000862Y-58376400D02*
G75*
G03X52455570Y-63926400I-462J-2990000D01*
G01*
X56500400Y-61366400D02*
G75*
G03X56500400Y-61366400I-2500000J0D01*
G01*
X52455400Y-63926400D02*
X55545400Y-63926400D01*
X54304738Y-51620000D02*
G75*
G02X55850030Y-57170000I462J-2990000D01*
G01*
X54305662Y-51620000D02*
G75*
G03X52760370Y-57170000I-462J-2990000D01*
G01*
X56805200Y-54610000D02*
G75*
G03X56805200Y-54610000I-2500000J0D01*
G01*
X52760200Y-57170000D02*
X55850200Y-57170000D01*
X54483538Y-44272400D02*
G75*
G02X56028830Y-49822400I462J-2990000D01*
G01*
X54484462Y-44272400D02*
G75*
G03X52939170Y-49822400I-462J-2990000D01*
G01*
X56984000Y-47262400D02*
G75*
G03X56984000Y-47262400I-2500000J0D01*
G01*
X52939000Y-49822400D02*
X56029000Y-49822400D01*
X54483538Y-36772400D02*
G75*
G02X56028830Y-42322400I462J-2990000D01*
G01*
X54484462Y-36772400D02*
G75*
G03X52939170Y-42322400I-462J-2990000D01*
G01*
X56984000Y-39762400D02*
G75*
G03X56984000Y-39762400I-2500000J0D01*
G01*
X52939000Y-42322400D02*
X56029000Y-42322400D01*
X91701200Y-34950862D02*
G75*
G02X97251200Y-33405570I2990000J462D01*
G01*
X91701200Y-34949938D02*
G75*
G03X97251200Y-36495230I2990000J-462D01*
G01*
X97191200Y-34950400D02*
G75*
G03X97191200Y-34950400I-2500000J0D01*
G01*
X97251200Y-36495400D02*
X97251200Y-33405400D01*
X89146800Y-41960338D02*
G75*
G02X83596800Y-43505630I-2990000J-462D01*
G01*
X89146800Y-41961262D02*
G75*
G03X83596800Y-40415970I-2990000J462D01*
G01*
X88656800Y-41960800D02*
G75*
G03X88656800Y-41960800I-2500000J0D01*
G01*
X83596800Y-40415800D02*
X83596800Y-43505800D01*
D10*
X90704761Y-81700133D02*
X90752380Y-81557276D01*
X90752380Y-81319180D01*
X90704761Y-81223942D01*
X90657142Y-81176323D01*
X90561904Y-81128704D01*
X90466666Y-81128704D01*
X90371428Y-81176323D01*
X90323809Y-81223942D01*
X90276190Y-81319180D01*
X90228571Y-81509657D01*
X90180952Y-81604895D01*
X90133333Y-81652514D01*
X90038095Y-81700133D01*
X89942857Y-81700133D01*
X89847619Y-81652514D01*
X89800000Y-81604895D01*
X89752380Y-81509657D01*
X89752380Y-81271561D01*
X89800000Y-81128704D01*
X89752380Y-80795371D02*
X90752380Y-80557276D01*
X90038095Y-80366800D01*
X90752380Y-80176323D01*
X89752380Y-79938228D01*
X89752380Y-79081085D02*
X89752380Y-79557276D01*
X90228571Y-79604895D01*
X90180952Y-79557276D01*
X90133333Y-79462038D01*
X90133333Y-79223942D01*
X90180952Y-79128704D01*
X90228571Y-79081085D01*
X90323809Y-79033466D01*
X90561904Y-79033466D01*
X90657142Y-79081085D01*
X90704761Y-79128704D01*
X90752380Y-79223942D01*
X90752380Y-79462038D01*
X90704761Y-79557276D01*
X90657142Y-79604895D01*
X67245466Y-30408761D02*
X67388323Y-30456380D01*
X67626419Y-30456380D01*
X67721657Y-30408761D01*
X67769276Y-30361142D01*
X67816895Y-30265904D01*
X67816895Y-30170666D01*
X67769276Y-30075428D01*
X67721657Y-30027809D01*
X67626419Y-29980190D01*
X67435942Y-29932571D01*
X67340704Y-29884952D01*
X67293085Y-29837333D01*
X67245466Y-29742095D01*
X67245466Y-29646857D01*
X67293085Y-29551619D01*
X67340704Y-29504000D01*
X67435942Y-29456380D01*
X67674038Y-29456380D01*
X67816895Y-29504000D01*
X68150228Y-29456380D02*
X68388323Y-30456380D01*
X68578800Y-29742095D01*
X68769276Y-30456380D01*
X69007371Y-29456380D01*
X69816895Y-29789714D02*
X69816895Y-30456380D01*
X69578800Y-29408761D02*
X69340704Y-30123047D01*
X69959752Y-30123047D01*
X90704761Y-71590933D02*
X90752380Y-71448076D01*
X90752380Y-71209980D01*
X90704761Y-71114742D01*
X90657142Y-71067123D01*
X90561904Y-71019504D01*
X90466666Y-71019504D01*
X90371428Y-71067123D01*
X90323809Y-71114742D01*
X90276190Y-71209980D01*
X90228571Y-71400457D01*
X90180952Y-71495695D01*
X90133333Y-71543314D01*
X90038095Y-71590933D01*
X89942857Y-71590933D01*
X89847619Y-71543314D01*
X89800000Y-71495695D01*
X89752380Y-71400457D01*
X89752380Y-71162361D01*
X89800000Y-71019504D01*
X89752380Y-70686171D02*
X90752380Y-70448076D01*
X90038095Y-70257600D01*
X90752380Y-70067123D01*
X89752380Y-69829028D01*
X89752380Y-69543314D02*
X89752380Y-68924266D01*
X90133333Y-69257600D01*
X90133333Y-69114742D01*
X90180952Y-69019504D01*
X90228571Y-68971885D01*
X90323809Y-68924266D01*
X90561904Y-68924266D01*
X90657142Y-68971885D01*
X90704761Y-69019504D01*
X90752380Y-69114742D01*
X90752380Y-69400457D01*
X90704761Y-69495695D01*
X90657142Y-69543314D01*
X90704761Y-60668933D02*
X90752380Y-60526076D01*
X90752380Y-60287980D01*
X90704761Y-60192742D01*
X90657142Y-60145123D01*
X90561904Y-60097504D01*
X90466666Y-60097504D01*
X90371428Y-60145123D01*
X90323809Y-60192742D01*
X90276190Y-60287980D01*
X90228571Y-60478457D01*
X90180952Y-60573695D01*
X90133333Y-60621314D01*
X90038095Y-60668933D01*
X89942857Y-60668933D01*
X89847619Y-60621314D01*
X89800000Y-60573695D01*
X89752380Y-60478457D01*
X89752380Y-60240361D01*
X89800000Y-60097504D01*
X89752380Y-59764171D02*
X90752380Y-59526076D01*
X90038095Y-59335600D01*
X90752380Y-59145123D01*
X89752380Y-58907028D01*
X89847619Y-58573695D02*
X89800000Y-58526076D01*
X89752380Y-58430838D01*
X89752380Y-58192742D01*
X89800000Y-58097504D01*
X89847619Y-58049885D01*
X89942857Y-58002266D01*
X90038095Y-58002266D01*
X90180952Y-58049885D01*
X90752380Y-58621314D01*
X90752380Y-58002266D01*
X90704761Y-50083333D02*
X90752380Y-49940476D01*
X90752380Y-49702380D01*
X90704761Y-49607142D01*
X90657142Y-49559523D01*
X90561904Y-49511904D01*
X90466666Y-49511904D01*
X90371428Y-49559523D01*
X90323809Y-49607142D01*
X90276190Y-49702380D01*
X90228571Y-49892857D01*
X90180952Y-49988095D01*
X90133333Y-50035714D01*
X90038095Y-50083333D01*
X89942857Y-50083333D01*
X89847619Y-50035714D01*
X89800000Y-49988095D01*
X89752380Y-49892857D01*
X89752380Y-49654761D01*
X89800000Y-49511904D01*
X89752380Y-49178571D02*
X90752380Y-48940476D01*
X90038095Y-48750000D01*
X90752380Y-48559523D01*
X89752380Y-48321428D01*
X90752380Y-47416666D02*
X90752380Y-47988095D01*
X90752380Y-47702380D02*
X89752380Y-47702380D01*
X89895238Y-47797619D01*
X89990476Y-47892857D01*
X90038095Y-47988095D01*
X79168666Y-89469980D02*
X79168666Y-90184266D01*
X79121047Y-90327123D01*
X79025809Y-90422361D01*
X78882952Y-90469980D01*
X78787714Y-90469980D01*
X80168666Y-90469980D02*
X79597238Y-90469980D01*
X79882952Y-90469980D02*
X79882952Y-89469980D01*
X79787714Y-89612838D01*
X79692476Y-89708076D01*
X79597238Y-89755695D01*
X77635180Y-43518057D02*
X77158990Y-43851390D01*
X77635180Y-44089485D02*
X76635180Y-44089485D01*
X76635180Y-43708533D01*
X76682800Y-43613295D01*
X76730419Y-43565676D01*
X76825657Y-43518057D01*
X76968514Y-43518057D01*
X77063752Y-43565676D01*
X77111371Y-43613295D01*
X77158990Y-43708533D01*
X77158990Y-44089485D01*
X77635180Y-42565676D02*
X77635180Y-43137104D01*
X77635180Y-42851390D02*
X76635180Y-42851390D01*
X76778038Y-42946628D01*
X76873276Y-43041866D01*
X76920895Y-43137104D01*
X77635180Y-41613295D02*
X77635180Y-42184723D01*
X77635180Y-41899009D02*
X76635180Y-41899009D01*
X76778038Y-41994247D01*
X76873276Y-42089485D01*
X76920895Y-42184723D01*
X78587695Y-54526380D02*
X78587695Y-55335904D01*
X78635314Y-55431142D01*
X78682933Y-55478761D01*
X78778171Y-55526380D01*
X78968647Y-55526380D01*
X79063885Y-55478761D01*
X79111504Y-55431142D01*
X79159123Y-55335904D01*
X79159123Y-54526380D01*
X80159123Y-55526380D02*
X79587695Y-55526380D01*
X79873409Y-55526380D02*
X79873409Y-54526380D01*
X79778171Y-54669238D01*
X79682933Y-54764476D01*
X79587695Y-54812095D01*
X63568342Y-99139180D02*
X63235009Y-98662990D01*
X62996914Y-99139180D02*
X62996914Y-98139180D01*
X63377866Y-98139180D01*
X63473104Y-98186800D01*
X63520723Y-98234419D01*
X63568342Y-98329657D01*
X63568342Y-98472514D01*
X63520723Y-98567752D01*
X63473104Y-98615371D01*
X63377866Y-98662990D01*
X62996914Y-98662990D01*
X64520723Y-99139180D02*
X63949295Y-99139180D01*
X64235009Y-99139180D02*
X64235009Y-98139180D01*
X64139771Y-98282038D01*
X64044533Y-98377276D01*
X63949295Y-98424895D01*
X65139771Y-98139180D02*
X65235009Y-98139180D01*
X65330247Y-98186800D01*
X65377866Y-98234419D01*
X65425485Y-98329657D01*
X65473104Y-98520133D01*
X65473104Y-98758228D01*
X65425485Y-98948704D01*
X65377866Y-99043942D01*
X65330247Y-99091561D01*
X65235009Y-99139180D01*
X65139771Y-99139180D01*
X65044533Y-99091561D01*
X64996914Y-99043942D01*
X64949295Y-98948704D01*
X64901676Y-98758228D01*
X64901676Y-98520133D01*
X64949295Y-98329657D01*
X64996914Y-98234419D01*
X65044533Y-98186800D01*
X65139771Y-98139180D01*
X64603333Y-91265180D02*
X64270000Y-90788990D01*
X64031904Y-91265180D02*
X64031904Y-90265180D01*
X64412857Y-90265180D01*
X64508095Y-90312800D01*
X64555714Y-90360419D01*
X64603333Y-90455657D01*
X64603333Y-90598514D01*
X64555714Y-90693752D01*
X64508095Y-90741371D01*
X64412857Y-90788990D01*
X64031904Y-90788990D01*
X65079523Y-91265180D02*
X65270000Y-91265180D01*
X65365238Y-91217561D01*
X65412857Y-91169942D01*
X65508095Y-91027085D01*
X65555714Y-90836609D01*
X65555714Y-90455657D01*
X65508095Y-90360419D01*
X65460476Y-90312800D01*
X65365238Y-90265180D01*
X65174761Y-90265180D01*
X65079523Y-90312800D01*
X65031904Y-90360419D01*
X64984285Y-90455657D01*
X64984285Y-90693752D01*
X65031904Y-90788990D01*
X65079523Y-90836609D01*
X65174761Y-90884228D01*
X65365238Y-90884228D01*
X65460476Y-90836609D01*
X65508095Y-90788990D01*
X65555714Y-90693752D01*
X64400133Y-83391180D02*
X64066800Y-82914990D01*
X63828704Y-83391180D02*
X63828704Y-82391180D01*
X64209657Y-82391180D01*
X64304895Y-82438800D01*
X64352514Y-82486419D01*
X64400133Y-82581657D01*
X64400133Y-82724514D01*
X64352514Y-82819752D01*
X64304895Y-82867371D01*
X64209657Y-82914990D01*
X63828704Y-82914990D01*
X64971561Y-82819752D02*
X64876323Y-82772133D01*
X64828704Y-82724514D01*
X64781085Y-82629276D01*
X64781085Y-82581657D01*
X64828704Y-82486419D01*
X64876323Y-82438800D01*
X64971561Y-82391180D01*
X65162038Y-82391180D01*
X65257276Y-82438800D01*
X65304895Y-82486419D01*
X65352514Y-82581657D01*
X65352514Y-82629276D01*
X65304895Y-82724514D01*
X65257276Y-82772133D01*
X65162038Y-82819752D01*
X64971561Y-82819752D01*
X64876323Y-82867371D01*
X64828704Y-82914990D01*
X64781085Y-83010228D01*
X64781085Y-83200704D01*
X64828704Y-83295942D01*
X64876323Y-83343561D01*
X64971561Y-83391180D01*
X65162038Y-83391180D01*
X65257276Y-83343561D01*
X65304895Y-83295942D01*
X65352514Y-83200704D01*
X65352514Y-83010228D01*
X65304895Y-82914990D01*
X65257276Y-82867371D01*
X65162038Y-82819752D01*
X64146133Y-76939580D02*
X63812800Y-76463390D01*
X63574704Y-76939580D02*
X63574704Y-75939580D01*
X63955657Y-75939580D01*
X64050895Y-75987200D01*
X64098514Y-76034819D01*
X64146133Y-76130057D01*
X64146133Y-76272914D01*
X64098514Y-76368152D01*
X64050895Y-76415771D01*
X63955657Y-76463390D01*
X63574704Y-76463390D01*
X64479466Y-75939580D02*
X65146133Y-75939580D01*
X64717561Y-76939580D01*
X64400133Y-70335580D02*
X64066800Y-69859390D01*
X63828704Y-70335580D02*
X63828704Y-69335580D01*
X64209657Y-69335580D01*
X64304895Y-69383200D01*
X64352514Y-69430819D01*
X64400133Y-69526057D01*
X64400133Y-69668914D01*
X64352514Y-69764152D01*
X64304895Y-69811771D01*
X64209657Y-69859390D01*
X63828704Y-69859390D01*
X65257276Y-69335580D02*
X65066800Y-69335580D01*
X64971561Y-69383200D01*
X64923942Y-69430819D01*
X64828704Y-69573676D01*
X64781085Y-69764152D01*
X64781085Y-70145104D01*
X64828704Y-70240342D01*
X64876323Y-70287961D01*
X64971561Y-70335580D01*
X65162038Y-70335580D01*
X65257276Y-70287961D01*
X65304895Y-70240342D01*
X65352514Y-70145104D01*
X65352514Y-69907009D01*
X65304895Y-69811771D01*
X65257276Y-69764152D01*
X65162038Y-69716533D01*
X64971561Y-69716533D01*
X64876323Y-69764152D01*
X64828704Y-69811771D01*
X64781085Y-69907009D01*
X64654133Y-63375980D02*
X64320800Y-62899790D01*
X64082704Y-63375980D02*
X64082704Y-62375980D01*
X64463657Y-62375980D01*
X64558895Y-62423600D01*
X64606514Y-62471219D01*
X64654133Y-62566457D01*
X64654133Y-62709314D01*
X64606514Y-62804552D01*
X64558895Y-62852171D01*
X64463657Y-62899790D01*
X64082704Y-62899790D01*
X65558895Y-62375980D02*
X65082704Y-62375980D01*
X65035085Y-62852171D01*
X65082704Y-62804552D01*
X65177942Y-62756933D01*
X65416038Y-62756933D01*
X65511276Y-62804552D01*
X65558895Y-62852171D01*
X65606514Y-62947409D01*
X65606514Y-63185504D01*
X65558895Y-63280742D01*
X65511276Y-63328361D01*
X65416038Y-63375980D01*
X65177942Y-63375980D01*
X65082704Y-63328361D01*
X65035085Y-63280742D01*
X64603333Y-56975180D02*
X64270000Y-56498990D01*
X64031904Y-56975180D02*
X64031904Y-55975180D01*
X64412857Y-55975180D01*
X64508095Y-56022800D01*
X64555714Y-56070419D01*
X64603333Y-56165657D01*
X64603333Y-56308514D01*
X64555714Y-56403752D01*
X64508095Y-56451371D01*
X64412857Y-56498990D01*
X64031904Y-56498990D01*
X65460476Y-56308514D02*
X65460476Y-56975180D01*
X65222380Y-55927561D02*
X64984285Y-56641847D01*
X65603333Y-56641847D01*
X64450933Y-49913980D02*
X64117600Y-49437790D01*
X63879504Y-49913980D02*
X63879504Y-48913980D01*
X64260457Y-48913980D01*
X64355695Y-48961600D01*
X64403314Y-49009219D01*
X64450933Y-49104457D01*
X64450933Y-49247314D01*
X64403314Y-49342552D01*
X64355695Y-49390171D01*
X64260457Y-49437790D01*
X63879504Y-49437790D01*
X64784266Y-48913980D02*
X65403314Y-48913980D01*
X65069980Y-49294933D01*
X65212838Y-49294933D01*
X65308076Y-49342552D01*
X65355695Y-49390171D01*
X65403314Y-49485409D01*
X65403314Y-49723504D01*
X65355695Y-49818742D01*
X65308076Y-49866361D01*
X65212838Y-49913980D01*
X64927123Y-49913980D01*
X64831885Y-49866361D01*
X64784266Y-49818742D01*
X64501733Y-43259180D02*
X64168400Y-42782990D01*
X63930304Y-43259180D02*
X63930304Y-42259180D01*
X64311257Y-42259180D01*
X64406495Y-42306800D01*
X64454114Y-42354419D01*
X64501733Y-42449657D01*
X64501733Y-42592514D01*
X64454114Y-42687752D01*
X64406495Y-42735371D01*
X64311257Y-42782990D01*
X63930304Y-42782990D01*
X64882685Y-42354419D02*
X64930304Y-42306800D01*
X65025542Y-42259180D01*
X65263638Y-42259180D01*
X65358876Y-42306800D01*
X65406495Y-42354419D01*
X65454114Y-42449657D01*
X65454114Y-42544895D01*
X65406495Y-42687752D01*
X64835066Y-43259180D01*
X65454114Y-43259180D01*
X83805733Y-37417180D02*
X83472400Y-36940990D01*
X83234304Y-37417180D02*
X83234304Y-36417180D01*
X83615257Y-36417180D01*
X83710495Y-36464800D01*
X83758114Y-36512419D01*
X83805733Y-36607657D01*
X83805733Y-36750514D01*
X83758114Y-36845752D01*
X83710495Y-36893371D01*
X83615257Y-36940990D01*
X83234304Y-36940990D01*
X84758114Y-37417180D02*
X84186685Y-37417180D01*
X84472400Y-37417180D02*
X84472400Y-36417180D01*
X84377161Y-36560038D01*
X84281923Y-36655276D01*
X84186685Y-36702895D01*
X51102380Y-97226285D02*
X50102380Y-97226285D01*
X50102380Y-96988190D01*
X50150000Y-96845333D01*
X50245238Y-96750095D01*
X50340476Y-96702476D01*
X50530952Y-96654857D01*
X50673809Y-96654857D01*
X50864285Y-96702476D01*
X50959523Y-96750095D01*
X51054761Y-96845333D01*
X51102380Y-96988190D01*
X51102380Y-97226285D01*
X51102380Y-95702476D02*
X51102380Y-96273904D01*
X51102380Y-95988190D02*
X50102380Y-95988190D01*
X50245238Y-96083428D01*
X50340476Y-96178666D01*
X50388095Y-96273904D01*
X50102380Y-95083428D02*
X50102380Y-94988190D01*
X50150000Y-94892952D01*
X50197619Y-94845333D01*
X50292857Y-94797714D01*
X50483333Y-94750095D01*
X50721428Y-94750095D01*
X50911904Y-94797714D01*
X51007142Y-94845333D01*
X51054761Y-94892952D01*
X51102380Y-94988190D01*
X51102380Y-95083428D01*
X51054761Y-95178666D01*
X51007142Y-95226285D01*
X50911904Y-95273904D01*
X50721428Y-95321523D01*
X50483333Y-95321523D01*
X50292857Y-95273904D01*
X50197619Y-95226285D01*
X50150000Y-95178666D01*
X50102380Y-95083428D01*
X51102380Y-89638095D02*
X50102380Y-89638095D01*
X50102380Y-89400000D01*
X50150000Y-89257142D01*
X50245238Y-89161904D01*
X50340476Y-89114285D01*
X50530952Y-89066666D01*
X50673809Y-89066666D01*
X50864285Y-89114285D01*
X50959523Y-89161904D01*
X51054761Y-89257142D01*
X51102380Y-89400000D01*
X51102380Y-89638095D01*
X51102380Y-88590476D02*
X51102380Y-88400000D01*
X51054761Y-88304761D01*
X51007142Y-88257142D01*
X50864285Y-88161904D01*
X50673809Y-88114285D01*
X50292857Y-88114285D01*
X50197619Y-88161904D01*
X50150000Y-88209523D01*
X50102380Y-88304761D01*
X50102380Y-88495238D01*
X50150000Y-88590476D01*
X50197619Y-88638095D01*
X50292857Y-88685714D01*
X50530952Y-88685714D01*
X50626190Y-88638095D01*
X50673809Y-88590476D01*
X50721428Y-88495238D01*
X50721428Y-88304761D01*
X50673809Y-88209523D01*
X50626190Y-88161904D01*
X50530952Y-88114285D01*
X51102380Y-82729295D02*
X50102380Y-82729295D01*
X50102380Y-82491200D01*
X50150000Y-82348342D01*
X50245238Y-82253104D01*
X50340476Y-82205485D01*
X50530952Y-82157866D01*
X50673809Y-82157866D01*
X50864285Y-82205485D01*
X50959523Y-82253104D01*
X51054761Y-82348342D01*
X51102380Y-82491200D01*
X51102380Y-82729295D01*
X50530952Y-81586438D02*
X50483333Y-81681676D01*
X50435714Y-81729295D01*
X50340476Y-81776914D01*
X50292857Y-81776914D01*
X50197619Y-81729295D01*
X50150000Y-81681676D01*
X50102380Y-81586438D01*
X50102380Y-81395961D01*
X50150000Y-81300723D01*
X50197619Y-81253104D01*
X50292857Y-81205485D01*
X50340476Y-81205485D01*
X50435714Y-81253104D01*
X50483333Y-81300723D01*
X50530952Y-81395961D01*
X50530952Y-81586438D01*
X50578571Y-81681676D01*
X50626190Y-81729295D01*
X50721428Y-81776914D01*
X50911904Y-81776914D01*
X51007142Y-81729295D01*
X51054761Y-81681676D01*
X51102380Y-81586438D01*
X51102380Y-81395961D01*
X51054761Y-81300723D01*
X51007142Y-81253104D01*
X50911904Y-81205485D01*
X50721428Y-81205485D01*
X50626190Y-81253104D01*
X50578571Y-81300723D01*
X50530952Y-81395961D01*
X51085180Y-75856495D02*
X50085180Y-75856495D01*
X50085180Y-75618400D01*
X50132800Y-75475542D01*
X50228038Y-75380304D01*
X50323276Y-75332685D01*
X50513752Y-75285066D01*
X50656609Y-75285066D01*
X50847085Y-75332685D01*
X50942323Y-75380304D01*
X51037561Y-75475542D01*
X51085180Y-75618400D01*
X51085180Y-75856495D01*
X50085180Y-74951733D02*
X50085180Y-74285066D01*
X51085180Y-74713638D01*
X51051580Y-69114895D02*
X50051580Y-69114895D01*
X50051580Y-68876800D01*
X50099200Y-68733942D01*
X50194438Y-68638704D01*
X50289676Y-68591085D01*
X50480152Y-68543466D01*
X50623009Y-68543466D01*
X50813485Y-68591085D01*
X50908723Y-68638704D01*
X51003961Y-68733942D01*
X51051580Y-68876800D01*
X51051580Y-69114895D01*
X50051580Y-67686323D02*
X50051580Y-67876800D01*
X50099200Y-67972038D01*
X50146819Y-68019657D01*
X50289676Y-68114895D01*
X50480152Y-68162514D01*
X50861104Y-68162514D01*
X50956342Y-68114895D01*
X51003961Y-68067276D01*
X51051580Y-67972038D01*
X51051580Y-67781561D01*
X51003961Y-67686323D01*
X50956342Y-67638704D01*
X50861104Y-67591085D01*
X50623009Y-67591085D01*
X50527771Y-67638704D01*
X50480152Y-67686323D01*
X50432533Y-67781561D01*
X50432533Y-67972038D01*
X50480152Y-68067276D01*
X50527771Y-68114895D01*
X50623009Y-68162514D01*
X50492780Y-62104495D02*
X49492780Y-62104495D01*
X49492780Y-61866400D01*
X49540400Y-61723542D01*
X49635638Y-61628304D01*
X49730876Y-61580685D01*
X49921352Y-61533066D01*
X50064209Y-61533066D01*
X50254685Y-61580685D01*
X50349923Y-61628304D01*
X50445161Y-61723542D01*
X50492780Y-61866400D01*
X50492780Y-62104495D01*
X49492780Y-60628304D02*
X49492780Y-61104495D01*
X49968971Y-61152114D01*
X49921352Y-61104495D01*
X49873733Y-61009257D01*
X49873733Y-60771161D01*
X49921352Y-60675923D01*
X49968971Y-60628304D01*
X50064209Y-60580685D01*
X50302304Y-60580685D01*
X50397542Y-60628304D01*
X50445161Y-60675923D01*
X50492780Y-60771161D01*
X50492780Y-61009257D01*
X50445161Y-61104495D01*
X50397542Y-61152114D01*
X50797580Y-55348095D02*
X49797580Y-55348095D01*
X49797580Y-55110000D01*
X49845200Y-54967142D01*
X49940438Y-54871904D01*
X50035676Y-54824285D01*
X50226152Y-54776666D01*
X50369009Y-54776666D01*
X50559485Y-54824285D01*
X50654723Y-54871904D01*
X50749961Y-54967142D01*
X50797580Y-55110000D01*
X50797580Y-55348095D01*
X50130914Y-53919523D02*
X50797580Y-53919523D01*
X49749961Y-54157619D02*
X50464247Y-54395714D01*
X50464247Y-53776666D01*
X50976380Y-48000495D02*
X49976380Y-48000495D01*
X49976380Y-47762400D01*
X50024000Y-47619542D01*
X50119238Y-47524304D01*
X50214476Y-47476685D01*
X50404952Y-47429066D01*
X50547809Y-47429066D01*
X50738285Y-47476685D01*
X50833523Y-47524304D01*
X50928761Y-47619542D01*
X50976380Y-47762400D01*
X50976380Y-48000495D01*
X49976380Y-47095733D02*
X49976380Y-46476685D01*
X50357333Y-46810019D01*
X50357333Y-46667161D01*
X50404952Y-46571923D01*
X50452571Y-46524304D01*
X50547809Y-46476685D01*
X50785904Y-46476685D01*
X50881142Y-46524304D01*
X50928761Y-46571923D01*
X50976380Y-46667161D01*
X50976380Y-46952876D01*
X50928761Y-47048114D01*
X50881142Y-47095733D01*
X50976380Y-40500495D02*
X49976380Y-40500495D01*
X49976380Y-40262400D01*
X50024000Y-40119542D01*
X50119238Y-40024304D01*
X50214476Y-39976685D01*
X50404952Y-39929066D01*
X50547809Y-39929066D01*
X50738285Y-39976685D01*
X50833523Y-40024304D01*
X50928761Y-40119542D01*
X50976380Y-40262400D01*
X50976380Y-40500495D01*
X50071619Y-39548114D02*
X50024000Y-39500495D01*
X49976380Y-39405257D01*
X49976380Y-39167161D01*
X50024000Y-39071923D01*
X50071619Y-39024304D01*
X50166857Y-38976685D01*
X50262095Y-38976685D01*
X50404952Y-39024304D01*
X50976380Y-39595733D01*
X50976380Y-38976685D01*
X93953104Y-39362780D02*
X93953104Y-38362780D01*
X94191200Y-38362780D01*
X94334057Y-38410400D01*
X94429295Y-38505638D01*
X94476914Y-38600876D01*
X94524533Y-38791352D01*
X94524533Y-38934209D01*
X94476914Y-39124685D01*
X94429295Y-39219923D01*
X94334057Y-39315161D01*
X94191200Y-39362780D01*
X93953104Y-39362780D01*
X95476914Y-39362780D02*
X94905485Y-39362780D01*
X95191200Y-39362780D02*
X95191200Y-38362780D01*
X95095961Y-38505638D01*
X95000723Y-38600876D01*
X94905485Y-38648495D01*
X85990133Y-38357942D02*
X85942514Y-38405561D01*
X85799657Y-38453180D01*
X85704419Y-38453180D01*
X85561561Y-38405561D01*
X85466323Y-38310323D01*
X85418704Y-38215085D01*
X85371085Y-38024609D01*
X85371085Y-37881752D01*
X85418704Y-37691276D01*
X85466323Y-37596038D01*
X85561561Y-37500800D01*
X85704419Y-37453180D01*
X85799657Y-37453180D01*
X85942514Y-37500800D01*
X85990133Y-37548419D01*
X86942514Y-38453180D02*
X86371085Y-38453180D01*
X86656800Y-38453180D02*
X86656800Y-37453180D01*
X86561561Y-37596038D01*
X86466323Y-37691276D01*
X86371085Y-37738895D01*
M02*
