M48
; DRILL file {KiCad 5.1.1-8be2ce7~80~ubuntu18.04.1} date Fri 19 Apr 2019 02:09:08 AM PDT
; FORMAT={-:-/ absolute / inch / decimal}
; #@! TF.CreationDate,2019-04-19T02:09:08-07:00
; #@! TF.GenerationSoftware,Kicad,Pcbnew,5.1.1-8be2ce7~80~ubuntu18.04.1
; #@! TF.FileFunction,Plated,1,2,PTH
FMAT,2
INCH
T1C0.0315
T2C0.0354
T3C0.0433
T4C0.0598
%
G90
G05
T1
X3.132Y-1.838
X2.974Y-2.36
X2.392Y-3.172
X2.692Y-3.172
X2.396Y-1.592
X2.696Y-1.592
X2.378Y-3.792
X2.678Y-3.792
X2.382Y-2.918
X2.682Y-2.918
X2.394Y-1.854
X2.694Y-1.854
X3.132Y-1.538
X2.4Y-3.482
X2.7Y-3.482
X2.402Y-2.384
X2.702Y-2.384
X2.392Y-2.658
X2.692Y-2.658
X2.4Y-2.132
X2.7Y-2.132
X2.974Y-2.26
X2.974Y-2.46
X2.974Y-2.56
X2.974Y-2.66
X2.974Y-2.76
X2.974Y-2.86
X2.974Y-2.96
X3.274Y-2.26
X3.274Y-2.36
X3.274Y-2.46
X3.274Y-2.56
X3.274Y-2.66
X3.274Y-2.76
X3.274Y-2.86
X3.274Y-2.96
X3.156Y-1.362
X3.456Y-1.362
T2
X2.145Y-1.8107
X2.145Y-1.9107
X2.15Y-3.178
X2.15Y-3.278
X2.145Y-1.5154
X2.145Y-1.6154
X3.342Y-1.652
X3.442Y-1.652
X2.15Y-3.45
X2.15Y-3.55
X2.126Y-2.366
X2.126Y-2.466
X2.148Y-2.642
X2.148Y-2.742
X3.678Y-1.376
X3.778Y-1.376
X2.138Y-2.1
X2.138Y-2.2
X2.1493Y-2.9074
X2.1493Y-3.0074
X2.15Y-3.73
X2.15Y-3.83
T3
X2.572Y-1.26
X2.572Y-1.4372
X2.8279Y-1.26
X2.8279Y-1.4372
X3.6339Y-1.7913
X3.6339Y-2.0472
X3.811Y-1.7913
X3.811Y-2.0472
X3.6339Y-3.0361
X3.6339Y-3.292
X3.811Y-3.0361
X3.811Y-3.292
X3.6339Y-2.2081
X3.6339Y-2.464
X3.811Y-2.2081
X3.811Y-2.464
X3.6339Y-2.6381
X3.6339Y-2.894
X3.811Y-2.6381
X3.811Y-2.894
T4
X3.03Y-3.744
X3.23Y-3.744
T0
M30
