M48
; DRILL file {KiCad 5.1.1-8be2ce7~80~ubuntu18.04.1} date Fri 19 Apr 2019 04:42:14 PM PDT
; FORMAT={-:-/ absolute / inch / decimal}
; #@! TF.CreationDate,2019-04-19T16:42:14-07:00
; #@! TF.GenerationSoftware,Kicad,Pcbnew,5.1.1-8be2ce7~80~ubuntu18.04.1
; #@! TF.FileFunction,Plated,1,2,PTH
FMAT,2
INCH
T1C0.0315
T2C0.0433
T3C0.0598
%
G90
G05
T1
X4.488Y-1.612
X4.788Y-1.612
X5.236Y-3.496
X5.536Y-3.496
X4.388Y-2.978
X4.388Y-3.278
X5.228Y-2.558
X5.528Y-2.558
X5.818Y-2.524
X5.818Y-3.124
X5.918Y-2.524
X5.918Y-3.124
X6.018Y-2.524
X6.018Y-3.124
X6.118Y-2.524
X6.118Y-3.124
X6.218Y-2.524
X6.218Y-3.124
X5.752Y-1.62
X6.052Y-1.62
X5.232Y-2.74
X5.532Y-2.74
X5.238Y-3.312
X5.538Y-3.312
X4.73Y-2.392
X4.73Y-2.492
X4.73Y-2.592
X4.73Y-2.692
X4.73Y-2.792
X4.73Y-2.892
X4.73Y-2.992
X4.73Y-3.092
X5.03Y-2.392
X5.03Y-2.492
X5.03Y-2.592
X5.03Y-2.692
X5.03Y-2.792
X5.03Y-2.892
X5.03Y-2.992
X5.03Y-3.092
X5.328Y-1.612
X5.628Y-1.612
X4.904Y-1.612
X5.204Y-1.612
X4.538Y-3.252
X4.538Y-3.552
X5.23Y-2.928
X5.53Y-2.928
X4.386Y-2.564
X4.386Y-2.864
X5.23Y-3.112
X5.53Y-3.112
X5.234Y-2.384
X5.534Y-2.384
T2
X3.922Y-2.746
X3.922Y-2.9232
X4.1779Y-2.746
X4.1779Y-2.9232
X5.2948Y-1.812
X5.2948Y-2.0679
X5.472Y-1.812
X5.472Y-2.0679
X6.0208Y-1.796
X6.0208Y-2.0519
X6.198Y-1.796
X6.198Y-2.0519
X3.936Y-3.088
X3.936Y-3.2652
X4.1919Y-3.088
X4.1919Y-3.2652
X5.6588Y-1.808
X5.6588Y-2.0639
X5.836Y-1.808
X5.836Y-2.0639
X4.9408Y-1.812
X4.9408Y-2.0679
X5.118Y-1.812
X5.118Y-2.0679
X3.94Y-2.37
X3.94Y-2.5472
X4.1959Y-2.37
X4.1959Y-2.5472
T3
X4.768Y-3.444
X4.968Y-3.444
T0
M30
