G04 #@! TF.GenerationSoftware,KiCad,Pcbnew,5.1.1-8be2ce7~80~ubuntu18.04.1*
G04 #@! TF.CreationDate,2019-04-19T16:42:06-07:00*
G04 #@! TF.ProjectId,7_segment_led,375f7365-676d-4656-9e74-5f6c65642e6b,v01*
G04 #@! TF.SameCoordinates,Original*
G04 #@! TF.FileFunction,Copper,L2,Bot*
G04 #@! TF.FilePolarity,Positive*
%FSLAX46Y46*%
G04 Gerber Fmt 4.6, Leading zero omitted, Abs format (unit mm)*
G04 Created by KiCad (PCBNEW 5.1.1-8be2ce7~80~ubuntu18.04.1) date 2019-04-19 16:42:06*
%MOMM*%
%LPD*%
G04 APERTURE LIST*
%ADD10C,2.000000*%
%ADD11O,1.600000X1.600000*%
%ADD12C,1.600000*%
%ADD13C,3.000000*%
%ADD14R,3.000000X3.000000*%
%ADD15R,1.524000X2.524000*%
%ADD16O,1.524000X2.524000*%
%ADD17R,1.600000X1.600000*%
%ADD18C,0.250000*%
%ADD19C,0.500000*%
G04 APERTURE END LIST*
D10*
X99974400Y-82935200D03*
X99974400Y-78435200D03*
X106474400Y-82935200D03*
X106474400Y-78435200D03*
D11*
X111404400Y-65125600D03*
D12*
X111404400Y-72745600D03*
D11*
X133045200Y-84124800D03*
D12*
X140665200Y-84124800D03*
D13*
X121107200Y-87477600D03*
D14*
X126187200Y-87477600D03*
D15*
X147777200Y-79349600D03*
D16*
X150317200Y-79349600D03*
X152857200Y-79349600D03*
X155397200Y-79349600D03*
X157937200Y-79349600D03*
X157937200Y-64109600D03*
X155397200Y-64109600D03*
X152857200Y-64109600D03*
X150317200Y-64109600D03*
X147777200Y-64109600D03*
D11*
X132943600Y-60553600D03*
D12*
X140563600Y-60553600D03*
D11*
X132791200Y-64973200D03*
D12*
X140411200Y-64973200D03*
X140512800Y-69596000D03*
D11*
X132892800Y-69596000D03*
X132842000Y-74371200D03*
D12*
X140462000Y-74371200D03*
X140462000Y-79044800D03*
D11*
X132842000Y-79044800D03*
D12*
X140614400Y-88798400D03*
D11*
X132994400Y-88798400D03*
X115265200Y-82600800D03*
D12*
X115265200Y-90220800D03*
D11*
X146100800Y-41148000D03*
D12*
X153720800Y-41148000D03*
X142951200Y-40944800D03*
D11*
X135331200Y-40944800D03*
D12*
X111455200Y-75641200D03*
D11*
X111455200Y-83261200D03*
X124561600Y-40944800D03*
D12*
X132181600Y-40944800D03*
X113995200Y-40944800D03*
D11*
X121615200Y-40944800D03*
D10*
X152929200Y-45618400D03*
X157429200Y-45618400D03*
X152929200Y-52118400D03*
X157429200Y-52118400D03*
X148234400Y-52423200D03*
X143734400Y-52423200D03*
X148234400Y-45923200D03*
X143734400Y-45923200D03*
X134488800Y-46024800D03*
X138988800Y-46024800D03*
X134488800Y-52524800D03*
X138988800Y-52524800D03*
X129997200Y-52524800D03*
X125497200Y-52524800D03*
X129997200Y-46024800D03*
X125497200Y-46024800D03*
X106118800Y-69748400D03*
X106118800Y-74248400D03*
X99618800Y-69748400D03*
X99618800Y-74248400D03*
X100076000Y-64698000D03*
X100076000Y-60198000D03*
X106576000Y-64698000D03*
X106576000Y-60198000D03*
D17*
X120142000Y-60756800D03*
D11*
X127762000Y-78536800D03*
X120142000Y-63296800D03*
X127762000Y-75996800D03*
X120142000Y-65836800D03*
X127762000Y-73456800D03*
X120142000Y-68376800D03*
X127762000Y-70916800D03*
X120142000Y-70916800D03*
X127762000Y-68376800D03*
X120142000Y-73456800D03*
X127762000Y-65836800D03*
X120142000Y-75996800D03*
X127762000Y-63296800D03*
X120142000Y-78536800D03*
X127762000Y-60756800D03*
D18*
X132943600Y-60553600D02*
X130860800Y-60553600D01*
X130860800Y-60553600D02*
X129438400Y-61976000D01*
X129438400Y-61976000D02*
X126593600Y-61976000D01*
X126593600Y-61976000D02*
X125730000Y-62839600D01*
X125730000Y-66344800D02*
X127762000Y-68376800D01*
X125730000Y-62839600D02*
X125730000Y-66344800D01*
D19*
X155397200Y-63609600D02*
X155397200Y-64109600D01*
X153141199Y-61353599D02*
X155397200Y-63609600D01*
X141363599Y-61353599D02*
X153141199Y-61353599D01*
X140563600Y-60553600D02*
X141363599Y-61353599D01*
D18*
X132791200Y-64973200D02*
X131114800Y-66649600D01*
X131114800Y-67564000D02*
X127762000Y-70916800D01*
X131114800Y-66649600D02*
X131114800Y-67564000D01*
D19*
X139279830Y-64973200D02*
X138379200Y-64072570D01*
X140411200Y-64973200D02*
X139279830Y-64973200D01*
X138379200Y-64072570D02*
X138379200Y-59588400D01*
X138379200Y-59588400D02*
X139039600Y-58928000D01*
X139039600Y-58928000D02*
X154127200Y-58928000D01*
X154127200Y-58928000D02*
X154178000Y-58978800D01*
X154178000Y-58978800D02*
X155752800Y-58978800D01*
X157937200Y-61163200D02*
X157937200Y-64109600D01*
X155752800Y-58978800D02*
X157937200Y-61163200D01*
D18*
X131622800Y-69596000D02*
X127762000Y-73456800D01*
X132892800Y-69596000D02*
X131622800Y-69596000D01*
D19*
X140512800Y-69596000D02*
X150926800Y-69596000D01*
X155397200Y-74066400D02*
X155397200Y-79349600D01*
X150926800Y-69596000D02*
X155397200Y-74066400D01*
D18*
X129387600Y-74371200D02*
X127762000Y-75996800D01*
X132842000Y-74371200D02*
X129387600Y-74371200D01*
D19*
X150317200Y-78849600D02*
X150317200Y-79349600D01*
X146638799Y-75171199D02*
X150317200Y-78849600D01*
X141261999Y-75171199D02*
X146638799Y-75171199D01*
X140462000Y-74371200D02*
X141261999Y-75171199D01*
D18*
X128270000Y-79044800D02*
X127762000Y-78536800D01*
X132842000Y-79044800D02*
X128270000Y-79044800D01*
D19*
X147472400Y-79044800D02*
X147777200Y-79349600D01*
X140462000Y-79044800D02*
X147472400Y-79044800D01*
D18*
X136550400Y-80619600D02*
X133045200Y-84124800D01*
X135483600Y-62687200D02*
X136550400Y-63754000D01*
X136550400Y-63754000D02*
X136550400Y-80619600D01*
X127762000Y-63296800D02*
X128371600Y-62687200D01*
X128371600Y-62687200D02*
X135483600Y-62687200D01*
D19*
X150317200Y-64609600D02*
X147159600Y-67767200D01*
X150317200Y-64109600D02*
X150317200Y-64609600D01*
D18*
X140411200Y-84124800D02*
X140665200Y-84124800D01*
X138709400Y-68554600D02*
X138709400Y-82169000D01*
X138709400Y-82169000D02*
X140665200Y-84124800D01*
X147159600Y-67767200D02*
X139496800Y-67767200D01*
X139496800Y-67767200D02*
X138709400Y-68554600D01*
X128561999Y-65036801D02*
X129831999Y-65036801D01*
X127762000Y-65836800D02*
X128561999Y-65036801D01*
X129831999Y-65036801D02*
X131318000Y-63550800D01*
X131318000Y-63550800D02*
X134416800Y-63550800D01*
X134416800Y-63550800D02*
X135178800Y-64312800D01*
X135178800Y-64312800D02*
X135178800Y-79908400D01*
X135178800Y-79908400D02*
X133400800Y-81686400D01*
X133400800Y-81686400D02*
X131572000Y-81686400D01*
X131572000Y-81686400D02*
X130657600Y-82600800D01*
X130657600Y-86461600D02*
X132994400Y-88798400D01*
X130657600Y-82600800D02*
X130657600Y-86461600D01*
D19*
X146515200Y-64109600D02*
X147777200Y-64109600D01*
X144026000Y-66598800D02*
X146515200Y-64109600D01*
D18*
X138582400Y-66598800D02*
X144026000Y-66598800D01*
X138531600Y-66598800D02*
X138582400Y-66598800D01*
X140614400Y-87667030D02*
X137464800Y-84517430D01*
X140614400Y-88798400D02*
X140614400Y-87667030D01*
X137464800Y-67665600D02*
X138531600Y-66598800D01*
X137464800Y-84517430D02*
X137464800Y-67665600D01*
X121158000Y-66852800D02*
X120142000Y-65836800D01*
X115925600Y-83261200D02*
X121412000Y-83261200D01*
X121412000Y-83261200D02*
X124460000Y-80213200D01*
X124460000Y-80213200D02*
X124460000Y-68122800D01*
X115265200Y-82600800D02*
X115925600Y-83261200D01*
X124460000Y-68122800D02*
X123190000Y-66852800D01*
X123190000Y-66852800D02*
X121158000Y-66852800D01*
X100974399Y-83935199D02*
X101003999Y-83935199D01*
X99974400Y-82935200D02*
X100974399Y-83935199D01*
X101003999Y-83935199D02*
X102768400Y-85699600D01*
X112166400Y-85699600D02*
X115265200Y-82600800D01*
X102768400Y-85699600D02*
X112166400Y-85699600D01*
X125361599Y-40144801D02*
X124561600Y-40944800D01*
X136131199Y-40144801D02*
X135331200Y-40944800D01*
D19*
X112255199Y-76441199D02*
X115506399Y-76441199D01*
X111455200Y-75641200D02*
X112255199Y-76441199D01*
X115506399Y-76441199D02*
X117602000Y-78536800D01*
X117602000Y-78536800D02*
X120142000Y-78536800D01*
X111404400Y-75590400D02*
X111455200Y-75641200D01*
X111404400Y-72745600D02*
X111404400Y-75590400D01*
X118364000Y-90220800D02*
X121107200Y-87477600D01*
X115265200Y-90220800D02*
X118364000Y-90220800D01*
X115265200Y-90220800D02*
X114133830Y-90220800D01*
X121615200Y-40944800D02*
X124561600Y-40944800D01*
X125361599Y-40144801D02*
X126733199Y-40144801D01*
X126733199Y-40144801D02*
X127609600Y-39268400D01*
X133654800Y-39268400D02*
X135331200Y-40944800D01*
X127609600Y-39268400D02*
X133654800Y-39268400D01*
X144061611Y-39108811D02*
X146100800Y-41148000D01*
X139656389Y-39108811D02*
X144061611Y-39108811D01*
X136131199Y-40144801D02*
X138620399Y-40144801D01*
X138620399Y-40144801D02*
X139656389Y-39108811D01*
X146900799Y-41947999D02*
X146100800Y-41148000D01*
X148729599Y-41947999D02*
X146900799Y-41947999D01*
X152146000Y-48920400D02*
X150469600Y-47244000D01*
X126898400Y-93268800D02*
X151079200Y-93268800D01*
X150469600Y-47244000D02*
X150469600Y-43688000D01*
X121107200Y-87477600D02*
X126898400Y-93268800D01*
X159664400Y-48920400D02*
X152146000Y-48920400D01*
X151079200Y-93268800D02*
X161290000Y-83058000D01*
X150469600Y-43688000D02*
X148729599Y-41947999D01*
X161290000Y-50546000D02*
X159664400Y-48920400D01*
X161290000Y-83058000D02*
X161290000Y-50546000D01*
X101295200Y-90220800D02*
X115265200Y-90220800D01*
X96062800Y-84988400D02*
X101295200Y-90220800D01*
X114249200Y-69900800D02*
X114249200Y-61163200D01*
X114249200Y-61163200D02*
X110439200Y-57353200D01*
X111404400Y-72745600D02*
X114249200Y-69900800D01*
X110439200Y-57353200D02*
X98653600Y-57353200D01*
X98653600Y-57353200D02*
X96062800Y-59944000D01*
X96062800Y-59944000D02*
X96062800Y-84988400D01*
D18*
X152929200Y-41939600D02*
X153720800Y-41148000D01*
X152929200Y-45618400D02*
X152929200Y-41939600D01*
X116535200Y-72390000D02*
X120142000Y-75996800D01*
X115874800Y-71729600D02*
X120142000Y-75996800D01*
X150114000Y-41148000D02*
X147015200Y-38049200D01*
X153720800Y-41148000D02*
X150114000Y-41148000D01*
X115874800Y-52730400D02*
X115874800Y-71729600D01*
X112420400Y-49276000D02*
X115874800Y-52730400D01*
X112471200Y-39674800D02*
X114096800Y-38049200D01*
X147015200Y-38049200D02*
X114096800Y-38049200D01*
X112420400Y-39674800D02*
X112471200Y-39674800D01*
X112420400Y-39674800D02*
X112420400Y-49276000D01*
X142951200Y-45140000D02*
X143734400Y-45923200D01*
X142951200Y-40944800D02*
X142951200Y-45140000D01*
X120142000Y-59706800D02*
X120142000Y-60756800D01*
X143734400Y-47883200D02*
X142087600Y-49530000D01*
X142087600Y-49530000D02*
X121462800Y-49530000D01*
X143734400Y-45923200D02*
X143734400Y-47883200D01*
X119176800Y-51816000D02*
X119176800Y-58741600D01*
X121462800Y-49530000D02*
X119176800Y-51816000D01*
X119176800Y-58741600D02*
X120142000Y-59706800D01*
X122428000Y-68376800D02*
X120142000Y-68376800D01*
X123647200Y-69596000D02*
X122428000Y-68376800D01*
X123647200Y-79756000D02*
X123647200Y-69596000D01*
X121310400Y-82092800D02*
X123647200Y-79756000D01*
X112255199Y-82461201D02*
X112356799Y-82461201D01*
X111455200Y-83261200D02*
X112255199Y-82461201D01*
X112356799Y-82461201D02*
X113639600Y-81178400D01*
X113639600Y-81178400D02*
X117500400Y-81178400D01*
X117500400Y-81178400D02*
X118414800Y-82092800D01*
X118414800Y-82092800D02*
X121310400Y-82092800D01*
X108813600Y-80619600D02*
X111455200Y-83261200D01*
X108813600Y-75528987D02*
X108813600Y-80619600D01*
X107533013Y-74248400D02*
X108813600Y-75528987D01*
X106118800Y-74248400D02*
X107533013Y-74248400D01*
X134488800Y-43252000D02*
X134488800Y-46024800D01*
X132181600Y-40944800D02*
X134488800Y-43252000D01*
X118262400Y-61417200D02*
X120142000Y-63296800D01*
X133488801Y-47024799D02*
X133488801Y-48171999D01*
X134488800Y-46024800D02*
X133488801Y-47024799D01*
X133488801Y-48171999D02*
X133045200Y-48615600D01*
X118262400Y-50342800D02*
X118262400Y-61417200D01*
X133045200Y-48615600D02*
X119989600Y-48615600D01*
X119989600Y-48615600D02*
X118262400Y-50342800D01*
X122986800Y-73761600D02*
X120142000Y-70916800D01*
X122986800Y-78841600D02*
X122986800Y-73761600D01*
X120599200Y-81229200D02*
X122986800Y-78841600D01*
X119329200Y-81229200D02*
X120599200Y-81229200D01*
X111404400Y-66256970D02*
X109829600Y-67831770D01*
X109829600Y-67831770D02*
X109829600Y-79146400D01*
X118668800Y-80568800D02*
X119329200Y-81229200D01*
X109829600Y-79146400D02*
X111252000Y-80568800D01*
X111404400Y-65125600D02*
X111404400Y-66256970D01*
X111252000Y-80568800D02*
X118668800Y-80568800D01*
X110976800Y-64698000D02*
X111404400Y-65125600D01*
X106576000Y-64698000D02*
X110976800Y-64698000D01*
X117551200Y-70866000D02*
X120142000Y-73456800D01*
X125184213Y-47752000D02*
X117957600Y-47752000D01*
X125497200Y-46024800D02*
X125497200Y-47439013D01*
X117551200Y-48158400D02*
X117551200Y-70866000D01*
X117957600Y-47752000D02*
X117551200Y-48158400D01*
X125497200Y-47439013D02*
X125184213Y-47752000D01*
X113995200Y-40944800D02*
X118516400Y-40944800D01*
X123596400Y-46024800D02*
X125497200Y-46024800D01*
X118516400Y-40944800D02*
X123596400Y-46024800D01*
D19*
X131267200Y-57251600D02*
X127762000Y-60756800D01*
X152857200Y-64109600D02*
X152857200Y-65871600D01*
X154041600Y-67056000D02*
X158648400Y-67056000D01*
X158648400Y-67056000D02*
X159715200Y-65989200D01*
X159715200Y-65989200D02*
X159715200Y-59588400D01*
X152857200Y-65871600D02*
X154041600Y-67056000D01*
X159715200Y-59588400D02*
X157378400Y-57251600D01*
X157378400Y-57251600D02*
X148285200Y-57251600D01*
X148285200Y-57251600D02*
X139141200Y-57251600D01*
X139141200Y-57251600D02*
X131267200Y-57251600D01*
X138988800Y-57099200D02*
X139141200Y-57251600D01*
X138988800Y-52524800D02*
X138988800Y-57099200D01*
X148234400Y-56946800D02*
X148285200Y-56997600D01*
X148234400Y-52423200D02*
X148234400Y-56946800D01*
D18*
X148285200Y-56997600D02*
X148285200Y-57251600D01*
D19*
X157378400Y-53583413D02*
X157378400Y-56946800D01*
X157429200Y-53532613D02*
X157378400Y-53583413D01*
X157429200Y-52118400D02*
X157429200Y-53532613D01*
D18*
X157378400Y-56946800D02*
X157378400Y-57251600D01*
D19*
X130997199Y-56981599D02*
X131267200Y-57251600D01*
X130997199Y-53524799D02*
X130997199Y-56981599D01*
X129997200Y-52524800D02*
X130997199Y-53524799D01*
X126187200Y-89477600D02*
X127540000Y-90830400D01*
X126187200Y-87477600D02*
X126187200Y-89477600D01*
X127540000Y-90830400D02*
X147574000Y-90830400D01*
X152857200Y-85547200D02*
X152857200Y-79349600D01*
X147574000Y-90830400D02*
X152857200Y-85547200D01*
X97688400Y-71678800D02*
X98618801Y-70748399D01*
X99974400Y-78435200D02*
X97688400Y-76149200D01*
X98618801Y-70748399D02*
X99618800Y-69748400D01*
X97688400Y-76149200D02*
X97688400Y-71678800D01*
X99618800Y-68334187D02*
X97434400Y-66149787D01*
X99618800Y-69748400D02*
X99618800Y-68334187D01*
X97434400Y-62839600D02*
X100076000Y-60198000D01*
X97434400Y-66149787D02*
X97434400Y-62839600D01*
X98923601Y-79435199D02*
X98974401Y-79435199D01*
X100584000Y-87020400D02*
X97536000Y-83972400D01*
X117398800Y-87020400D02*
X100584000Y-87020400D01*
X97536000Y-80822800D02*
X98923601Y-79435199D01*
X126187200Y-87477600D02*
X126187200Y-85477600D01*
X98974401Y-79435199D02*
X99974400Y-78435200D01*
X97536000Y-83972400D02*
X97536000Y-80822800D01*
X126187200Y-85477600D02*
X125291600Y-84582000D01*
X125291600Y-84582000D02*
X121393200Y-84582000D01*
X121393200Y-84582000D02*
X121342400Y-84632800D01*
X121342400Y-84632800D02*
X119786400Y-84632800D01*
X119786400Y-84632800D02*
X117398800Y-87020400D01*
M02*
