G04 #@! TF.GenerationSoftware,KiCad,Pcbnew,5.1.1-8be2ce7~80~ubuntu18.04.1*
G04 #@! TF.CreationDate,2019-04-19T16:42:06-07:00*
G04 #@! TF.ProjectId,7_segment_led,375f7365-676d-4656-9e74-5f6c65642e6b,v01*
G04 #@! TF.SameCoordinates,Original*
G04 #@! TF.FileFunction,Legend,Top*
G04 #@! TF.FilePolarity,Positive*
%FSLAX46Y46*%
G04 Gerber Fmt 4.6, Leading zero omitted, Abs format (unit mm)*
G04 Created by KiCad (PCBNEW 5.1.1-8be2ce7~80~ubuntu18.04.1) date 2019-04-19 16:42:06*
%MOMM*%
%LPD*%
G04 APERTURE LIST*
%ADD10C,0.150000*%
%ADD11C,0.250000*%
%ADD12C,0.120000*%
G04 APERTURE END LIST*
D10*
X96119180Y-49169580D02*
X96119180Y-48169580D01*
X96500133Y-48169580D01*
X96595371Y-48217200D01*
X96642990Y-48264819D01*
X96690609Y-48360057D01*
X96690609Y-48502914D01*
X96642990Y-48598152D01*
X96595371Y-48645771D01*
X96500133Y-48693390D01*
X96119180Y-48693390D01*
X97119180Y-49169580D02*
X97119180Y-48502914D01*
X97119180Y-48693390D02*
X97166800Y-48598152D01*
X97214419Y-48550533D01*
X97309657Y-48502914D01*
X97404895Y-48502914D01*
X98166800Y-49169580D02*
X98166800Y-48645771D01*
X98119180Y-48550533D01*
X98023942Y-48502914D01*
X97833466Y-48502914D01*
X97738228Y-48550533D01*
X98166800Y-49121961D02*
X98071561Y-49169580D01*
X97833466Y-49169580D01*
X97738228Y-49121961D01*
X97690609Y-49026723D01*
X97690609Y-48931485D01*
X97738228Y-48836247D01*
X97833466Y-48788628D01*
X98071561Y-48788628D01*
X98166800Y-48741009D01*
X98642990Y-49169580D02*
X98642990Y-48169580D01*
X98738228Y-48788628D02*
X99023942Y-49169580D01*
X99023942Y-48502914D02*
X98642990Y-48883866D01*
X99309657Y-48502914D02*
X99690609Y-48502914D01*
X99452514Y-48169580D02*
X99452514Y-49026723D01*
X99500133Y-49121961D01*
X99595371Y-49169580D01*
X99690609Y-49169580D01*
X100023942Y-49169580D02*
X100023942Y-48502914D01*
X100023942Y-48169580D02*
X99976323Y-48217200D01*
X100023942Y-48264819D01*
X100071561Y-48217200D01*
X100023942Y-48169580D01*
X100023942Y-48264819D01*
X100928704Y-49121961D02*
X100833466Y-49169580D01*
X100642990Y-49169580D01*
X100547752Y-49121961D01*
X100500133Y-49074342D01*
X100452514Y-48979104D01*
X100452514Y-48693390D01*
X100500133Y-48598152D01*
X100547752Y-48550533D01*
X100642990Y-48502914D01*
X100833466Y-48502914D01*
X100928704Y-48550533D01*
X101357276Y-48502914D02*
X101357276Y-49169580D01*
X101357276Y-48598152D02*
X101404895Y-48550533D01*
X101500133Y-48502914D01*
X101642990Y-48502914D01*
X101738228Y-48550533D01*
X101785847Y-48645771D01*
X101785847Y-49169580D01*
X102690609Y-49169580D02*
X102690609Y-48645771D01*
X102642990Y-48550533D01*
X102547752Y-48502914D01*
X102357276Y-48502914D01*
X102262038Y-48550533D01*
X102690609Y-49121961D02*
X102595371Y-49169580D01*
X102357276Y-49169580D01*
X102262038Y-49121961D01*
X102214419Y-49026723D01*
X102214419Y-48931485D01*
X102262038Y-48836247D01*
X102357276Y-48788628D01*
X102595371Y-48788628D01*
X102690609Y-48741009D01*
X103928704Y-48502914D02*
X103928704Y-49169580D01*
X103928704Y-48598152D02*
X103976323Y-48550533D01*
X104071561Y-48502914D01*
X104214419Y-48502914D01*
X104309657Y-48550533D01*
X104357276Y-48645771D01*
X104357276Y-49169580D01*
X105262038Y-49169580D02*
X105262038Y-48645771D01*
X105214419Y-48550533D01*
X105119180Y-48502914D01*
X104928704Y-48502914D01*
X104833466Y-48550533D01*
X105262038Y-49121961D02*
X105166800Y-49169580D01*
X104928704Y-49169580D01*
X104833466Y-49121961D01*
X104785847Y-49026723D01*
X104785847Y-48931485D01*
X104833466Y-48836247D01*
X104928704Y-48788628D01*
X105166800Y-48788628D01*
X105262038Y-48741009D01*
X105690609Y-49121961D02*
X105785847Y-49169580D01*
X105976323Y-49169580D01*
X106071561Y-49121961D01*
X106119180Y-49026723D01*
X106119180Y-48979104D01*
X106071561Y-48883866D01*
X105976323Y-48836247D01*
X105833466Y-48836247D01*
X105738228Y-48788628D01*
X105690609Y-48693390D01*
X105690609Y-48645771D01*
X105738228Y-48550533D01*
X105833466Y-48502914D01*
X105976323Y-48502914D01*
X106071561Y-48550533D01*
X106404895Y-48502914D02*
X106785847Y-48502914D01*
X106547752Y-48169580D02*
X106547752Y-49026723D01*
X106595371Y-49121961D01*
X106690609Y-49169580D01*
X106785847Y-49169580D01*
X107547752Y-49169580D02*
X107547752Y-48645771D01*
X107500133Y-48550533D01*
X107404895Y-48502914D01*
X107214419Y-48502914D01*
X107119180Y-48550533D01*
X107547752Y-49121961D02*
X107452514Y-49169580D01*
X107214419Y-49169580D01*
X107119180Y-49121961D01*
X107071561Y-49026723D01*
X107071561Y-48931485D01*
X107119180Y-48836247D01*
X107214419Y-48788628D01*
X107452514Y-48788628D01*
X107547752Y-48741009D01*
X107928704Y-48502914D02*
X108166800Y-49169580D01*
X108404895Y-48502914D01*
X109214419Y-49169580D02*
X109214419Y-48645771D01*
X109166800Y-48550533D01*
X109071561Y-48502914D01*
X108881085Y-48502914D01*
X108785847Y-48550533D01*
X109214419Y-49121961D02*
X109119180Y-49169580D01*
X108881085Y-49169580D01*
X108785847Y-49121961D01*
X108738228Y-49026723D01*
X108738228Y-48931485D01*
X108785847Y-48836247D01*
X108881085Y-48788628D01*
X109119180Y-48788628D01*
X109214419Y-48741009D01*
X117221047Y-88565028D02*
X117982952Y-88565028D01*
X129108247Y-88971428D02*
X129870152Y-88971428D01*
X129489200Y-89352380D02*
X129489200Y-88590476D01*
X94611276Y-44772771D02*
X94754133Y-44820390D01*
X94801752Y-44868009D01*
X94849371Y-44963247D01*
X94849371Y-45106104D01*
X94801752Y-45201342D01*
X94754133Y-45248961D01*
X94658895Y-45296580D01*
X94277942Y-45296580D01*
X94277942Y-44296580D01*
X94611276Y-44296580D01*
X94706514Y-44344200D01*
X94754133Y-44391819D01*
X94801752Y-44487057D01*
X94801752Y-44582295D01*
X94754133Y-44677533D01*
X94706514Y-44725152D01*
X94611276Y-44772771D01*
X94277942Y-44772771D01*
X95849371Y-45201342D02*
X95801752Y-45248961D01*
X95658895Y-45296580D01*
X95563657Y-45296580D01*
X95420800Y-45248961D01*
X95325561Y-45153723D01*
X95277942Y-45058485D01*
X95230323Y-44868009D01*
X95230323Y-44725152D01*
X95277942Y-44534676D01*
X95325561Y-44439438D01*
X95420800Y-44344200D01*
X95563657Y-44296580D01*
X95658895Y-44296580D01*
X95801752Y-44344200D01*
X95849371Y-44391819D01*
X96277942Y-45296580D02*
X96277942Y-44296580D01*
X96516038Y-44296580D01*
X96658895Y-44344200D01*
X96754133Y-44439438D01*
X96801752Y-44534676D01*
X96849371Y-44725152D01*
X96849371Y-44868009D01*
X96801752Y-45058485D01*
X96754133Y-45153723D01*
X96658895Y-45248961D01*
X96516038Y-45296580D01*
X96277942Y-45296580D01*
X97944609Y-44296580D02*
X98611276Y-44296580D01*
X98182704Y-45296580D01*
X99706514Y-45248961D02*
X99801752Y-45296580D01*
X99992228Y-45296580D01*
X100087466Y-45248961D01*
X100135085Y-45153723D01*
X100135085Y-45106104D01*
X100087466Y-45010866D01*
X99992228Y-44963247D01*
X99849371Y-44963247D01*
X99754133Y-44915628D01*
X99706514Y-44820390D01*
X99706514Y-44772771D01*
X99754133Y-44677533D01*
X99849371Y-44629914D01*
X99992228Y-44629914D01*
X100087466Y-44677533D01*
X100944609Y-45248961D02*
X100849371Y-45296580D01*
X100658895Y-45296580D01*
X100563657Y-45248961D01*
X100516038Y-45153723D01*
X100516038Y-44772771D01*
X100563657Y-44677533D01*
X100658895Y-44629914D01*
X100849371Y-44629914D01*
X100944609Y-44677533D01*
X100992228Y-44772771D01*
X100992228Y-44868009D01*
X100516038Y-44963247D01*
X101849371Y-44629914D02*
X101849371Y-45439438D01*
X101801752Y-45534676D01*
X101754133Y-45582295D01*
X101658895Y-45629914D01*
X101516038Y-45629914D01*
X101420800Y-45582295D01*
X101849371Y-45248961D02*
X101754133Y-45296580D01*
X101563657Y-45296580D01*
X101468419Y-45248961D01*
X101420800Y-45201342D01*
X101373180Y-45106104D01*
X101373180Y-44820390D01*
X101420800Y-44725152D01*
X101468419Y-44677533D01*
X101563657Y-44629914D01*
X101754133Y-44629914D01*
X101849371Y-44677533D01*
X102325561Y-45296580D02*
X102325561Y-44629914D01*
X102325561Y-44725152D02*
X102373180Y-44677533D01*
X102468419Y-44629914D01*
X102611276Y-44629914D01*
X102706514Y-44677533D01*
X102754133Y-44772771D01*
X102754133Y-45296580D01*
X102754133Y-44772771D02*
X102801752Y-44677533D01*
X102896990Y-44629914D01*
X103039847Y-44629914D01*
X103135085Y-44677533D01*
X103182704Y-44772771D01*
X103182704Y-45296580D01*
X104039847Y-45248961D02*
X103944609Y-45296580D01*
X103754133Y-45296580D01*
X103658895Y-45248961D01*
X103611276Y-45153723D01*
X103611276Y-44772771D01*
X103658895Y-44677533D01*
X103754133Y-44629914D01*
X103944609Y-44629914D01*
X104039847Y-44677533D01*
X104087466Y-44772771D01*
X104087466Y-44868009D01*
X103611276Y-44963247D01*
X104516038Y-44629914D02*
X104516038Y-45296580D01*
X104516038Y-44725152D02*
X104563657Y-44677533D01*
X104658895Y-44629914D01*
X104801752Y-44629914D01*
X104896990Y-44677533D01*
X104944609Y-44772771D01*
X104944609Y-45296580D01*
X105277942Y-44629914D02*
X105658895Y-44629914D01*
X105420800Y-44296580D02*
X105420800Y-45153723D01*
X105468419Y-45248961D01*
X105563657Y-45296580D01*
X105658895Y-45296580D01*
X107182704Y-45296580D02*
X107182704Y-44296580D01*
X107182704Y-45248961D02*
X107087466Y-45296580D01*
X106896990Y-45296580D01*
X106801752Y-45248961D01*
X106754133Y-45201342D01*
X106706514Y-45106104D01*
X106706514Y-44820390D01*
X106754133Y-44725152D01*
X106801752Y-44677533D01*
X106896990Y-44629914D01*
X107087466Y-44629914D01*
X107182704Y-44677533D01*
X107658895Y-45296580D02*
X107658895Y-44629914D01*
X107658895Y-44296580D02*
X107611276Y-44344200D01*
X107658895Y-44391819D01*
X107706514Y-44344200D01*
X107658895Y-44296580D01*
X107658895Y-44391819D01*
X108087466Y-45248961D02*
X108182704Y-45296580D01*
X108373180Y-45296580D01*
X108468419Y-45248961D01*
X108516038Y-45153723D01*
X108516038Y-45106104D01*
X108468419Y-45010866D01*
X108373180Y-44963247D01*
X108230323Y-44963247D01*
X108135085Y-44915628D01*
X108087466Y-44820390D01*
X108087466Y-44772771D01*
X108135085Y-44677533D01*
X108230323Y-44629914D01*
X108373180Y-44629914D01*
X108468419Y-44677533D01*
X108944609Y-44629914D02*
X108944609Y-45629914D01*
X108944609Y-44677533D02*
X109039847Y-44629914D01*
X109230323Y-44629914D01*
X109325561Y-44677533D01*
X109373180Y-44725152D01*
X109420800Y-44820390D01*
X109420800Y-45106104D01*
X109373180Y-45201342D01*
X109325561Y-45248961D01*
X109230323Y-45296580D01*
X109039847Y-45296580D01*
X108944609Y-45248961D01*
X109992228Y-45296580D02*
X109896990Y-45248961D01*
X109849371Y-45153723D01*
X109849371Y-44296580D01*
X110801752Y-45296580D02*
X110801752Y-44772771D01*
X110754133Y-44677533D01*
X110658895Y-44629914D01*
X110468419Y-44629914D01*
X110373180Y-44677533D01*
X110801752Y-45248961D02*
X110706514Y-45296580D01*
X110468419Y-45296580D01*
X110373180Y-45248961D01*
X110325561Y-45153723D01*
X110325561Y-45058485D01*
X110373180Y-44963247D01*
X110468419Y-44915628D01*
X110706514Y-44915628D01*
X110801752Y-44868009D01*
X111182704Y-44629914D02*
X111420800Y-45296580D01*
X111658895Y-44629914D02*
X111420800Y-45296580D01*
X111325561Y-45534676D01*
X111277942Y-45582295D01*
X111182704Y-45629914D01*
X97920800Y-46851342D02*
X97873180Y-46898961D01*
X97730323Y-46946580D01*
X97635085Y-46946580D01*
X97492228Y-46898961D01*
X97396990Y-46803723D01*
X97349371Y-46708485D01*
X97301752Y-46518009D01*
X97301752Y-46375152D01*
X97349371Y-46184676D01*
X97396990Y-46089438D01*
X97492228Y-45994200D01*
X97635085Y-45946580D01*
X97730323Y-45946580D01*
X97873180Y-45994200D01*
X97920800Y-46041819D01*
X98492228Y-46946580D02*
X98396990Y-46898961D01*
X98349371Y-46851342D01*
X98301752Y-46756104D01*
X98301752Y-46470390D01*
X98349371Y-46375152D01*
X98396990Y-46327533D01*
X98492228Y-46279914D01*
X98635085Y-46279914D01*
X98730323Y-46327533D01*
X98777942Y-46375152D01*
X98825561Y-46470390D01*
X98825561Y-46756104D01*
X98777942Y-46851342D01*
X98730323Y-46898961D01*
X98635085Y-46946580D01*
X98492228Y-46946580D01*
X99254133Y-46946580D02*
X99254133Y-46279914D01*
X99254133Y-46375152D02*
X99301752Y-46327533D01*
X99396990Y-46279914D01*
X99539847Y-46279914D01*
X99635085Y-46327533D01*
X99682704Y-46422771D01*
X99682704Y-46946580D01*
X99682704Y-46422771D02*
X99730323Y-46327533D01*
X99825561Y-46279914D01*
X99968419Y-46279914D01*
X100063657Y-46327533D01*
X100111276Y-46422771D01*
X100111276Y-46946580D01*
X100587466Y-46946580D02*
X100587466Y-46279914D01*
X100587466Y-46375152D02*
X100635085Y-46327533D01*
X100730323Y-46279914D01*
X100873180Y-46279914D01*
X100968419Y-46327533D01*
X101016038Y-46422771D01*
X101016038Y-46946580D01*
X101016038Y-46422771D02*
X101063657Y-46327533D01*
X101158895Y-46279914D01*
X101301752Y-46279914D01*
X101396990Y-46327533D01*
X101444609Y-46422771D01*
X101444609Y-46946580D01*
X102063657Y-46946580D02*
X101968419Y-46898961D01*
X101920800Y-46851342D01*
X101873180Y-46756104D01*
X101873180Y-46470390D01*
X101920800Y-46375152D01*
X101968419Y-46327533D01*
X102063657Y-46279914D01*
X102206514Y-46279914D01*
X102301752Y-46327533D01*
X102349371Y-46375152D01*
X102396990Y-46470390D01*
X102396990Y-46756104D01*
X102349371Y-46851342D01*
X102301752Y-46898961D01*
X102206514Y-46946580D01*
X102063657Y-46946580D01*
X102825561Y-46279914D02*
X102825561Y-46946580D01*
X102825561Y-46375152D02*
X102873180Y-46327533D01*
X102968419Y-46279914D01*
X103111276Y-46279914D01*
X103206514Y-46327533D01*
X103254133Y-46422771D01*
X103254133Y-46946580D01*
X104920800Y-46946580D02*
X104920800Y-46422771D01*
X104873180Y-46327533D01*
X104777942Y-46279914D01*
X104587466Y-46279914D01*
X104492228Y-46327533D01*
X104920800Y-46898961D02*
X104825561Y-46946580D01*
X104587466Y-46946580D01*
X104492228Y-46898961D01*
X104444609Y-46803723D01*
X104444609Y-46708485D01*
X104492228Y-46613247D01*
X104587466Y-46565628D01*
X104825561Y-46565628D01*
X104920800Y-46518009D01*
X105396990Y-46279914D02*
X105396990Y-46946580D01*
X105396990Y-46375152D02*
X105444609Y-46327533D01*
X105539847Y-46279914D01*
X105682704Y-46279914D01*
X105777942Y-46327533D01*
X105825561Y-46422771D01*
X105825561Y-46946580D01*
X106444609Y-46946580D02*
X106349371Y-46898961D01*
X106301752Y-46851342D01*
X106254133Y-46756104D01*
X106254133Y-46470390D01*
X106301752Y-46375152D01*
X106349371Y-46327533D01*
X106444609Y-46279914D01*
X106587466Y-46279914D01*
X106682704Y-46327533D01*
X106730323Y-46375152D01*
X106777942Y-46470390D01*
X106777942Y-46756104D01*
X106730323Y-46851342D01*
X106682704Y-46898961D01*
X106587466Y-46946580D01*
X106444609Y-46946580D01*
X107635085Y-46946580D02*
X107635085Y-45946580D01*
X107635085Y-46898961D02*
X107539847Y-46946580D01*
X107349371Y-46946580D01*
X107254133Y-46898961D01*
X107206514Y-46851342D01*
X107158895Y-46756104D01*
X107158895Y-46470390D01*
X107206514Y-46375152D01*
X107254133Y-46327533D01*
X107349371Y-46279914D01*
X107539847Y-46279914D01*
X107635085Y-46327533D01*
X108492228Y-46898961D02*
X108396990Y-46946580D01*
X108206514Y-46946580D01*
X108111276Y-46898961D01*
X108063657Y-46803723D01*
X108063657Y-46422771D01*
X108111276Y-46327533D01*
X108206514Y-46279914D01*
X108396990Y-46279914D01*
X108492228Y-46327533D01*
X108539847Y-46422771D01*
X108539847Y-46518009D01*
X108063657Y-46613247D01*
D11*
X94411257Y-37834380D02*
X94982685Y-37834380D01*
X94696971Y-38834380D02*
X94696971Y-37834380D01*
X95696971Y-38786761D02*
X95601733Y-38834380D01*
X95411257Y-38834380D01*
X95316019Y-38786761D01*
X95268400Y-38691523D01*
X95268400Y-38310571D01*
X95316019Y-38215333D01*
X95411257Y-38167714D01*
X95601733Y-38167714D01*
X95696971Y-38215333D01*
X95744590Y-38310571D01*
X95744590Y-38405809D01*
X95268400Y-38501047D01*
X96173161Y-38834380D02*
X96173161Y-37834380D01*
X96601733Y-38834380D02*
X96601733Y-38310571D01*
X96554114Y-38215333D01*
X96458876Y-38167714D01*
X96316019Y-38167714D01*
X96220780Y-38215333D01*
X96173161Y-38262952D01*
X97077923Y-38167714D02*
X97077923Y-38834380D01*
X97077923Y-38262952D02*
X97125542Y-38215333D01*
X97220780Y-38167714D01*
X97363638Y-38167714D01*
X97458876Y-38215333D01*
X97506495Y-38310571D01*
X97506495Y-38834380D01*
X97982685Y-38834380D02*
X97982685Y-38167714D01*
X97982685Y-37834380D02*
X97935066Y-37882000D01*
X97982685Y-37929619D01*
X98030304Y-37882000D01*
X97982685Y-37834380D01*
X97982685Y-37929619D01*
X98887447Y-38786761D02*
X98792209Y-38834380D01*
X98601733Y-38834380D01*
X98506495Y-38786761D01*
X98458876Y-38739142D01*
X98411257Y-38643904D01*
X98411257Y-38358190D01*
X98458876Y-38262952D01*
X98506495Y-38215333D01*
X98601733Y-38167714D01*
X98792209Y-38167714D01*
X98887447Y-38215333D01*
X99316019Y-38834380D02*
X99316019Y-37834380D01*
X99411257Y-38453428D02*
X99696971Y-38834380D01*
X99696971Y-38167714D02*
X99316019Y-38548666D01*
X100554114Y-38834380D02*
X100554114Y-38310571D01*
X100506495Y-38215333D01*
X100411257Y-38167714D01*
X100220780Y-38167714D01*
X100125542Y-38215333D01*
X100554114Y-38786761D02*
X100458876Y-38834380D01*
X100220780Y-38834380D01*
X100125542Y-38786761D01*
X100077923Y-38691523D01*
X100077923Y-38596285D01*
X100125542Y-38501047D01*
X100220780Y-38453428D01*
X100458876Y-38453428D01*
X100554114Y-38405809D01*
X101744590Y-38786761D02*
X101839828Y-38834380D01*
X102030304Y-38834380D01*
X102125542Y-38786761D01*
X102173161Y-38691523D01*
X102173161Y-38643904D01*
X102125542Y-38548666D01*
X102030304Y-38501047D01*
X101887447Y-38501047D01*
X101792209Y-38453428D01*
X101744590Y-38358190D01*
X101744590Y-38310571D01*
X101792209Y-38215333D01*
X101887447Y-38167714D01*
X102030304Y-38167714D01*
X102125542Y-38215333D01*
X102601733Y-38834380D02*
X102601733Y-37834380D01*
X102696971Y-38453428D02*
X102982685Y-38834380D01*
X102982685Y-38167714D02*
X102601733Y-38548666D01*
X103554114Y-38834380D02*
X103458876Y-38786761D01*
X103411257Y-38739142D01*
X103363638Y-38643904D01*
X103363638Y-38358190D01*
X103411257Y-38262952D01*
X103458876Y-38215333D01*
X103554114Y-38167714D01*
X103696971Y-38167714D01*
X103792209Y-38215333D01*
X103839828Y-38262952D01*
X103887447Y-38358190D01*
X103887447Y-38643904D01*
X103839828Y-38739142D01*
X103792209Y-38786761D01*
X103696971Y-38834380D01*
X103554114Y-38834380D01*
X104458876Y-38834380D02*
X104363638Y-38786761D01*
X104316019Y-38691523D01*
X104316019Y-37834380D01*
X105268400Y-38834380D02*
X105268400Y-38310571D01*
X105220780Y-38215333D01*
X105125542Y-38167714D01*
X104935066Y-38167714D01*
X104839828Y-38215333D01*
X105268400Y-38786761D02*
X105173161Y-38834380D01*
X104935066Y-38834380D01*
X104839828Y-38786761D01*
X104792209Y-38691523D01*
X104792209Y-38596285D01*
X104839828Y-38501047D01*
X104935066Y-38453428D01*
X105173161Y-38453428D01*
X105268400Y-38405809D01*
X106411257Y-37834380D02*
X107077923Y-37834380D01*
X106411257Y-38834380D01*
X107077923Y-38834380D01*
X107839828Y-38786761D02*
X107744590Y-38834380D01*
X107554114Y-38834380D01*
X107458876Y-38786761D01*
X107411257Y-38691523D01*
X107411257Y-38310571D01*
X107458876Y-38215333D01*
X107554114Y-38167714D01*
X107744590Y-38167714D01*
X107839828Y-38215333D01*
X107887447Y-38310571D01*
X107887447Y-38405809D01*
X107411257Y-38501047D01*
X108316019Y-38167714D02*
X108316019Y-38834380D01*
X108316019Y-38262952D02*
X108363638Y-38215333D01*
X108458876Y-38167714D01*
X108601733Y-38167714D01*
X108696971Y-38215333D01*
X108744590Y-38310571D01*
X108744590Y-38834380D01*
X109220780Y-38834380D02*
X109220780Y-38167714D01*
X109220780Y-37834380D02*
X109173161Y-37882000D01*
X109220780Y-37929619D01*
X109268400Y-37882000D01*
X109220780Y-37834380D01*
X109220780Y-37929619D01*
X110125542Y-38786761D02*
X110030304Y-38834380D01*
X109839828Y-38834380D01*
X109744590Y-38786761D01*
X109696971Y-38739142D01*
X109649352Y-38643904D01*
X109649352Y-38358190D01*
X109696971Y-38262952D01*
X109744590Y-38215333D01*
X109839828Y-38167714D01*
X110030304Y-38167714D01*
X110125542Y-38215333D01*
X110982685Y-38834380D02*
X110982685Y-38310571D01*
X110935066Y-38215333D01*
X110839828Y-38167714D01*
X110649352Y-38167714D01*
X110554114Y-38215333D01*
X110982685Y-38786761D02*
X110887447Y-38834380D01*
X110649352Y-38834380D01*
X110554114Y-38786761D01*
X110506495Y-38691523D01*
X110506495Y-38596285D01*
X110554114Y-38501047D01*
X110649352Y-38453428D01*
X110887447Y-38453428D01*
X110982685Y-38405809D01*
X99196971Y-40584380D02*
X99196971Y-40060571D01*
X99149352Y-39965333D01*
X99054114Y-39917714D01*
X98863638Y-39917714D01*
X98768400Y-39965333D01*
X99196971Y-40536761D02*
X99101733Y-40584380D01*
X98863638Y-40584380D01*
X98768400Y-40536761D01*
X98720780Y-40441523D01*
X98720780Y-40346285D01*
X98768400Y-40251047D01*
X98863638Y-40203428D01*
X99101733Y-40203428D01*
X99196971Y-40155809D01*
X99673161Y-39917714D02*
X99673161Y-40917714D01*
X99673161Y-39965333D02*
X99768400Y-39917714D01*
X99958876Y-39917714D01*
X100054114Y-39965333D01*
X100101733Y-40012952D01*
X100149352Y-40108190D01*
X100149352Y-40393904D01*
X100101733Y-40489142D01*
X100054114Y-40536761D01*
X99958876Y-40584380D01*
X99768400Y-40584380D01*
X99673161Y-40536761D01*
X100577923Y-40584380D02*
X100577923Y-39917714D01*
X100577923Y-40108190D02*
X100625542Y-40012952D01*
X100673161Y-39965333D01*
X100768400Y-39917714D01*
X100863638Y-39917714D01*
X101196971Y-40584380D02*
X101196971Y-39917714D01*
X101196971Y-39584380D02*
X101149352Y-39632000D01*
X101196971Y-39679619D01*
X101244590Y-39632000D01*
X101196971Y-39584380D01*
X101196971Y-39679619D01*
X101816019Y-40584380D02*
X101720780Y-40536761D01*
X101673161Y-40441523D01*
X101673161Y-39584380D01*
X102244590Y-40536761D02*
X102244590Y-40584380D01*
X102196971Y-40679619D01*
X102149352Y-40727238D01*
X103387447Y-39679619D02*
X103435066Y-39632000D01*
X103530304Y-39584380D01*
X103768400Y-39584380D01*
X103863638Y-39632000D01*
X103911257Y-39679619D01*
X103958876Y-39774857D01*
X103958876Y-39870095D01*
X103911257Y-40012952D01*
X103339828Y-40584380D01*
X103958876Y-40584380D01*
X104577923Y-39584380D02*
X104673161Y-39584380D01*
X104768400Y-39632000D01*
X104816019Y-39679619D01*
X104863638Y-39774857D01*
X104911257Y-39965333D01*
X104911257Y-40203428D01*
X104863638Y-40393904D01*
X104816019Y-40489142D01*
X104768400Y-40536761D01*
X104673161Y-40584380D01*
X104577923Y-40584380D01*
X104482685Y-40536761D01*
X104435066Y-40489142D01*
X104387447Y-40393904D01*
X104339828Y-40203428D01*
X104339828Y-39965333D01*
X104387447Y-39774857D01*
X104435066Y-39679619D01*
X104482685Y-39632000D01*
X104577923Y-39584380D01*
X105863638Y-40584380D02*
X105292209Y-40584380D01*
X105577923Y-40584380D02*
X105577923Y-39584380D01*
X105482685Y-39727238D01*
X105387447Y-39822476D01*
X105292209Y-39870095D01*
X106339828Y-40584380D02*
X106530304Y-40584380D01*
X106625542Y-40536761D01*
X106673161Y-40489142D01*
X106768400Y-40346285D01*
X106816019Y-40155809D01*
X106816019Y-39774857D01*
X106768400Y-39679619D01*
X106720780Y-39632000D01*
X106625542Y-39584380D01*
X106435066Y-39584380D01*
X106339828Y-39632000D01*
X106292209Y-39679619D01*
X106244590Y-39774857D01*
X106244590Y-40012952D01*
X106292209Y-40108190D01*
X106339828Y-40155809D01*
X106435066Y-40203428D01*
X106625542Y-40203428D01*
X106720780Y-40155809D01*
X106768400Y-40108190D01*
X106816019Y-40012952D01*
X101244590Y-42334380D02*
X101244590Y-41334380D01*
X101577923Y-41334380D02*
X101911257Y-42334380D01*
X102244590Y-41334380D01*
X102577923Y-41953428D02*
X103339828Y-41953428D01*
X104339828Y-42334380D02*
X103768400Y-42334380D01*
X104054114Y-42334380D02*
X104054114Y-41334380D01*
X103958876Y-41477238D01*
X103863638Y-41572476D01*
X103768400Y-41620095D01*
D12*
X100974400Y-83935200D02*
X105474400Y-83935200D01*
X99724400Y-79935200D02*
X99724400Y-81435200D01*
X105474400Y-77435200D02*
X100974400Y-77435200D01*
X106724400Y-81435200D02*
X106724400Y-79935200D01*
X112774400Y-65665600D02*
X112444400Y-65665600D01*
X112774400Y-72205600D02*
X112774400Y-65665600D01*
X112444400Y-72205600D02*
X112774400Y-72205600D01*
X110034400Y-65665600D02*
X110364400Y-65665600D01*
X110034400Y-72205600D02*
X110034400Y-65665600D01*
X110364400Y-72205600D02*
X110034400Y-72205600D01*
X133585200Y-82754800D02*
X133585200Y-83084800D01*
X140125200Y-82754800D02*
X133585200Y-82754800D01*
X140125200Y-83084800D02*
X140125200Y-82754800D01*
X133585200Y-85494800D02*
X133585200Y-85164800D01*
X140125200Y-85494800D02*
X133585200Y-85494800D01*
X140125200Y-85164800D02*
X140125200Y-85494800D01*
X128727200Y-83667600D02*
X118567200Y-83667600D01*
X128727200Y-91287600D02*
X128727200Y-83667600D01*
X118567200Y-91287600D02*
X128727200Y-91287600D01*
X118567200Y-83667600D02*
X118567200Y-91287600D01*
X118567200Y-84937600D02*
X128727200Y-84937600D01*
D10*
X149857200Y-66729600D02*
X148857200Y-71729600D01*
X148857200Y-71729600D02*
X147857200Y-76729600D01*
X147857200Y-76729600D02*
X154857200Y-76729600D01*
X154857200Y-76729600D02*
X155857200Y-71729600D01*
X156857200Y-66729600D02*
X155857200Y-71729600D01*
X155857200Y-71729600D02*
X148857200Y-71729600D01*
X149857200Y-66729600D02*
X156857200Y-66729600D01*
X159157200Y-81329600D02*
X146557200Y-81329600D01*
X146557200Y-66029600D02*
X146557200Y-77429600D01*
X159157200Y-66029600D02*
X159157200Y-77429600D01*
X146557200Y-62129600D02*
X159157200Y-62129600D01*
X157304414Y-76729600D02*
G75*
G03X157304414Y-76729600I-447214J0D01*
G01*
D12*
X133483600Y-59183600D02*
X133483600Y-59513600D01*
X140023600Y-59183600D02*
X133483600Y-59183600D01*
X140023600Y-59513600D02*
X140023600Y-59183600D01*
X133483600Y-61923600D02*
X133483600Y-61593600D01*
X140023600Y-61923600D02*
X133483600Y-61923600D01*
X140023600Y-61593600D02*
X140023600Y-61923600D01*
X133331200Y-63603200D02*
X133331200Y-63933200D01*
X139871200Y-63603200D02*
X133331200Y-63603200D01*
X139871200Y-63933200D02*
X139871200Y-63603200D01*
X133331200Y-66343200D02*
X133331200Y-66013200D01*
X139871200Y-66343200D02*
X133331200Y-66343200D01*
X139871200Y-66013200D02*
X139871200Y-66343200D01*
X139972800Y-70636000D02*
X139972800Y-70966000D01*
X139972800Y-70966000D02*
X133432800Y-70966000D01*
X133432800Y-70966000D02*
X133432800Y-70636000D01*
X139972800Y-68556000D02*
X139972800Y-68226000D01*
X139972800Y-68226000D02*
X133432800Y-68226000D01*
X133432800Y-68226000D02*
X133432800Y-68556000D01*
X133382000Y-73001200D02*
X133382000Y-73331200D01*
X139922000Y-73001200D02*
X133382000Y-73001200D01*
X139922000Y-73331200D02*
X139922000Y-73001200D01*
X133382000Y-75741200D02*
X133382000Y-75411200D01*
X139922000Y-75741200D02*
X133382000Y-75741200D01*
X139922000Y-75411200D02*
X139922000Y-75741200D01*
X139922000Y-80084800D02*
X139922000Y-80414800D01*
X139922000Y-80414800D02*
X133382000Y-80414800D01*
X133382000Y-80414800D02*
X133382000Y-80084800D01*
X139922000Y-78004800D02*
X139922000Y-77674800D01*
X139922000Y-77674800D02*
X133382000Y-77674800D01*
X133382000Y-77674800D02*
X133382000Y-78004800D01*
X140074400Y-89838400D02*
X140074400Y-90168400D01*
X140074400Y-90168400D02*
X133534400Y-90168400D01*
X133534400Y-90168400D02*
X133534400Y-89838400D01*
X140074400Y-87758400D02*
X140074400Y-87428400D01*
X140074400Y-87428400D02*
X133534400Y-87428400D01*
X133534400Y-87428400D02*
X133534400Y-87758400D01*
X116635200Y-83140800D02*
X116305200Y-83140800D01*
X116635200Y-89680800D02*
X116635200Y-83140800D01*
X116305200Y-89680800D02*
X116635200Y-89680800D01*
X113895200Y-83140800D02*
X114225200Y-83140800D01*
X113895200Y-89680800D02*
X113895200Y-83140800D01*
X114225200Y-89680800D02*
X113895200Y-89680800D01*
X146640800Y-39778000D02*
X146640800Y-40108000D01*
X153180800Y-39778000D02*
X146640800Y-39778000D01*
X153180800Y-40108000D02*
X153180800Y-39778000D01*
X146640800Y-42518000D02*
X146640800Y-42188000D01*
X153180800Y-42518000D02*
X146640800Y-42518000D01*
X153180800Y-42188000D02*
X153180800Y-42518000D01*
X142411200Y-41984800D02*
X142411200Y-42314800D01*
X142411200Y-42314800D02*
X135871200Y-42314800D01*
X135871200Y-42314800D02*
X135871200Y-41984800D01*
X142411200Y-39904800D02*
X142411200Y-39574800D01*
X142411200Y-39574800D02*
X135871200Y-39574800D01*
X135871200Y-39574800D02*
X135871200Y-39904800D01*
X112495200Y-76181200D02*
X112825200Y-76181200D01*
X112825200Y-76181200D02*
X112825200Y-82721200D01*
X112825200Y-82721200D02*
X112495200Y-82721200D01*
X110415200Y-76181200D02*
X110085200Y-76181200D01*
X110085200Y-76181200D02*
X110085200Y-82721200D01*
X110085200Y-82721200D02*
X110415200Y-82721200D01*
X125101600Y-39574800D02*
X125101600Y-39904800D01*
X131641600Y-39574800D02*
X125101600Y-39574800D01*
X131641600Y-39904800D02*
X131641600Y-39574800D01*
X125101600Y-42314800D02*
X125101600Y-41984800D01*
X131641600Y-42314800D02*
X125101600Y-42314800D01*
X131641600Y-41984800D02*
X131641600Y-42314800D01*
X114535200Y-39904800D02*
X114535200Y-39574800D01*
X114535200Y-39574800D02*
X121075200Y-39574800D01*
X121075200Y-39574800D02*
X121075200Y-39904800D01*
X114535200Y-41984800D02*
X114535200Y-42314800D01*
X114535200Y-42314800D02*
X121075200Y-42314800D01*
X121075200Y-42314800D02*
X121075200Y-41984800D01*
X151929200Y-46618400D02*
X151929200Y-51118400D01*
X155929200Y-45368400D02*
X154429200Y-45368400D01*
X158429200Y-51118400D02*
X158429200Y-46618400D01*
X154429200Y-52368400D02*
X155929200Y-52368400D01*
X145234400Y-52673200D02*
X146734400Y-52673200D01*
X149234400Y-51423200D02*
X149234400Y-46923200D01*
X146734400Y-45673200D02*
X145234400Y-45673200D01*
X142734400Y-46923200D02*
X142734400Y-51423200D01*
X133488800Y-47024800D02*
X133488800Y-51524800D01*
X137488800Y-45774800D02*
X135988800Y-45774800D01*
X139988800Y-51524800D02*
X139988800Y-47024800D01*
X135988800Y-52774800D02*
X137488800Y-52774800D01*
X126997200Y-52774800D02*
X128497200Y-52774800D01*
X130997200Y-51524800D02*
X130997200Y-47024800D01*
X128497200Y-45774800D02*
X126997200Y-45774800D01*
X124497200Y-47024800D02*
X124497200Y-51524800D01*
X106368800Y-72748400D02*
X106368800Y-71248400D01*
X105118800Y-68748400D02*
X100618800Y-68748400D01*
X99368800Y-71248400D02*
X99368800Y-72748400D01*
X100618800Y-75248400D02*
X105118800Y-75248400D01*
X101076000Y-65698000D02*
X105576000Y-65698000D01*
X99826000Y-61698000D02*
X99826000Y-63198000D01*
X105576000Y-59198000D02*
X101076000Y-59198000D01*
X106826000Y-63198000D02*
X106826000Y-61698000D01*
X124952000Y-59426800D02*
G75*
G02X122952000Y-59426800I-1000000J0D01*
G01*
X122952000Y-59426800D02*
X121302000Y-59426800D01*
X121302000Y-59426800D02*
X121302000Y-79866800D01*
X121302000Y-79866800D02*
X126602000Y-79866800D01*
X126602000Y-79866800D02*
X126602000Y-59426800D01*
X126602000Y-59426800D02*
X124952000Y-59426800D01*
D10*
X101891066Y-76839961D02*
X102033923Y-76887580D01*
X102272019Y-76887580D01*
X102367257Y-76839961D01*
X102414876Y-76792342D01*
X102462495Y-76697104D01*
X102462495Y-76601866D01*
X102414876Y-76506628D01*
X102367257Y-76459009D01*
X102272019Y-76411390D01*
X102081542Y-76363771D01*
X101986304Y-76316152D01*
X101938685Y-76268533D01*
X101891066Y-76173295D01*
X101891066Y-76078057D01*
X101938685Y-75982819D01*
X101986304Y-75935200D01*
X102081542Y-75887580D01*
X102319638Y-75887580D01*
X102462495Y-75935200D01*
X102795828Y-75887580D02*
X103033923Y-76887580D01*
X103224400Y-76173295D01*
X103414876Y-76887580D01*
X103652971Y-75887580D01*
X104510114Y-75887580D02*
X104033923Y-75887580D01*
X103986304Y-76363771D01*
X104033923Y-76316152D01*
X104129161Y-76268533D01*
X104367257Y-76268533D01*
X104462495Y-76316152D01*
X104510114Y-76363771D01*
X104557733Y-76459009D01*
X104557733Y-76697104D01*
X104510114Y-76792342D01*
X104462495Y-76839961D01*
X104367257Y-76887580D01*
X104129161Y-76887580D01*
X104033923Y-76839961D01*
X103986304Y-76792342D01*
X109486780Y-69578457D02*
X109010590Y-69911790D01*
X109486780Y-70149885D02*
X108486780Y-70149885D01*
X108486780Y-69768933D01*
X108534400Y-69673695D01*
X108582019Y-69626076D01*
X108677257Y-69578457D01*
X108820114Y-69578457D01*
X108915352Y-69626076D01*
X108962971Y-69673695D01*
X109010590Y-69768933D01*
X109010590Y-70149885D01*
X109486780Y-68626076D02*
X109486780Y-69197504D01*
X109486780Y-68911790D02*
X108486780Y-68911790D01*
X108629638Y-69007028D01*
X108724876Y-69102266D01*
X108772495Y-69197504D01*
X108486780Y-68292742D02*
X108486780Y-67673695D01*
X108867733Y-68007028D01*
X108867733Y-67864171D01*
X108915352Y-67768933D01*
X108962971Y-67721314D01*
X109058209Y-67673695D01*
X109296304Y-67673695D01*
X109391542Y-67721314D01*
X109439161Y-67768933D01*
X109486780Y-67864171D01*
X109486780Y-68149885D01*
X109439161Y-68245123D01*
X109391542Y-68292742D01*
X140295333Y-81884780D02*
X139962000Y-81408590D01*
X139723904Y-81884780D02*
X139723904Y-80884780D01*
X140104857Y-80884780D01*
X140200095Y-80932400D01*
X140247714Y-80980019D01*
X140295333Y-81075257D01*
X140295333Y-81218114D01*
X140247714Y-81313352D01*
X140200095Y-81360971D01*
X140104857Y-81408590D01*
X139723904Y-81408590D01*
X141152476Y-80884780D02*
X140962000Y-80884780D01*
X140866761Y-80932400D01*
X140819142Y-80980019D01*
X140723904Y-81122876D01*
X140676285Y-81313352D01*
X140676285Y-81694304D01*
X140723904Y-81789542D01*
X140771523Y-81837161D01*
X140866761Y-81884780D01*
X141057238Y-81884780D01*
X141152476Y-81837161D01*
X141200095Y-81789542D01*
X141247714Y-81694304D01*
X141247714Y-81456209D01*
X141200095Y-81360971D01*
X141152476Y-81313352D01*
X141057238Y-81265733D01*
X140866761Y-81265733D01*
X140771523Y-81313352D01*
X140723904Y-81360971D01*
X140676285Y-81456209D01*
X123313866Y-92009980D02*
X123313866Y-92724266D01*
X123266247Y-92867123D01*
X123171009Y-92962361D01*
X123028152Y-93009980D01*
X122932914Y-93009980D01*
X124313866Y-93009980D02*
X123742438Y-93009980D01*
X124028152Y-93009980D02*
X124028152Y-92009980D01*
X123932914Y-92152838D01*
X123837676Y-92248076D01*
X123742438Y-92295695D01*
X144809580Y-72491504D02*
X145619104Y-72491504D01*
X145714342Y-72443885D01*
X145761961Y-72396266D01*
X145809580Y-72301028D01*
X145809580Y-72110552D01*
X145761961Y-72015314D01*
X145714342Y-71967695D01*
X145619104Y-71920076D01*
X144809580Y-71920076D01*
X144904819Y-71491504D02*
X144857200Y-71443885D01*
X144809580Y-71348647D01*
X144809580Y-71110552D01*
X144857200Y-71015314D01*
X144904819Y-70967695D01*
X145000057Y-70920076D01*
X145095295Y-70920076D01*
X145238152Y-70967695D01*
X145809580Y-71539123D01*
X145809580Y-70920076D01*
X140244533Y-58262780D02*
X139911200Y-57786590D01*
X139673104Y-58262780D02*
X139673104Y-57262780D01*
X140054057Y-57262780D01*
X140149295Y-57310400D01*
X140196914Y-57358019D01*
X140244533Y-57453257D01*
X140244533Y-57596114D01*
X140196914Y-57691352D01*
X140149295Y-57738971D01*
X140054057Y-57786590D01*
X139673104Y-57786590D01*
X141196914Y-58262780D02*
X140625485Y-58262780D01*
X140911200Y-58262780D02*
X140911200Y-57262780D01*
X140815961Y-57405638D01*
X140720723Y-57500876D01*
X140625485Y-57548495D01*
X140193733Y-63291980D02*
X139860400Y-62815790D01*
X139622304Y-63291980D02*
X139622304Y-62291980D01*
X140003257Y-62291980D01*
X140098495Y-62339600D01*
X140146114Y-62387219D01*
X140193733Y-62482457D01*
X140193733Y-62625314D01*
X140146114Y-62720552D01*
X140098495Y-62768171D01*
X140003257Y-62815790D01*
X139622304Y-62815790D01*
X140574685Y-62387219D02*
X140622304Y-62339600D01*
X140717542Y-62291980D01*
X140955638Y-62291980D01*
X141050876Y-62339600D01*
X141098495Y-62387219D01*
X141146114Y-62482457D01*
X141146114Y-62577695D01*
X141098495Y-62720552D01*
X140527066Y-63291980D01*
X141146114Y-63291980D01*
X140142933Y-67762380D02*
X139809600Y-67286190D01*
X139571504Y-67762380D02*
X139571504Y-66762380D01*
X139952457Y-66762380D01*
X140047695Y-66810000D01*
X140095314Y-66857619D01*
X140142933Y-66952857D01*
X140142933Y-67095714D01*
X140095314Y-67190952D01*
X140047695Y-67238571D01*
X139952457Y-67286190D01*
X139571504Y-67286190D01*
X140476266Y-66762380D02*
X141095314Y-66762380D01*
X140761980Y-67143333D01*
X140904838Y-67143333D01*
X141000076Y-67190952D01*
X141047695Y-67238571D01*
X141095314Y-67333809D01*
X141095314Y-67571904D01*
X141047695Y-67667142D01*
X141000076Y-67714761D01*
X140904838Y-67762380D01*
X140619123Y-67762380D01*
X140523885Y-67714761D01*
X140476266Y-67667142D01*
X140244533Y-72435980D02*
X139911200Y-71959790D01*
X139673104Y-72435980D02*
X139673104Y-71435980D01*
X140054057Y-71435980D01*
X140149295Y-71483600D01*
X140196914Y-71531219D01*
X140244533Y-71626457D01*
X140244533Y-71769314D01*
X140196914Y-71864552D01*
X140149295Y-71912171D01*
X140054057Y-71959790D01*
X139673104Y-71959790D01*
X141101676Y-71769314D02*
X141101676Y-72435980D01*
X140863580Y-71388361D02*
X140625485Y-72102647D01*
X141244533Y-72102647D01*
X140346133Y-77312780D02*
X140012800Y-76836590D01*
X139774704Y-77312780D02*
X139774704Y-76312780D01*
X140155657Y-76312780D01*
X140250895Y-76360400D01*
X140298514Y-76408019D01*
X140346133Y-76503257D01*
X140346133Y-76646114D01*
X140298514Y-76741352D01*
X140250895Y-76788971D01*
X140155657Y-76836590D01*
X139774704Y-76836590D01*
X141250895Y-76312780D02*
X140774704Y-76312780D01*
X140727085Y-76788971D01*
X140774704Y-76741352D01*
X140869942Y-76693733D01*
X141108038Y-76693733D01*
X141203276Y-76741352D01*
X141250895Y-76788971D01*
X141298514Y-76884209D01*
X141298514Y-77122304D01*
X141250895Y-77217542D01*
X141203276Y-77265161D01*
X141108038Y-77312780D01*
X140869942Y-77312780D01*
X140774704Y-77265161D01*
X140727085Y-77217542D01*
X140549333Y-86913980D02*
X140216000Y-86437790D01*
X139977904Y-86913980D02*
X139977904Y-85913980D01*
X140358857Y-85913980D01*
X140454095Y-85961600D01*
X140501714Y-86009219D01*
X140549333Y-86104457D01*
X140549333Y-86247314D01*
X140501714Y-86342552D01*
X140454095Y-86390171D01*
X140358857Y-86437790D01*
X139977904Y-86437790D01*
X140882666Y-85913980D02*
X141549333Y-85913980D01*
X141120761Y-86913980D01*
X113347580Y-86577466D02*
X112871390Y-86910800D01*
X113347580Y-87148895D02*
X112347580Y-87148895D01*
X112347580Y-86767942D01*
X112395200Y-86672704D01*
X112442819Y-86625085D01*
X112538057Y-86577466D01*
X112680914Y-86577466D01*
X112776152Y-86625085D01*
X112823771Y-86672704D01*
X112871390Y-86767942D01*
X112871390Y-87148895D01*
X112776152Y-86006038D02*
X112728533Y-86101276D01*
X112680914Y-86148895D01*
X112585676Y-86196514D01*
X112538057Y-86196514D01*
X112442819Y-86148895D01*
X112395200Y-86101276D01*
X112347580Y-86006038D01*
X112347580Y-85815561D01*
X112395200Y-85720323D01*
X112442819Y-85672704D01*
X112538057Y-85625085D01*
X112585676Y-85625085D01*
X112680914Y-85672704D01*
X112728533Y-85720323D01*
X112776152Y-85815561D01*
X112776152Y-86006038D01*
X112823771Y-86101276D01*
X112871390Y-86148895D01*
X112966628Y-86196514D01*
X113157104Y-86196514D01*
X113252342Y-86148895D01*
X113299961Y-86101276D01*
X113347580Y-86006038D01*
X113347580Y-85815561D01*
X113299961Y-85720323D01*
X113252342Y-85672704D01*
X113157104Y-85625085D01*
X112966628Y-85625085D01*
X112871390Y-85672704D01*
X112823771Y-85720323D01*
X112776152Y-85815561D01*
X149744133Y-43970380D02*
X149410800Y-43494190D01*
X149172704Y-43970380D02*
X149172704Y-42970380D01*
X149553657Y-42970380D01*
X149648895Y-43018000D01*
X149696514Y-43065619D01*
X149744133Y-43160857D01*
X149744133Y-43303714D01*
X149696514Y-43398952D01*
X149648895Y-43446571D01*
X149553657Y-43494190D01*
X149172704Y-43494190D01*
X150220323Y-43970380D02*
X150410800Y-43970380D01*
X150506038Y-43922761D01*
X150553657Y-43875142D01*
X150648895Y-43732285D01*
X150696514Y-43541809D01*
X150696514Y-43160857D01*
X150648895Y-43065619D01*
X150601276Y-43018000D01*
X150506038Y-42970380D01*
X150315561Y-42970380D01*
X150220323Y-43018000D01*
X150172704Y-43065619D01*
X150125085Y-43160857D01*
X150125085Y-43398952D01*
X150172704Y-43494190D01*
X150220323Y-43541809D01*
X150315561Y-43589428D01*
X150506038Y-43589428D01*
X150601276Y-43541809D01*
X150648895Y-43494190D01*
X150696514Y-43398952D01*
X138498342Y-43767180D02*
X138165009Y-43290990D01*
X137926914Y-43767180D02*
X137926914Y-42767180D01*
X138307866Y-42767180D01*
X138403104Y-42814800D01*
X138450723Y-42862419D01*
X138498342Y-42957657D01*
X138498342Y-43100514D01*
X138450723Y-43195752D01*
X138403104Y-43243371D01*
X138307866Y-43290990D01*
X137926914Y-43290990D01*
X139450723Y-43767180D02*
X138879295Y-43767180D01*
X139165009Y-43767180D02*
X139165009Y-42767180D01*
X139069771Y-42910038D01*
X138974533Y-43005276D01*
X138879295Y-43052895D01*
X140069771Y-42767180D02*
X140165009Y-42767180D01*
X140260247Y-42814800D01*
X140307866Y-42862419D01*
X140355485Y-42957657D01*
X140403104Y-43148133D01*
X140403104Y-43386228D01*
X140355485Y-43576704D01*
X140307866Y-43671942D01*
X140260247Y-43719561D01*
X140165009Y-43767180D01*
X140069771Y-43767180D01*
X139974533Y-43719561D01*
X139926914Y-43671942D01*
X139879295Y-43576704D01*
X139831676Y-43386228D01*
X139831676Y-43148133D01*
X139879295Y-42957657D01*
X139926914Y-42862419D01*
X139974533Y-42814800D01*
X140069771Y-42767180D01*
X114277580Y-80094057D02*
X113801390Y-80427390D01*
X114277580Y-80665485D02*
X113277580Y-80665485D01*
X113277580Y-80284533D01*
X113325200Y-80189295D01*
X113372819Y-80141676D01*
X113468057Y-80094057D01*
X113610914Y-80094057D01*
X113706152Y-80141676D01*
X113753771Y-80189295D01*
X113801390Y-80284533D01*
X113801390Y-80665485D01*
X114277580Y-79141676D02*
X114277580Y-79713104D01*
X114277580Y-79427390D02*
X113277580Y-79427390D01*
X113420438Y-79522628D01*
X113515676Y-79617866D01*
X113563295Y-79713104D01*
X114277580Y-78189295D02*
X114277580Y-78760723D01*
X114277580Y-78475009D02*
X113277580Y-78475009D01*
X113420438Y-78570247D01*
X113515676Y-78665485D01*
X113563295Y-78760723D01*
X127728742Y-43767180D02*
X127395409Y-43290990D01*
X127157314Y-43767180D02*
X127157314Y-42767180D01*
X127538266Y-42767180D01*
X127633504Y-42814800D01*
X127681123Y-42862419D01*
X127728742Y-42957657D01*
X127728742Y-43100514D01*
X127681123Y-43195752D01*
X127633504Y-43243371D01*
X127538266Y-43290990D01*
X127157314Y-43290990D01*
X128681123Y-43767180D02*
X128109695Y-43767180D01*
X128395409Y-43767180D02*
X128395409Y-42767180D01*
X128300171Y-42910038D01*
X128204933Y-43005276D01*
X128109695Y-43052895D01*
X129062076Y-42862419D02*
X129109695Y-42814800D01*
X129204933Y-42767180D01*
X129443028Y-42767180D01*
X129538266Y-42814800D01*
X129585885Y-42862419D01*
X129633504Y-42957657D01*
X129633504Y-43052895D01*
X129585885Y-43195752D01*
X129014457Y-43767180D01*
X129633504Y-43767180D01*
X117162342Y-39027180D02*
X116829009Y-38550990D01*
X116590914Y-39027180D02*
X116590914Y-38027180D01*
X116971866Y-38027180D01*
X117067104Y-38074800D01*
X117114723Y-38122419D01*
X117162342Y-38217657D01*
X117162342Y-38360514D01*
X117114723Y-38455752D01*
X117067104Y-38503371D01*
X116971866Y-38550990D01*
X116590914Y-38550990D01*
X118114723Y-39027180D02*
X117543295Y-39027180D01*
X117829009Y-39027180D02*
X117829009Y-38027180D01*
X117733771Y-38170038D01*
X117638533Y-38265276D01*
X117543295Y-38312895D01*
X118971866Y-38360514D02*
X118971866Y-39027180D01*
X118733771Y-37979561D02*
X118495676Y-38693847D01*
X119114723Y-38693847D01*
X159833961Y-50201733D02*
X159881580Y-50058876D01*
X159881580Y-49820780D01*
X159833961Y-49725542D01*
X159786342Y-49677923D01*
X159691104Y-49630304D01*
X159595866Y-49630304D01*
X159500628Y-49677923D01*
X159453009Y-49725542D01*
X159405390Y-49820780D01*
X159357771Y-50011257D01*
X159310152Y-50106495D01*
X159262533Y-50154114D01*
X159167295Y-50201733D01*
X159072057Y-50201733D01*
X158976819Y-50154114D01*
X158929200Y-50106495D01*
X158881580Y-50011257D01*
X158881580Y-49773161D01*
X158929200Y-49630304D01*
X158881580Y-49296971D02*
X159881580Y-49058876D01*
X159167295Y-48868400D01*
X159881580Y-48677923D01*
X158881580Y-48439828D01*
X159881580Y-47535066D02*
X159881580Y-48106495D01*
X159881580Y-47820780D02*
X158881580Y-47820780D01*
X159024438Y-47916019D01*
X159119676Y-48011257D01*
X159167295Y-48106495D01*
X150639161Y-50506533D02*
X150686780Y-50363676D01*
X150686780Y-50125580D01*
X150639161Y-50030342D01*
X150591542Y-49982723D01*
X150496304Y-49935104D01*
X150401066Y-49935104D01*
X150305828Y-49982723D01*
X150258209Y-50030342D01*
X150210590Y-50125580D01*
X150162971Y-50316057D01*
X150115352Y-50411295D01*
X150067733Y-50458914D01*
X149972495Y-50506533D01*
X149877257Y-50506533D01*
X149782019Y-50458914D01*
X149734400Y-50411295D01*
X149686780Y-50316057D01*
X149686780Y-50077961D01*
X149734400Y-49935104D01*
X149686780Y-49601771D02*
X150686780Y-49363676D01*
X149972495Y-49173200D01*
X150686780Y-48982723D01*
X149686780Y-48744628D01*
X149782019Y-48411295D02*
X149734400Y-48363676D01*
X149686780Y-48268438D01*
X149686780Y-48030342D01*
X149734400Y-47935104D01*
X149782019Y-47887485D01*
X149877257Y-47839866D01*
X149972495Y-47839866D01*
X150115352Y-47887485D01*
X150686780Y-48458914D01*
X150686780Y-47839866D01*
X141393561Y-50608133D02*
X141441180Y-50465276D01*
X141441180Y-50227180D01*
X141393561Y-50131942D01*
X141345942Y-50084323D01*
X141250704Y-50036704D01*
X141155466Y-50036704D01*
X141060228Y-50084323D01*
X141012609Y-50131942D01*
X140964990Y-50227180D01*
X140917371Y-50417657D01*
X140869752Y-50512895D01*
X140822133Y-50560514D01*
X140726895Y-50608133D01*
X140631657Y-50608133D01*
X140536419Y-50560514D01*
X140488800Y-50512895D01*
X140441180Y-50417657D01*
X140441180Y-50179561D01*
X140488800Y-50036704D01*
X140441180Y-49703371D02*
X141441180Y-49465276D01*
X140726895Y-49274800D01*
X141441180Y-49084323D01*
X140441180Y-48846228D01*
X140441180Y-48560514D02*
X140441180Y-47941466D01*
X140822133Y-48274800D01*
X140822133Y-48131942D01*
X140869752Y-48036704D01*
X140917371Y-47989085D01*
X141012609Y-47941466D01*
X141250704Y-47941466D01*
X141345942Y-47989085D01*
X141393561Y-48036704D01*
X141441180Y-48131942D01*
X141441180Y-48417657D01*
X141393561Y-48512895D01*
X141345942Y-48560514D01*
X132401961Y-50608133D02*
X132449580Y-50465276D01*
X132449580Y-50227180D01*
X132401961Y-50131942D01*
X132354342Y-50084323D01*
X132259104Y-50036704D01*
X132163866Y-50036704D01*
X132068628Y-50084323D01*
X132021009Y-50131942D01*
X131973390Y-50227180D01*
X131925771Y-50417657D01*
X131878152Y-50512895D01*
X131830533Y-50560514D01*
X131735295Y-50608133D01*
X131640057Y-50608133D01*
X131544819Y-50560514D01*
X131497200Y-50512895D01*
X131449580Y-50417657D01*
X131449580Y-50179561D01*
X131497200Y-50036704D01*
X131449580Y-49703371D02*
X132449580Y-49465276D01*
X131735295Y-49274800D01*
X132449580Y-49084323D01*
X131449580Y-48846228D01*
X131782914Y-48036704D02*
X132449580Y-48036704D01*
X131401961Y-48274800D02*
X132116247Y-48512895D01*
X132116247Y-47893847D01*
X101535466Y-68153161D02*
X101678323Y-68200780D01*
X101916419Y-68200780D01*
X102011657Y-68153161D01*
X102059276Y-68105542D01*
X102106895Y-68010304D01*
X102106895Y-67915066D01*
X102059276Y-67819828D01*
X102011657Y-67772209D01*
X101916419Y-67724590D01*
X101725942Y-67676971D01*
X101630704Y-67629352D01*
X101583085Y-67581733D01*
X101535466Y-67486495D01*
X101535466Y-67391257D01*
X101583085Y-67296019D01*
X101630704Y-67248400D01*
X101725942Y-67200780D01*
X101964038Y-67200780D01*
X102106895Y-67248400D01*
X102440228Y-67200780D02*
X102678323Y-68200780D01*
X102868800Y-67486495D01*
X103059276Y-68200780D01*
X103297371Y-67200780D01*
X104106895Y-67200780D02*
X103916419Y-67200780D01*
X103821180Y-67248400D01*
X103773561Y-67296019D01*
X103678323Y-67438876D01*
X103630704Y-67629352D01*
X103630704Y-68010304D01*
X103678323Y-68105542D01*
X103725942Y-68153161D01*
X103821180Y-68200780D01*
X104011657Y-68200780D01*
X104106895Y-68153161D01*
X104154514Y-68105542D01*
X104202133Y-68010304D01*
X104202133Y-67772209D01*
X104154514Y-67676971D01*
X104106895Y-67629352D01*
X104011657Y-67581733D01*
X103821180Y-67581733D01*
X103725942Y-67629352D01*
X103678323Y-67676971D01*
X103630704Y-67772209D01*
X101992666Y-58602761D02*
X102135523Y-58650380D01*
X102373619Y-58650380D01*
X102468857Y-58602761D01*
X102516476Y-58555142D01*
X102564095Y-58459904D01*
X102564095Y-58364666D01*
X102516476Y-58269428D01*
X102468857Y-58221809D01*
X102373619Y-58174190D01*
X102183142Y-58126571D01*
X102087904Y-58078952D01*
X102040285Y-58031333D01*
X101992666Y-57936095D01*
X101992666Y-57840857D01*
X102040285Y-57745619D01*
X102087904Y-57698000D01*
X102183142Y-57650380D01*
X102421238Y-57650380D01*
X102564095Y-57698000D01*
X102897428Y-57650380D02*
X103135523Y-58650380D01*
X103326000Y-57936095D01*
X103516476Y-58650380D01*
X103754571Y-57650380D01*
X104040285Y-57650380D02*
X104706952Y-57650380D01*
X104278380Y-58650380D01*
X123190095Y-57879180D02*
X123190095Y-58688704D01*
X123237714Y-58783942D01*
X123285333Y-58831561D01*
X123380571Y-58879180D01*
X123571047Y-58879180D01*
X123666285Y-58831561D01*
X123713904Y-58783942D01*
X123761523Y-58688704D01*
X123761523Y-57879180D01*
X124761523Y-58879180D02*
X124190095Y-58879180D01*
X124475809Y-58879180D02*
X124475809Y-57879180D01*
X124380571Y-58022038D01*
X124285333Y-58117276D01*
X124190095Y-58164895D01*
M02*
